G04 EAGLE Gerber X2 export*
%TF.Part,Single*%
%TF.FileFunction,Paste,Bot*%
%TF.FilePolarity,Positive*%
%TF.GenerationSoftware,Autodesk,EAGLE,9.0.1*%
%TF.CreationDate,2019-02-14T11:46:10Z*%
G75*
%MOMM*%
%FSLAX34Y34*%
%LPD*%
%AMOC8*
5,1,8,0,0,1.08239X$1,22.5*%
G01*
%ADD10C,0.105156*%


D10*
X117188Y413291D02*
X126652Y413291D01*
X126652Y399509D01*
X117188Y399509D01*
X117188Y413291D01*
X117188Y400560D02*
X126652Y400560D01*
X126652Y401611D02*
X117188Y401611D01*
X117188Y402662D02*
X126652Y402662D01*
X126652Y403713D02*
X117188Y403713D01*
X117188Y404764D02*
X126652Y404764D01*
X126652Y405815D02*
X117188Y405815D01*
X117188Y406866D02*
X126652Y406866D01*
X126652Y407917D02*
X117188Y407917D01*
X117188Y408968D02*
X126652Y408968D01*
X126652Y410019D02*
X117188Y410019D01*
X117188Y411070D02*
X126652Y411070D01*
X126652Y412121D02*
X117188Y412121D01*
X117188Y413172D02*
X126652Y413172D01*
X111412Y413291D02*
X101948Y413291D01*
X111412Y413291D02*
X111412Y399509D01*
X101948Y399509D01*
X101948Y413291D01*
X101948Y400560D02*
X111412Y400560D01*
X111412Y401611D02*
X101948Y401611D01*
X101948Y402662D02*
X111412Y402662D01*
X111412Y403713D02*
X101948Y403713D01*
X101948Y404764D02*
X111412Y404764D01*
X111412Y405815D02*
X101948Y405815D01*
X101948Y406866D02*
X111412Y406866D01*
X111412Y407917D02*
X101948Y407917D01*
X101948Y408968D02*
X111412Y408968D01*
X111412Y410019D02*
X101948Y410019D01*
X101948Y411070D02*
X111412Y411070D01*
X111412Y412121D02*
X101948Y412121D01*
X101948Y413172D02*
X111412Y413172D01*
M02*
