G04 EAGLE Gerber X2 export*
%TF.Part,Single*%
%TF.FileFunction,Copper,L2,Bot,Mixed*%
%TF.FilePolarity,Positive*%
%TF.GenerationSoftware,Autodesk,EAGLE,9.0.1*%
%TF.CreationDate,2019-02-14T11:46:10Z*%
G75*
%MOMM*%
%FSLAX34Y34*%
%LPD*%
%AMOC8*
5,1,8,0,0,1.08239X$1,22.5*%
G01*
%ADD10C,0.127000*%
%ADD11C,1.422400*%
%ADD12P,1.677704X8X292.500000*%
%ADD13P,4.329560X8X202.500000*%
%ADD14P,4.329560X8X112.500000*%
%ADD15C,1.950000*%
%ADD16P,1.814519X8X292.500000*%
%ADD17C,3.216000*%
%ADD18P,1.677704X8X202.500000*%
%ADD19C,0.116838*%
%ADD20P,1.814519X8X112.500000*%
%ADD21C,0.812800*%
%ADD22C,0.609600*%
%ADD23P,1.319650X8X22.500000*%
%ADD24C,0.304800*%
%ADD25C,0.406400*%
%ADD26C,0.254000*%
%ADD27C,0.381000*%

G36*
X122835Y7879D02*
X122835Y7879D01*
X122865Y7876D01*
X122976Y7899D01*
X123088Y7915D01*
X123115Y7927D01*
X123143Y7932D01*
X123244Y7985D01*
X123347Y8031D01*
X123370Y8050D01*
X123396Y8063D01*
X123478Y8141D01*
X123564Y8214D01*
X123581Y8239D01*
X123602Y8259D01*
X123659Y8357D01*
X123722Y8451D01*
X123731Y8479D01*
X123746Y8504D01*
X123773Y8614D01*
X123808Y8722D01*
X123808Y8752D01*
X123816Y8780D01*
X123812Y8893D01*
X123815Y9006D01*
X123808Y9035D01*
X123807Y9064D01*
X123772Y9172D01*
X123743Y9281D01*
X123728Y9307D01*
X123719Y9335D01*
X123674Y9398D01*
X123598Y9526D01*
X123552Y9569D01*
X123524Y9608D01*
X120537Y12595D01*
X117095Y20904D01*
X117095Y29896D01*
X120537Y38205D01*
X126895Y44563D01*
X135204Y48005D01*
X144196Y48005D01*
X152505Y44563D01*
X158863Y38205D01*
X162305Y29896D01*
X162305Y20904D01*
X158863Y12595D01*
X155876Y9608D01*
X155858Y9584D01*
X155836Y9565D01*
X155773Y9471D01*
X155705Y9381D01*
X155694Y9353D01*
X155678Y9329D01*
X155644Y9221D01*
X155604Y9115D01*
X155601Y9086D01*
X155592Y9058D01*
X155589Y8944D01*
X155580Y8832D01*
X155586Y8803D01*
X155585Y8774D01*
X155614Y8664D01*
X155636Y8553D01*
X155649Y8527D01*
X155657Y8499D01*
X155715Y8401D01*
X155767Y8301D01*
X155787Y8279D01*
X155802Y8254D01*
X155885Y8177D01*
X155963Y8095D01*
X155988Y8080D01*
X156009Y8060D01*
X156110Y8008D01*
X156208Y7951D01*
X156236Y7944D01*
X156263Y7930D01*
X156340Y7917D01*
X156484Y7881D01*
X156546Y7883D01*
X156594Y7875D01*
X650400Y7875D01*
X650456Y7883D01*
X650500Y7880D01*
X650716Y7901D01*
X650992Y7968D01*
X650999Y7972D01*
X651005Y7973D01*
X651405Y8139D01*
X651432Y8155D01*
X651461Y8164D01*
X651525Y8210D01*
X651650Y8284D01*
X651694Y8330D01*
X651735Y8359D01*
X652041Y8665D01*
X652059Y8690D01*
X652083Y8710D01*
X652125Y8777D01*
X652212Y8893D01*
X652235Y8953D01*
X652261Y8995D01*
X652427Y9395D01*
X652498Y9670D01*
X652497Y9678D01*
X652499Y9684D01*
X652520Y9900D01*
X652518Y9957D01*
X652525Y10000D01*
X652525Y26966D01*
X653724Y29861D01*
X656082Y32219D01*
X677628Y53764D01*
X677680Y53834D01*
X677740Y53898D01*
X677766Y53948D01*
X677799Y53992D01*
X677830Y54073D01*
X677870Y54151D01*
X677878Y54199D01*
X677900Y54257D01*
X677912Y54405D01*
X677925Y54482D01*
X677925Y59306D01*
X677921Y59335D01*
X677924Y59365D01*
X677901Y59476D01*
X677885Y59588D01*
X677873Y59615D01*
X677868Y59643D01*
X677815Y59744D01*
X677769Y59847D01*
X677750Y59870D01*
X677737Y59896D01*
X677659Y59978D01*
X677586Y60064D01*
X677561Y60081D01*
X677541Y60102D01*
X677443Y60159D01*
X677349Y60222D01*
X677321Y60231D01*
X677296Y60246D01*
X677186Y60273D01*
X677078Y60308D01*
X677048Y60308D01*
X677020Y60316D01*
X676907Y60312D01*
X676794Y60315D01*
X676765Y60308D01*
X676736Y60307D01*
X676628Y60272D01*
X676519Y60243D01*
X676493Y60228D01*
X676465Y60219D01*
X676402Y60174D01*
X676274Y60098D01*
X676231Y60052D01*
X676192Y60024D01*
X673205Y57037D01*
X664896Y53595D01*
X655904Y53595D01*
X647595Y57037D01*
X641237Y63395D01*
X637795Y71704D01*
X637795Y80696D01*
X641237Y89005D01*
X647595Y95363D01*
X655904Y98805D01*
X664896Y98805D01*
X673205Y95363D01*
X676192Y92376D01*
X676216Y92358D01*
X676235Y92336D01*
X676329Y92273D01*
X676419Y92205D01*
X676447Y92194D01*
X676471Y92178D01*
X676579Y92144D01*
X676685Y92104D01*
X676714Y92101D01*
X676742Y92092D01*
X676856Y92089D01*
X676968Y92080D01*
X676997Y92086D01*
X677026Y92085D01*
X677136Y92114D01*
X677247Y92136D01*
X677273Y92149D01*
X677301Y92157D01*
X677399Y92215D01*
X677499Y92267D01*
X677521Y92287D01*
X677546Y92302D01*
X677623Y92385D01*
X677705Y92463D01*
X677720Y92488D01*
X677740Y92509D01*
X677792Y92610D01*
X677849Y92708D01*
X677856Y92736D01*
X677870Y92763D01*
X677883Y92840D01*
X677919Y92984D01*
X677917Y93046D01*
X677925Y93094D01*
X677925Y338706D01*
X677921Y338735D01*
X677924Y338765D01*
X677901Y338876D01*
X677885Y338988D01*
X677873Y339015D01*
X677868Y339043D01*
X677815Y339144D01*
X677769Y339247D01*
X677750Y339270D01*
X677737Y339296D01*
X677659Y339378D01*
X677586Y339464D01*
X677561Y339481D01*
X677541Y339502D01*
X677443Y339559D01*
X677349Y339622D01*
X677321Y339631D01*
X677296Y339646D01*
X677186Y339673D01*
X677078Y339708D01*
X677048Y339708D01*
X677020Y339716D01*
X676907Y339712D01*
X676794Y339715D01*
X676765Y339708D01*
X676736Y339707D01*
X676628Y339672D01*
X676519Y339643D01*
X676493Y339628D01*
X676465Y339619D01*
X676402Y339574D01*
X676274Y339498D01*
X676231Y339452D01*
X676192Y339424D01*
X673205Y336437D01*
X664896Y332995D01*
X655904Y332995D01*
X647595Y336437D01*
X641237Y342795D01*
X637795Y351104D01*
X637795Y360096D01*
X641237Y368405D01*
X647595Y374763D01*
X655904Y378205D01*
X664896Y378205D01*
X673205Y374763D01*
X676192Y371776D01*
X676216Y371758D01*
X676235Y371736D01*
X676329Y371673D01*
X676419Y371605D01*
X676447Y371594D01*
X676471Y371578D01*
X676579Y371544D01*
X676685Y371504D01*
X676714Y371501D01*
X676742Y371492D01*
X676856Y371489D01*
X676968Y371480D01*
X676997Y371486D01*
X677026Y371485D01*
X677136Y371514D01*
X677247Y371536D01*
X677273Y371549D01*
X677301Y371557D01*
X677399Y371615D01*
X677499Y371667D01*
X677521Y371687D01*
X677546Y371702D01*
X677623Y371785D01*
X677705Y371863D01*
X677720Y371888D01*
X677740Y371909D01*
X677792Y372010D01*
X677849Y372108D01*
X677856Y372136D01*
X677870Y372163D01*
X677883Y372240D01*
X677919Y372384D01*
X677917Y372446D01*
X677925Y372494D01*
X677925Y374778D01*
X677913Y374864D01*
X677910Y374952D01*
X677893Y375004D01*
X677885Y375059D01*
X677850Y375139D01*
X677823Y375222D01*
X677795Y375261D01*
X677769Y375319D01*
X677673Y375432D01*
X677628Y375496D01*
X656082Y397041D01*
X653724Y399399D01*
X652525Y402294D01*
X652525Y514478D01*
X652513Y514564D01*
X652510Y514652D01*
X652493Y514704D01*
X652485Y514759D01*
X652450Y514839D01*
X652449Y514840D01*
X652440Y514876D01*
X652435Y514884D01*
X652423Y514922D01*
X652395Y514961D01*
X652369Y515019D01*
X652322Y515074D01*
X652295Y515120D01*
X652255Y515158D01*
X652228Y515196D01*
X642196Y525228D01*
X642126Y525280D01*
X642062Y525340D01*
X642012Y525366D01*
X641968Y525399D01*
X641887Y525430D01*
X641809Y525470D01*
X641761Y525478D01*
X641703Y525500D01*
X641555Y525512D01*
X641478Y525525D01*
X169294Y525525D01*
X169265Y525521D01*
X169235Y525524D01*
X169124Y525501D01*
X169012Y525485D01*
X168985Y525473D01*
X168957Y525468D01*
X168856Y525415D01*
X168753Y525369D01*
X168730Y525350D01*
X168704Y525337D01*
X168622Y525259D01*
X168536Y525186D01*
X168519Y525161D01*
X168498Y525141D01*
X168441Y525043D01*
X168378Y524949D01*
X168369Y524921D01*
X168354Y524896D01*
X168327Y524786D01*
X168292Y524678D01*
X168292Y524648D01*
X168284Y524620D01*
X168288Y524507D01*
X168285Y524394D01*
X168292Y524365D01*
X168293Y524336D01*
X168328Y524228D01*
X168357Y524119D01*
X168372Y524093D01*
X168381Y524065D01*
X168426Y524002D01*
X168502Y523874D01*
X168548Y523831D01*
X168576Y523792D01*
X171563Y520805D01*
X174830Y512918D01*
X174874Y512844D01*
X174909Y512766D01*
X174946Y512722D01*
X174975Y512673D01*
X175037Y512614D01*
X175093Y512549D01*
X175140Y512517D01*
X175181Y512478D01*
X175258Y512439D01*
X175329Y512391D01*
X175383Y512374D01*
X175434Y512348D01*
X175518Y512331D01*
X175600Y512305D01*
X175657Y512304D01*
X175713Y512293D01*
X175798Y512300D01*
X175884Y512298D01*
X175939Y512312D01*
X175996Y512317D01*
X176076Y512348D01*
X176159Y512370D01*
X176208Y512399D01*
X176261Y512419D01*
X176330Y512471D01*
X176404Y512515D01*
X176443Y512557D01*
X176488Y512591D01*
X176539Y512660D01*
X176598Y512722D01*
X176624Y512773D01*
X176658Y512819D01*
X176689Y512899D01*
X176728Y512976D01*
X176736Y513024D01*
X176759Y513085D01*
X176770Y513229D01*
X176783Y513307D01*
X176783Y513779D01*
X178485Y517887D01*
X181629Y521031D01*
X185737Y522733D01*
X190183Y522733D01*
X194291Y521031D01*
X197435Y517887D01*
X199137Y513779D01*
X199137Y504651D01*
X199148Y504569D01*
X199150Y504486D01*
X199168Y504429D01*
X199177Y504370D01*
X199210Y504294D01*
X199235Y504215D01*
X199265Y504172D01*
X199293Y504110D01*
X199383Y504004D01*
X199428Y503940D01*
X200444Y502905D01*
X200471Y502885D01*
X200493Y502859D01*
X200583Y502799D01*
X200669Y502732D01*
X200701Y502720D01*
X200729Y502701D01*
X200833Y502669D01*
X200934Y502629D01*
X200968Y502626D01*
X201000Y502616D01*
X201109Y502613D01*
X201217Y502603D01*
X201251Y502609D01*
X201284Y502608D01*
X201390Y502636D01*
X201497Y502656D01*
X201527Y502672D01*
X201559Y502680D01*
X201653Y502736D01*
X201750Y502785D01*
X201775Y502808D01*
X201804Y502825D01*
X201878Y502905D01*
X201958Y502979D01*
X201975Y503008D01*
X201998Y503033D01*
X202048Y503129D01*
X202104Y503223D01*
X202112Y503256D01*
X202128Y503286D01*
X202141Y503363D01*
X202176Y503498D01*
X202175Y503566D01*
X202183Y503617D01*
X202183Y513779D01*
X203885Y517887D01*
X207029Y521031D01*
X211137Y522733D01*
X215583Y522733D01*
X219691Y521031D01*
X222835Y517887D01*
X224537Y513779D01*
X224537Y509719D01*
X224549Y509633D01*
X224552Y509545D01*
X224569Y509493D01*
X224577Y509438D01*
X224612Y509358D01*
X224639Y509275D01*
X224667Y509236D01*
X224693Y509179D01*
X224789Y509065D01*
X224834Y509002D01*
X225850Y507986D01*
X225874Y507968D01*
X225893Y507945D01*
X225987Y507883D01*
X226077Y507815D01*
X226105Y507804D01*
X226129Y507788D01*
X226237Y507754D01*
X226343Y507713D01*
X226372Y507711D01*
X226400Y507702D01*
X226514Y507699D01*
X226626Y507690D01*
X226655Y507696D01*
X226684Y507695D01*
X226794Y507723D01*
X226905Y507746D01*
X226931Y507759D01*
X226959Y507767D01*
X227057Y507824D01*
X227157Y507877D01*
X227179Y507897D01*
X227204Y507912D01*
X227281Y507995D01*
X227363Y508072D01*
X227378Y508098D01*
X227398Y508119D01*
X227450Y508220D01*
X227507Y508318D01*
X227514Y508346D01*
X227528Y508372D01*
X227541Y508450D01*
X227577Y508593D01*
X227575Y508656D01*
X227583Y508703D01*
X227583Y513779D01*
X229285Y517887D01*
X232429Y521031D01*
X236537Y522733D01*
X240983Y522733D01*
X245091Y521031D01*
X248235Y517887D01*
X249937Y513779D01*
X249937Y502666D01*
X249945Y502608D01*
X249943Y502550D01*
X249965Y502468D01*
X249977Y502384D01*
X250000Y502331D01*
X250015Y502275D01*
X250058Y502202D01*
X250093Y502125D01*
X250131Y502080D01*
X250160Y502030D01*
X250222Y501972D01*
X250276Y501908D01*
X250325Y501876D01*
X250368Y501836D01*
X250443Y501797D01*
X250513Y501750D01*
X250569Y501733D01*
X250621Y501706D01*
X250689Y501695D01*
X250784Y501665D01*
X250884Y501662D01*
X250952Y501651D01*
X253641Y501651D01*
X253776Y501670D01*
X253913Y501688D01*
X253918Y501690D01*
X253922Y501691D01*
X254048Y501747D01*
X254174Y501802D01*
X254177Y501805D01*
X254182Y501807D01*
X254287Y501896D01*
X254392Y501984D01*
X254395Y501988D01*
X254399Y501990D01*
X254475Y502105D01*
X254552Y502219D01*
X254554Y502223D01*
X254556Y502227D01*
X254597Y502357D01*
X254640Y502489D01*
X254640Y502493D01*
X254642Y502498D01*
X254649Y502782D01*
X254643Y502805D01*
X254643Y502825D01*
X254507Y503684D01*
X254507Y505969D01*
X262129Y505969D01*
X262129Y496881D01*
X262141Y496795D01*
X262144Y496707D01*
X262161Y496655D01*
X262169Y496600D01*
X262204Y496520D01*
X262231Y496437D01*
X262259Y496397D01*
X262285Y496340D01*
X262381Y496227D01*
X262426Y496163D01*
X262891Y495699D01*
X262891Y492252D01*
X262899Y492194D01*
X262897Y492136D01*
X262919Y492054D01*
X262931Y491970D01*
X262954Y491917D01*
X262969Y491861D01*
X263012Y491788D01*
X263047Y491711D01*
X263085Y491666D01*
X263114Y491616D01*
X263176Y491558D01*
X263230Y491494D01*
X263279Y491462D01*
X263322Y491422D01*
X263397Y491383D01*
X263467Y491336D01*
X263523Y491319D01*
X263575Y491292D01*
X263643Y491281D01*
X263738Y491251D01*
X263838Y491248D01*
X263906Y491237D01*
X293980Y491237D01*
X294009Y491241D01*
X294038Y491238D01*
X294149Y491261D01*
X294262Y491277D01*
X294288Y491289D01*
X294317Y491294D01*
X294418Y491346D01*
X294521Y491393D01*
X294544Y491412D01*
X294569Y491425D01*
X294652Y491503D01*
X294738Y491576D01*
X294754Y491601D01*
X294776Y491621D01*
X294833Y491719D01*
X294896Y491813D01*
X294905Y491841D01*
X294919Y491866D01*
X294947Y491976D01*
X294981Y492084D01*
X294982Y492114D01*
X294989Y492142D01*
X294986Y492255D01*
X294989Y492368D01*
X294981Y492397D01*
X294980Y492426D01*
X294946Y492534D01*
X294917Y492643D01*
X294902Y492669D01*
X294893Y492697D01*
X294847Y492760D01*
X294772Y492888D01*
X294726Y492931D01*
X294698Y492970D01*
X294114Y493554D01*
X294112Y493555D01*
X294111Y493556D01*
X293993Y493645D01*
X293886Y493725D01*
X293885Y493726D01*
X293884Y493727D01*
X293750Y493777D01*
X293621Y493826D01*
X293619Y493826D01*
X293618Y493827D01*
X293479Y493838D01*
X293338Y493850D01*
X293336Y493850D01*
X293334Y493850D01*
X293320Y493846D01*
X293059Y493794D01*
X293032Y493780D01*
X293007Y493774D01*
X291783Y493267D01*
X287337Y493267D01*
X283229Y494969D01*
X280085Y498113D01*
X278383Y502221D01*
X278383Y513779D01*
X280085Y517887D01*
X283229Y521031D01*
X287337Y522733D01*
X291783Y522733D01*
X295891Y521031D01*
X299035Y517887D01*
X300737Y513779D01*
X300737Y504596D01*
X300749Y504509D01*
X300752Y504422D01*
X300769Y504369D01*
X300777Y504314D01*
X300812Y504235D01*
X300839Y504151D01*
X300867Y504112D01*
X300893Y504055D01*
X300989Y503942D01*
X301034Y503878D01*
X302050Y502862D01*
X302074Y502844D01*
X302093Y502822D01*
X302187Y502759D01*
X302277Y502691D01*
X302305Y502681D01*
X302329Y502664D01*
X302437Y502630D01*
X302543Y502590D01*
X302572Y502587D01*
X302600Y502579D01*
X302714Y502576D01*
X302826Y502566D01*
X302855Y502572D01*
X302884Y502571D01*
X302994Y502600D01*
X303105Y502622D01*
X303131Y502636D01*
X303159Y502643D01*
X303257Y502701D01*
X303357Y502753D01*
X303379Y502773D01*
X303404Y502788D01*
X303481Y502871D01*
X303563Y502949D01*
X303578Y502974D01*
X303598Y502996D01*
X303650Y503097D01*
X303707Y503194D01*
X303714Y503223D01*
X303728Y503249D01*
X303741Y503326D01*
X303777Y503470D01*
X303775Y503532D01*
X303783Y503580D01*
X303783Y513779D01*
X305485Y517887D01*
X308629Y521031D01*
X312737Y522733D01*
X317183Y522733D01*
X321291Y521031D01*
X324435Y517887D01*
X326137Y513779D01*
X326137Y502883D01*
X326147Y502811D01*
X326147Y502739D01*
X326167Y502671D01*
X326177Y502601D01*
X326206Y502536D01*
X326226Y502466D01*
X326260Y502416D01*
X326293Y502342D01*
X326370Y502250D01*
X326413Y502187D01*
X327588Y500938D01*
X327667Y500875D01*
X327741Y500805D01*
X327778Y500786D01*
X327810Y500760D01*
X327904Y500722D01*
X327993Y500675D01*
X328034Y500667D01*
X328073Y500651D01*
X328173Y500640D01*
X328272Y500620D01*
X328314Y500624D01*
X328355Y500619D01*
X328455Y500636D01*
X328556Y500645D01*
X328594Y500660D01*
X328635Y500667D01*
X328727Y500710D01*
X328821Y500747D01*
X328854Y500772D01*
X328891Y500790D01*
X328967Y500857D01*
X329048Y500918D01*
X329072Y500952D01*
X329103Y500979D01*
X329157Y501065D01*
X329218Y501146D01*
X329232Y501185D01*
X329255Y501220D01*
X329282Y501318D01*
X329318Y501412D01*
X329321Y501453D01*
X329333Y501493D01*
X329333Y501595D01*
X329341Y501695D01*
X329333Y501731D01*
X329332Y501778D01*
X329281Y501956D01*
X329265Y502023D01*
X329183Y502221D01*
X329183Y513779D01*
X330885Y517887D01*
X334029Y521031D01*
X338137Y522733D01*
X342583Y522733D01*
X346691Y521031D01*
X349835Y517887D01*
X351537Y513779D01*
X351537Y502056D01*
X351549Y501969D01*
X351552Y501882D01*
X351569Y501829D01*
X351577Y501774D01*
X351612Y501695D01*
X351639Y501611D01*
X351667Y501572D01*
X351693Y501515D01*
X351789Y501402D01*
X351834Y501338D01*
X353542Y499630D01*
X353611Y499578D01*
X353674Y499519D01*
X353724Y499493D01*
X353770Y499459D01*
X353850Y499428D01*
X353926Y499389D01*
X353982Y499378D01*
X354035Y499358D01*
X354121Y499350D01*
X354205Y499334D01*
X354262Y499339D01*
X354319Y499334D01*
X354403Y499351D01*
X354488Y499358D01*
X354542Y499379D01*
X354597Y499390D01*
X354674Y499429D01*
X354754Y499460D01*
X354799Y499495D01*
X354850Y499521D01*
X354912Y499580D01*
X354980Y499632D01*
X355014Y499677D01*
X355056Y499717D01*
X355099Y499791D01*
X355151Y499860D01*
X355171Y499913D01*
X355199Y499962D01*
X355221Y500045D01*
X355251Y500126D01*
X355256Y500182D01*
X355270Y500237D01*
X355267Y500323D01*
X355274Y500409D01*
X355263Y500457D01*
X355261Y500522D01*
X355216Y500659D01*
X355198Y500736D01*
X354583Y502221D01*
X354583Y513779D01*
X356285Y517887D01*
X359429Y521031D01*
X363537Y522733D01*
X367983Y522733D01*
X372091Y521031D01*
X375235Y517887D01*
X376937Y513779D01*
X376937Y502056D01*
X376949Y501969D01*
X376952Y501882D01*
X376969Y501829D01*
X376977Y501774D01*
X377012Y501695D01*
X377039Y501611D01*
X377067Y501572D01*
X377093Y501515D01*
X377189Y501402D01*
X377234Y501338D01*
X378942Y499630D01*
X379011Y499578D01*
X379074Y499519D01*
X379124Y499493D01*
X379170Y499459D01*
X379250Y499428D01*
X379326Y499389D01*
X379382Y499378D01*
X379435Y499358D01*
X379521Y499350D01*
X379605Y499334D01*
X379662Y499339D01*
X379719Y499334D01*
X379803Y499351D01*
X379888Y499358D01*
X379942Y499379D01*
X379997Y499390D01*
X380074Y499429D01*
X380154Y499460D01*
X380199Y499495D01*
X380250Y499521D01*
X380312Y499580D01*
X380380Y499632D01*
X380414Y499677D01*
X380456Y499717D01*
X380499Y499791D01*
X380551Y499860D01*
X380571Y499913D01*
X380599Y499962D01*
X380621Y500045D01*
X380651Y500126D01*
X380656Y500182D01*
X380670Y500237D01*
X380667Y500323D01*
X380674Y500409D01*
X380663Y500457D01*
X380661Y500522D01*
X380616Y500659D01*
X380598Y500736D01*
X379983Y502221D01*
X379983Y513779D01*
X381685Y517887D01*
X384829Y521031D01*
X388937Y522733D01*
X393383Y522733D01*
X397491Y521031D01*
X400635Y517887D01*
X402337Y513779D01*
X402337Y503326D01*
X402349Y503239D01*
X402352Y503152D01*
X402369Y503099D01*
X402377Y503044D01*
X402412Y502965D01*
X402422Y502935D01*
X402424Y502925D01*
X402426Y502923D01*
X402439Y502881D01*
X402467Y502842D01*
X402493Y502785D01*
X402543Y502726D01*
X402570Y502681D01*
X402607Y502646D01*
X402634Y502608D01*
X403650Y501592D01*
X403674Y501574D01*
X403693Y501552D01*
X403787Y501489D01*
X403877Y501421D01*
X403905Y501411D01*
X403929Y501394D01*
X404037Y501360D01*
X404143Y501320D01*
X404172Y501317D01*
X404200Y501309D01*
X404314Y501306D01*
X404426Y501296D01*
X404455Y501302D01*
X404484Y501301D01*
X404594Y501330D01*
X404705Y501352D01*
X404731Y501366D01*
X404759Y501373D01*
X404857Y501431D01*
X404957Y501483D01*
X404979Y501503D01*
X405004Y501518D01*
X405081Y501601D01*
X405163Y501679D01*
X405178Y501704D01*
X405198Y501726D01*
X405250Y501827D01*
X405307Y501924D01*
X405314Y501953D01*
X405328Y501979D01*
X405341Y502056D01*
X405377Y502200D01*
X405375Y502262D01*
X405383Y502310D01*
X405383Y513779D01*
X407085Y517887D01*
X410229Y521031D01*
X414337Y522733D01*
X418783Y522733D01*
X422891Y521031D01*
X426035Y517887D01*
X427737Y513779D01*
X427737Y502221D01*
X426035Y498113D01*
X425494Y497572D01*
X425442Y497502D01*
X425382Y497438D01*
X425356Y497389D01*
X425323Y497345D01*
X425292Y497263D01*
X425252Y497185D01*
X425244Y497138D01*
X425222Y497079D01*
X425210Y496931D01*
X425197Y496854D01*
X425197Y302920D01*
X425201Y302891D01*
X425198Y302862D01*
X425221Y302751D01*
X425237Y302638D01*
X425249Y302612D01*
X425254Y302583D01*
X425306Y302482D01*
X425353Y302379D01*
X425372Y302356D01*
X425385Y302331D01*
X425463Y302248D01*
X425536Y302162D01*
X425561Y302146D01*
X425581Y302124D01*
X425679Y302067D01*
X425773Y302004D01*
X425801Y301995D01*
X425826Y301981D01*
X425936Y301953D01*
X426044Y301919D01*
X426074Y301918D01*
X426102Y301911D01*
X426215Y301914D01*
X426328Y301911D01*
X426357Y301919D01*
X426386Y301920D01*
X426494Y301954D01*
X426603Y301983D01*
X426629Y301998D01*
X426657Y302007D01*
X426720Y302053D01*
X426848Y302128D01*
X426891Y302174D01*
X426930Y302202D01*
X457156Y332428D01*
X457208Y332498D01*
X457268Y332562D01*
X457294Y332611D01*
X457327Y332655D01*
X457358Y332737D01*
X457398Y332815D01*
X457406Y332862D01*
X457428Y332921D01*
X457440Y333069D01*
X457453Y333146D01*
X457453Y491084D01*
X457441Y491171D01*
X457438Y491258D01*
X457421Y491311D01*
X457413Y491366D01*
X457378Y491445D01*
X457351Y491529D01*
X457323Y491568D01*
X457297Y491625D01*
X457201Y491738D01*
X457184Y491762D01*
X457180Y491770D01*
X457177Y491772D01*
X457156Y491802D01*
X455988Y492970D01*
X455918Y493022D01*
X455854Y493082D01*
X455805Y493108D01*
X455761Y493141D01*
X455679Y493172D01*
X455601Y493212D01*
X455554Y493220D01*
X455495Y493242D01*
X455347Y493254D01*
X455270Y493267D01*
X454977Y493267D01*
X450869Y494969D01*
X447725Y498113D01*
X446023Y502221D01*
X446023Y513779D01*
X447725Y517887D01*
X450869Y521031D01*
X454977Y522733D01*
X459423Y522733D01*
X463531Y521031D01*
X466675Y517887D01*
X468377Y513779D01*
X468377Y502221D01*
X467349Y499740D01*
X467349Y499738D01*
X467348Y499737D01*
X467314Y499602D01*
X467278Y499464D01*
X467278Y499463D01*
X467278Y499461D01*
X467282Y499320D01*
X467286Y499180D01*
X467287Y499179D01*
X467287Y499177D01*
X467330Y499044D01*
X467373Y498909D01*
X467374Y498908D01*
X467374Y498906D01*
X467383Y498894D01*
X467531Y498673D01*
X467555Y498653D01*
X467569Y498633D01*
X468045Y498157D01*
X468136Y498088D01*
X468225Y498014D01*
X468250Y498003D01*
X468272Y497986D01*
X468379Y497945D01*
X468484Y497899D01*
X468512Y497895D01*
X468538Y497885D01*
X468652Y497876D01*
X468766Y497860D01*
X468794Y497864D01*
X468821Y497861D01*
X468934Y497884D01*
X469047Y497900D01*
X469073Y497912D01*
X469100Y497917D01*
X469202Y497970D01*
X469306Y498018D01*
X469328Y498036D01*
X469352Y498048D01*
X469435Y498127D01*
X469523Y498202D01*
X469536Y498223D01*
X469558Y498244D01*
X469693Y498474D01*
X469701Y498487D01*
X469811Y498754D01*
X471487Y500429D01*
X471488Y500430D01*
X471489Y500431D01*
X471574Y500545D01*
X471658Y500656D01*
X471659Y500658D01*
X471659Y500659D01*
X471708Y500788D01*
X471759Y500922D01*
X471759Y500924D01*
X471760Y500925D01*
X471771Y501063D01*
X471783Y501205D01*
X471782Y501207D01*
X471783Y501208D01*
X471779Y501223D01*
X471727Y501484D01*
X471713Y501511D01*
X471707Y501536D01*
X471423Y502221D01*
X471423Y513779D01*
X473125Y517887D01*
X476269Y521031D01*
X480377Y522733D01*
X484823Y522733D01*
X488931Y521031D01*
X492075Y517887D01*
X493777Y513779D01*
X493777Y502221D01*
X492264Y498568D01*
X492242Y498485D01*
X492212Y498405D01*
X492207Y498348D01*
X492193Y498293D01*
X492195Y498207D01*
X492188Y498121D01*
X492199Y498065D01*
X492201Y498009D01*
X492227Y497927D01*
X492244Y497842D01*
X492270Y497792D01*
X492288Y497738D01*
X492335Y497666D01*
X492375Y497590D01*
X492414Y497549D01*
X492446Y497502D01*
X492511Y497446D01*
X492571Y497384D01*
X492620Y497355D01*
X492663Y497319D01*
X492742Y497284D01*
X492816Y497240D01*
X492871Y497226D01*
X492923Y497203D01*
X493008Y497191D01*
X493092Y497170D01*
X493148Y497172D01*
X493205Y497164D01*
X493290Y497177D01*
X493376Y497179D01*
X493430Y497197D01*
X493486Y497205D01*
X493564Y497240D01*
X493646Y497267D01*
X493686Y497295D01*
X493745Y497322D01*
X493856Y497416D01*
X493920Y497462D01*
X496887Y500429D01*
X496888Y500430D01*
X496889Y500431D01*
X496978Y500550D01*
X497058Y500656D01*
X497058Y500658D01*
X497059Y500659D01*
X497109Y500790D01*
X497159Y500922D01*
X497159Y500924D01*
X497160Y500925D01*
X497171Y501064D01*
X497183Y501205D01*
X497182Y501207D01*
X497183Y501208D01*
X497179Y501223D01*
X497127Y501484D01*
X497113Y501511D01*
X497107Y501536D01*
X496823Y502221D01*
X496823Y513779D01*
X498525Y517887D01*
X501669Y521031D01*
X505777Y522733D01*
X510223Y522733D01*
X514331Y521031D01*
X517475Y517887D01*
X519177Y513779D01*
X519177Y502221D01*
X518562Y500736D01*
X518540Y500653D01*
X518510Y500573D01*
X518505Y500516D01*
X518491Y500461D01*
X518493Y500375D01*
X518486Y500289D01*
X518497Y500233D01*
X518499Y500177D01*
X518525Y500095D01*
X518542Y500011D01*
X518568Y499960D01*
X518586Y499906D01*
X518633Y499834D01*
X518673Y499758D01*
X518712Y499717D01*
X518744Y499670D01*
X518810Y499614D01*
X518869Y499552D01*
X518918Y499523D01*
X518961Y499487D01*
X519040Y499452D01*
X519114Y499408D01*
X519169Y499394D01*
X519221Y499371D01*
X519306Y499359D01*
X519390Y499338D01*
X519446Y499340D01*
X519503Y499332D01*
X519588Y499345D01*
X519674Y499347D01*
X519728Y499365D01*
X519784Y499373D01*
X519862Y499408D01*
X519944Y499435D01*
X519984Y499463D01*
X520043Y499490D01*
X520154Y499584D01*
X520218Y499630D01*
X521926Y501338D01*
X521978Y501408D01*
X522038Y501472D01*
X522064Y501521D01*
X522097Y501565D01*
X522128Y501647D01*
X522168Y501725D01*
X522176Y501772D01*
X522198Y501831D01*
X522210Y501979D01*
X522223Y502056D01*
X522223Y513779D01*
X523925Y517887D01*
X527069Y521031D01*
X531177Y522733D01*
X535623Y522733D01*
X539731Y521031D01*
X542875Y517887D01*
X544577Y513779D01*
X544577Y502221D01*
X542875Y498113D01*
X539731Y494969D01*
X535623Y493267D01*
X531520Y493267D01*
X531433Y493255D01*
X531346Y493252D01*
X531293Y493235D01*
X531238Y493227D01*
X531159Y493192D01*
X531075Y493165D01*
X531036Y493137D01*
X530979Y493111D01*
X530866Y493015D01*
X530802Y492970D01*
X504234Y466402D01*
X504182Y466332D01*
X504122Y466268D01*
X504096Y466219D01*
X504063Y466175D01*
X504032Y466093D01*
X503992Y466015D01*
X503984Y465968D01*
X503962Y465909D01*
X503950Y465761D01*
X503937Y465684D01*
X503937Y274726D01*
X503949Y274639D01*
X503952Y274552D01*
X503969Y274499D01*
X503977Y274444D01*
X504012Y274365D01*
X504039Y274281D01*
X504067Y274242D01*
X504093Y274185D01*
X504189Y274072D01*
X504234Y274008D01*
X506819Y271424D01*
X507747Y269183D01*
X507747Y215616D01*
X507759Y215529D01*
X507762Y215442D01*
X507779Y215389D01*
X507787Y215335D01*
X507822Y215255D01*
X507849Y215172D01*
X507877Y215132D01*
X507903Y215075D01*
X507999Y214962D01*
X508044Y214898D01*
X511125Y211817D01*
X512827Y207709D01*
X512827Y196151D01*
X511125Y192043D01*
X509284Y190202D01*
X509266Y190178D01*
X509244Y190159D01*
X509181Y190065D01*
X509113Y189975D01*
X509103Y189947D01*
X509087Y189923D01*
X509052Y189815D01*
X509012Y189709D01*
X509010Y189680D01*
X509001Y189652D01*
X508998Y189538D01*
X508988Y189426D01*
X508994Y189397D01*
X508993Y189368D01*
X509022Y189258D01*
X509044Y189147D01*
X509058Y189121D01*
X509065Y189093D01*
X509123Y188995D01*
X509175Y188895D01*
X509196Y188873D01*
X509211Y188848D01*
X509293Y188771D01*
X509371Y188689D01*
X509396Y188674D01*
X509418Y188654D01*
X509519Y188602D01*
X509616Y188545D01*
X509645Y188538D01*
X509671Y188524D01*
X509748Y188511D01*
X509892Y188475D01*
X509954Y188477D01*
X510002Y188469D01*
X518698Y188469D01*
X518727Y188473D01*
X518756Y188470D01*
X518867Y188493D01*
X518979Y188509D01*
X519006Y188521D01*
X519035Y188526D01*
X519136Y188579D01*
X519239Y188625D01*
X519261Y188644D01*
X519287Y188657D01*
X519369Y188735D01*
X519456Y188808D01*
X519472Y188833D01*
X519493Y188853D01*
X519551Y188951D01*
X519613Y189045D01*
X519622Y189073D01*
X519637Y189098D01*
X519665Y189208D01*
X519699Y189316D01*
X519700Y189346D01*
X519707Y189374D01*
X519704Y189487D01*
X519707Y189600D01*
X519699Y189629D01*
X519698Y189658D01*
X519663Y189766D01*
X519635Y189875D01*
X519620Y189901D01*
X519611Y189929D01*
X519565Y189992D01*
X519489Y190120D01*
X519444Y190163D01*
X519416Y190202D01*
X517575Y192043D01*
X515873Y196151D01*
X515873Y207709D01*
X517575Y211817D01*
X520719Y214961D01*
X524827Y216663D01*
X526288Y216663D01*
X526346Y216671D01*
X526404Y216669D01*
X526486Y216691D01*
X526570Y216703D01*
X526623Y216726D01*
X526679Y216741D01*
X526752Y216784D01*
X526829Y216819D01*
X526874Y216857D01*
X526924Y216886D01*
X526982Y216948D01*
X527046Y217002D01*
X527078Y217051D01*
X527118Y217094D01*
X527157Y217169D01*
X527204Y217239D01*
X527221Y217295D01*
X527248Y217347D01*
X527259Y217415D01*
X527289Y217510D01*
X527292Y217610D01*
X527303Y217678D01*
X527303Y306013D01*
X528231Y308254D01*
X530816Y310838D01*
X530868Y310908D01*
X530928Y310972D01*
X530954Y311021D01*
X530987Y311065D01*
X531018Y311147D01*
X531058Y311225D01*
X531066Y311272D01*
X531088Y311331D01*
X531100Y311479D01*
X531113Y311556D01*
X531113Y337414D01*
X531101Y337501D01*
X531098Y337588D01*
X531081Y337641D01*
X531073Y337696D01*
X531038Y337775D01*
X531011Y337859D01*
X530983Y337898D01*
X530957Y337955D01*
X530861Y338068D01*
X530816Y338132D01*
X530771Y338176D01*
X529843Y340417D01*
X529843Y466033D01*
X530771Y468274D01*
X552406Y489908D01*
X552458Y489978D01*
X552518Y490042D01*
X552544Y490091D01*
X552577Y490135D01*
X552608Y490217D01*
X552648Y490295D01*
X552656Y490342D01*
X552678Y490401D01*
X552690Y490549D01*
X552703Y490626D01*
X552703Y494314D01*
X552691Y494401D01*
X552688Y494488D01*
X552671Y494541D01*
X552663Y494595D01*
X552628Y494675D01*
X552601Y494758D01*
X552573Y494798D01*
X552547Y494855D01*
X552451Y494968D01*
X552406Y495032D01*
X549325Y498113D01*
X547623Y502221D01*
X547623Y513779D01*
X549325Y517887D01*
X552469Y521031D01*
X556577Y522733D01*
X561023Y522733D01*
X565131Y521031D01*
X568275Y517887D01*
X569977Y513779D01*
X569977Y504850D01*
X569981Y504821D01*
X569978Y504792D01*
X570001Y504681D01*
X570017Y504568D01*
X570029Y504542D01*
X570034Y504513D01*
X570086Y504412D01*
X570133Y504309D01*
X570152Y504286D01*
X570165Y504261D01*
X570243Y504178D01*
X570316Y504092D01*
X570341Y504076D01*
X570361Y504054D01*
X570459Y503997D01*
X570553Y503934D01*
X570581Y503925D01*
X570606Y503911D01*
X570716Y503883D01*
X570824Y503849D01*
X570854Y503848D01*
X570882Y503841D01*
X570995Y503844D01*
X571108Y503841D01*
X571137Y503849D01*
X571166Y503850D01*
X571274Y503884D01*
X571383Y503913D01*
X571409Y503928D01*
X571437Y503937D01*
X571500Y503983D01*
X571628Y504058D01*
X571671Y504104D01*
X571710Y504132D01*
X572726Y505148D01*
X572778Y505218D01*
X572838Y505282D01*
X572864Y505331D01*
X572897Y505375D01*
X572928Y505457D01*
X572968Y505535D01*
X572976Y505582D01*
X572998Y505641D01*
X573010Y505789D01*
X573023Y505866D01*
X573023Y513779D01*
X574725Y517887D01*
X577869Y521031D01*
X581977Y522733D01*
X586423Y522733D01*
X590531Y521031D01*
X593675Y517887D01*
X595377Y513779D01*
X595377Y504850D01*
X595381Y504821D01*
X595378Y504792D01*
X595401Y504681D01*
X595417Y504568D01*
X595429Y504542D01*
X595434Y504513D01*
X595486Y504412D01*
X595533Y504309D01*
X595552Y504286D01*
X595565Y504261D01*
X595643Y504178D01*
X595716Y504092D01*
X595741Y504076D01*
X595761Y504054D01*
X595859Y503997D01*
X595953Y503934D01*
X595981Y503925D01*
X596006Y503911D01*
X596116Y503883D01*
X596224Y503849D01*
X596254Y503848D01*
X596282Y503841D01*
X596395Y503844D01*
X596508Y503841D01*
X596537Y503849D01*
X596566Y503850D01*
X596674Y503884D01*
X596783Y503913D01*
X596809Y503928D01*
X596837Y503937D01*
X596900Y503983D01*
X597028Y504058D01*
X597071Y504104D01*
X597110Y504132D01*
X598126Y505148D01*
X598178Y505218D01*
X598238Y505282D01*
X598264Y505331D01*
X598297Y505375D01*
X598328Y505457D01*
X598368Y505535D01*
X598376Y505582D01*
X598398Y505641D01*
X598410Y505789D01*
X598423Y505866D01*
X598423Y513779D01*
X600125Y517887D01*
X603269Y521031D01*
X607377Y522733D01*
X611823Y522733D01*
X615931Y521031D01*
X619075Y517887D01*
X620777Y513779D01*
X620777Y504850D01*
X620781Y504821D01*
X620778Y504792D01*
X620801Y504681D01*
X620817Y504568D01*
X620829Y504542D01*
X620834Y504513D01*
X620886Y504412D01*
X620933Y504309D01*
X620952Y504286D01*
X620965Y504261D01*
X621043Y504178D01*
X621116Y504092D01*
X621141Y504076D01*
X621161Y504054D01*
X621259Y503997D01*
X621353Y503934D01*
X621381Y503925D01*
X621406Y503911D01*
X621516Y503883D01*
X621624Y503849D01*
X621654Y503848D01*
X621682Y503841D01*
X621795Y503844D01*
X621908Y503841D01*
X621937Y503849D01*
X621966Y503850D01*
X622074Y503884D01*
X622183Y503913D01*
X622209Y503928D01*
X622237Y503937D01*
X622300Y503983D01*
X622428Y504058D01*
X622471Y504104D01*
X622510Y504132D01*
X623526Y505148D01*
X623578Y505218D01*
X623638Y505282D01*
X623664Y505331D01*
X623697Y505375D01*
X623728Y505457D01*
X623768Y505535D01*
X623776Y505582D01*
X623798Y505641D01*
X623810Y505789D01*
X623823Y505866D01*
X623823Y513779D01*
X625525Y517887D01*
X628669Y521031D01*
X632777Y522733D01*
X637223Y522733D01*
X641331Y521031D01*
X644475Y517887D01*
X646177Y513779D01*
X646177Y502221D01*
X644475Y498113D01*
X641331Y494969D01*
X637223Y493267D01*
X632777Y493267D01*
X630655Y494146D01*
X630653Y494147D01*
X630652Y494147D01*
X630519Y494181D01*
X630379Y494217D01*
X630378Y494217D01*
X630376Y494218D01*
X630236Y494213D01*
X630095Y494209D01*
X630094Y494209D01*
X630092Y494209D01*
X629959Y494166D01*
X629824Y494122D01*
X629823Y494122D01*
X629822Y494121D01*
X629810Y494112D01*
X629588Y493964D01*
X629569Y493941D01*
X629548Y493926D01*
X627024Y491401D01*
X625042Y490581D01*
X625015Y490565D01*
X624986Y490555D01*
X624922Y490510D01*
X624797Y490436D01*
X624753Y490389D01*
X624713Y490361D01*
X612371Y478019D01*
X610514Y476161D01*
X608273Y475233D01*
X607466Y475233D01*
X607379Y475221D01*
X607292Y475218D01*
X607239Y475201D01*
X607184Y475193D01*
X607105Y475158D01*
X607021Y475131D01*
X606982Y475103D01*
X606925Y475077D01*
X606812Y474981D01*
X606748Y474936D01*
X595274Y463461D01*
X593033Y462533D01*
X584606Y462533D01*
X584519Y462521D01*
X584432Y462518D01*
X584379Y462501D01*
X584324Y462493D01*
X584245Y462458D01*
X584161Y462431D01*
X584122Y462403D01*
X584065Y462377D01*
X583952Y462281D01*
X583888Y462236D01*
X569004Y447352D01*
X568952Y447282D01*
X568892Y447218D01*
X568866Y447169D01*
X568833Y447125D01*
X568802Y447043D01*
X568762Y446965D01*
X568754Y446918D01*
X568732Y446859D01*
X568720Y446711D01*
X568707Y446634D01*
X568707Y375056D01*
X568719Y374969D01*
X568722Y374882D01*
X568739Y374829D01*
X568747Y374774D01*
X568782Y374695D01*
X568809Y374611D01*
X568837Y374572D01*
X568863Y374515D01*
X568959Y374402D01*
X569004Y374338D01*
X584289Y359054D01*
X585217Y356813D01*
X585217Y345846D01*
X585229Y345759D01*
X585232Y345672D01*
X585249Y345619D01*
X585257Y345564D01*
X585292Y345485D01*
X585319Y345401D01*
X585347Y345362D01*
X585373Y345305D01*
X585469Y345192D01*
X585514Y345128D01*
X591508Y339134D01*
X591578Y339082D01*
X591642Y339022D01*
X591691Y338996D01*
X591735Y338963D01*
X591817Y338932D01*
X591895Y338892D01*
X591942Y338884D01*
X592001Y338862D01*
X592149Y338850D01*
X592226Y338837D01*
X607257Y338837D01*
X607343Y338849D01*
X607431Y338852D01*
X607484Y338869D01*
X607538Y338877D01*
X607618Y338912D01*
X607701Y338939D01*
X607741Y338967D01*
X607798Y338993D01*
X607911Y339089D01*
X607914Y339091D01*
X616349Y339091D01*
X622301Y333139D01*
X622301Y324721D01*
X618534Y320955D01*
X618482Y320885D01*
X618422Y320821D01*
X618396Y320772D01*
X618363Y320728D01*
X618332Y320646D01*
X618292Y320568D01*
X618284Y320520D01*
X618262Y320462D01*
X618250Y320314D01*
X618237Y320237D01*
X618237Y318827D01*
X617309Y316586D01*
X596544Y295821D01*
X594303Y294893D01*
X569366Y294893D01*
X569279Y294881D01*
X569192Y294878D01*
X569139Y294861D01*
X569084Y294853D01*
X569005Y294818D01*
X568921Y294791D01*
X568882Y294763D01*
X568825Y294737D01*
X568712Y294641D01*
X568648Y294596D01*
X565194Y291142D01*
X565142Y291072D01*
X565082Y291008D01*
X565056Y290959D01*
X565023Y290915D01*
X564992Y290833D01*
X564952Y290755D01*
X564944Y290708D01*
X564922Y290649D01*
X564910Y290501D01*
X564897Y290424D01*
X564897Y248056D01*
X564909Y247969D01*
X564912Y247882D01*
X564929Y247829D01*
X564937Y247774D01*
X564972Y247695D01*
X564999Y247611D01*
X565027Y247572D01*
X565053Y247515D01*
X565149Y247402D01*
X565194Y247338D01*
X596900Y215632D01*
X596901Y215631D01*
X596902Y215630D01*
X597018Y215543D01*
X597127Y215461D01*
X597129Y215460D01*
X597130Y215459D01*
X597262Y215410D01*
X597393Y215360D01*
X597395Y215360D01*
X597396Y215359D01*
X597541Y215347D01*
X597676Y215336D01*
X597678Y215336D01*
X597680Y215336D01*
X597695Y215340D01*
X597955Y215392D01*
X597982Y215406D01*
X598007Y215412D01*
X601027Y216663D01*
X605473Y216663D01*
X609581Y214961D01*
X612725Y211817D01*
X614427Y207709D01*
X614427Y196151D01*
X612725Y192043D01*
X609581Y188899D01*
X605473Y187197D01*
X604266Y187197D01*
X604208Y187189D01*
X604150Y187191D01*
X604068Y187169D01*
X603984Y187157D01*
X603931Y187134D01*
X603875Y187119D01*
X603802Y187076D01*
X603725Y187041D01*
X603680Y187003D01*
X603630Y186974D01*
X603572Y186912D01*
X603508Y186858D01*
X603476Y186809D01*
X603436Y186766D01*
X603397Y186691D01*
X603350Y186621D01*
X603333Y186565D01*
X603306Y186513D01*
X603295Y186445D01*
X603265Y186350D01*
X603262Y186250D01*
X603251Y186182D01*
X603251Y179324D01*
X603259Y179266D01*
X603257Y179208D01*
X603279Y179126D01*
X603291Y179042D01*
X603314Y178989D01*
X603329Y178933D01*
X603372Y178860D01*
X603407Y178783D01*
X603445Y178738D01*
X603474Y178688D01*
X603536Y178630D01*
X603590Y178566D01*
X603639Y178534D01*
X603682Y178494D01*
X603757Y178455D01*
X603827Y178408D01*
X603883Y178391D01*
X603935Y178364D01*
X604003Y178353D01*
X604098Y178323D01*
X604198Y178320D01*
X604266Y178309D01*
X609289Y178309D01*
X609375Y178321D01*
X609463Y178324D01*
X609515Y178341D01*
X609570Y178349D01*
X609650Y178384D01*
X609733Y178411D01*
X609773Y178439D01*
X609830Y178465D01*
X609943Y178561D01*
X610007Y178606D01*
X614281Y182881D01*
X622699Y182881D01*
X628651Y176929D01*
X628651Y174904D01*
X628655Y174875D01*
X628652Y174846D01*
X628675Y174735D01*
X628691Y174622D01*
X628703Y174596D01*
X628708Y174567D01*
X628760Y174466D01*
X628807Y174363D01*
X628826Y174340D01*
X628839Y174315D01*
X628917Y174232D01*
X628990Y174146D01*
X629015Y174130D01*
X629035Y174108D01*
X629133Y174051D01*
X629227Y173988D01*
X629255Y173979D01*
X629280Y173965D01*
X629390Y173937D01*
X629498Y173903D01*
X629528Y173902D01*
X629556Y173895D01*
X629669Y173898D01*
X629782Y173895D01*
X629811Y173903D01*
X629840Y173904D01*
X629948Y173938D01*
X630057Y173967D01*
X630083Y173982D01*
X630111Y173991D01*
X630174Y174037D01*
X630302Y174112D01*
X630345Y174158D01*
X630384Y174186D01*
X636226Y180028D01*
X636278Y180098D01*
X636338Y180162D01*
X636364Y180211D01*
X636397Y180255D01*
X636428Y180337D01*
X636468Y180415D01*
X636476Y180462D01*
X636498Y180521D01*
X636510Y180669D01*
X636523Y180746D01*
X636523Y188018D01*
X636507Y188132D01*
X636497Y188246D01*
X636487Y188272D01*
X636483Y188300D01*
X636437Y188404D01*
X636395Y188512D01*
X636379Y188534D01*
X636367Y188559D01*
X636293Y188647D01*
X636224Y188738D01*
X636201Y188755D01*
X636184Y188776D01*
X636088Y188840D01*
X635996Y188909D01*
X635970Y188918D01*
X635947Y188934D01*
X635837Y188968D01*
X635730Y189009D01*
X635702Y189011D01*
X635676Y189019D01*
X635561Y189022D01*
X635447Y189032D01*
X635422Y189026D01*
X635392Y189027D01*
X635135Y188960D01*
X635119Y188956D01*
X630873Y187197D01*
X626427Y187197D01*
X622319Y188899D01*
X619175Y192043D01*
X617473Y196151D01*
X617473Y207709D01*
X619175Y211817D01*
X619655Y212297D01*
X619690Y212344D01*
X619732Y212384D01*
X619775Y212457D01*
X619826Y212524D01*
X619847Y212579D01*
X619876Y212629D01*
X619897Y212711D01*
X619927Y212790D01*
X619932Y212848D01*
X619946Y212905D01*
X619944Y212989D01*
X619951Y213073D01*
X619939Y213131D01*
X619937Y213189D01*
X619911Y213269D01*
X619895Y213352D01*
X619868Y213404D01*
X619850Y213460D01*
X619810Y213516D01*
X619764Y213604D01*
X619695Y213677D01*
X619655Y213733D01*
X596196Y237192D01*
X596126Y237244D01*
X596062Y237304D01*
X596013Y237330D01*
X595969Y237363D01*
X595887Y237394D01*
X595809Y237434D01*
X595762Y237442D01*
X595703Y237464D01*
X595555Y237476D01*
X595478Y237489D01*
X590151Y237489D01*
X584199Y243441D01*
X584199Y251859D01*
X590151Y257811D01*
X598569Y257811D01*
X604521Y251859D01*
X604521Y246532D01*
X604533Y246445D01*
X604536Y246358D01*
X604553Y246305D01*
X604561Y246250D01*
X604596Y246171D01*
X604623Y246087D01*
X604651Y246048D01*
X604677Y245991D01*
X604773Y245878D01*
X604818Y245814D01*
X605580Y245052D01*
X605604Y245034D01*
X605623Y245012D01*
X605717Y244949D01*
X605807Y244881D01*
X605835Y244871D01*
X605859Y244854D01*
X605967Y244820D01*
X606073Y244780D01*
X606102Y244777D01*
X606130Y244769D01*
X606244Y244766D01*
X606356Y244756D01*
X606385Y244762D01*
X606414Y244761D01*
X606524Y244790D01*
X606635Y244812D01*
X606661Y244826D01*
X606689Y244833D01*
X606787Y244891D01*
X606887Y244943D01*
X606909Y244963D01*
X606934Y244978D01*
X607011Y245061D01*
X607093Y245139D01*
X607108Y245164D01*
X607128Y245186D01*
X607180Y245286D01*
X607237Y245384D01*
X607244Y245413D01*
X607258Y245439D01*
X607271Y245516D01*
X607307Y245660D01*
X607305Y245722D01*
X607313Y245770D01*
X607313Y284423D01*
X608241Y286664D01*
X624158Y302580D01*
X624210Y302650D01*
X624270Y302714D01*
X624296Y302763D01*
X624329Y302807D01*
X624352Y302869D01*
X624356Y302874D01*
X624361Y302891D01*
X624400Y302967D01*
X624408Y303014D01*
X624430Y303073D01*
X624434Y303122D01*
X624441Y303145D01*
X624443Y303227D01*
X624455Y303298D01*
X624455Y309694D01*
X631376Y316615D01*
X641164Y316615D01*
X648252Y309526D01*
X648299Y309491D01*
X648339Y309449D01*
X648412Y309406D01*
X648479Y309356D01*
X648534Y309335D01*
X648584Y309305D01*
X648666Y309284D01*
X648745Y309254D01*
X648803Y309249D01*
X648860Y309235D01*
X648944Y309238D01*
X649028Y309231D01*
X649086Y309242D01*
X649144Y309244D01*
X649224Y309270D01*
X649307Y309287D01*
X649359Y309314D01*
X649415Y309332D01*
X649471Y309372D01*
X649559Y309418D01*
X649632Y309486D01*
X649688Y309526D01*
X656776Y316615D01*
X666564Y316615D01*
X673485Y309694D01*
X673485Y299906D01*
X666396Y292818D01*
X666361Y292771D01*
X666319Y292731D01*
X666276Y292658D01*
X666226Y292591D01*
X666205Y292536D01*
X666175Y292486D01*
X666154Y292404D01*
X666124Y292325D01*
X666119Y292267D01*
X666105Y292210D01*
X666108Y292126D01*
X666101Y292042D01*
X666112Y291984D01*
X666114Y291926D01*
X666140Y291846D01*
X666157Y291763D01*
X666184Y291711D01*
X666202Y291655D01*
X666242Y291599D01*
X666288Y291511D01*
X666356Y291438D01*
X666396Y291382D01*
X673485Y284294D01*
X673485Y274506D01*
X666564Y267585D01*
X660034Y267585D01*
X659952Y267574D01*
X659870Y267572D01*
X659812Y267554D01*
X659752Y267545D01*
X659677Y267512D01*
X659598Y267487D01*
X659556Y267457D01*
X659493Y267429D01*
X659387Y267340D01*
X659323Y267295D01*
X658034Y266031D01*
X658013Y266004D01*
X657986Y265981D01*
X657926Y265891D01*
X657860Y265806D01*
X657848Y265774D01*
X657829Y265745D01*
X657796Y265642D01*
X657757Y265541D01*
X657753Y265507D01*
X657743Y265474D01*
X657740Y265365D01*
X657730Y265258D01*
X657737Y265224D01*
X657736Y265190D01*
X657763Y265085D01*
X657783Y264979D01*
X657799Y264948D01*
X657808Y264915D01*
X657863Y264822D01*
X657912Y264725D01*
X657935Y264700D01*
X657953Y264670D01*
X658032Y264596D01*
X658105Y264517D01*
X658135Y264499D01*
X658160Y264476D01*
X658257Y264426D01*
X658349Y264371D01*
X658383Y264362D01*
X658413Y264346D01*
X658491Y264333D01*
X658624Y264298D01*
X658693Y264299D01*
X658744Y264291D01*
X659639Y264291D01*
X659639Y255016D01*
X659647Y254958D01*
X659645Y254900D01*
X659667Y254818D01*
X659679Y254735D01*
X659703Y254681D01*
X659717Y254625D01*
X659760Y254552D01*
X659795Y254475D01*
X659833Y254431D01*
X659863Y254380D01*
X659924Y254323D01*
X659979Y254258D01*
X660027Y254226D01*
X660070Y254186D01*
X660145Y254147D01*
X660215Y254101D01*
X660271Y254083D01*
X660323Y254056D01*
X660391Y254045D01*
X660486Y254015D01*
X660586Y254012D01*
X660654Y254001D01*
X661671Y254001D01*
X661671Y253999D01*
X660654Y253999D01*
X660596Y253991D01*
X660538Y253992D01*
X660456Y253971D01*
X660373Y253959D01*
X660319Y253935D01*
X660263Y253921D01*
X660190Y253878D01*
X660113Y253843D01*
X660068Y253805D01*
X660018Y253775D01*
X659960Y253714D01*
X659896Y253659D01*
X659864Y253611D01*
X659824Y253568D01*
X659785Y253493D01*
X659739Y253423D01*
X659721Y253367D01*
X659694Y253315D01*
X659683Y253247D01*
X659653Y253152D01*
X659650Y253052D01*
X659639Y252984D01*
X659639Y243709D01*
X657407Y243709D01*
X656673Y244444D01*
X656649Y244462D01*
X656630Y244484D01*
X656536Y244547D01*
X656446Y244615D01*
X656418Y244625D01*
X656394Y244641D01*
X656286Y244676D01*
X656180Y244716D01*
X656151Y244718D01*
X656123Y244727D01*
X656009Y244730D01*
X655897Y244740D01*
X655868Y244734D01*
X655839Y244735D01*
X655729Y244706D01*
X655618Y244684D01*
X655592Y244670D01*
X655564Y244663D01*
X655466Y244605D01*
X655366Y244553D01*
X655344Y244532D01*
X655319Y244517D01*
X655242Y244435D01*
X655160Y244357D01*
X655145Y244332D01*
X655125Y244310D01*
X655073Y244209D01*
X655016Y244112D01*
X655009Y244083D01*
X654995Y244057D01*
X654982Y243980D01*
X654946Y243836D01*
X654948Y243774D01*
X654940Y243726D01*
X654940Y234016D01*
X654953Y233922D01*
X654957Y233827D01*
X654973Y233782D01*
X654980Y233734D01*
X655018Y233648D01*
X655049Y233558D01*
X655074Y233524D01*
X655096Y233475D01*
X655203Y233348D01*
X655248Y233288D01*
X661132Y227572D01*
X661151Y227558D01*
X661166Y227540D01*
X661231Y227499D01*
X661238Y227494D01*
X662135Y226597D01*
X662141Y226592D01*
X662145Y226587D01*
X663011Y225746D01*
X663473Y224630D01*
X663477Y224623D01*
X663479Y224616D01*
X663957Y223509D01*
X663957Y222301D01*
X663958Y222293D01*
X663957Y222286D01*
X663975Y221042D01*
X663962Y220988D01*
X663964Y220932D01*
X663957Y220889D01*
X663957Y168967D01*
X663029Y166726D01*
X635868Y139566D01*
X635856Y139559D01*
X635836Y139541D01*
X635812Y139526D01*
X635733Y139443D01*
X635650Y139364D01*
X635636Y139340D01*
X635617Y139320D01*
X635564Y139218D01*
X635506Y139118D01*
X635499Y139092D01*
X635487Y139067D01*
X635464Y138954D01*
X635436Y138843D01*
X635437Y138815D01*
X635432Y138788D01*
X635441Y138673D01*
X635445Y138559D01*
X635454Y138533D01*
X635456Y138505D01*
X635497Y138398D01*
X635533Y138288D01*
X635547Y138268D01*
X635558Y138240D01*
X635720Y138025D01*
X635727Y138015D01*
X635729Y138013D01*
X638125Y135617D01*
X639827Y131509D01*
X639827Y119951D01*
X638125Y115843D01*
X634981Y112699D01*
X630873Y110997D01*
X626427Y110997D01*
X622319Y112699D01*
X619175Y115843D01*
X617473Y119951D01*
X617473Y131509D01*
X619175Y135617D01*
X620508Y136950D01*
X620526Y136974D01*
X620548Y136993D01*
X620611Y137087D01*
X620679Y137177D01*
X620689Y137205D01*
X620705Y137229D01*
X620740Y137337D01*
X620780Y137443D01*
X620782Y137472D01*
X620791Y137500D01*
X620794Y137614D01*
X620804Y137726D01*
X620798Y137755D01*
X620799Y137784D01*
X620770Y137894D01*
X620748Y138005D01*
X620734Y138031D01*
X620727Y138059D01*
X620669Y138157D01*
X620617Y138257D01*
X620596Y138279D01*
X620581Y138304D01*
X620499Y138381D01*
X620421Y138463D01*
X620396Y138478D01*
X620374Y138498D01*
X620273Y138550D01*
X620176Y138607D01*
X620147Y138614D01*
X620121Y138628D01*
X620044Y138641D01*
X619900Y138677D01*
X619838Y138675D01*
X619790Y138683D01*
X612110Y138683D01*
X612081Y138679D01*
X612052Y138682D01*
X611941Y138659D01*
X611829Y138643D01*
X611802Y138631D01*
X611773Y138626D01*
X611672Y138573D01*
X611569Y138527D01*
X611547Y138508D01*
X611521Y138495D01*
X611439Y138417D01*
X611352Y138344D01*
X611336Y138319D01*
X611315Y138299D01*
X611257Y138201D01*
X611195Y138107D01*
X611186Y138079D01*
X611171Y138054D01*
X611143Y137944D01*
X611109Y137836D01*
X611108Y137806D01*
X611101Y137778D01*
X611104Y137665D01*
X611101Y137552D01*
X611109Y137523D01*
X611110Y137494D01*
X611145Y137386D01*
X611173Y137277D01*
X611188Y137251D01*
X611197Y137223D01*
X611243Y137159D01*
X611319Y137032D01*
X611364Y136989D01*
X611392Y136950D01*
X612725Y135617D01*
X614427Y131509D01*
X614427Y119951D01*
X612725Y115843D01*
X609581Y112699D01*
X605473Y110997D01*
X601027Y110997D01*
X596919Y112699D01*
X593775Y115843D01*
X592073Y119951D01*
X592073Y131509D01*
X593775Y135617D01*
X595108Y136950D01*
X595126Y136974D01*
X595148Y136993D01*
X595211Y137087D01*
X595279Y137177D01*
X595289Y137205D01*
X595305Y137229D01*
X595340Y137337D01*
X595380Y137443D01*
X595382Y137472D01*
X595391Y137500D01*
X595394Y137614D01*
X595404Y137726D01*
X595398Y137755D01*
X595399Y137784D01*
X595370Y137894D01*
X595348Y138005D01*
X595334Y138031D01*
X595327Y138059D01*
X595269Y138157D01*
X595217Y138257D01*
X595196Y138279D01*
X595181Y138304D01*
X595099Y138381D01*
X595021Y138463D01*
X594996Y138478D01*
X594974Y138498D01*
X594873Y138550D01*
X594776Y138607D01*
X594747Y138614D01*
X594721Y138628D01*
X594644Y138641D01*
X594500Y138677D01*
X594438Y138675D01*
X594390Y138683D01*
X586710Y138683D01*
X586681Y138679D01*
X586652Y138682D01*
X586541Y138659D01*
X586429Y138643D01*
X586402Y138631D01*
X586373Y138626D01*
X586272Y138573D01*
X586169Y138527D01*
X586147Y138508D01*
X586121Y138495D01*
X586039Y138417D01*
X585952Y138344D01*
X585936Y138319D01*
X585915Y138299D01*
X585857Y138201D01*
X585795Y138107D01*
X585786Y138079D01*
X585771Y138054D01*
X585743Y137944D01*
X585709Y137836D01*
X585708Y137806D01*
X585701Y137778D01*
X585704Y137665D01*
X585701Y137552D01*
X585709Y137523D01*
X585710Y137494D01*
X585745Y137386D01*
X585773Y137277D01*
X585788Y137251D01*
X585797Y137223D01*
X585843Y137159D01*
X585919Y137032D01*
X585964Y136989D01*
X585992Y136950D01*
X587325Y135617D01*
X589027Y131509D01*
X589027Y119951D01*
X587325Y115843D01*
X584181Y112699D01*
X580073Y110997D01*
X575627Y110997D01*
X571519Y112699D01*
X568375Y115843D01*
X566673Y119951D01*
X566673Y131509D01*
X568375Y135617D01*
X569708Y136950D01*
X569726Y136974D01*
X569748Y136993D01*
X569811Y137087D01*
X569879Y137177D01*
X569889Y137205D01*
X569905Y137229D01*
X569940Y137337D01*
X569980Y137443D01*
X569982Y137472D01*
X569991Y137500D01*
X569994Y137614D01*
X570004Y137726D01*
X569998Y137755D01*
X569999Y137784D01*
X569970Y137894D01*
X569948Y138005D01*
X569934Y138031D01*
X569927Y138059D01*
X569869Y138157D01*
X569817Y138257D01*
X569796Y138279D01*
X569781Y138304D01*
X569699Y138381D01*
X569621Y138463D01*
X569596Y138478D01*
X569574Y138498D01*
X569473Y138550D01*
X569376Y138607D01*
X569347Y138614D01*
X569321Y138628D01*
X569244Y138641D01*
X569100Y138677D01*
X569038Y138675D01*
X568990Y138683D01*
X561310Y138683D01*
X561281Y138679D01*
X561252Y138682D01*
X561141Y138659D01*
X561029Y138643D01*
X561002Y138631D01*
X560973Y138626D01*
X560872Y138573D01*
X560769Y138527D01*
X560747Y138508D01*
X560721Y138495D01*
X560639Y138417D01*
X560552Y138344D01*
X560536Y138319D01*
X560515Y138299D01*
X560457Y138201D01*
X560395Y138107D01*
X560386Y138079D01*
X560371Y138054D01*
X560343Y137944D01*
X560309Y137836D01*
X560308Y137806D01*
X560301Y137778D01*
X560304Y137665D01*
X560301Y137552D01*
X560309Y137523D01*
X560310Y137494D01*
X560345Y137386D01*
X560373Y137277D01*
X560388Y137251D01*
X560397Y137223D01*
X560443Y137159D01*
X560519Y137032D01*
X560564Y136989D01*
X560592Y136950D01*
X561925Y135617D01*
X563627Y131509D01*
X563627Y119951D01*
X561925Y115843D01*
X558781Y112699D01*
X554673Y110997D01*
X550227Y110997D01*
X546119Y112699D01*
X542975Y115843D01*
X541273Y119951D01*
X541273Y131509D01*
X542975Y135617D01*
X544308Y136950D01*
X544326Y136974D01*
X544348Y136993D01*
X544411Y137087D01*
X544479Y137177D01*
X544489Y137205D01*
X544505Y137229D01*
X544540Y137337D01*
X544580Y137443D01*
X544582Y137472D01*
X544591Y137500D01*
X544594Y137614D01*
X544604Y137726D01*
X544598Y137755D01*
X544599Y137784D01*
X544570Y137894D01*
X544548Y138005D01*
X544534Y138031D01*
X544527Y138059D01*
X544469Y138157D01*
X544417Y138257D01*
X544396Y138279D01*
X544381Y138304D01*
X544299Y138381D01*
X544221Y138463D01*
X544196Y138478D01*
X544174Y138498D01*
X544073Y138550D01*
X543976Y138607D01*
X543947Y138614D01*
X543921Y138628D01*
X543844Y138641D01*
X543700Y138677D01*
X543638Y138675D01*
X543590Y138683D01*
X535910Y138683D01*
X535881Y138679D01*
X535852Y138682D01*
X535741Y138659D01*
X535629Y138643D01*
X535602Y138631D01*
X535573Y138626D01*
X535472Y138573D01*
X535369Y138527D01*
X535347Y138508D01*
X535321Y138495D01*
X535239Y138417D01*
X535152Y138344D01*
X535136Y138319D01*
X535115Y138299D01*
X535057Y138201D01*
X534995Y138107D01*
X534986Y138079D01*
X534971Y138054D01*
X534943Y137944D01*
X534909Y137836D01*
X534908Y137806D01*
X534901Y137778D01*
X534904Y137665D01*
X534901Y137552D01*
X534909Y137523D01*
X534910Y137494D01*
X534945Y137386D01*
X534973Y137277D01*
X534988Y137251D01*
X534997Y137223D01*
X535043Y137159D01*
X535119Y137032D01*
X535164Y136989D01*
X535192Y136950D01*
X536525Y135617D01*
X538227Y131509D01*
X538227Y119951D01*
X536525Y115843D01*
X533381Y112699D01*
X529273Y110997D01*
X524827Y110997D01*
X520719Y112699D01*
X517575Y115843D01*
X515873Y119951D01*
X515873Y131509D01*
X517575Y135617D01*
X518908Y136950D01*
X518926Y136974D01*
X518948Y136993D01*
X519011Y137087D01*
X519079Y137177D01*
X519089Y137205D01*
X519105Y137229D01*
X519140Y137337D01*
X519180Y137443D01*
X519182Y137472D01*
X519191Y137500D01*
X519194Y137614D01*
X519204Y137726D01*
X519198Y137755D01*
X519199Y137784D01*
X519170Y137894D01*
X519148Y138005D01*
X519134Y138031D01*
X519127Y138059D01*
X519069Y138157D01*
X519017Y138257D01*
X518996Y138279D01*
X518981Y138304D01*
X518899Y138381D01*
X518821Y138463D01*
X518796Y138478D01*
X518774Y138498D01*
X518673Y138550D01*
X518576Y138607D01*
X518547Y138614D01*
X518521Y138628D01*
X518444Y138641D01*
X518300Y138677D01*
X518238Y138675D01*
X518190Y138683D01*
X510510Y138683D01*
X510481Y138679D01*
X510452Y138682D01*
X510341Y138659D01*
X510229Y138643D01*
X510202Y138631D01*
X510173Y138626D01*
X510072Y138573D01*
X509969Y138527D01*
X509947Y138508D01*
X509921Y138495D01*
X509839Y138417D01*
X509752Y138344D01*
X509736Y138319D01*
X509715Y138299D01*
X509657Y138201D01*
X509595Y138107D01*
X509586Y138079D01*
X509571Y138054D01*
X509543Y137944D01*
X509509Y137836D01*
X509508Y137806D01*
X509501Y137778D01*
X509504Y137665D01*
X509501Y137552D01*
X509509Y137523D01*
X509510Y137494D01*
X509545Y137386D01*
X509573Y137277D01*
X509588Y137251D01*
X509597Y137223D01*
X509643Y137159D01*
X509719Y137032D01*
X509764Y136989D01*
X509792Y136950D01*
X511125Y135617D01*
X512827Y131509D01*
X512827Y119951D01*
X511125Y115843D01*
X507981Y112699D01*
X503873Y110997D01*
X499427Y110997D01*
X495319Y112699D01*
X492175Y115843D01*
X490473Y119951D01*
X490473Y131509D01*
X492175Y135617D01*
X493508Y136950D01*
X493526Y136974D01*
X493548Y136993D01*
X493611Y137087D01*
X493679Y137177D01*
X493689Y137205D01*
X493705Y137229D01*
X493740Y137337D01*
X493780Y137443D01*
X493782Y137472D01*
X493791Y137500D01*
X493794Y137614D01*
X493804Y137726D01*
X493798Y137755D01*
X493799Y137784D01*
X493770Y137894D01*
X493748Y138005D01*
X493734Y138031D01*
X493727Y138059D01*
X493669Y138157D01*
X493617Y138257D01*
X493596Y138279D01*
X493581Y138304D01*
X493499Y138381D01*
X493421Y138463D01*
X493396Y138478D01*
X493374Y138498D01*
X493273Y138550D01*
X493176Y138607D01*
X493147Y138614D01*
X493121Y138628D01*
X493044Y138641D01*
X492900Y138677D01*
X492838Y138675D01*
X492790Y138683D01*
X482863Y138683D01*
X482755Y138668D01*
X482646Y138660D01*
X482615Y138648D01*
X482581Y138643D01*
X482482Y138599D01*
X482380Y138561D01*
X482353Y138541D01*
X482322Y138527D01*
X482239Y138457D01*
X482151Y138392D01*
X482130Y138365D01*
X482105Y138344D01*
X482044Y138253D01*
X481978Y138167D01*
X481966Y138135D01*
X481947Y138107D01*
X481914Y138003D01*
X481875Y137902D01*
X481872Y137868D01*
X481861Y137836D01*
X481859Y137727D01*
X481849Y137619D01*
X481855Y137586D01*
X481854Y137552D01*
X481881Y137446D01*
X481902Y137340D01*
X481917Y137309D01*
X481926Y137277D01*
X481981Y137183D01*
X482031Y137086D01*
X482052Y137065D01*
X482071Y137032D01*
X482231Y136882D01*
X482266Y136847D01*
X482538Y136649D01*
X483613Y135574D01*
X484506Y134345D01*
X485196Y132991D01*
X485665Y131546D01*
X485903Y130046D01*
X485903Y127761D01*
X477266Y127761D01*
X477208Y127753D01*
X477150Y127755D01*
X477068Y127733D01*
X476985Y127721D01*
X476931Y127697D01*
X476875Y127683D01*
X476802Y127640D01*
X476725Y127605D01*
X476681Y127567D01*
X476630Y127537D01*
X476573Y127476D01*
X476508Y127421D01*
X476476Y127373D01*
X476436Y127330D01*
X476397Y127255D01*
X476351Y127185D01*
X476333Y127129D01*
X476306Y127077D01*
X476295Y127009D01*
X476265Y126914D01*
X476262Y126814D01*
X476251Y126746D01*
X476251Y125729D01*
X475234Y125729D01*
X475176Y125721D01*
X475118Y125722D01*
X475036Y125701D01*
X474953Y125689D01*
X474899Y125665D01*
X474843Y125651D01*
X474770Y125608D01*
X474693Y125573D01*
X474648Y125535D01*
X474598Y125505D01*
X474540Y125444D01*
X474476Y125389D01*
X474444Y125341D01*
X474404Y125298D01*
X474365Y125223D01*
X474319Y125153D01*
X474301Y125097D01*
X474274Y125045D01*
X474263Y124977D01*
X474233Y124882D01*
X474230Y124782D01*
X474219Y124714D01*
X474219Y112723D01*
X473990Y112759D01*
X472545Y113228D01*
X471123Y113953D01*
X471111Y113957D01*
X471101Y113964D01*
X470977Y114003D01*
X470854Y114045D01*
X470842Y114046D01*
X470830Y114050D01*
X470700Y114053D01*
X470570Y114059D01*
X470558Y114057D01*
X470546Y114057D01*
X470420Y114024D01*
X470293Y113994D01*
X470283Y113988D01*
X470271Y113985D01*
X470159Y113919D01*
X470046Y113855D01*
X470037Y113846D01*
X470026Y113840D01*
X469937Y113745D01*
X469846Y113652D01*
X469840Y113642D01*
X469832Y113632D01*
X469772Y113516D01*
X469711Y113403D01*
X469708Y113390D01*
X469702Y113379D01*
X469692Y113317D01*
X469650Y113125D01*
X469652Y113082D01*
X469647Y113048D01*
X469647Y110547D01*
X468719Y108306D01*
X461924Y101511D01*
X459683Y100583D01*
X447446Y100583D01*
X447359Y100571D01*
X447272Y100568D01*
X447219Y100551D01*
X447164Y100543D01*
X447085Y100508D01*
X447001Y100481D01*
X446962Y100453D01*
X446905Y100427D01*
X446792Y100331D01*
X446728Y100286D01*
X442874Y96431D01*
X440633Y95503D01*
X374741Y95503D01*
X374727Y95501D01*
X374715Y95503D01*
X373534Y95473D01*
X373483Y95484D01*
X372402Y95932D01*
X372388Y95936D01*
X372377Y95942D01*
X371274Y96366D01*
X371231Y96397D01*
X370404Y97224D01*
X370392Y97233D01*
X370385Y97242D01*
X355039Y111822D01*
X354932Y111897D01*
X354827Y111976D01*
X354816Y111980D01*
X354807Y111987D01*
X354684Y112030D01*
X354561Y112076D01*
X354550Y112077D01*
X354539Y112081D01*
X354409Y112088D01*
X354278Y112099D01*
X354268Y112097D01*
X354255Y112097D01*
X353978Y112034D01*
X353964Y112027D01*
X353951Y112024D01*
X351473Y110997D01*
X347027Y110997D01*
X342919Y112699D01*
X339775Y115843D01*
X338073Y119951D01*
X338073Y131509D01*
X339775Y135617D01*
X341108Y136950D01*
X341126Y136974D01*
X341148Y136993D01*
X341211Y137087D01*
X341279Y137177D01*
X341289Y137205D01*
X341305Y137229D01*
X341340Y137337D01*
X341380Y137443D01*
X341382Y137472D01*
X341391Y137500D01*
X341394Y137614D01*
X341404Y137726D01*
X341398Y137755D01*
X341399Y137784D01*
X341370Y137894D01*
X341348Y138005D01*
X341334Y138031D01*
X341327Y138059D01*
X341269Y138157D01*
X341217Y138257D01*
X341196Y138279D01*
X341181Y138304D01*
X341099Y138381D01*
X341021Y138463D01*
X340996Y138478D01*
X340974Y138498D01*
X340873Y138550D01*
X340776Y138607D01*
X340747Y138614D01*
X340721Y138628D01*
X340644Y138641D01*
X340500Y138677D01*
X340438Y138675D01*
X340390Y138683D01*
X332710Y138683D01*
X332681Y138679D01*
X332652Y138682D01*
X332541Y138659D01*
X332429Y138643D01*
X332402Y138631D01*
X332373Y138626D01*
X332272Y138573D01*
X332169Y138527D01*
X332147Y138508D01*
X332121Y138495D01*
X332039Y138417D01*
X331952Y138344D01*
X331936Y138319D01*
X331915Y138299D01*
X331857Y138201D01*
X331795Y138107D01*
X331786Y138079D01*
X331771Y138054D01*
X331743Y137944D01*
X331709Y137836D01*
X331708Y137806D01*
X331701Y137778D01*
X331704Y137665D01*
X331701Y137552D01*
X331709Y137523D01*
X331710Y137494D01*
X331745Y137386D01*
X331773Y137277D01*
X331788Y137251D01*
X331797Y137223D01*
X331843Y137159D01*
X331919Y137032D01*
X331964Y136989D01*
X331992Y136950D01*
X333325Y135617D01*
X335027Y131509D01*
X335027Y119951D01*
X333325Y115843D01*
X330181Y112699D01*
X326073Y110997D01*
X322326Y110997D01*
X322268Y110989D01*
X322210Y110991D01*
X322128Y110969D01*
X322044Y110957D01*
X321991Y110934D01*
X321935Y110919D01*
X321862Y110876D01*
X321785Y110841D01*
X321740Y110803D01*
X321690Y110774D01*
X321632Y110712D01*
X321568Y110658D01*
X321536Y110609D01*
X321496Y110566D01*
X321457Y110491D01*
X321410Y110421D01*
X321393Y110365D01*
X321366Y110313D01*
X321355Y110245D01*
X321325Y110150D01*
X321322Y110050D01*
X321311Y109982D01*
X321311Y101201D01*
X315359Y95249D01*
X306941Y95249D01*
X304191Y98000D01*
X304121Y98052D01*
X304057Y98112D01*
X304008Y98138D01*
X303963Y98171D01*
X303882Y98202D01*
X303804Y98242D01*
X303756Y98250D01*
X303698Y98272D01*
X303550Y98284D01*
X303473Y98297D01*
X290685Y98297D01*
X288071Y99380D01*
X279720Y107731D01*
X278637Y110345D01*
X278637Y146493D01*
X278625Y146580D01*
X278622Y146667D01*
X278605Y146720D01*
X278597Y146775D01*
X278562Y146855D01*
X278535Y146938D01*
X278507Y146977D01*
X278481Y147034D01*
X278385Y147147D01*
X278340Y147211D01*
X249240Y176311D01*
X248157Y178925D01*
X248157Y185363D01*
X248145Y185449D01*
X248142Y185537D01*
X248125Y185589D01*
X248117Y185644D01*
X248082Y185724D01*
X248055Y185807D01*
X248027Y185847D01*
X248001Y185904D01*
X247905Y186017D01*
X247860Y186081D01*
X245109Y188831D01*
X245109Y190859D01*
X245093Y190973D01*
X245083Y191087D01*
X245073Y191113D01*
X245069Y191141D01*
X245022Y191246D01*
X244981Y191353D01*
X244965Y191375D01*
X244953Y191400D01*
X244879Y191488D01*
X244810Y191579D01*
X244787Y191596D01*
X244770Y191617D01*
X244674Y191681D01*
X244582Y191750D01*
X244556Y191759D01*
X244533Y191775D01*
X244423Y191809D01*
X244316Y191850D01*
X244288Y191852D01*
X244262Y191861D01*
X244147Y191863D01*
X244033Y191873D01*
X244008Y191867D01*
X243978Y191868D01*
X243721Y191801D01*
X243705Y191797D01*
X242412Y191261D01*
X233229Y191261D01*
X233200Y191257D01*
X233171Y191260D01*
X233060Y191237D01*
X232948Y191221D01*
X232921Y191209D01*
X232892Y191204D01*
X232791Y191151D01*
X232688Y191105D01*
X232666Y191086D01*
X232640Y191073D01*
X232558Y190995D01*
X232471Y190922D01*
X232455Y190897D01*
X232434Y190877D01*
X232377Y190779D01*
X232314Y190685D01*
X232305Y190657D01*
X232290Y190632D01*
X232262Y190522D01*
X232228Y190414D01*
X232227Y190384D01*
X232220Y190356D01*
X232224Y190243D01*
X232221Y190130D01*
X232228Y190101D01*
X232229Y190072D01*
X232264Y189964D01*
X232292Y189855D01*
X232307Y189829D01*
X232316Y189801D01*
X232362Y189737D01*
X232438Y189610D01*
X232483Y189567D01*
X232511Y189528D01*
X233681Y188359D01*
X233681Y179941D01*
X227729Y173989D01*
X219311Y173989D01*
X213359Y179941D01*
X213359Y185268D01*
X213347Y185355D01*
X213344Y185442D01*
X213327Y185495D01*
X213319Y185550D01*
X213284Y185629D01*
X213257Y185713D01*
X213229Y185752D01*
X213203Y185809D01*
X213107Y185922D01*
X213062Y185986D01*
X207322Y191726D01*
X207252Y191778D01*
X207188Y191838D01*
X207139Y191864D01*
X207095Y191897D01*
X207013Y191928D01*
X206935Y191968D01*
X206888Y191976D01*
X206829Y191998D01*
X206681Y192010D01*
X206604Y192023D01*
X135947Y192023D01*
X133993Y192833D01*
X133881Y192862D01*
X133772Y192896D01*
X133744Y192897D01*
X133717Y192904D01*
X133603Y192901D01*
X133488Y192904D01*
X133461Y192897D01*
X133433Y192896D01*
X133324Y192861D01*
X133213Y192832D01*
X133189Y192818D01*
X133162Y192809D01*
X133067Y192745D01*
X132968Y192687D01*
X132949Y192666D01*
X132926Y192651D01*
X132852Y192563D01*
X132774Y192479D01*
X132761Y192454D01*
X132743Y192433D01*
X132697Y192328D01*
X132644Y192226D01*
X132640Y192201D01*
X132628Y192173D01*
X132591Y191910D01*
X132589Y191895D01*
X132589Y165078D01*
X132601Y164991D01*
X132604Y164904D01*
X132621Y164851D01*
X132629Y164796D01*
X132664Y164716D01*
X132691Y164633D01*
X132719Y164594D01*
X132745Y164537D01*
X132841Y164423D01*
X132886Y164360D01*
X169948Y127298D01*
X170017Y127246D01*
X170081Y127186D01*
X170131Y127160D01*
X170175Y127127D01*
X170257Y127096D01*
X170335Y127056D01*
X170382Y127048D01*
X170441Y127026D01*
X170588Y127014D01*
X170666Y127001D01*
X173119Y127001D01*
X179071Y121049D01*
X179071Y118596D01*
X179083Y118509D01*
X179086Y118422D01*
X179103Y118369D01*
X179111Y118314D01*
X179146Y118234D01*
X179173Y118151D01*
X179201Y118112D01*
X179227Y118055D01*
X179323Y117941D01*
X179368Y117878D01*
X243100Y54146D01*
X243169Y54094D01*
X243233Y54034D01*
X243283Y54008D01*
X243327Y53975D01*
X243409Y53944D01*
X243487Y53904D01*
X243534Y53896D01*
X243593Y53874D01*
X243740Y53862D01*
X243818Y53849D01*
X302570Y53849D01*
X302601Y53853D01*
X302631Y53851D01*
X302708Y53868D01*
X302852Y53889D01*
X302910Y53915D01*
X302959Y53926D01*
X303385Y54103D01*
X306215Y54103D01*
X306641Y53926D01*
X306671Y53918D01*
X306699Y53904D01*
X306776Y53891D01*
X306917Y53855D01*
X306981Y53857D01*
X307030Y53849D01*
X373473Y53849D01*
X376461Y52611D01*
X378890Y50182D01*
X385794Y43278D01*
X385809Y43267D01*
X385821Y43252D01*
X385883Y43211D01*
X385999Y43123D01*
X387060Y42012D01*
X387071Y42004D01*
X387077Y41995D01*
X388182Y40890D01*
X388241Y40790D01*
X388796Y39356D01*
X388802Y39345D01*
X388805Y39335D01*
X389402Y37891D01*
X389419Y37776D01*
X389396Y36810D01*
X389408Y36712D01*
X389411Y36613D01*
X389424Y36571D01*
X389430Y36528D01*
X389468Y36437D01*
X389499Y36342D01*
X389521Y36311D01*
X389540Y36266D01*
X389652Y36127D01*
X389693Y36069D01*
X390475Y35287D01*
X392177Y31179D01*
X392177Y19621D01*
X390475Y15513D01*
X387331Y12369D01*
X383223Y10667D01*
X378777Y10667D01*
X374669Y12369D01*
X371525Y15513D01*
X369823Y19621D01*
X369823Y31179D01*
X371051Y34143D01*
X371051Y34145D01*
X371052Y34146D01*
X371086Y34279D01*
X371122Y34418D01*
X371122Y34420D01*
X371122Y34421D01*
X371118Y34562D01*
X371114Y34702D01*
X371113Y34704D01*
X371113Y34706D01*
X371070Y34840D01*
X371027Y34973D01*
X371026Y34975D01*
X371026Y34976D01*
X371017Y34988D01*
X370869Y35209D01*
X370845Y35229D01*
X370831Y35249D01*
X368786Y37294D01*
X368716Y37346D01*
X368653Y37406D01*
X368603Y37432D01*
X368559Y37465D01*
X368477Y37496D01*
X368399Y37536D01*
X368352Y37544D01*
X368293Y37566D01*
X368146Y37578D01*
X368068Y37591D01*
X365222Y37591D01*
X365193Y37587D01*
X365164Y37590D01*
X365053Y37567D01*
X364941Y37551D01*
X364914Y37539D01*
X364885Y37534D01*
X364784Y37481D01*
X364681Y37435D01*
X364659Y37416D01*
X364633Y37403D01*
X364551Y37325D01*
X364464Y37252D01*
X364448Y37227D01*
X364427Y37207D01*
X364369Y37109D01*
X364307Y37015D01*
X364298Y36987D01*
X364283Y36962D01*
X364255Y36852D01*
X364221Y36744D01*
X364220Y36714D01*
X364213Y36686D01*
X364216Y36573D01*
X364213Y36460D01*
X364221Y36431D01*
X364222Y36402D01*
X364257Y36294D01*
X364285Y36185D01*
X364300Y36159D01*
X364309Y36131D01*
X364355Y36067D01*
X364431Y35940D01*
X364476Y35897D01*
X364504Y35858D01*
X365075Y35287D01*
X366777Y31179D01*
X366777Y19621D01*
X365075Y15513D01*
X361931Y12369D01*
X357823Y10667D01*
X353377Y10667D01*
X349269Y12369D01*
X346125Y15513D01*
X344423Y19621D01*
X344423Y31179D01*
X346125Y35287D01*
X346696Y35858D01*
X346714Y35882D01*
X346736Y35901D01*
X346799Y35995D01*
X346867Y36085D01*
X346877Y36113D01*
X346893Y36137D01*
X346928Y36245D01*
X346968Y36351D01*
X346970Y36380D01*
X346979Y36408D01*
X346982Y36522D01*
X346992Y36634D01*
X346986Y36663D01*
X346987Y36692D01*
X346958Y36802D01*
X346936Y36913D01*
X346922Y36939D01*
X346915Y36967D01*
X346857Y37065D01*
X346805Y37165D01*
X346784Y37187D01*
X346769Y37212D01*
X346687Y37289D01*
X346609Y37371D01*
X346584Y37386D01*
X346562Y37406D01*
X346461Y37458D01*
X346364Y37515D01*
X346335Y37522D01*
X346309Y37536D01*
X346232Y37549D01*
X346088Y37585D01*
X346026Y37583D01*
X345978Y37591D01*
X339822Y37591D01*
X339793Y37587D01*
X339764Y37590D01*
X339653Y37567D01*
X339541Y37551D01*
X339514Y37539D01*
X339485Y37534D01*
X339384Y37481D01*
X339281Y37435D01*
X339259Y37416D01*
X339233Y37403D01*
X339151Y37325D01*
X339064Y37252D01*
X339048Y37227D01*
X339027Y37207D01*
X338969Y37109D01*
X338907Y37015D01*
X338898Y36987D01*
X338883Y36962D01*
X338855Y36852D01*
X338821Y36744D01*
X338820Y36714D01*
X338813Y36686D01*
X338816Y36573D01*
X338813Y36460D01*
X338821Y36431D01*
X338822Y36402D01*
X338857Y36294D01*
X338885Y36185D01*
X338900Y36159D01*
X338909Y36131D01*
X338955Y36067D01*
X339031Y35940D01*
X339076Y35897D01*
X339104Y35858D01*
X339675Y35287D01*
X341377Y31179D01*
X341377Y19621D01*
X339675Y15513D01*
X336531Y12369D01*
X332423Y10667D01*
X327977Y10667D01*
X323869Y12369D01*
X320725Y15513D01*
X319023Y19621D01*
X319023Y31179D01*
X320725Y35287D01*
X321296Y35858D01*
X321314Y35882D01*
X321336Y35901D01*
X321399Y35995D01*
X321467Y36085D01*
X321477Y36113D01*
X321493Y36137D01*
X321528Y36245D01*
X321568Y36351D01*
X321570Y36380D01*
X321579Y36408D01*
X321582Y36522D01*
X321592Y36634D01*
X321586Y36663D01*
X321587Y36692D01*
X321558Y36802D01*
X321536Y36913D01*
X321522Y36939D01*
X321515Y36967D01*
X321457Y37065D01*
X321405Y37165D01*
X321384Y37187D01*
X321369Y37212D01*
X321287Y37289D01*
X321209Y37371D01*
X321184Y37386D01*
X321162Y37406D01*
X321061Y37458D01*
X320964Y37515D01*
X320935Y37522D01*
X320909Y37536D01*
X320832Y37549D01*
X320688Y37585D01*
X320626Y37583D01*
X320578Y37591D01*
X314422Y37591D01*
X314393Y37587D01*
X314364Y37590D01*
X314253Y37567D01*
X314141Y37551D01*
X314114Y37539D01*
X314085Y37534D01*
X313984Y37481D01*
X313881Y37435D01*
X313859Y37416D01*
X313833Y37403D01*
X313751Y37325D01*
X313664Y37252D01*
X313648Y37227D01*
X313627Y37207D01*
X313569Y37109D01*
X313507Y37015D01*
X313498Y36987D01*
X313483Y36962D01*
X313455Y36852D01*
X313421Y36744D01*
X313420Y36714D01*
X313413Y36686D01*
X313416Y36573D01*
X313413Y36460D01*
X313421Y36431D01*
X313422Y36402D01*
X313457Y36294D01*
X313485Y36185D01*
X313500Y36159D01*
X313509Y36131D01*
X313555Y36067D01*
X313631Y35940D01*
X313676Y35897D01*
X313704Y35858D01*
X314275Y35287D01*
X315977Y31179D01*
X315977Y19621D01*
X314275Y15513D01*
X311131Y12369D01*
X307023Y10667D01*
X302577Y10667D01*
X298469Y12369D01*
X295325Y15513D01*
X293623Y19621D01*
X293623Y31179D01*
X295325Y35287D01*
X295896Y35858D01*
X295914Y35882D01*
X295936Y35901D01*
X295999Y35995D01*
X296067Y36085D01*
X296077Y36113D01*
X296093Y36137D01*
X296128Y36245D01*
X296168Y36351D01*
X296170Y36380D01*
X296179Y36408D01*
X296182Y36522D01*
X296192Y36634D01*
X296186Y36663D01*
X296187Y36692D01*
X296158Y36802D01*
X296136Y36913D01*
X296122Y36939D01*
X296115Y36967D01*
X296057Y37065D01*
X296005Y37165D01*
X295984Y37187D01*
X295969Y37212D01*
X295887Y37289D01*
X295809Y37371D01*
X295784Y37386D01*
X295762Y37406D01*
X295661Y37458D01*
X295564Y37515D01*
X295535Y37522D01*
X295509Y37536D01*
X295432Y37549D01*
X295288Y37585D01*
X295226Y37583D01*
X295178Y37591D01*
X289022Y37591D01*
X288993Y37587D01*
X288964Y37590D01*
X288853Y37567D01*
X288741Y37551D01*
X288714Y37539D01*
X288685Y37534D01*
X288584Y37481D01*
X288481Y37435D01*
X288459Y37416D01*
X288433Y37403D01*
X288351Y37325D01*
X288264Y37252D01*
X288248Y37227D01*
X288227Y37207D01*
X288169Y37109D01*
X288107Y37015D01*
X288098Y36987D01*
X288083Y36962D01*
X288055Y36852D01*
X288021Y36744D01*
X288020Y36714D01*
X288013Y36686D01*
X288016Y36573D01*
X288013Y36460D01*
X288021Y36431D01*
X288022Y36402D01*
X288057Y36294D01*
X288085Y36185D01*
X288100Y36159D01*
X288109Y36131D01*
X288155Y36067D01*
X288231Y35940D01*
X288276Y35897D01*
X288304Y35858D01*
X288875Y35287D01*
X290577Y31179D01*
X290577Y19621D01*
X288875Y15513D01*
X285731Y12369D01*
X281623Y10667D01*
X277177Y10667D01*
X273069Y12369D01*
X269925Y15513D01*
X268223Y19621D01*
X268223Y31179D01*
X269925Y35287D01*
X270496Y35858D01*
X270514Y35882D01*
X270536Y35901D01*
X270599Y35995D01*
X270667Y36085D01*
X270677Y36113D01*
X270693Y36137D01*
X270728Y36245D01*
X270768Y36351D01*
X270770Y36380D01*
X270779Y36408D01*
X270782Y36522D01*
X270792Y36634D01*
X270786Y36663D01*
X270787Y36692D01*
X270758Y36802D01*
X270736Y36913D01*
X270722Y36939D01*
X270715Y36967D01*
X270657Y37065D01*
X270605Y37165D01*
X270584Y37187D01*
X270569Y37212D01*
X270487Y37289D01*
X270409Y37371D01*
X270384Y37386D01*
X270362Y37406D01*
X270261Y37458D01*
X270164Y37515D01*
X270135Y37522D01*
X270109Y37536D01*
X270032Y37549D01*
X269888Y37585D01*
X269826Y37583D01*
X269778Y37591D01*
X238413Y37591D01*
X235425Y38829D01*
X167872Y106382D01*
X167803Y106434D01*
X167739Y106494D01*
X167689Y106520D01*
X167645Y106553D01*
X167563Y106584D01*
X167485Y106624D01*
X167438Y106632D01*
X167379Y106654D01*
X167232Y106666D01*
X167154Y106679D01*
X164701Y106679D01*
X158749Y112631D01*
X158749Y115084D01*
X158737Y115171D01*
X158734Y115258D01*
X158717Y115311D01*
X158709Y115366D01*
X158674Y115446D01*
X158647Y115529D01*
X158619Y115568D01*
X158593Y115625D01*
X158497Y115739D01*
X158452Y115802D01*
X124652Y149602D01*
X124605Y149637D01*
X124565Y149680D01*
X124492Y149723D01*
X124425Y149773D01*
X124370Y149794D01*
X124320Y149824D01*
X124238Y149844D01*
X124159Y149875D01*
X124101Y149879D01*
X124044Y149894D01*
X123960Y149891D01*
X123876Y149898D01*
X123818Y149887D01*
X123760Y149885D01*
X123680Y149859D01*
X123597Y149842D01*
X123545Y149815D01*
X123489Y149797D01*
X123433Y149757D01*
X123345Y149711D01*
X123272Y149642D01*
X123216Y149602D01*
X95876Y122262D01*
X93822Y121411D01*
X25114Y121411D01*
X25000Y121395D01*
X24886Y121385D01*
X24860Y121375D01*
X24832Y121371D01*
X24727Y121324D01*
X24620Y121283D01*
X24598Y121267D01*
X24573Y121255D01*
X24485Y121181D01*
X24394Y121112D01*
X24377Y121089D01*
X24356Y121072D01*
X24292Y120976D01*
X24223Y120884D01*
X24214Y120858D01*
X24198Y120835D01*
X24164Y120725D01*
X24123Y120618D01*
X24121Y120590D01*
X24112Y120564D01*
X24110Y120449D01*
X24100Y120335D01*
X24106Y120310D01*
X24105Y120280D01*
X24172Y120023D01*
X24176Y120007D01*
X24512Y119196D01*
X24512Y20504D01*
X23680Y18496D01*
X22144Y16960D01*
X20136Y16128D01*
X8890Y16128D01*
X8832Y16120D01*
X8774Y16122D01*
X8692Y16100D01*
X8608Y16088D01*
X8555Y16065D01*
X8499Y16050D01*
X8426Y16007D01*
X8349Y15972D01*
X8304Y15934D01*
X8254Y15905D01*
X8196Y15843D01*
X8132Y15789D01*
X8100Y15740D01*
X8060Y15697D01*
X8021Y15622D01*
X7974Y15552D01*
X7957Y15496D01*
X7930Y15444D01*
X7919Y15376D01*
X7889Y15281D01*
X7886Y15181D01*
X7875Y15113D01*
X7875Y10000D01*
X7883Y9944D01*
X7880Y9900D01*
X7901Y9684D01*
X7968Y9408D01*
X7972Y9401D01*
X7973Y9395D01*
X8139Y8995D01*
X8155Y8968D01*
X8164Y8939D01*
X8210Y8875D01*
X8284Y8750D01*
X8330Y8706D01*
X8359Y8665D01*
X8665Y8359D01*
X8690Y8341D01*
X8710Y8317D01*
X8777Y8275D01*
X8893Y8188D01*
X8953Y8165D01*
X8995Y8139D01*
X9395Y7973D01*
X9670Y7902D01*
X9678Y7903D01*
X9684Y7901D01*
X9900Y7880D01*
X9957Y7882D01*
X10000Y7875D01*
X122806Y7875D01*
X122835Y7879D01*
G37*
G36*
X234210Y212865D02*
X234210Y212865D01*
X234297Y212868D01*
X234350Y212885D01*
X234405Y212893D01*
X234485Y212928D01*
X234568Y212955D01*
X234607Y212983D01*
X234664Y213009D01*
X234777Y213105D01*
X234841Y213150D01*
X235160Y213469D01*
X235212Y213539D01*
X235272Y213603D01*
X235298Y213652D01*
X235331Y213696D01*
X235362Y213778D01*
X235402Y213856D01*
X235410Y213903D01*
X235432Y213962D01*
X235444Y214109D01*
X235457Y214187D01*
X235457Y271925D01*
X236540Y274539D01*
X238462Y276461D01*
X238514Y276531D01*
X238574Y276595D01*
X238600Y276644D01*
X238633Y276688D01*
X238664Y276770D01*
X238704Y276848D01*
X238712Y276895D01*
X238734Y276954D01*
X238746Y277101D01*
X238759Y277179D01*
X238759Y278218D01*
X238747Y278305D01*
X238744Y278392D01*
X238727Y278445D01*
X238719Y278500D01*
X238684Y278580D01*
X238657Y278663D01*
X238629Y278702D01*
X238603Y278759D01*
X238507Y278872D01*
X238462Y278936D01*
X224678Y292720D01*
X223595Y295334D01*
X223595Y388333D01*
X224678Y390947D01*
X236238Y402507D01*
X236273Y402554D01*
X236316Y402594D01*
X236358Y402667D01*
X236409Y402734D01*
X236430Y402789D01*
X236459Y402839D01*
X236480Y402921D01*
X236510Y403000D01*
X236515Y403058D01*
X236530Y403115D01*
X236527Y403199D01*
X236534Y403283D01*
X236522Y403341D01*
X236521Y403399D01*
X236495Y403479D01*
X236478Y403562D01*
X236451Y403614D01*
X236433Y403670D01*
X236393Y403726D01*
X236347Y403814D01*
X236278Y403887D01*
X236238Y403943D01*
X234013Y406168D01*
X233967Y406203D01*
X233926Y406245D01*
X233853Y406288D01*
X233786Y406339D01*
X233731Y406360D01*
X233681Y406389D01*
X233599Y406410D01*
X233520Y406440D01*
X233462Y406445D01*
X233405Y406459D01*
X233321Y406457D01*
X233237Y406464D01*
X233180Y406452D01*
X233121Y406450D01*
X233041Y406424D01*
X232958Y406408D01*
X232906Y406381D01*
X232851Y406363D01*
X232795Y406323D01*
X232706Y406277D01*
X232634Y406208D01*
X232577Y406168D01*
X226459Y400049D01*
X221742Y400049D01*
X221684Y400041D01*
X221626Y400043D01*
X221544Y400021D01*
X221460Y400009D01*
X221407Y399986D01*
X221351Y399971D01*
X221278Y399928D01*
X221201Y399893D01*
X221156Y399855D01*
X221106Y399826D01*
X221048Y399764D01*
X220984Y399710D01*
X220952Y399661D01*
X220912Y399618D01*
X220873Y399543D01*
X220826Y399473D01*
X220809Y399417D01*
X220782Y399365D01*
X220771Y399297D01*
X220741Y399202D01*
X220738Y399102D01*
X220727Y399034D01*
X220727Y393624D01*
X213436Y386333D01*
X203124Y386333D01*
X196298Y393160D01*
X196251Y393195D01*
X196211Y393237D01*
X196138Y393280D01*
X196071Y393331D01*
X196016Y393351D01*
X195966Y393381D01*
X195884Y393402D01*
X195805Y393432D01*
X195747Y393437D01*
X195690Y393451D01*
X195606Y393448D01*
X195522Y393455D01*
X195464Y393444D01*
X195406Y393442D01*
X195326Y393416D01*
X195243Y393400D01*
X195191Y393373D01*
X195135Y393355D01*
X195079Y393315D01*
X194991Y393269D01*
X194918Y393200D01*
X194862Y393160D01*
X188036Y386333D01*
X177724Y386333D01*
X170433Y393624D01*
X170433Y403936D01*
X177260Y410762D01*
X177295Y410809D01*
X177337Y410849D01*
X177380Y410922D01*
X177431Y410989D01*
X177451Y411044D01*
X177481Y411094D01*
X177502Y411176D01*
X177532Y411255D01*
X177537Y411313D01*
X177551Y411370D01*
X177548Y411454D01*
X177555Y411538D01*
X177544Y411596D01*
X177542Y411654D01*
X177516Y411734D01*
X177500Y411817D01*
X177473Y411869D01*
X177455Y411925D01*
X177415Y411981D01*
X177369Y412069D01*
X177300Y412142D01*
X177260Y412198D01*
X170433Y419024D01*
X170433Y429336D01*
X177707Y436609D01*
X177724Y436632D01*
X177745Y436650D01*
X177762Y436675D01*
X177784Y436696D01*
X177827Y436769D01*
X177878Y436836D01*
X177889Y436865D01*
X177903Y436887D01*
X177911Y436912D01*
X177928Y436941D01*
X177949Y437023D01*
X177979Y437102D01*
X177982Y437135D01*
X177989Y437158D01*
X177989Y437182D01*
X177998Y437217D01*
X177995Y437301D01*
X178002Y437385D01*
X177995Y437420D01*
X177996Y437442D01*
X177990Y437464D01*
X177989Y437501D01*
X177963Y437581D01*
X177946Y437664D01*
X177929Y437697D01*
X177924Y437717D01*
X177913Y437735D01*
X177902Y437771D01*
X177861Y437828D01*
X177815Y437916D01*
X177789Y437944D01*
X177779Y437961D01*
X177741Y437997D01*
X177707Y438045D01*
X171065Y444686D01*
X171065Y454474D01*
X178154Y461562D01*
X178189Y461609D01*
X178231Y461649D01*
X178274Y461722D01*
X178324Y461789D01*
X178345Y461844D01*
X178375Y461894D01*
X178396Y461976D01*
X178426Y462055D01*
X178431Y462113D01*
X178445Y462170D01*
X178442Y462254D01*
X178449Y462338D01*
X178438Y462396D01*
X178436Y462454D01*
X178410Y462534D01*
X178393Y462617D01*
X178366Y462669D01*
X178348Y462725D01*
X178308Y462781D01*
X178262Y462869D01*
X178194Y462942D01*
X178154Y462998D01*
X175841Y465311D01*
X175794Y465346D01*
X175754Y465388D01*
X175681Y465431D01*
X175614Y465482D01*
X175559Y465502D01*
X175509Y465532D01*
X175427Y465553D01*
X175348Y465583D01*
X175290Y465588D01*
X175233Y465602D01*
X175149Y465599D01*
X175065Y465606D01*
X175007Y465595D01*
X174949Y465593D01*
X174869Y465567D01*
X174786Y465550D01*
X174734Y465523D01*
X174678Y465505D01*
X174622Y465465D01*
X174534Y465419D01*
X174461Y465351D01*
X174405Y465311D01*
X168495Y459401D01*
X166852Y457757D01*
X166137Y457461D01*
X166038Y457403D01*
X165936Y457350D01*
X165916Y457331D01*
X165892Y457317D01*
X165814Y457233D01*
X165730Y457154D01*
X165716Y457130D01*
X165697Y457110D01*
X165644Y457008D01*
X165586Y456909D01*
X165580Y456882D01*
X165567Y456857D01*
X165545Y456745D01*
X165516Y456633D01*
X165517Y456606D01*
X165512Y456579D01*
X165522Y456464D01*
X165525Y456349D01*
X165534Y456323D01*
X165536Y456295D01*
X165578Y456188D01*
X165613Y456079D01*
X165627Y456059D01*
X165638Y456030D01*
X165799Y455818D01*
X165808Y455805D01*
X167771Y453843D01*
X167771Y451611D01*
X158496Y451611D01*
X158438Y451603D01*
X158380Y451605D01*
X158298Y451583D01*
X158215Y451571D01*
X158161Y451547D01*
X158105Y451533D01*
X158032Y451490D01*
X157955Y451455D01*
X157911Y451417D01*
X157860Y451387D01*
X157803Y451326D01*
X157738Y451271D01*
X157706Y451223D01*
X157666Y451180D01*
X157627Y451105D01*
X157581Y451035D01*
X157563Y450979D01*
X157536Y450927D01*
X157525Y450859D01*
X157495Y450764D01*
X157492Y450664D01*
X157481Y450596D01*
X157481Y449579D01*
X157479Y449579D01*
X157479Y450596D01*
X157471Y450654D01*
X157472Y450712D01*
X157451Y450794D01*
X157439Y450877D01*
X157415Y450931D01*
X157401Y450987D01*
X157358Y451060D01*
X157323Y451137D01*
X157285Y451182D01*
X157255Y451232D01*
X157194Y451290D01*
X157139Y451354D01*
X157091Y451386D01*
X157048Y451426D01*
X156973Y451465D01*
X156903Y451511D01*
X156847Y451529D01*
X156795Y451556D01*
X156727Y451567D01*
X156632Y451597D01*
X156532Y451600D01*
X156464Y451611D01*
X147189Y451611D01*
X147189Y453843D01*
X149152Y455805D01*
X149221Y455897D01*
X149295Y455985D01*
X149306Y456011D01*
X149323Y456033D01*
X149364Y456140D01*
X149411Y456245D01*
X149414Y456272D01*
X149424Y456298D01*
X149434Y456413D01*
X149450Y456527D01*
X149446Y456554D01*
X149448Y456582D01*
X149425Y456694D01*
X149409Y456808D01*
X149398Y456833D01*
X149392Y456860D01*
X149339Y456962D01*
X149292Y457067D01*
X149274Y457088D01*
X149261Y457113D01*
X149182Y457196D01*
X149108Y457283D01*
X149086Y457297D01*
X149065Y457319D01*
X148836Y457453D01*
X148823Y457461D01*
X148108Y457757D01*
X125088Y480778D01*
X125018Y480830D01*
X124954Y480890D01*
X124905Y480916D01*
X124860Y480949D01*
X124779Y480980D01*
X124701Y481020D01*
X124653Y481028D01*
X124595Y481050D01*
X124447Y481062D01*
X124370Y481075D01*
X101330Y481075D01*
X101244Y481063D01*
X101156Y481060D01*
X101104Y481043D01*
X101049Y481035D01*
X100969Y481000D01*
X100886Y480973D01*
X100846Y480945D01*
X100789Y480919D01*
X100676Y480823D01*
X100612Y480778D01*
X99358Y479524D01*
X99306Y479454D01*
X99246Y479390D01*
X99220Y479341D01*
X99187Y479296D01*
X99156Y479215D01*
X99116Y479137D01*
X99108Y479089D01*
X99086Y479031D01*
X99074Y478883D01*
X99061Y478806D01*
X99061Y472401D01*
X93109Y466449D01*
X84691Y466449D01*
X78739Y472401D01*
X78739Y480819D01*
X84691Y486771D01*
X91096Y486771D01*
X91182Y486783D01*
X91270Y486786D01*
X91322Y486803D01*
X91377Y486811D01*
X91457Y486846D01*
X91540Y486873D01*
X91580Y486901D01*
X91637Y486927D01*
X91750Y487023D01*
X91814Y487068D01*
X94669Y489923D01*
X94761Y490045D01*
X94812Y490104D01*
X94990Y490388D01*
X95426Y490700D01*
X95497Y490768D01*
X95553Y490808D01*
X95932Y491187D01*
X96242Y491315D01*
X96374Y491393D01*
X96444Y491427D01*
X96717Y491622D01*
X97239Y491743D01*
X97331Y491778D01*
X97398Y491794D01*
X97893Y491999D01*
X98228Y491999D01*
X98379Y492020D01*
X98457Y492025D01*
X98784Y492101D01*
X99313Y492013D01*
X99412Y492010D01*
X99480Y491999D01*
X100015Y491999D01*
X100325Y491870D01*
X100473Y491832D01*
X100547Y491807D01*
X100837Y491759D01*
X100936Y491756D01*
X101003Y491745D01*
X128061Y491745D01*
X130022Y490933D01*
X131665Y489289D01*
X143932Y477022D01*
X143956Y477005D01*
X143975Y476982D01*
X144069Y476920D01*
X144159Y476851D01*
X144187Y476841D01*
X144211Y476825D01*
X144319Y476790D01*
X144425Y476750D01*
X144454Y476748D01*
X144482Y476739D01*
X144596Y476736D01*
X144708Y476727D01*
X144737Y476732D01*
X144766Y476732D01*
X144876Y476760D01*
X144987Y476783D01*
X145013Y476796D01*
X145041Y476803D01*
X145139Y476861D01*
X145239Y476914D01*
X145261Y476934D01*
X145286Y476949D01*
X145363Y477031D01*
X145445Y477109D01*
X145460Y477135D01*
X145480Y477156D01*
X145532Y477257D01*
X145589Y477355D01*
X145596Y477383D01*
X145610Y477409D01*
X145623Y477487D01*
X145659Y477630D01*
X145657Y477693D01*
X145665Y477740D01*
X145665Y479874D01*
X149454Y483662D01*
X149471Y483686D01*
X149494Y483705D01*
X149556Y483799D01*
X149624Y483889D01*
X149635Y483917D01*
X149651Y483941D01*
X149685Y484049D01*
X149726Y484155D01*
X149728Y484184D01*
X149737Y484212D01*
X149740Y484326D01*
X149749Y484438D01*
X149744Y484467D01*
X149744Y484496D01*
X149716Y484606D01*
X149693Y484717D01*
X149680Y484743D01*
X149672Y484771D01*
X149615Y484869D01*
X149562Y484969D01*
X149542Y484991D01*
X149527Y485016D01*
X149445Y485093D01*
X149367Y485175D01*
X149341Y485190D01*
X149320Y485210D01*
X149219Y485262D01*
X149121Y485319D01*
X149093Y485326D01*
X149067Y485340D01*
X148989Y485353D01*
X148846Y485389D01*
X148783Y485387D01*
X148736Y485395D01*
X147904Y485395D01*
X139595Y488837D01*
X133237Y495195D01*
X129795Y503504D01*
X129795Y512496D01*
X133237Y520805D01*
X136224Y523792D01*
X136242Y523816D01*
X136264Y523835D01*
X136327Y523929D01*
X136395Y524019D01*
X136406Y524047D01*
X136422Y524071D01*
X136456Y524179D01*
X136496Y524285D01*
X136499Y524314D01*
X136508Y524342D01*
X136511Y524456D01*
X136520Y524568D01*
X136514Y524597D01*
X136515Y524626D01*
X136486Y524736D01*
X136464Y524847D01*
X136451Y524873D01*
X136443Y524901D01*
X136385Y524999D01*
X136333Y525099D01*
X136313Y525121D01*
X136298Y525146D01*
X136215Y525223D01*
X136137Y525305D01*
X136112Y525320D01*
X136091Y525340D01*
X135990Y525392D01*
X135892Y525449D01*
X135864Y525456D01*
X135837Y525470D01*
X135760Y525483D01*
X135616Y525519D01*
X135554Y525517D01*
X135506Y525525D01*
X10000Y525525D01*
X9944Y525517D01*
X9900Y525520D01*
X9684Y525499D01*
X9408Y525432D01*
X9401Y525428D01*
X9395Y525427D01*
X8995Y525261D01*
X8968Y525245D01*
X8939Y525236D01*
X8875Y525190D01*
X8750Y525116D01*
X8706Y525070D01*
X8665Y525041D01*
X8359Y524735D01*
X8341Y524710D01*
X8317Y524690D01*
X8275Y524623D01*
X8188Y524507D01*
X8165Y524447D01*
X8139Y524405D01*
X7973Y524005D01*
X7943Y523886D01*
X7912Y523790D01*
X7912Y523765D01*
X7902Y523730D01*
X7903Y523722D01*
X7901Y523716D01*
X7880Y523500D01*
X7882Y523443D01*
X7875Y523400D01*
X7875Y463550D01*
X7883Y463492D01*
X7881Y463434D01*
X7903Y463352D01*
X7915Y463269D01*
X7938Y463215D01*
X7953Y463159D01*
X7996Y463086D01*
X8031Y463009D01*
X8069Y462964D01*
X8098Y462914D01*
X8160Y462856D01*
X8214Y462792D01*
X8263Y462760D01*
X8306Y462720D01*
X8381Y462681D01*
X8451Y462635D01*
X8507Y462617D01*
X8559Y462590D01*
X8627Y462579D01*
X8722Y462549D01*
X8822Y462546D01*
X8890Y462535D01*
X113285Y462535D01*
X113285Y419465D01*
X113297Y419378D01*
X113300Y419291D01*
X113317Y419238D01*
X113325Y419183D01*
X113360Y419104D01*
X113387Y419020D01*
X113415Y418981D01*
X113441Y418924D01*
X113537Y418811D01*
X113582Y418747D01*
X115155Y417174D01*
X115218Y417127D01*
X115273Y417073D01*
X115331Y417042D01*
X115383Y417003D01*
X115455Y416975D01*
X115524Y416938D01*
X115587Y416925D01*
X115648Y416902D01*
X115726Y416895D01*
X115802Y416879D01*
X115858Y416884D01*
X115932Y416878D01*
X116059Y416904D01*
X116136Y416911D01*
X116251Y416942D01*
X119889Y416942D01*
X119889Y407416D01*
X119897Y407358D01*
X119895Y407300D01*
X119917Y407218D01*
X119929Y407135D01*
X119953Y407081D01*
X119967Y407025D01*
X120010Y406952D01*
X120045Y406875D01*
X120083Y406831D01*
X120113Y406780D01*
X120174Y406723D01*
X120229Y406658D01*
X120277Y406626D01*
X120320Y406586D01*
X120395Y406547D01*
X120465Y406501D01*
X120521Y406483D01*
X120573Y406456D01*
X120641Y406445D01*
X120736Y406415D01*
X120836Y406412D01*
X120904Y406401D01*
X121921Y406401D01*
X121921Y406399D01*
X120904Y406399D01*
X120846Y406391D01*
X120788Y406392D01*
X120706Y406371D01*
X120623Y406359D01*
X120569Y406335D01*
X120513Y406321D01*
X120440Y406278D01*
X120363Y406243D01*
X120318Y406205D01*
X120268Y406175D01*
X120210Y406114D01*
X120146Y406059D01*
X120114Y406011D01*
X120074Y405968D01*
X120035Y405893D01*
X119989Y405823D01*
X119971Y405767D01*
X119944Y405715D01*
X119933Y405647D01*
X119903Y405552D01*
X119900Y405452D01*
X119889Y405384D01*
X119889Y395858D01*
X116251Y395858D01*
X116136Y395889D01*
X116059Y395898D01*
X115983Y395918D01*
X115919Y395916D01*
X115854Y395923D01*
X115777Y395911D01*
X115699Y395909D01*
X115637Y395889D01*
X115573Y395878D01*
X115503Y395845D01*
X115429Y395821D01*
X115383Y395789D01*
X115316Y395757D01*
X115219Y395671D01*
X115155Y395626D01*
X113582Y394053D01*
X113530Y393983D01*
X113470Y393919D01*
X113444Y393870D01*
X113411Y393826D01*
X113380Y393744D01*
X113340Y393666D01*
X113332Y393619D01*
X113310Y393560D01*
X113298Y393412D01*
X113285Y393335D01*
X113285Y323145D01*
X113289Y323116D01*
X113286Y323087D01*
X113309Y322976D01*
X113325Y322864D01*
X113337Y322837D01*
X113342Y322808D01*
X113395Y322707D01*
X113441Y322604D01*
X113460Y322582D01*
X113473Y322556D01*
X113551Y322474D01*
X113625Y322387D01*
X113649Y322371D01*
X113669Y322350D01*
X113767Y322293D01*
X113861Y322230D01*
X113889Y322221D01*
X113914Y322206D01*
X114024Y322178D01*
X114132Y322144D01*
X114162Y322143D01*
X114190Y322136D01*
X114303Y322140D01*
X114416Y322137D01*
X114445Y322144D01*
X114474Y322145D01*
X114582Y322180D01*
X114691Y322208D01*
X114717Y322223D01*
X114745Y322232D01*
X114809Y322278D01*
X114936Y322354D01*
X114979Y322399D01*
X115018Y322427D01*
X116441Y323851D01*
X124859Y323851D01*
X130811Y317899D01*
X130811Y309481D01*
X124859Y303529D01*
X120969Y303529D01*
X120882Y303517D01*
X120795Y303514D01*
X120742Y303497D01*
X120687Y303489D01*
X120607Y303454D01*
X120524Y303427D01*
X120485Y303399D01*
X120428Y303373D01*
X120315Y303277D01*
X120251Y303232D01*
X113836Y296817D01*
X113784Y296747D01*
X113724Y296683D01*
X113698Y296634D01*
X113665Y296590D01*
X113634Y296508D01*
X113594Y296430D01*
X113586Y296383D01*
X113564Y296324D01*
X113552Y296177D01*
X113539Y296099D01*
X113539Y241808D01*
X113547Y241750D01*
X113545Y241692D01*
X113567Y241610D01*
X113579Y241526D01*
X113602Y241473D01*
X113617Y241417D01*
X113660Y241344D01*
X113695Y241267D01*
X113733Y241222D01*
X113762Y241172D01*
X113824Y241114D01*
X113878Y241050D01*
X113927Y241018D01*
X113970Y240978D01*
X114045Y240939D01*
X114115Y240892D01*
X114171Y240875D01*
X114223Y240848D01*
X114291Y240837D01*
X114386Y240807D01*
X114486Y240804D01*
X114554Y240793D01*
X124605Y240793D01*
X127219Y239710D01*
X148699Y218230D01*
X148769Y218178D01*
X148833Y218118D01*
X148882Y218092D01*
X148926Y218059D01*
X149008Y218028D01*
X149086Y217988D01*
X149133Y217980D01*
X149192Y217958D01*
X149339Y217946D01*
X149417Y217933D01*
X167416Y217933D01*
X167493Y217944D01*
X167570Y217944D01*
X167633Y217963D01*
X167698Y217973D01*
X167768Y218004D01*
X167842Y218027D01*
X167889Y218058D01*
X167957Y218089D01*
X168055Y218172D01*
X168120Y218216D01*
X178655Y228338D01*
X178662Y228347D01*
X178669Y228352D01*
X179659Y229342D01*
X179675Y229351D01*
X179683Y229355D01*
X180976Y229861D01*
X180986Y229866D01*
X180995Y229868D01*
X182288Y230404D01*
X182308Y230407D01*
X183702Y230379D01*
X183713Y230380D01*
X183723Y230379D01*
X195638Y230379D01*
X195650Y230381D01*
X195663Y230379D01*
X195726Y230391D01*
X195919Y230419D01*
X195934Y230425D01*
X197213Y230379D01*
X197233Y230381D01*
X197249Y230379D01*
X198545Y230379D01*
X198557Y230376D01*
X198746Y230328D01*
X198762Y230328D01*
X199927Y229796D01*
X199946Y229791D01*
X199960Y229782D01*
X201158Y229286D01*
X201168Y229279D01*
X201324Y229162D01*
X201339Y229156D01*
X202211Y228219D01*
X202226Y228206D01*
X202236Y228193D01*
X203153Y227276D01*
X203159Y227266D01*
X203259Y227098D01*
X203290Y227068D01*
X203309Y227039D01*
X206757Y223336D01*
X206839Y223270D01*
X206916Y223198D01*
X206949Y223181D01*
X206978Y223157D01*
X207075Y223116D01*
X207169Y223068D01*
X207202Y223063D01*
X207240Y223047D01*
X207440Y223023D01*
X207500Y223013D01*
X214775Y223013D01*
X217389Y221930D01*
X226169Y213150D01*
X226239Y213098D01*
X226303Y213038D01*
X226352Y213012D01*
X226396Y212979D01*
X226478Y212948D01*
X226556Y212908D01*
X226603Y212900D01*
X226662Y212878D01*
X226809Y212866D01*
X226887Y212853D01*
X234123Y212853D01*
X234210Y212865D01*
G37*
G36*
X92836Y125491D02*
X92836Y125491D01*
X92962Y125498D01*
X93008Y125511D01*
X93056Y125517D01*
X93175Y125559D01*
X93297Y125594D01*
X93339Y125618D01*
X93384Y125634D01*
X93491Y125703D01*
X93601Y125764D01*
X93647Y125804D01*
X93677Y125823D01*
X93711Y125858D01*
X93787Y125923D01*
X128077Y160213D01*
X128156Y160312D01*
X128240Y160406D01*
X128264Y160448D01*
X128294Y160486D01*
X128348Y160600D01*
X128409Y160711D01*
X128422Y160757D01*
X128443Y160801D01*
X128469Y160924D01*
X128504Y161046D01*
X128509Y161107D01*
X128516Y161142D01*
X128515Y161190D01*
X128523Y161290D01*
X128523Y194310D01*
X128509Y194436D01*
X128502Y194562D01*
X128489Y194608D01*
X128483Y194656D01*
X128441Y194775D01*
X128406Y194897D01*
X128382Y194939D01*
X128366Y194984D01*
X128297Y195091D01*
X128236Y195201D01*
X128196Y195247D01*
X128177Y195277D01*
X128142Y195311D01*
X128077Y195387D01*
X109473Y213991D01*
X109473Y297180D01*
X109470Y297206D01*
X109472Y297232D01*
X109450Y297379D01*
X109433Y297526D01*
X109425Y297551D01*
X109421Y297577D01*
X109366Y297715D01*
X109316Y297854D01*
X109302Y297876D01*
X109292Y297901D01*
X109207Y298022D01*
X109127Y298147D01*
X109108Y298165D01*
X109093Y298187D01*
X108983Y298286D01*
X108876Y298389D01*
X108854Y298403D01*
X108834Y298420D01*
X108704Y298492D01*
X108577Y298568D01*
X108552Y298576D01*
X108529Y298589D01*
X108386Y298629D01*
X108245Y298674D01*
X108219Y298676D01*
X108194Y298684D01*
X107950Y298703D01*
X9398Y298703D01*
X9372Y298700D01*
X9346Y298702D01*
X9199Y298680D01*
X9052Y298663D01*
X9027Y298655D01*
X9001Y298651D01*
X8863Y298596D01*
X8724Y298546D01*
X8702Y298532D01*
X8677Y298522D01*
X8556Y298437D01*
X8431Y298357D01*
X8413Y298338D01*
X8391Y298323D01*
X8292Y298213D01*
X8189Y298106D01*
X8175Y298084D01*
X8158Y298064D01*
X8086Y297934D01*
X8010Y297807D01*
X8002Y297782D01*
X7989Y297759D01*
X7949Y297616D01*
X7904Y297475D01*
X7902Y297449D01*
X7894Y297424D01*
X7875Y297180D01*
X7875Y127000D01*
X7878Y126974D01*
X7876Y126948D01*
X7898Y126801D01*
X7915Y126654D01*
X7923Y126629D01*
X7927Y126603D01*
X7982Y126465D01*
X8032Y126326D01*
X8046Y126304D01*
X8056Y126279D01*
X8141Y126158D01*
X8221Y126033D01*
X8240Y126015D01*
X8255Y125993D01*
X8365Y125894D01*
X8472Y125791D01*
X8494Y125777D01*
X8514Y125760D01*
X8644Y125688D01*
X8771Y125612D01*
X8796Y125604D01*
X8819Y125591D01*
X8962Y125551D01*
X9103Y125506D01*
X9129Y125504D01*
X9154Y125496D01*
X9398Y125477D01*
X92710Y125477D01*
X92836Y125491D01*
G37*
G36*
X446721Y158509D02*
X446721Y158509D01*
X446808Y158512D01*
X446861Y158529D01*
X446916Y158537D01*
X446995Y158572D01*
X447079Y158599D01*
X447118Y158627D01*
X447175Y158653D01*
X447288Y158749D01*
X447352Y158794D01*
X455270Y166713D01*
X457511Y167641D01*
X473515Y167641D01*
X473544Y167645D01*
X473573Y167642D01*
X473684Y167665D01*
X473796Y167681D01*
X473823Y167693D01*
X473852Y167698D01*
X473952Y167750D01*
X474056Y167797D01*
X474078Y167816D01*
X474104Y167829D01*
X474186Y167907D01*
X474273Y167980D01*
X474289Y168005D01*
X474310Y168025D01*
X474367Y168123D01*
X474430Y168217D01*
X474439Y168245D01*
X474454Y168270D01*
X474482Y168380D01*
X474516Y168488D01*
X474517Y168518D01*
X474524Y168546D01*
X474520Y168659D01*
X474523Y168772D01*
X474516Y168801D01*
X474515Y168830D01*
X474480Y168938D01*
X474451Y169047D01*
X474436Y169073D01*
X474427Y169101D01*
X474382Y169164D01*
X474306Y169292D01*
X474260Y169335D01*
X474232Y169374D01*
X460527Y183079D01*
X458812Y184794D01*
X457961Y186848D01*
X457961Y189617D01*
X457953Y189673D01*
X457955Y189721D01*
X457947Y189751D01*
X457945Y189800D01*
X457929Y189848D01*
X457921Y189898D01*
X457890Y189969D01*
X457883Y189996D01*
X457875Y190009D01*
X457855Y190069D01*
X457826Y190111D01*
X457805Y190158D01*
X457746Y190228D01*
X457740Y190236D01*
X457738Y190240D01*
X457736Y190241D01*
X457694Y190304D01*
X457654Y190336D01*
X457622Y190375D01*
X457545Y190426D01*
X457474Y190484D01*
X457427Y190504D01*
X457385Y190532D01*
X457297Y190560D01*
X457213Y190596D01*
X457162Y190603D01*
X457114Y190618D01*
X457022Y190620D01*
X456931Y190632D01*
X456880Y190624D01*
X456830Y190625D01*
X456741Y190602D01*
X456650Y190588D01*
X456610Y190568D01*
X456555Y190553D01*
X456450Y190491D01*
X456388Y190464D01*
X456371Y190449D01*
X456349Y190438D01*
X455909Y190118D01*
X454555Y189428D01*
X453110Y188959D01*
X452881Y188923D01*
X452881Y200914D01*
X452873Y200972D01*
X452875Y201030D01*
X452853Y201112D01*
X452841Y201195D01*
X452817Y201249D01*
X452803Y201305D01*
X452760Y201378D01*
X452725Y201455D01*
X452687Y201499D01*
X452657Y201550D01*
X452596Y201607D01*
X452541Y201672D01*
X452493Y201704D01*
X452450Y201744D01*
X452375Y201783D01*
X452305Y201829D01*
X452249Y201847D01*
X452197Y201874D01*
X452129Y201885D01*
X452034Y201915D01*
X451934Y201918D01*
X451866Y201929D01*
X450849Y201929D01*
X450849Y201931D01*
X451866Y201931D01*
X451924Y201939D01*
X451982Y201938D01*
X452064Y201959D01*
X452147Y201971D01*
X452201Y201995D01*
X452257Y202009D01*
X452330Y202052D01*
X452407Y202087D01*
X452452Y202125D01*
X452502Y202155D01*
X452560Y202216D01*
X452624Y202271D01*
X452656Y202319D01*
X452696Y202362D01*
X452735Y202437D01*
X452781Y202507D01*
X452799Y202563D01*
X452826Y202615D01*
X452837Y202683D01*
X452867Y202778D01*
X452870Y202878D01*
X452881Y202946D01*
X452881Y214937D01*
X453110Y214901D01*
X454555Y214432D01*
X455909Y213742D01*
X456349Y213422D01*
X456430Y213379D01*
X456507Y213328D01*
X456556Y213312D01*
X456600Y213289D01*
X456690Y213270D01*
X456778Y213242D01*
X456829Y213241D01*
X456879Y213230D01*
X456970Y213237D01*
X457062Y213235D01*
X457112Y213248D01*
X457162Y213251D01*
X457248Y213283D01*
X457337Y213307D01*
X457381Y213332D01*
X457429Y213350D01*
X457503Y213405D01*
X457582Y213452D01*
X457617Y213489D01*
X457657Y213519D01*
X457713Y213592D01*
X457776Y213659D01*
X457800Y213704D01*
X457830Y213745D01*
X457864Y213830D01*
X457906Y213912D01*
X457913Y213956D01*
X457934Y214009D01*
X457949Y214167D01*
X457961Y214243D01*
X457961Y249215D01*
X457921Y249497D01*
X457919Y249503D01*
X457918Y249509D01*
X457878Y249640D01*
X457956Y250418D01*
X457954Y250476D01*
X457961Y250519D01*
X457961Y251302D01*
X458014Y251428D01*
X458085Y251704D01*
X458084Y251710D01*
X458086Y251716D01*
X458100Y251852D01*
X458469Y252542D01*
X458489Y252595D01*
X458513Y252633D01*
X458812Y253356D01*
X458909Y253453D01*
X459080Y253680D01*
X459082Y253686D01*
X459086Y253691D01*
X459151Y253812D01*
X459756Y254307D01*
X459795Y254349D01*
X459831Y254375D01*
X460077Y254621D01*
X460130Y254690D01*
X460189Y254754D01*
X460215Y254804D01*
X460248Y254848D01*
X460279Y254929D01*
X460319Y255007D01*
X460327Y255055D01*
X460349Y255113D01*
X460361Y255261D01*
X460374Y255338D01*
X460374Y260114D01*
X466326Y266066D01*
X474744Y266066D01*
X478072Y262737D01*
X478119Y262702D01*
X478159Y262660D01*
X478232Y262617D01*
X478299Y262566D01*
X478354Y262546D01*
X478404Y262516D01*
X478486Y262495D01*
X478565Y262465D01*
X478623Y262460D01*
X478680Y262446D01*
X478764Y262449D01*
X478848Y262442D01*
X478906Y262453D01*
X478964Y262455D01*
X479044Y262481D01*
X479127Y262498D01*
X479179Y262524D01*
X479235Y262542D01*
X479291Y262583D01*
X479379Y262629D01*
X479452Y262697D01*
X479508Y262737D01*
X484106Y267336D01*
X491562Y267336D01*
X491676Y267352D01*
X491790Y267362D01*
X491816Y267372D01*
X491844Y267376D01*
X491949Y267423D01*
X492056Y267464D01*
X492078Y267480D01*
X492103Y267492D01*
X492191Y267566D01*
X492283Y267635D01*
X492299Y267658D01*
X492320Y267675D01*
X492384Y267771D01*
X492453Y267863D01*
X492462Y267889D01*
X492478Y267912D01*
X492513Y268022D01*
X492553Y268129D01*
X492555Y268157D01*
X492564Y268183D01*
X492567Y268298D01*
X492576Y268412D01*
X492570Y268437D01*
X492571Y268467D01*
X492504Y268724D01*
X492500Y268740D01*
X491743Y270567D01*
X491743Y321920D01*
X491739Y321949D01*
X491742Y321978D01*
X491719Y322089D01*
X491703Y322202D01*
X491691Y322228D01*
X491686Y322257D01*
X491634Y322358D01*
X491587Y322461D01*
X491568Y322483D01*
X491555Y322510D01*
X491477Y322592D01*
X491404Y322678D01*
X491379Y322694D01*
X491359Y322716D01*
X491261Y322773D01*
X491167Y322836D01*
X491139Y322845D01*
X491114Y322859D01*
X491004Y322887D01*
X490896Y322921D01*
X490867Y322922D01*
X490838Y322929D01*
X490725Y322926D01*
X490612Y322929D01*
X490583Y322921D01*
X490554Y322920D01*
X490446Y322885D01*
X490337Y322857D01*
X490311Y322842D01*
X490283Y322833D01*
X490220Y322787D01*
X490092Y322712D01*
X490049Y322666D01*
X490010Y322638D01*
X489721Y322349D01*
X489721Y322348D01*
X382375Y215003D01*
X382340Y214956D01*
X382298Y214916D01*
X382255Y214843D01*
X382204Y214776D01*
X382183Y214721D01*
X382154Y214671D01*
X382133Y214589D01*
X382103Y214510D01*
X382098Y214452D01*
X382084Y214395D01*
X382086Y214311D01*
X382079Y214227D01*
X382091Y214170D01*
X382093Y214111D01*
X382119Y214031D01*
X382135Y213948D01*
X382162Y213896D01*
X382180Y213841D01*
X382220Y213784D01*
X382266Y213696D01*
X382335Y213623D01*
X382375Y213567D01*
X384125Y211817D01*
X385827Y207709D01*
X385827Y196151D01*
X384125Y192043D01*
X380981Y188899D01*
X376873Y187197D01*
X372427Y187197D01*
X368319Y188899D01*
X365175Y192043D01*
X363473Y196151D01*
X363473Y206350D01*
X363469Y206379D01*
X363472Y206408D01*
X363449Y206520D01*
X363433Y206632D01*
X363421Y206658D01*
X363416Y206687D01*
X363363Y206788D01*
X363317Y206891D01*
X363298Y206913D01*
X363285Y206940D01*
X363207Y207022D01*
X363134Y207108D01*
X363109Y207124D01*
X363089Y207146D01*
X362991Y207203D01*
X362897Y207266D01*
X362869Y207275D01*
X362844Y207289D01*
X362734Y207317D01*
X362626Y207351D01*
X362596Y207352D01*
X362568Y207359D01*
X362455Y207356D01*
X362342Y207359D01*
X362313Y207351D01*
X362284Y207350D01*
X362176Y207315D01*
X362067Y207287D01*
X362041Y207272D01*
X362013Y207263D01*
X361949Y207217D01*
X361822Y207142D01*
X361779Y207096D01*
X361740Y207068D01*
X360724Y206052D01*
X360672Y205982D01*
X360612Y205918D01*
X360586Y205869D01*
X360553Y205825D01*
X360522Y205743D01*
X360482Y205665D01*
X360474Y205618D01*
X360452Y205559D01*
X360440Y205411D01*
X360427Y205334D01*
X360427Y196151D01*
X358725Y192043D01*
X355581Y188899D01*
X351473Y187197D01*
X347027Y187197D01*
X342919Y188899D01*
X339775Y192043D01*
X338073Y196151D01*
X338073Y206350D01*
X338069Y206379D01*
X338072Y206408D01*
X338049Y206519D01*
X338033Y206632D01*
X338021Y206658D01*
X338016Y206687D01*
X337964Y206788D01*
X337917Y206891D01*
X337898Y206914D01*
X337885Y206939D01*
X337807Y207022D01*
X337734Y207108D01*
X337709Y207124D01*
X337689Y207146D01*
X337591Y207203D01*
X337497Y207266D01*
X337469Y207275D01*
X337444Y207289D01*
X337334Y207317D01*
X337226Y207351D01*
X337196Y207352D01*
X337168Y207359D01*
X337055Y207356D01*
X336942Y207359D01*
X336913Y207351D01*
X336884Y207350D01*
X336776Y207316D01*
X336667Y207287D01*
X336641Y207272D01*
X336613Y207263D01*
X336550Y207217D01*
X336422Y207142D01*
X336379Y207096D01*
X336340Y207068D01*
X335324Y206052D01*
X335272Y205982D01*
X335212Y205918D01*
X335186Y205869D01*
X335153Y205825D01*
X335122Y205743D01*
X335082Y205665D01*
X335074Y205618D01*
X335052Y205559D01*
X335040Y205411D01*
X335027Y205334D01*
X335027Y196151D01*
X333325Y192043D01*
X330181Y188899D01*
X326073Y187197D01*
X321627Y187197D01*
X317519Y188899D01*
X314375Y192043D01*
X312673Y196151D01*
X312673Y206350D01*
X312669Y206379D01*
X312672Y206408D01*
X312649Y206520D01*
X312633Y206632D01*
X312621Y206658D01*
X312616Y206687D01*
X312563Y206788D01*
X312517Y206891D01*
X312498Y206913D01*
X312485Y206940D01*
X312407Y207022D01*
X312334Y207108D01*
X312309Y207124D01*
X312289Y207146D01*
X312191Y207203D01*
X312097Y207266D01*
X312069Y207275D01*
X312044Y207289D01*
X311934Y207317D01*
X311826Y207351D01*
X311796Y207352D01*
X311768Y207359D01*
X311655Y207356D01*
X311542Y207359D01*
X311513Y207351D01*
X311484Y207350D01*
X311376Y207315D01*
X311267Y207287D01*
X311241Y207272D01*
X311213Y207263D01*
X311149Y207217D01*
X311022Y207142D01*
X310979Y207096D01*
X310940Y207068D01*
X309924Y206052D01*
X309872Y205982D01*
X309812Y205918D01*
X309786Y205869D01*
X309753Y205825D01*
X309722Y205743D01*
X309682Y205665D01*
X309674Y205618D01*
X309652Y205559D01*
X309640Y205411D01*
X309627Y205334D01*
X309627Y196151D01*
X307925Y192043D01*
X304781Y188899D01*
X300673Y187197D01*
X297586Y187197D01*
X297557Y187193D01*
X297528Y187196D01*
X297417Y187173D01*
X297304Y187157D01*
X297278Y187145D01*
X297249Y187140D01*
X297148Y187088D01*
X297045Y187041D01*
X297022Y187022D01*
X296997Y187009D01*
X296914Y186931D01*
X296828Y186858D01*
X296812Y186833D01*
X296790Y186813D01*
X296733Y186715D01*
X296670Y186621D01*
X296661Y186593D01*
X296647Y186568D01*
X296619Y186458D01*
X296585Y186350D01*
X296584Y186320D01*
X296577Y186292D01*
X296580Y186179D01*
X296577Y186066D01*
X296585Y186037D01*
X296586Y186008D01*
X296620Y185900D01*
X296649Y185791D01*
X296664Y185765D01*
X296673Y185737D01*
X296719Y185674D01*
X296794Y185546D01*
X296840Y185503D01*
X296868Y185464D01*
X300678Y181654D01*
X300748Y181602D01*
X300812Y181542D01*
X300861Y181516D01*
X300905Y181483D01*
X300987Y181452D01*
X301065Y181412D01*
X301112Y181404D01*
X301171Y181382D01*
X301319Y181370D01*
X301396Y181357D01*
X309823Y181357D01*
X312064Y180429D01*
X322268Y170224D01*
X322338Y170172D01*
X322402Y170112D01*
X322451Y170086D01*
X322495Y170053D01*
X322577Y170022D01*
X322655Y169982D01*
X322702Y169974D01*
X322761Y169952D01*
X322909Y169940D01*
X322986Y169927D01*
X368497Y169927D01*
X368583Y169939D01*
X368671Y169942D01*
X368723Y169959D01*
X368778Y169967D01*
X368858Y170002D01*
X368941Y170029D01*
X368981Y170057D01*
X369038Y170083D01*
X369151Y170179D01*
X369215Y170224D01*
X372981Y173991D01*
X381399Y173991D01*
X385165Y170224D01*
X385235Y170172D01*
X385299Y170112D01*
X385348Y170086D01*
X385392Y170053D01*
X385474Y170022D01*
X385552Y169982D01*
X385600Y169974D01*
X385658Y169952D01*
X385806Y169940D01*
X385883Y169927D01*
X388563Y169927D01*
X390804Y168999D01*
X401008Y158794D01*
X401078Y158742D01*
X401142Y158682D01*
X401191Y158656D01*
X401235Y158623D01*
X401317Y158592D01*
X401395Y158552D01*
X401442Y158544D01*
X401501Y158522D01*
X401649Y158510D01*
X401726Y158497D01*
X446634Y158497D01*
X446721Y158509D01*
G37*
G36*
X277117Y253146D02*
X277117Y253146D01*
X277230Y253143D01*
X277259Y253151D01*
X277288Y253152D01*
X277396Y253186D01*
X277505Y253215D01*
X277531Y253230D01*
X277559Y253239D01*
X277622Y253285D01*
X277750Y253360D01*
X277793Y253406D01*
X277832Y253434D01*
X305874Y281476D01*
X305892Y281500D01*
X305914Y281519D01*
X305977Y281613D01*
X306045Y281703D01*
X306055Y281731D01*
X306072Y281755D01*
X306106Y281863D01*
X306146Y281969D01*
X306149Y281998D01*
X306157Y282026D01*
X306160Y282140D01*
X306170Y282252D01*
X306164Y282281D01*
X306165Y282310D01*
X306136Y282420D01*
X306114Y282531D01*
X306100Y282557D01*
X306093Y282585D01*
X306035Y282683D01*
X305983Y282783D01*
X305963Y282805D01*
X305948Y282830D01*
X305865Y282907D01*
X305787Y282989D01*
X305762Y283004D01*
X305740Y283024D01*
X305640Y283076D01*
X305542Y283133D01*
X305513Y283140D01*
X305487Y283154D01*
X305410Y283167D01*
X305266Y283203D01*
X305204Y283201D01*
X305156Y283209D01*
X298051Y283209D01*
X292099Y289161D01*
X292099Y297579D01*
X296563Y302043D01*
X296582Y302067D01*
X296605Y302087D01*
X296647Y302154D01*
X296734Y302270D01*
X296757Y302330D01*
X296783Y302372D01*
X297522Y304156D01*
X305264Y311898D01*
X305316Y311967D01*
X305376Y312031D01*
X305402Y312081D01*
X305435Y312125D01*
X305466Y312206D01*
X305506Y312284D01*
X305514Y312332D01*
X305536Y312390D01*
X305548Y312538D01*
X305561Y312615D01*
X305561Y324962D01*
X306412Y327016D01*
X328124Y348728D01*
X328176Y348797D01*
X328236Y348861D01*
X328262Y348911D01*
X328295Y348955D01*
X328326Y349036D01*
X328366Y349114D01*
X328374Y349162D01*
X328396Y349220D01*
X328408Y349368D01*
X328421Y349445D01*
X328421Y411285D01*
X328409Y411371D01*
X328406Y411459D01*
X328389Y411511D01*
X328381Y411566D01*
X328346Y411646D01*
X328319Y411729D01*
X328291Y411768D01*
X328265Y411825D01*
X328169Y411939D01*
X328124Y412002D01*
X285002Y455124D01*
X284933Y455176D01*
X284869Y455236D01*
X284819Y455262D01*
X284775Y455295D01*
X284694Y455326D01*
X284616Y455366D01*
X284568Y455374D01*
X284510Y455396D01*
X284362Y455408D01*
X284285Y455421D01*
X245014Y455421D01*
X242960Y456272D01*
X241245Y457987D01*
X237504Y461729D01*
X237457Y461764D01*
X237417Y461806D01*
X237344Y461849D01*
X237277Y461899D01*
X237222Y461920D01*
X237171Y461950D01*
X237090Y461971D01*
X237011Y462001D01*
X236953Y462006D01*
X236896Y462020D01*
X236812Y462017D01*
X236728Y462024D01*
X236670Y462013D01*
X236612Y462011D01*
X236532Y461985D01*
X236449Y461968D01*
X236397Y461941D01*
X236341Y461923D01*
X236285Y461883D01*
X236197Y461837D01*
X236124Y461769D01*
X236068Y461729D01*
X234994Y460655D01*
X234942Y460585D01*
X234882Y460521D01*
X234856Y460472D01*
X234823Y460427D01*
X234792Y460346D01*
X234752Y460268D01*
X234744Y460220D01*
X234722Y460162D01*
X234710Y460014D01*
X234697Y459937D01*
X234697Y448716D01*
X234709Y448629D01*
X234712Y448542D01*
X234729Y448489D01*
X234737Y448434D01*
X234772Y448355D01*
X234799Y448271D01*
X234827Y448232D01*
X234853Y448175D01*
X234949Y448062D01*
X234994Y447998D01*
X243929Y439064D01*
X244857Y436823D01*
X244857Y425856D01*
X244869Y425769D01*
X244872Y425682D01*
X244889Y425629D01*
X244897Y425574D01*
X244932Y425495D01*
X244959Y425411D01*
X244987Y425372D01*
X245013Y425315D01*
X245109Y425202D01*
X245154Y425138D01*
X246068Y424224D01*
X246138Y424172D01*
X246202Y424112D01*
X246251Y424086D01*
X246295Y424053D01*
X246377Y424022D01*
X246455Y423982D01*
X246502Y423974D01*
X246561Y423952D01*
X246709Y423940D01*
X246786Y423927D01*
X256483Y423927D01*
X258724Y422999D01*
X266535Y415188D01*
X267463Y412947D01*
X267463Y400615D01*
X266535Y398374D01*
X264677Y396517D01*
X255673Y387513D01*
X255638Y387466D01*
X255595Y387426D01*
X255552Y387353D01*
X255502Y387285D01*
X255481Y387231D01*
X255451Y387180D01*
X255431Y387099D01*
X255401Y387020D01*
X255396Y386961D01*
X255381Y386905D01*
X255384Y386820D01*
X255377Y386736D01*
X255388Y386679D01*
X255390Y386621D01*
X255416Y386540D01*
X255433Y386458D01*
X255460Y386406D01*
X255478Y386350D01*
X255518Y386294D01*
X255564Y386205D01*
X255633Y386133D01*
X255673Y386077D01*
X261621Y380129D01*
X261621Y371711D01*
X257854Y367945D01*
X257802Y367875D01*
X257742Y367811D01*
X257716Y367762D01*
X257683Y367717D01*
X257652Y367636D01*
X257612Y367558D01*
X257604Y367510D01*
X257582Y367452D01*
X257570Y367304D01*
X257557Y367227D01*
X257557Y304857D01*
X256629Y302616D01*
X254914Y300901D01*
X252850Y300047D01*
X252752Y299989D01*
X252650Y299936D01*
X252629Y299917D01*
X252606Y299902D01*
X252527Y299819D01*
X252443Y299740D01*
X252429Y299716D01*
X252410Y299696D01*
X252358Y299594D01*
X252300Y299495D01*
X252293Y299468D01*
X252280Y299443D01*
X252258Y299330D01*
X252230Y299219D01*
X252231Y299191D01*
X252225Y299164D01*
X252235Y299049D01*
X252239Y298935D01*
X252247Y298909D01*
X252250Y298881D01*
X252291Y298773D01*
X252326Y298664D01*
X252341Y298644D01*
X252352Y298615D01*
X252513Y298403D01*
X252521Y298391D01*
X252523Y298389D01*
X263188Y287724D01*
X263212Y287706D01*
X263231Y287684D01*
X263325Y287621D01*
X263415Y287553D01*
X263443Y287543D01*
X263467Y287526D01*
X263575Y287492D01*
X263681Y287452D01*
X263710Y287449D01*
X263738Y287441D01*
X263852Y287438D01*
X263964Y287428D01*
X263993Y287434D01*
X264022Y287433D01*
X264132Y287462D01*
X264243Y287484D01*
X264269Y287498D01*
X264297Y287505D01*
X264395Y287563D01*
X264495Y287615D01*
X264517Y287635D01*
X264542Y287650D01*
X264619Y287733D01*
X264701Y287811D01*
X264716Y287836D01*
X264736Y287858D01*
X264788Y287958D01*
X264845Y288056D01*
X264852Y288085D01*
X264866Y288111D01*
X264879Y288188D01*
X264915Y288332D01*
X264913Y288394D01*
X264921Y288442D01*
X264921Y337662D01*
X265772Y339716D01*
X286214Y360158D01*
X286266Y360227D01*
X286326Y360291D01*
X286352Y360341D01*
X286385Y360385D01*
X286416Y360466D01*
X286456Y360544D01*
X286464Y360592D01*
X286486Y360650D01*
X286498Y360798D01*
X286511Y360875D01*
X286511Y396082D01*
X287362Y398136D01*
X298152Y408926D01*
X298204Y408995D01*
X298264Y409059D01*
X298290Y409109D01*
X298323Y409153D01*
X298354Y409234D01*
X298394Y409312D01*
X298402Y409360D01*
X298424Y409418D01*
X298436Y409566D01*
X298449Y409643D01*
X298449Y415689D01*
X304401Y421641D01*
X312819Y421641D01*
X318771Y415689D01*
X318771Y407271D01*
X312819Y401319D01*
X306773Y401319D01*
X306687Y401307D01*
X306599Y401304D01*
X306547Y401287D01*
X306492Y401279D01*
X306412Y401244D01*
X306329Y401217D01*
X306290Y401189D01*
X306233Y401163D01*
X306119Y401067D01*
X306056Y401022D01*
X297986Y392952D01*
X297934Y392883D01*
X297874Y392819D01*
X297848Y392769D01*
X297815Y392725D01*
X297784Y392644D01*
X297744Y392566D01*
X297736Y392518D01*
X297714Y392460D01*
X297702Y392312D01*
X297689Y392235D01*
X297689Y357028D01*
X296838Y354974D01*
X276396Y334532D01*
X276344Y334463D01*
X276284Y334399D01*
X276258Y334349D01*
X276225Y334305D01*
X276194Y334224D01*
X276154Y334146D01*
X276146Y334098D01*
X276124Y334040D01*
X276117Y333950D01*
X276113Y333938D01*
X276111Y333891D01*
X276099Y333815D01*
X276099Y254152D01*
X276103Y254123D01*
X276100Y254094D01*
X276123Y253983D01*
X276139Y253870D01*
X276151Y253844D01*
X276156Y253815D01*
X276208Y253714D01*
X276255Y253611D01*
X276274Y253588D01*
X276287Y253563D01*
X276365Y253480D01*
X276438Y253394D01*
X276463Y253378D01*
X276483Y253356D01*
X276581Y253299D01*
X276675Y253236D01*
X276703Y253227D01*
X276728Y253213D01*
X276838Y253185D01*
X276946Y253151D01*
X276976Y253150D01*
X277004Y253143D01*
X277117Y253146D01*
G37*
%LPC*%
G36*
X279053Y69341D02*
X279053Y69341D01*
X278013Y69772D01*
X277983Y69780D01*
X277956Y69794D01*
X277878Y69807D01*
X277738Y69843D01*
X277674Y69841D01*
X277625Y69849D01*
X273921Y69849D01*
X267969Y75801D01*
X267969Y84219D01*
X273921Y90171D01*
X282339Y90171D01*
X286613Y85896D01*
X286683Y85844D01*
X286747Y85784D01*
X286796Y85758D01*
X286841Y85725D01*
X286922Y85694D01*
X287000Y85654D01*
X287048Y85646D01*
X287106Y85624D01*
X287254Y85612D01*
X287331Y85599D01*
X468652Y85599D01*
X468739Y85611D01*
X468826Y85614D01*
X468879Y85631D01*
X468934Y85639D01*
X469014Y85674D01*
X469097Y85701D01*
X469136Y85729D01*
X469193Y85755D01*
X469307Y85851D01*
X469370Y85896D01*
X472915Y89441D01*
X475903Y90679D01*
X475939Y90679D01*
X476025Y90691D01*
X476113Y90694D01*
X476165Y90711D01*
X476220Y90719D01*
X476300Y90754D01*
X476383Y90781D01*
X476423Y90809D01*
X476480Y90835D01*
X476593Y90931D01*
X476657Y90976D01*
X478391Y92711D01*
X486809Y92711D01*
X492761Y86759D01*
X492761Y78341D01*
X486809Y72389D01*
X479276Y72389D01*
X479189Y72377D01*
X479102Y72374D01*
X479049Y72357D01*
X478994Y72349D01*
X478914Y72314D01*
X478831Y72287D01*
X478792Y72259D01*
X478735Y72233D01*
X478621Y72137D01*
X478558Y72092D01*
X477045Y70579D01*
X474057Y69341D01*
X279053Y69341D01*
G37*
%LPD*%
%LPC*%
G36*
X106872Y58993D02*
X106872Y58993D01*
X92775Y73090D01*
X92775Y93026D01*
X106872Y107123D01*
X126808Y107123D01*
X140905Y93026D01*
X140905Y73090D01*
X126808Y58993D01*
X106872Y58993D01*
G37*
%LPD*%
%LPC*%
G36*
X77531Y10479D02*
X77531Y10479D01*
X64327Y23683D01*
X64327Y30989D01*
X64418Y30989D01*
X64476Y30997D01*
X64534Y30995D01*
X64616Y31017D01*
X64700Y31029D01*
X64753Y31053D01*
X64809Y31067D01*
X64882Y31110D01*
X64959Y31145D01*
X65004Y31183D01*
X65054Y31213D01*
X65112Y31274D01*
X65176Y31329D01*
X65208Y31377D01*
X65248Y31420D01*
X65287Y31495D01*
X65334Y31565D01*
X65351Y31621D01*
X65378Y31673D01*
X65389Y31741D01*
X65419Y31836D01*
X65422Y31936D01*
X65433Y32004D01*
X65433Y34036D01*
X65425Y34094D01*
X65427Y34152D01*
X65405Y34234D01*
X65393Y34317D01*
X65370Y34371D01*
X65355Y34427D01*
X65312Y34500D01*
X65277Y34577D01*
X65239Y34622D01*
X65210Y34672D01*
X65148Y34730D01*
X65094Y34794D01*
X65045Y34826D01*
X65002Y34866D01*
X64927Y34905D01*
X64857Y34951D01*
X64801Y34969D01*
X64749Y34996D01*
X64681Y35007D01*
X64586Y35037D01*
X64486Y35040D01*
X64418Y35051D01*
X64327Y35051D01*
X64327Y42357D01*
X77531Y55561D01*
X84837Y55561D01*
X84837Y46336D01*
X84837Y46335D01*
X84837Y46333D01*
X84857Y46194D01*
X84877Y46055D01*
X84877Y46053D01*
X84877Y46052D01*
X84934Y45926D01*
X84993Y45795D01*
X84994Y45794D01*
X84995Y45793D01*
X85086Y45686D01*
X85177Y45578D01*
X85178Y45578D01*
X85179Y45576D01*
X85192Y45568D01*
X85413Y45421D01*
X85442Y45412D01*
X85463Y45398D01*
X86479Y44978D01*
X86564Y44956D01*
X86646Y44925D01*
X86701Y44920D01*
X86755Y44907D01*
X86842Y44909D01*
X86929Y44902D01*
X86976Y44913D01*
X87039Y44915D01*
X87180Y44960D01*
X87257Y44978D01*
X88272Y45398D01*
X88274Y45399D01*
X88275Y45400D01*
X88391Y45469D01*
X88517Y45543D01*
X88518Y45544D01*
X88520Y45545D01*
X88615Y45646D01*
X88712Y45750D01*
X88713Y45751D01*
X88714Y45752D01*
X88779Y45878D01*
X88843Y46002D01*
X88843Y46004D01*
X88844Y46005D01*
X88846Y46020D01*
X88898Y46281D01*
X88895Y46312D01*
X88899Y46336D01*
X88899Y55561D01*
X96205Y55561D01*
X109409Y42357D01*
X109409Y35051D01*
X109318Y35051D01*
X109260Y35043D01*
X109202Y35045D01*
X109120Y35023D01*
X109036Y35011D01*
X108983Y34987D01*
X108927Y34973D01*
X108854Y34930D01*
X108777Y34895D01*
X108732Y34857D01*
X108682Y34827D01*
X108624Y34766D01*
X108560Y34711D01*
X108528Y34663D01*
X108488Y34620D01*
X108449Y34545D01*
X108402Y34475D01*
X108385Y34419D01*
X108358Y34367D01*
X108347Y34299D01*
X108317Y34204D01*
X108314Y34104D01*
X108303Y34036D01*
X108303Y32004D01*
X108311Y31946D01*
X108309Y31888D01*
X108331Y31806D01*
X108343Y31723D01*
X108366Y31669D01*
X108381Y31613D01*
X108424Y31540D01*
X108459Y31463D01*
X108497Y31418D01*
X108526Y31368D01*
X108588Y31310D01*
X108642Y31246D01*
X108691Y31214D01*
X108734Y31174D01*
X108809Y31135D01*
X108879Y31089D01*
X108935Y31071D01*
X108987Y31044D01*
X109055Y31033D01*
X109150Y31003D01*
X109250Y31000D01*
X109318Y30989D01*
X109409Y30989D01*
X109409Y23683D01*
X96205Y10479D01*
X88899Y10479D01*
X88899Y19704D01*
X88899Y19705D01*
X88899Y19707D01*
X88878Y19850D01*
X88859Y19985D01*
X88859Y19986D01*
X88859Y19988D01*
X88800Y20117D01*
X88743Y20245D01*
X88742Y20246D01*
X88741Y20247D01*
X88649Y20355D01*
X88559Y20462D01*
X88558Y20462D01*
X88557Y20464D01*
X88544Y20472D01*
X88323Y20619D01*
X88294Y20628D01*
X88272Y20642D01*
X87257Y21062D01*
X87172Y21084D01*
X87090Y21115D01*
X87035Y21120D01*
X86981Y21133D01*
X86894Y21131D01*
X86807Y21138D01*
X86759Y21127D01*
X86697Y21125D01*
X86556Y21080D01*
X86479Y21062D01*
X85463Y20642D01*
X85462Y20641D01*
X85461Y20640D01*
X85343Y20570D01*
X85219Y20497D01*
X85218Y20496D01*
X85216Y20495D01*
X85119Y20391D01*
X85023Y20290D01*
X85023Y20289D01*
X85022Y20288D01*
X84957Y20161D01*
X84893Y20038D01*
X84893Y20036D01*
X84892Y20035D01*
X84890Y20020D01*
X84838Y19759D01*
X84841Y19728D01*
X84837Y19704D01*
X84837Y10479D01*
X77531Y10479D01*
G37*
%LPD*%
%LPC*%
G36*
X58927Y60608D02*
X58927Y60608D01*
X58919Y60666D01*
X58921Y60724D01*
X58899Y60806D01*
X58887Y60890D01*
X58863Y60943D01*
X58849Y60999D01*
X58806Y61072D01*
X58771Y61149D01*
X58733Y61194D01*
X58703Y61244D01*
X58642Y61302D01*
X58587Y61366D01*
X58539Y61398D01*
X58496Y61438D01*
X58421Y61477D01*
X58351Y61524D01*
X58295Y61541D01*
X58243Y61568D01*
X58175Y61579D01*
X58080Y61609D01*
X57980Y61612D01*
X57912Y61623D01*
X55880Y61623D01*
X55822Y61615D01*
X55764Y61617D01*
X55682Y61595D01*
X55599Y61583D01*
X55545Y61560D01*
X55489Y61545D01*
X55416Y61502D01*
X55339Y61467D01*
X55294Y61429D01*
X55244Y61400D01*
X55186Y61338D01*
X55122Y61284D01*
X55090Y61235D01*
X55050Y61192D01*
X55011Y61117D01*
X54965Y61047D01*
X54947Y60991D01*
X54920Y60939D01*
X54909Y60871D01*
X54879Y60776D01*
X54876Y60676D01*
X54865Y60608D01*
X54865Y60517D01*
X47559Y60517D01*
X34355Y73721D01*
X34355Y81027D01*
X43580Y81027D01*
X43581Y81027D01*
X43583Y81027D01*
X43722Y81047D01*
X43861Y81067D01*
X43863Y81067D01*
X43864Y81067D01*
X43994Y81126D01*
X44121Y81183D01*
X44122Y81184D01*
X44123Y81185D01*
X44233Y81278D01*
X44338Y81367D01*
X44338Y81368D01*
X44340Y81369D01*
X44348Y81382D01*
X44495Y81603D01*
X44504Y81632D01*
X44518Y81653D01*
X44938Y82669D01*
X44960Y82754D01*
X44991Y82836D01*
X44996Y82891D01*
X45009Y82945D01*
X45007Y83032D01*
X45014Y83119D01*
X45003Y83166D01*
X45001Y83229D01*
X44956Y83370D01*
X44938Y83446D01*
X44518Y84462D01*
X44517Y84464D01*
X44516Y84465D01*
X44445Y84586D01*
X44373Y84707D01*
X44372Y84708D01*
X44371Y84710D01*
X44267Y84807D01*
X44166Y84902D01*
X44165Y84903D01*
X44164Y84904D01*
X44038Y84969D01*
X43914Y85033D01*
X43912Y85033D01*
X43911Y85034D01*
X43896Y85036D01*
X43635Y85088D01*
X43604Y85085D01*
X43580Y85089D01*
X34355Y85089D01*
X34355Y92395D01*
X47559Y105599D01*
X54865Y105599D01*
X54865Y105508D01*
X54873Y105450D01*
X54871Y105392D01*
X54893Y105310D01*
X54905Y105226D01*
X54929Y105173D01*
X54943Y105117D01*
X54986Y105044D01*
X55021Y104967D01*
X55059Y104922D01*
X55089Y104872D01*
X55150Y104814D01*
X55205Y104750D01*
X55253Y104718D01*
X55296Y104678D01*
X55371Y104639D01*
X55441Y104592D01*
X55497Y104575D01*
X55549Y104548D01*
X55617Y104537D01*
X55712Y104507D01*
X55812Y104504D01*
X55880Y104493D01*
X57912Y104493D01*
X57970Y104501D01*
X58028Y104499D01*
X58110Y104521D01*
X58193Y104533D01*
X58247Y104556D01*
X58303Y104571D01*
X58376Y104614D01*
X58453Y104649D01*
X58498Y104687D01*
X58548Y104716D01*
X58606Y104778D01*
X58670Y104832D01*
X58702Y104881D01*
X58742Y104924D01*
X58781Y104999D01*
X58827Y105069D01*
X58845Y105125D01*
X58872Y105177D01*
X58883Y105245D01*
X58913Y105340D01*
X58916Y105440D01*
X58927Y105508D01*
X58927Y105599D01*
X66233Y105599D01*
X79437Y92395D01*
X79437Y85089D01*
X70212Y85089D01*
X70211Y85089D01*
X70209Y85089D01*
X70069Y85069D01*
X69931Y85049D01*
X69929Y85049D01*
X69928Y85049D01*
X69800Y84991D01*
X69671Y84933D01*
X69670Y84932D01*
X69669Y84931D01*
X69562Y84840D01*
X69454Y84749D01*
X69454Y84748D01*
X69452Y84747D01*
X69444Y84734D01*
X69297Y84513D01*
X69288Y84484D01*
X69274Y84462D01*
X68854Y83446D01*
X68832Y83362D01*
X68801Y83280D01*
X68796Y83225D01*
X68783Y83171D01*
X68785Y83084D01*
X68778Y82997D01*
X68789Y82950D01*
X68791Y82887D01*
X68836Y82746D01*
X68854Y82669D01*
X69274Y81653D01*
X69275Y81652D01*
X69276Y81651D01*
X69346Y81533D01*
X69419Y81409D01*
X69420Y81408D01*
X69421Y81406D01*
X69525Y81309D01*
X69626Y81213D01*
X69627Y81213D01*
X69628Y81212D01*
X69754Y81147D01*
X69878Y81083D01*
X69880Y81083D01*
X69881Y81082D01*
X69896Y81080D01*
X70157Y81028D01*
X70188Y81031D01*
X70212Y81027D01*
X79437Y81027D01*
X79437Y73721D01*
X66233Y60517D01*
X58927Y60517D01*
X58927Y60608D01*
G37*
%LPD*%
%LPC*%
G36*
X505777Y10667D02*
X505777Y10667D01*
X501669Y12369D01*
X498525Y15513D01*
X496823Y19621D01*
X496823Y31179D01*
X498525Y35287D01*
X501669Y38431D01*
X505777Y40133D01*
X510223Y40133D01*
X514331Y38431D01*
X517475Y35287D01*
X519177Y31179D01*
X519177Y19621D01*
X517475Y15513D01*
X514331Y12369D01*
X510223Y10667D01*
X505777Y10667D01*
G37*
%LPD*%
%LPC*%
G36*
X531177Y10667D02*
X531177Y10667D01*
X527069Y12369D01*
X523925Y15513D01*
X522223Y19621D01*
X522223Y31179D01*
X523925Y35287D01*
X527069Y38431D01*
X531177Y40133D01*
X535623Y40133D01*
X539731Y38431D01*
X542875Y35287D01*
X544577Y31179D01*
X544577Y19621D01*
X542875Y15513D01*
X539731Y12369D01*
X535623Y10667D01*
X531177Y10667D01*
G37*
%LPD*%
%LPC*%
G36*
X397827Y187197D02*
X397827Y187197D01*
X393719Y188899D01*
X390575Y192043D01*
X388873Y196151D01*
X388873Y207709D01*
X390575Y211817D01*
X393719Y214961D01*
X397827Y216663D01*
X402273Y216663D01*
X406381Y214961D01*
X409525Y211817D01*
X411227Y207709D01*
X411227Y196151D01*
X409525Y192043D01*
X406381Y188899D01*
X402273Y187197D01*
X397827Y187197D01*
G37*
%LPD*%
%LPC*%
G36*
X423227Y187197D02*
X423227Y187197D01*
X419119Y188899D01*
X415975Y192043D01*
X414273Y196151D01*
X414273Y207709D01*
X415975Y211817D01*
X419119Y214961D01*
X423227Y216663D01*
X427673Y216663D01*
X431781Y214961D01*
X434925Y211817D01*
X436627Y207709D01*
X436627Y196151D01*
X434925Y192043D01*
X431781Y188899D01*
X427673Y187197D01*
X423227Y187197D01*
G37*
%LPD*%
%LPC*%
G36*
X632777Y10667D02*
X632777Y10667D01*
X628669Y12369D01*
X625525Y15513D01*
X623823Y19621D01*
X623823Y31179D01*
X625525Y35287D01*
X628669Y38431D01*
X632777Y40133D01*
X637223Y40133D01*
X641331Y38431D01*
X644475Y35287D01*
X646177Y31179D01*
X646177Y19621D01*
X644475Y15513D01*
X641331Y12369D01*
X637223Y10667D01*
X632777Y10667D01*
G37*
%LPD*%
%LPC*%
G36*
X607377Y10667D02*
X607377Y10667D01*
X603269Y12369D01*
X600125Y15513D01*
X598423Y19621D01*
X598423Y31179D01*
X600125Y35287D01*
X603269Y38431D01*
X607377Y40133D01*
X611823Y40133D01*
X615931Y38431D01*
X619075Y35287D01*
X620777Y31179D01*
X620777Y19621D01*
X619075Y15513D01*
X615931Y12369D01*
X611823Y10667D01*
X607377Y10667D01*
G37*
%LPD*%
%LPC*%
G36*
X556577Y10667D02*
X556577Y10667D01*
X552469Y12369D01*
X549325Y15513D01*
X547623Y19621D01*
X547623Y31179D01*
X549325Y35287D01*
X552469Y38431D01*
X556577Y40133D01*
X561023Y40133D01*
X565131Y38431D01*
X568275Y35287D01*
X569977Y31179D01*
X569977Y19621D01*
X568275Y15513D01*
X565131Y12369D01*
X561023Y10667D01*
X556577Y10667D01*
G37*
%LPD*%
%LPC*%
G36*
X454977Y10667D02*
X454977Y10667D01*
X450869Y12369D01*
X447725Y15513D01*
X446023Y19621D01*
X446023Y31179D01*
X447725Y35287D01*
X450869Y38431D01*
X454977Y40133D01*
X459423Y40133D01*
X463531Y38431D01*
X466675Y35287D01*
X468377Y31179D01*
X468377Y19621D01*
X466675Y15513D01*
X463531Y12369D01*
X459423Y10667D01*
X454977Y10667D01*
G37*
%LPD*%
%LPC*%
G36*
X581977Y10667D02*
X581977Y10667D01*
X577869Y12369D01*
X574725Y15513D01*
X573023Y19621D01*
X573023Y31179D01*
X574725Y35287D01*
X577869Y38431D01*
X581977Y40133D01*
X586423Y40133D01*
X590531Y38431D01*
X593675Y35287D01*
X595377Y31179D01*
X595377Y19621D01*
X593675Y15513D01*
X590531Y12369D01*
X586423Y10667D01*
X581977Y10667D01*
G37*
%LPD*%
%LPC*%
G36*
X209474Y249173D02*
X209474Y249173D01*
X202183Y256464D01*
X202183Y266776D01*
X209474Y274067D01*
X219786Y274067D01*
X227077Y266776D01*
X227077Y256464D01*
X219786Y249173D01*
X209474Y249173D01*
G37*
%LPD*%
%LPC*%
G36*
X158674Y249173D02*
X158674Y249173D01*
X151383Y256464D01*
X151383Y266776D01*
X158674Y274067D01*
X168986Y274067D01*
X176277Y266776D01*
X176277Y256464D01*
X168986Y249173D01*
X158674Y249173D01*
G37*
%LPD*%
%LPC*%
G36*
X310497Y346709D02*
X310497Y346709D01*
X304545Y352661D01*
X304545Y361079D01*
X310497Y367031D01*
X318915Y367031D01*
X324867Y361079D01*
X324867Y352661D01*
X318915Y346709D01*
X310497Y346709D01*
G37*
%LPD*%
%LPC*%
G36*
X310497Y377189D02*
X310497Y377189D01*
X304545Y383141D01*
X304545Y391559D01*
X310497Y397511D01*
X318915Y397511D01*
X324867Y391559D01*
X324867Y383141D01*
X318915Y377189D01*
X310497Y377189D01*
G37*
%LPD*%
%LPC*%
G36*
X408431Y27431D02*
X408431Y27431D01*
X408431Y38407D01*
X408660Y38371D01*
X410105Y37902D01*
X411459Y37212D01*
X412688Y36319D01*
X413763Y35244D01*
X414656Y34015D01*
X415346Y32661D01*
X415815Y31216D01*
X416053Y29716D01*
X416053Y27431D01*
X408431Y27431D01*
G37*
%LPD*%
%LPC*%
G36*
X433831Y27431D02*
X433831Y27431D01*
X433831Y38407D01*
X434060Y38371D01*
X435505Y37902D01*
X436859Y37212D01*
X438088Y36319D01*
X439163Y35244D01*
X440056Y34015D01*
X440746Y32661D01*
X441215Y31216D01*
X441453Y29716D01*
X441453Y27431D01*
X433831Y27431D01*
G37*
%LPD*%
%LPC*%
G36*
X266191Y510031D02*
X266191Y510031D01*
X266191Y521007D01*
X266420Y520971D01*
X267865Y520502D01*
X269219Y519812D01*
X270448Y518919D01*
X271523Y517844D01*
X272416Y516615D01*
X273106Y515261D01*
X273575Y513816D01*
X273813Y512316D01*
X273813Y510031D01*
X266191Y510031D01*
G37*
%LPD*%
%LPC*%
G36*
X433831Y23369D02*
X433831Y23369D01*
X441453Y23369D01*
X441453Y21084D01*
X441215Y19584D01*
X440746Y18139D01*
X440056Y16785D01*
X439163Y15556D01*
X438088Y14481D01*
X436859Y13588D01*
X435505Y12898D01*
X434060Y12429D01*
X433831Y12393D01*
X433831Y23369D01*
G37*
%LPD*%
%LPC*%
G36*
X408431Y23369D02*
X408431Y23369D01*
X416053Y23369D01*
X416053Y21084D01*
X415815Y19584D01*
X415346Y18139D01*
X414656Y16785D01*
X413763Y15556D01*
X412688Y14481D01*
X411459Y13588D01*
X410105Y12898D01*
X408660Y12429D01*
X408431Y12393D01*
X408431Y23369D01*
G37*
%LPD*%
%LPC*%
G36*
X266191Y505969D02*
X266191Y505969D01*
X273813Y505969D01*
X273813Y503684D01*
X273575Y502184D01*
X273106Y500739D01*
X272416Y499385D01*
X271523Y498156D01*
X270448Y497081D01*
X269219Y496188D01*
X267865Y495498D01*
X266420Y495029D01*
X266191Y494993D01*
X266191Y505969D01*
G37*
%LPD*%
%LPC*%
G36*
X478281Y123699D02*
X478281Y123699D01*
X485903Y123699D01*
X485903Y121414D01*
X485665Y119914D01*
X485196Y118469D01*
X484506Y117115D01*
X483613Y115886D01*
X482538Y114811D01*
X481309Y113918D01*
X479955Y113228D01*
X478510Y112759D01*
X478281Y112723D01*
X478281Y123699D01*
G37*
%LPD*%
%LPC*%
G36*
X396747Y27431D02*
X396747Y27431D01*
X396747Y29716D01*
X396985Y31216D01*
X397454Y32661D01*
X398144Y34015D01*
X399037Y35244D01*
X400112Y36319D01*
X401341Y37212D01*
X402695Y37902D01*
X404140Y38371D01*
X404369Y38407D01*
X404369Y27431D01*
X396747Y27431D01*
G37*
%LPD*%
%LPC*%
G36*
X254507Y510031D02*
X254507Y510031D01*
X254507Y512316D01*
X254745Y513816D01*
X255214Y515261D01*
X255904Y516615D01*
X256797Y517844D01*
X257872Y518919D01*
X259101Y519812D01*
X260455Y520502D01*
X261900Y520971D01*
X262129Y521007D01*
X262129Y510031D01*
X254507Y510031D01*
G37*
%LPD*%
%LPC*%
G36*
X422147Y27431D02*
X422147Y27431D01*
X422147Y29716D01*
X422385Y31216D01*
X422854Y32661D01*
X423544Y34015D01*
X424437Y35244D01*
X425512Y36319D01*
X426741Y37212D01*
X428095Y37902D01*
X429540Y38371D01*
X429769Y38407D01*
X429769Y27431D01*
X422147Y27431D01*
G37*
%LPD*%
%LPC*%
G36*
X441197Y203961D02*
X441197Y203961D01*
X441197Y206246D01*
X441435Y207746D01*
X441904Y209191D01*
X442594Y210545D01*
X443487Y211774D01*
X444562Y212849D01*
X445791Y213742D01*
X447145Y214432D01*
X448590Y214901D01*
X448819Y214937D01*
X448819Y203961D01*
X441197Y203961D01*
G37*
%LPD*%
%LPC*%
G36*
X448590Y188959D02*
X448590Y188959D01*
X447145Y189428D01*
X445791Y190118D01*
X444562Y191011D01*
X443487Y192086D01*
X442594Y193315D01*
X441904Y194669D01*
X441435Y196114D01*
X441197Y197614D01*
X441197Y199899D01*
X448819Y199899D01*
X448819Y188923D01*
X448590Y188959D01*
G37*
%LPD*%
%LPC*%
G36*
X429540Y12429D02*
X429540Y12429D01*
X428095Y12898D01*
X426741Y13588D01*
X425512Y14481D01*
X424437Y15556D01*
X423544Y16785D01*
X422854Y18139D01*
X422385Y19584D01*
X422147Y21084D01*
X422147Y23369D01*
X429769Y23369D01*
X429769Y12393D01*
X429540Y12429D01*
G37*
%LPD*%
%LPC*%
G36*
X404140Y12429D02*
X404140Y12429D01*
X402695Y12898D01*
X401341Y13588D01*
X400112Y14481D01*
X399037Y15556D01*
X398144Y16785D01*
X397454Y18139D01*
X396985Y19584D01*
X396747Y21084D01*
X396747Y23369D01*
X404369Y23369D01*
X404369Y12393D01*
X404140Y12429D01*
G37*
%LPD*%
%LPC*%
G36*
X123951Y408431D02*
X123951Y408431D01*
X123951Y416942D01*
X127589Y416942D01*
X128384Y416729D01*
X129097Y416317D01*
X129678Y415736D01*
X130090Y415023D01*
X130303Y414228D01*
X130303Y408431D01*
X123951Y408431D01*
G37*
%LPD*%
%LPC*%
G36*
X123951Y395858D02*
X123951Y395858D01*
X123951Y404369D01*
X130303Y404369D01*
X130303Y398572D01*
X130090Y397777D01*
X129678Y397064D01*
X129097Y396483D01*
X128384Y396071D01*
X127589Y395858D01*
X123951Y395858D01*
G37*
%LPD*%
%LPC*%
G36*
X663701Y256031D02*
X663701Y256031D01*
X663701Y264291D01*
X665933Y264291D01*
X671961Y258263D01*
X671961Y256031D01*
X663701Y256031D01*
G37*
%LPD*%
%LPC*%
G36*
X663701Y251969D02*
X663701Y251969D01*
X671961Y251969D01*
X671961Y249737D01*
X665933Y243709D01*
X663701Y243709D01*
X663701Y251969D01*
G37*
%LPD*%
%LPC*%
G36*
X159511Y439289D02*
X159511Y439289D01*
X159511Y447549D01*
X167771Y447549D01*
X167771Y445317D01*
X161743Y439289D01*
X159511Y439289D01*
G37*
%LPD*%
%LPC*%
G36*
X153217Y439289D02*
X153217Y439289D01*
X147189Y445317D01*
X147189Y447549D01*
X155449Y447549D01*
X155449Y439289D01*
X153217Y439289D01*
G37*
%LPD*%
%LPC*%
G36*
X431799Y25399D02*
X431799Y25399D01*
X431799Y25401D01*
X431801Y25401D01*
X431801Y25399D01*
X431799Y25399D01*
G37*
%LPD*%
%LPC*%
G36*
X264159Y507999D02*
X264159Y507999D01*
X264159Y508001D01*
X264161Y508001D01*
X264161Y507999D01*
X264159Y507999D01*
G37*
%LPD*%
%LPC*%
G36*
X406399Y25399D02*
X406399Y25399D01*
X406399Y25401D01*
X406401Y25401D01*
X406401Y25399D01*
X406399Y25399D01*
G37*
%LPD*%
D10*
X18421Y27665D02*
X12701Y27665D01*
X11557Y28809D01*
X11557Y31097D01*
X12701Y32241D01*
X18421Y32241D01*
X18421Y35149D02*
X11557Y35149D01*
X11557Y39725D02*
X18421Y35149D01*
X18421Y39725D02*
X11557Y39725D01*
X18421Y43777D02*
X18421Y46065D01*
X18421Y43777D02*
X17277Y42633D01*
X12701Y42633D01*
X11557Y43777D01*
X11557Y46065D01*
X12701Y47209D01*
X17277Y47209D01*
X18421Y46065D01*
X18421Y59890D02*
X11557Y59890D01*
X18421Y57602D02*
X18421Y62178D01*
X18421Y65086D02*
X11557Y65086D01*
X14989Y65086D02*
X14989Y69662D01*
X18421Y69662D02*
X11557Y69662D01*
X11557Y80054D02*
X18421Y80054D01*
X18421Y83486D01*
X17277Y84630D01*
X14989Y84630D01*
X13845Y83486D01*
X13845Y80054D01*
X13845Y82342D02*
X11557Y84630D01*
X11557Y88682D02*
X11557Y90970D01*
X11557Y88682D02*
X12701Y87538D01*
X14989Y87538D01*
X16133Y88682D01*
X16133Y90970D01*
X14989Y92114D01*
X13845Y92114D01*
X13845Y87538D01*
X16133Y95023D02*
X11557Y97310D01*
X16133Y99598D01*
X17277Y102507D02*
X18421Y103651D01*
X18421Y105939D01*
X17277Y107083D01*
X16133Y107083D01*
X14989Y105939D01*
X14989Y104795D01*
X14989Y105939D02*
X13845Y107083D01*
X12701Y107083D01*
X11557Y105939D01*
X11557Y103651D01*
X12701Y102507D01*
X11557Y111135D02*
X11557Y113423D01*
X11557Y111135D02*
X12701Y109991D01*
X14989Y109991D01*
X16133Y111135D01*
X16133Y113423D01*
X14989Y114567D01*
X13845Y114567D01*
X13845Y109991D01*
D11*
X628650Y198374D02*
X628650Y205486D01*
X603250Y205486D02*
X603250Y198374D01*
X577850Y198374D02*
X577850Y205486D01*
X552450Y205486D02*
X552450Y198374D01*
X527050Y198374D02*
X527050Y205486D01*
X501650Y205486D02*
X501650Y198374D01*
X476250Y198374D02*
X476250Y205486D01*
X450850Y205486D02*
X450850Y198374D01*
X425450Y198374D02*
X425450Y205486D01*
X400050Y205486D02*
X400050Y198374D01*
X374650Y198374D02*
X374650Y205486D01*
X349250Y205486D02*
X349250Y198374D01*
X323850Y198374D02*
X323850Y205486D01*
X298450Y205486D02*
X298450Y198374D01*
X298450Y129286D02*
X298450Y122174D01*
X323850Y122174D02*
X323850Y129286D01*
X349250Y129286D02*
X349250Y122174D01*
X374650Y122174D02*
X374650Y129286D01*
X400050Y129286D02*
X400050Y122174D01*
X425450Y122174D02*
X425450Y129286D01*
X450850Y129286D02*
X450850Y122174D01*
X476250Y122174D02*
X476250Y129286D01*
X501650Y129286D02*
X501650Y122174D01*
X527050Y122174D02*
X527050Y129286D01*
X552450Y129286D02*
X552450Y122174D01*
X577850Y122174D02*
X577850Y129286D01*
X603250Y129286D02*
X603250Y122174D01*
X628650Y122174D02*
X628650Y129286D01*
D12*
X636270Y304800D03*
X661670Y304800D03*
X636270Y279400D03*
X661670Y279400D03*
X636270Y254000D03*
X661670Y254000D03*
D11*
X635000Y504444D02*
X635000Y511556D01*
X609600Y511556D02*
X609600Y504444D01*
X584200Y504444D02*
X584200Y511556D01*
X558800Y511556D02*
X558800Y504444D01*
X533400Y504444D02*
X533400Y511556D01*
X508000Y511556D02*
X508000Y504444D01*
X482600Y504444D02*
X482600Y511556D01*
X457200Y511556D02*
X457200Y504444D01*
X416560Y504444D02*
X416560Y511556D01*
X391160Y511556D02*
X391160Y504444D01*
X365760Y504444D02*
X365760Y511556D01*
X340360Y511556D02*
X340360Y504444D01*
X314960Y504444D02*
X314960Y511556D01*
X289560Y511556D02*
X289560Y504444D01*
X264160Y504444D02*
X264160Y511556D01*
X238760Y511556D02*
X238760Y504444D01*
X213360Y504444D02*
X213360Y511556D01*
X187960Y511556D02*
X187960Y504444D01*
X508000Y28956D02*
X508000Y21844D01*
X533400Y21844D02*
X533400Y28956D01*
X558800Y28956D02*
X558800Y21844D01*
X584200Y21844D02*
X584200Y28956D01*
X609600Y28956D02*
X609600Y21844D01*
X635000Y21844D02*
X635000Y28956D01*
D13*
X86868Y33020D03*
D14*
X116840Y83058D03*
X56896Y83058D03*
D15*
X94488Y33020D03*
X79248Y33020D03*
X56896Y75438D03*
X56896Y90678D03*
X116840Y75438D03*
X116840Y90678D03*
D16*
X85200Y368500D03*
X85200Y393500D03*
X65200Y393500D03*
X65200Y368500D03*
D17*
X38100Y441000D03*
X38100Y321000D03*
D18*
X208280Y474980D03*
X208280Y449580D03*
X182880Y474980D03*
X182880Y449580D03*
X157480Y474980D03*
X157480Y449580D03*
D19*
X127178Y413817D02*
X116662Y413817D01*
X127178Y413817D02*
X127178Y398983D01*
X116662Y398983D01*
X116662Y413817D01*
X116662Y400150D02*
X127178Y400150D01*
X127178Y401317D02*
X116662Y401317D01*
X116662Y402484D02*
X127178Y402484D01*
X127178Y403651D02*
X116662Y403651D01*
X116662Y404818D02*
X127178Y404818D01*
X127178Y405985D02*
X116662Y405985D01*
X116662Y407152D02*
X127178Y407152D01*
X127178Y408319D02*
X116662Y408319D01*
X116662Y409486D02*
X127178Y409486D01*
X127178Y410653D02*
X116662Y410653D01*
X116662Y411820D02*
X127178Y411820D01*
X127178Y412987D02*
X116662Y412987D01*
X111938Y413817D02*
X101422Y413817D01*
X111938Y413817D02*
X111938Y398983D01*
X101422Y398983D01*
X101422Y413817D01*
X101422Y400150D02*
X111938Y400150D01*
X111938Y401317D02*
X101422Y401317D01*
X101422Y402484D02*
X111938Y402484D01*
X111938Y403651D02*
X101422Y403651D01*
X101422Y404818D02*
X111938Y404818D01*
X111938Y405985D02*
X101422Y405985D01*
X101422Y407152D02*
X111938Y407152D01*
X111938Y408319D02*
X101422Y408319D01*
X101422Y409486D02*
X111938Y409486D01*
X111938Y410653D02*
X101422Y410653D01*
X101422Y411820D02*
X111938Y411820D01*
X111938Y412987D02*
X101422Y412987D01*
D20*
X208280Y398780D03*
X182880Y398780D03*
X208280Y424180D03*
X182880Y424180D03*
D11*
X279400Y28956D02*
X279400Y21844D01*
X304800Y21844D02*
X304800Y28956D01*
X330200Y28956D02*
X330200Y21844D01*
X355600Y21844D02*
X355600Y28956D01*
X381000Y28956D02*
X381000Y21844D01*
X406400Y21844D02*
X406400Y28956D01*
X431800Y28956D02*
X431800Y21844D01*
X457200Y21844D02*
X457200Y28956D01*
D16*
X214630Y261620D03*
X163830Y261620D03*
D21*
X371856Y45720D02*
X381254Y36322D01*
X381000Y25400D01*
X168910Y116840D02*
X120650Y165100D01*
X240030Y45720D02*
X306070Y45720D01*
X371856Y45720D01*
X240030Y45720D02*
X168910Y116840D01*
D22*
X210820Y447040D02*
X217170Y447040D01*
X210820Y447040D02*
X208280Y449580D01*
X248920Y278537D02*
X248920Y276860D01*
X248920Y278537D02*
X230708Y296749D01*
X230708Y386918D01*
X250190Y406400D01*
X304800Y46990D02*
X304800Y25400D01*
X306070Y45720D02*
X304800Y46990D01*
X242570Y270510D02*
X248920Y276860D01*
X170688Y210820D02*
X146050Y210820D01*
X123190Y233680D01*
X242570Y210820D02*
X242570Y270510D01*
X242570Y210820D02*
X237490Y205740D01*
X223520Y205740D01*
X213360Y215900D01*
X203962Y215900D01*
X197104Y223266D01*
X183642Y223266D01*
X170688Y210820D01*
X123190Y233680D02*
X93980Y233680D01*
X88900Y215900D01*
X95250Y288290D02*
X120650Y313690D01*
X95250Y288290D02*
X69850Y288290D01*
X217170Y445770D02*
X217170Y447040D01*
X217170Y445770D02*
X229870Y433070D01*
X229870Y420370D01*
X243840Y406400D01*
X250190Y406400D01*
D23*
X69850Y288290D03*
X168910Y116840D03*
X25400Y215900D03*
X50800Y203200D03*
X69850Y241300D03*
X88900Y215900D03*
X25400Y133350D03*
X50800Y146050D03*
X25400Y173990D03*
X88900Y133350D03*
X76200Y152400D03*
X76200Y196850D03*
X248920Y276860D03*
X250190Y406400D03*
X120650Y313690D03*
D24*
X121920Y406400D02*
X107950Y406400D01*
D23*
X292100Y62230D03*
X271780Y142240D03*
X189484Y337058D03*
X166624Y68834D03*
X306324Y343154D03*
X546100Y491490D03*
X303784Y376428D03*
X114300Y127000D03*
X411734Y179324D03*
X514350Y215900D03*
X300990Y314960D03*
X436880Y508000D03*
X482600Y25400D03*
X594360Y279400D03*
X215900Y28194D03*
X672084Y106934D03*
X646684Y473964D03*
X120650Y247650D03*
X672338Y177038D03*
X230124Y218186D03*
X104140Y499110D03*
X471424Y292354D03*
X189230Y261620D03*
X433324Y315214D03*
X219710Y115570D03*
X140970Y171450D03*
X646684Y405384D03*
D25*
X290830Y157480D02*
X269240Y179070D01*
X290830Y157480D02*
X295910Y157480D01*
X308610Y144780D01*
X379730Y144780D01*
X387350Y137160D01*
X387350Y114300D01*
X392430Y109220D01*
X434340Y109220D01*
X450850Y125730D01*
X269240Y179070D02*
X269240Y198120D01*
X257810Y209550D01*
X257810Y219710D01*
X279400Y241300D01*
X345440Y312420D02*
X349250Y312420D01*
X356870Y320040D01*
X356870Y426720D01*
X298450Y485140D01*
X259080Y485140D01*
X252730Y491490D01*
X279400Y246380D02*
X279400Y241300D01*
X279400Y246380D02*
X345440Y312420D01*
D23*
X252730Y491490D03*
D26*
X98954Y486664D02*
X88900Y476610D01*
X170180Y480060D02*
X178054Y487934D01*
X170180Y480060D02*
X170180Y468630D01*
X163830Y462280D01*
X151130Y462280D01*
X127000Y486410D01*
X100478Y486410D01*
X98954Y486664D01*
D24*
X239776Y467360D02*
X246126Y461010D01*
X287020Y461010D01*
X334010Y414020D01*
X334010Y346710D01*
D26*
X219202Y487934D02*
X178054Y487934D01*
X219202Y487934D02*
X239776Y467360D01*
D24*
X302260Y300990D02*
X302260Y293370D01*
X302260Y300990D02*
X311150Y309880D01*
X311150Y323850D01*
X334010Y346710D01*
D25*
X594360Y247650D02*
X628650Y213360D01*
X628650Y201930D01*
D23*
X594360Y247650D03*
X302260Y293370D03*
X88900Y476610D03*
D21*
X477520Y82550D02*
X482600Y82550D01*
X477520Y82550D02*
X472440Y77470D01*
X280670Y77470D01*
X278130Y80010D01*
D23*
X482600Y82550D03*
X278130Y80010D03*
D25*
X621030Y264160D02*
X636270Y279400D01*
X621030Y264160D02*
X621030Y247650D01*
X650240Y218440D01*
X293370Y167640D02*
X278130Y182880D01*
X293370Y167640D02*
X302260Y167640D01*
X317500Y152400D01*
X400050Y139700D02*
X400050Y129540D01*
X400050Y125730D01*
X387350Y152400D02*
X317500Y152400D01*
X387350Y152400D02*
X400050Y139700D01*
X365760Y313690D02*
X365760Y430530D01*
X464820Y153670D02*
X455930Y144780D01*
X415290Y144780D01*
X400050Y129540D01*
X464820Y153670D02*
X629920Y153670D01*
X650240Y173990D01*
X650240Y218440D01*
X355600Y303530D02*
X347980Y303530D01*
X355600Y303530D02*
X365760Y313690D01*
X289560Y506730D02*
X289560Y508000D01*
X289560Y506730D02*
X365760Y430530D01*
X269240Y219710D02*
X269240Y214630D01*
X278130Y200660D02*
X278130Y182880D01*
X278130Y200660D02*
X269240Y209550D01*
X269240Y214630D01*
X269240Y219710D02*
X288290Y238760D01*
X288290Y243840D01*
X347980Y303530D01*
D23*
X269240Y214630D03*
X314706Y356870D03*
X314706Y387350D03*
D21*
X116840Y83058D02*
X117348Y82550D01*
D24*
X85200Y393500D02*
X85090Y393610D01*
D22*
X65200Y393500D02*
X65000Y393700D01*
X292100Y105410D02*
X311150Y105410D01*
X292100Y105410D02*
X285750Y111760D01*
X285750Y149860D01*
X255270Y180340D01*
X255270Y193040D01*
D23*
X311150Y105410D03*
X255270Y193040D03*
D25*
X314960Y505460D02*
X314960Y508000D01*
X314960Y505460D02*
X375920Y440690D01*
X285750Y187960D02*
X298450Y175260D01*
X634500Y304300D02*
X636270Y304800D01*
X634500Y304300D02*
X613410Y283210D01*
X377190Y163830D02*
X378460Y161290D01*
X613410Y242570D02*
X642620Y213360D01*
X613410Y242570D02*
X613410Y283210D01*
X378460Y162560D02*
X378460Y161290D01*
X375920Y311150D02*
X375920Y440690D01*
X458724Y161544D02*
X449580Y152400D01*
X398780Y152400D01*
X387350Y163830D01*
X377190Y163830D01*
X458724Y161544D02*
X626364Y161544D01*
X642620Y177800D01*
X642620Y213360D01*
X375920Y311150D02*
X359410Y294640D01*
X285750Y213360D02*
X285750Y187960D01*
X311150Y252730D02*
X353060Y294640D01*
X359410Y294640D01*
X290830Y218440D02*
X285750Y213360D01*
X290830Y218440D02*
X302260Y218440D01*
X311150Y227330D01*
X311150Y252730D01*
X308610Y175260D02*
X298450Y175260D01*
X308610Y175260D02*
X320040Y163830D01*
X377190Y163830D01*
D23*
X377190Y163830D03*
D25*
X340360Y504190D02*
X340360Y508000D01*
X661670Y279400D02*
X661800Y278260D01*
X648970Y265684D01*
X648970Y230886D02*
X657860Y222250D01*
D27*
X648970Y230886D02*
X648970Y265684D01*
D25*
X374650Y101600D02*
X349250Y125730D01*
X374650Y101600D02*
X439420Y101600D01*
X444500Y106680D01*
X458470Y106680D01*
X463550Y111760D01*
X463550Y138430D01*
X469900Y144780D01*
X386080Y458470D02*
X340360Y504190D01*
X363220Y287020D02*
X363220Y283210D01*
X363220Y287020D02*
X386080Y309880D01*
X386080Y458470D01*
X469900Y144780D02*
X632460Y144780D01*
X657860Y170180D01*
X657860Y222250D01*
D23*
X363220Y283210D03*
D25*
X394970Y299720D02*
X394970Y474980D01*
X394970Y299720D02*
X364490Y269240D01*
X344170Y269240D02*
X335280Y260350D01*
X344170Y269240D02*
X364490Y269240D01*
X365760Y504190D02*
X365760Y508000D01*
X365760Y504190D02*
X394970Y474980D01*
D23*
X335280Y260350D03*
D25*
X251460Y306070D02*
X251460Y375920D01*
D23*
X251460Y375920D03*
D25*
X209550Y198120D02*
X223520Y184150D01*
X209550Y198120D02*
X137160Y198120D01*
D23*
X223520Y184150D03*
D25*
X228600Y463550D02*
X226060Y466090D01*
X261620Y280670D02*
X261620Y248666D01*
X258318Y245364D01*
X240030Y302260D02*
X240030Y380492D01*
X240030Y302260D02*
X261620Y280670D01*
X240030Y380492D02*
X261366Y401828D01*
X228600Y445770D02*
X228600Y463550D01*
X228600Y445770D02*
X238760Y435610D01*
X238760Y422910D01*
X243840Y417830D01*
X255270Y417830D01*
X261366Y411734D01*
X261366Y401828D01*
D23*
X258318Y245364D03*
X226060Y466090D03*
D26*
X222250Y429260D02*
X222250Y410210D01*
X222250Y429260D02*
X214630Y436880D01*
X201930Y436880D01*
X195580Y443230D01*
X195580Y457200D01*
X208280Y469900D01*
X208280Y474980D01*
D23*
X222250Y410210D03*
D21*
X26670Y429260D02*
X26670Y332740D01*
X26670Y429260D02*
X38100Y440690D01*
X38100Y441000D01*
D22*
X51110Y427990D01*
D21*
X26670Y332740D02*
X38100Y321310D01*
X38100Y321000D01*
X50600Y368500D02*
X65200Y368500D01*
X50600Y368500D02*
X44450Y374650D01*
X44450Y400050D01*
X57150Y412750D01*
X100330Y412750D01*
X106680Y406400D01*
D22*
X65200Y368500D02*
X65000Y368300D01*
D24*
X85090Y368390D02*
X85200Y368500D01*
X213360Y508000D02*
X217932Y508000D01*
X488950Y256540D02*
X488950Y191770D01*
X488950Y256540D02*
X488315Y257175D01*
X349250Y332740D02*
X328930Y312420D01*
X349250Y332740D02*
X349250Y421640D01*
X294640Y476250D01*
X249682Y476250D01*
X217932Y508000D01*
X488950Y191770D02*
X497840Y182880D01*
X593090Y182880D01*
D23*
X328930Y312420D03*
X593090Y182880D03*
X488315Y257175D03*
D26*
X202184Y493522D02*
X187960Y508000D01*
X202184Y493522D02*
X222758Y493522D01*
X247904Y468630D01*
D24*
X478790Y172720D02*
X618490Y172720D01*
X478790Y172720D02*
X463550Y187960D01*
X463550Y250190D01*
X470535Y255905D01*
X318770Y300990D02*
X318770Y320040D01*
X341630Y342900D01*
X341630Y417830D01*
X290830Y468630D01*
X247904Y468630D01*
D23*
X318770Y300990D03*
X618490Y172720D03*
X470535Y255905D03*
D25*
X552450Y218440D02*
X552450Y201930D01*
X552450Y218440D02*
X542290Y228600D01*
X542290Y298450D01*
X548640Y304800D01*
X548640Y340360D01*
X544830Y344170D01*
X544830Y459740D01*
X571500Y486410D01*
X571500Y495300D01*
X584200Y508000D01*
X577850Y210820D02*
X577850Y201930D01*
X553720Y454660D02*
X576580Y477520D01*
X586740Y477520D01*
X598170Y488950D01*
X551434Y237236D02*
X577850Y210820D01*
X553720Y346710D02*
X553720Y454660D01*
X551434Y297434D02*
X551434Y237236D01*
X551434Y297434D02*
X563880Y309880D01*
X563880Y311150D01*
X563372Y313182D01*
X563880Y336550D02*
X553720Y346710D01*
X563880Y336550D02*
X563880Y313690D01*
X563372Y313182D01*
X598170Y488950D02*
X598170Y496570D01*
X609600Y508000D01*
D23*
X563372Y313182D03*
D25*
X601980Y201930D02*
X603250Y201930D01*
X612140Y320040D02*
X612140Y328930D01*
X612140Y320040D02*
X593090Y300990D01*
X566420Y300990D01*
X558800Y293370D01*
X591820Y468630D02*
X604520Y481330D01*
X591820Y468630D02*
X581660Y468630D01*
X562610Y449580D01*
X608330Y332740D02*
X612140Y328930D01*
X558800Y293370D02*
X558800Y245110D01*
X601980Y201930D01*
X604520Y481330D02*
X607060Y481330D01*
X622300Y496570D01*
X623570Y496570D01*
X635000Y508000D01*
X608330Y332740D02*
X589280Y332740D01*
X579120Y342900D01*
X579120Y355600D01*
X562610Y372110D01*
X562610Y449580D01*
D23*
X612140Y328930D03*
D25*
X527050Y207010D02*
X527050Y201930D01*
X527050Y207010D02*
X533400Y213360D01*
X533400Y304800D01*
X537210Y308610D01*
X537210Y340360D01*
X535940Y341630D01*
X535940Y464820D01*
X558800Y487680D02*
X558800Y508000D01*
X558800Y487680D02*
X535940Y464820D01*
X497840Y468630D02*
X532130Y502920D01*
X533400Y508000D01*
X501650Y267970D02*
X501650Y201930D01*
X497840Y271780D02*
X497840Y468630D01*
X497840Y271780D02*
X501650Y267970D01*
X486410Y481330D02*
X508000Y502920D01*
X508000Y508000D01*
X374650Y215900D02*
X374650Y201930D01*
X374650Y215900D02*
X486410Y327660D01*
X486410Y481330D01*
X482600Y502920D02*
X482600Y508000D01*
X482600Y502920D02*
X474980Y495300D01*
X474980Y328930D01*
X349250Y203200D02*
X349250Y201930D01*
X349250Y203200D02*
X474980Y328930D01*
X463550Y494030D02*
X457200Y500380D01*
X457200Y508000D01*
X323850Y203200D02*
X323850Y201930D01*
X323850Y203200D02*
X349250Y228600D01*
X361950Y228600D01*
X463550Y330200D01*
X463550Y494030D01*
X332740Y237490D02*
X298450Y203200D01*
X298450Y201930D01*
X332740Y237490D02*
X358140Y237490D01*
X416560Y502920D02*
X416560Y508000D01*
X419100Y505460D02*
X416560Y502920D01*
X419100Y298450D02*
X358140Y237490D01*
X419100Y298450D02*
X419100Y505460D01*
X356870Y248920D02*
X323850Y248920D01*
X406400Y298450D02*
X406400Y490220D01*
X391160Y505460D01*
X391160Y508000D01*
X406400Y298450D02*
X356870Y248920D01*
D23*
X323850Y248920D03*
D24*
X270510Y336550D02*
X292100Y358140D01*
X270510Y336550D02*
X270510Y242570D01*
X292100Y358140D02*
X292100Y394970D01*
X308610Y411480D01*
X270510Y242570D02*
X251460Y223520D01*
X251460Y207010D01*
X241300Y196850D01*
X220980Y196850D01*
X210820Y207010D01*
X193040Y207010D01*
D23*
X308610Y411480D03*
M02*
