G04 EAGLE Gerber X2 export*
%TF.Part,Single*%
%TF.FileFunction,Soldermask,Bot,1*%
%TF.FilePolarity,Negative*%
%TF.GenerationSoftware,Autodesk,EAGLE,9.0.1*%
%TF.CreationDate,2019-02-14T11:46:10Z*%
G75*
%MOMM*%
%FSLAX34Y34*%
%LPD*%
%AMOC8*
5,1,8,0,0,1.08239X$1,22.5*%
G01*
%ADD10C,3.301600*%
%ADD11C,1.524000*%
%ADD12P,1.787675X8X292.500000*%
%ADD13P,4.439531X8X202.500000*%
%ADD14P,4.439531X8X112.500000*%
%ADD15C,2.051600*%
%ADD16P,1.924489X8X292.500000*%
%ADD17C,3.317600*%
%ADD18P,1.787675X8X202.500000*%
%ADD19C,0.127000*%
%ADD20R,0.152400X1.828800*%
%ADD21P,1.924489X8X112.500000*%


D10*
X660400Y355600D03*
X660400Y76200D03*
X152400Y508000D03*
X139700Y25400D03*
D11*
X628650Y198374D02*
X628650Y205486D01*
X603250Y205486D02*
X603250Y198374D01*
X577850Y198374D02*
X577850Y205486D01*
X552450Y205486D02*
X552450Y198374D01*
X527050Y198374D02*
X527050Y205486D01*
X501650Y205486D02*
X501650Y198374D01*
X476250Y198374D02*
X476250Y205486D01*
X450850Y205486D02*
X450850Y198374D01*
X425450Y198374D02*
X425450Y205486D01*
X400050Y205486D02*
X400050Y198374D01*
X374650Y198374D02*
X374650Y205486D01*
X349250Y205486D02*
X349250Y198374D01*
X323850Y198374D02*
X323850Y205486D01*
X298450Y205486D02*
X298450Y198374D01*
X298450Y129286D02*
X298450Y122174D01*
X323850Y122174D02*
X323850Y129286D01*
X349250Y129286D02*
X349250Y122174D01*
X374650Y122174D02*
X374650Y129286D01*
X400050Y129286D02*
X400050Y122174D01*
X425450Y122174D02*
X425450Y129286D01*
X450850Y129286D02*
X450850Y122174D01*
X476250Y122174D02*
X476250Y129286D01*
X501650Y129286D02*
X501650Y122174D01*
X527050Y122174D02*
X527050Y129286D01*
X552450Y129286D02*
X552450Y122174D01*
X577850Y122174D02*
X577850Y129286D01*
X603250Y129286D02*
X603250Y122174D01*
X628650Y122174D02*
X628650Y129286D01*
D12*
X636270Y304800D03*
X661670Y304800D03*
X636270Y279400D03*
X661670Y279400D03*
X636270Y254000D03*
X661670Y254000D03*
D11*
X635000Y504444D02*
X635000Y511556D01*
X609600Y511556D02*
X609600Y504444D01*
X584200Y504444D02*
X584200Y511556D01*
X558800Y511556D02*
X558800Y504444D01*
X533400Y504444D02*
X533400Y511556D01*
X508000Y511556D02*
X508000Y504444D01*
X482600Y504444D02*
X482600Y511556D01*
X457200Y511556D02*
X457200Y504444D01*
X416560Y504444D02*
X416560Y511556D01*
X391160Y511556D02*
X391160Y504444D01*
X365760Y504444D02*
X365760Y511556D01*
X340360Y511556D02*
X340360Y504444D01*
X314960Y504444D02*
X314960Y511556D01*
X289560Y511556D02*
X289560Y504444D01*
X264160Y504444D02*
X264160Y511556D01*
X238760Y511556D02*
X238760Y504444D01*
X213360Y504444D02*
X213360Y511556D01*
X187960Y511556D02*
X187960Y504444D01*
X508000Y28956D02*
X508000Y21844D01*
X533400Y21844D02*
X533400Y28956D01*
X558800Y28956D02*
X558800Y21844D01*
X584200Y21844D02*
X584200Y28956D01*
X609600Y28956D02*
X609600Y21844D01*
X635000Y21844D02*
X635000Y28956D01*
D13*
X86868Y33020D03*
D14*
X116840Y83058D03*
X56896Y83058D03*
D15*
X94488Y33020D03*
X79248Y33020D03*
X56896Y75438D03*
X56896Y90678D03*
X116840Y75438D03*
X116840Y90678D03*
D16*
X85200Y368500D03*
X85200Y393500D03*
X65200Y393500D03*
X65200Y368500D03*
D17*
X38100Y441000D03*
X38100Y321000D03*
D18*
X208280Y474980D03*
X208280Y449580D03*
X182880Y474980D03*
X182880Y449580D03*
X157480Y474980D03*
X157480Y449580D03*
D19*
X127635Y414274D02*
X116205Y414274D01*
X127635Y414274D02*
X127635Y398526D01*
X116205Y398526D01*
X116205Y414274D01*
X116205Y399795D02*
X127635Y399795D01*
X127635Y401064D02*
X116205Y401064D01*
X116205Y402333D02*
X127635Y402333D01*
X127635Y403602D02*
X116205Y403602D01*
X116205Y404871D02*
X127635Y404871D01*
X127635Y406140D02*
X116205Y406140D01*
X116205Y407409D02*
X127635Y407409D01*
X127635Y408678D02*
X116205Y408678D01*
X116205Y409947D02*
X127635Y409947D01*
X127635Y411216D02*
X116205Y411216D01*
X116205Y412485D02*
X127635Y412485D01*
X127635Y413754D02*
X116205Y413754D01*
X112395Y414274D02*
X100965Y414274D01*
X112395Y414274D02*
X112395Y398526D01*
X100965Y398526D01*
X100965Y414274D01*
X100965Y399795D02*
X112395Y399795D01*
X112395Y401064D02*
X100965Y401064D01*
X100965Y402333D02*
X112395Y402333D01*
X112395Y403602D02*
X100965Y403602D01*
X100965Y404871D02*
X112395Y404871D01*
X112395Y406140D02*
X100965Y406140D01*
X100965Y407409D02*
X112395Y407409D01*
X112395Y408678D02*
X100965Y408678D01*
X100965Y409947D02*
X112395Y409947D01*
X112395Y411216D02*
X100965Y411216D01*
X100965Y412485D02*
X112395Y412485D01*
X112395Y413754D02*
X100965Y413754D01*
D20*
X114300Y406400D03*
D21*
X208280Y398780D03*
X182880Y398780D03*
X208280Y424180D03*
X182880Y424180D03*
D11*
X279400Y28956D02*
X279400Y21844D01*
X304800Y21844D02*
X304800Y28956D01*
X330200Y28956D02*
X330200Y21844D01*
X355600Y21844D02*
X355600Y28956D01*
X381000Y28956D02*
X381000Y21844D01*
X406400Y21844D02*
X406400Y28956D01*
X431800Y28956D02*
X431800Y21844D01*
X457200Y21844D02*
X457200Y28956D01*
D16*
X214630Y261620D03*
X163830Y261620D03*
M02*
