G04 EAGLE Gerber X2 export*
%TF.Part,Single*%
%TF.FileFunction,Legend,Bot,1*%
%TF.FilePolarity,Positive*%
%TF.GenerationSoftware,Autodesk,EAGLE,9.0.1*%
%TF.CreationDate,2019-02-14T11:46:10Z*%
G75*
%MOMM*%
%FSLAX34Y34*%
%LPD*%
%AMOC8*
5,1,8,0,0,1.08239X$1,22.5*%
G01*
%ADD10C,0.177800*%
%ADD11C,0.152400*%


D10*
X406097Y462926D02*
X406097Y450469D01*
X412325Y450469D01*
X414401Y452545D01*
X414401Y456697D01*
X412325Y458773D01*
X406097Y458773D01*
X399228Y450469D02*
X395075Y450469D01*
X399228Y450469D02*
X401304Y452545D01*
X401304Y456697D01*
X399228Y458773D01*
X395075Y458773D01*
X392999Y456697D01*
X392999Y454621D01*
X401304Y454621D01*
X388207Y450469D02*
X381978Y450469D01*
X379902Y452545D01*
X381978Y454621D01*
X386130Y454621D01*
X388207Y456697D01*
X386130Y458773D01*
X379902Y458773D01*
X375109Y458773D02*
X373033Y458773D01*
X373033Y450469D01*
X375109Y450469D02*
X370957Y450469D01*
X373033Y462926D02*
X373033Y465002D01*
X362226Y446317D02*
X360149Y446317D01*
X358073Y448393D01*
X358073Y458773D01*
X364302Y458773D01*
X366378Y456697D01*
X366378Y452545D01*
X364302Y450469D01*
X358073Y450469D01*
X353281Y450469D02*
X353281Y458773D01*
X347052Y458773D01*
X344976Y456697D01*
X344976Y450469D01*
X338107Y450469D02*
X333955Y450469D01*
X338107Y450469D02*
X340183Y452545D01*
X340183Y456697D01*
X338107Y458773D01*
X333955Y458773D01*
X331879Y456697D01*
X331879Y454621D01*
X340183Y454621D01*
X318782Y450469D02*
X318782Y462926D01*
X318782Y450469D02*
X325010Y450469D01*
X327086Y452545D01*
X327086Y456697D01*
X325010Y458773D01*
X318782Y458773D01*
X300892Y462926D02*
X300892Y450469D01*
X294663Y450469D01*
X292587Y452545D01*
X292587Y456697D01*
X294663Y458773D01*
X300892Y458773D01*
X287794Y458773D02*
X287794Y452545D01*
X285718Y450469D01*
X279490Y450469D01*
X279490Y448393D02*
X279490Y458773D01*
X279490Y448393D02*
X281566Y446317D01*
X283642Y446317D01*
X390735Y443070D02*
X390735Y434765D01*
X388659Y432689D01*
X388659Y440993D02*
X392811Y440993D01*
X384080Y440993D02*
X382003Y440993D01*
X382003Y432689D01*
X379927Y432689D02*
X384080Y432689D01*
X382003Y445146D02*
X382003Y447222D01*
X375348Y440993D02*
X375348Y432689D01*
X375348Y440993D02*
X369120Y440993D01*
X367044Y438917D01*
X367044Y432689D01*
X362251Y432689D02*
X362251Y445146D01*
X362251Y436841D02*
X356022Y432689D01*
X362251Y436841D02*
X356022Y440993D01*
X349260Y432689D02*
X345108Y432689D01*
X349260Y432689D02*
X351336Y434765D01*
X351336Y438917D01*
X349260Y440993D01*
X345108Y440993D01*
X343032Y438917D01*
X343032Y436841D01*
X351336Y436841D01*
X338239Y432689D02*
X338239Y440993D01*
X338239Y436841D02*
X334087Y440993D01*
X332011Y440993D01*
X314228Y440993D02*
X312151Y440993D01*
X312151Y432689D01*
X310075Y432689D02*
X314228Y432689D01*
X312151Y445146D02*
X312151Y447222D01*
X303420Y443070D02*
X303420Y434765D01*
X301344Y432689D01*
X301344Y440993D02*
X305496Y440993D01*
X646811Y451739D02*
X646811Y464196D01*
X642659Y460043D01*
X638507Y464196D01*
X638507Y451739D01*
X633714Y451739D02*
X633714Y460043D01*
X629562Y464196D01*
X625409Y460043D01*
X625409Y451739D01*
X625409Y457967D02*
X633714Y457967D01*
X620617Y464196D02*
X620617Y451739D01*
X614388Y451739D01*
X612312Y453815D01*
X612312Y462120D01*
X614388Y464196D01*
X620617Y464196D01*
X607519Y464196D02*
X599215Y464196D01*
X607519Y464196D02*
X607519Y451739D01*
X599215Y451739D01*
X603367Y457967D02*
X607519Y457967D01*
X581325Y451739D02*
X577173Y451739D01*
X579249Y451739D02*
X579249Y464196D01*
X581325Y464196D02*
X577173Y464196D01*
X572593Y464196D02*
X572593Y451739D01*
X564289Y451739D02*
X572593Y464196D01*
X564289Y464196D02*
X564289Y451739D01*
X636309Y426339D02*
X640461Y426339D01*
X638385Y426339D02*
X638385Y438796D01*
X640461Y438796D02*
X636309Y438796D01*
X627577Y438796D02*
X627577Y426339D01*
X623425Y438796D02*
X631730Y438796D01*
X618632Y434643D02*
X618632Y426339D01*
X618632Y434643D02*
X614480Y438796D01*
X610328Y434643D01*
X610328Y426339D01*
X610328Y432567D02*
X618632Y432567D01*
X605535Y438796D02*
X605535Y426339D01*
X597231Y426339D01*
X592438Y436720D02*
X592438Y438796D01*
X592438Y436720D02*
X588286Y432567D01*
X584133Y436720D01*
X584133Y438796D01*
X588286Y432567D02*
X588286Y426339D01*
D11*
X128270Y396240D02*
X100330Y396240D01*
X97790Y414020D02*
X97792Y414120D01*
X97798Y414219D01*
X97808Y414319D01*
X97821Y414417D01*
X97839Y414516D01*
X97860Y414613D01*
X97885Y414709D01*
X97914Y414805D01*
X97947Y414899D01*
X97983Y414992D01*
X98023Y415083D01*
X98067Y415173D01*
X98114Y415261D01*
X98164Y415347D01*
X98218Y415431D01*
X98275Y415513D01*
X98335Y415592D01*
X98399Y415670D01*
X98465Y415744D01*
X98534Y415816D01*
X98606Y415885D01*
X98680Y415951D01*
X98758Y416015D01*
X98837Y416075D01*
X98919Y416132D01*
X99003Y416186D01*
X99089Y416236D01*
X99177Y416283D01*
X99267Y416327D01*
X99358Y416367D01*
X99451Y416403D01*
X99545Y416436D01*
X99641Y416465D01*
X99737Y416490D01*
X99834Y416511D01*
X99933Y416529D01*
X100031Y416542D01*
X100131Y416552D01*
X100230Y416558D01*
X100330Y416560D01*
X128270Y416560D02*
X128370Y416558D01*
X128469Y416552D01*
X128569Y416542D01*
X128667Y416529D01*
X128766Y416511D01*
X128863Y416490D01*
X128959Y416465D01*
X129055Y416436D01*
X129149Y416403D01*
X129242Y416367D01*
X129333Y416327D01*
X129423Y416283D01*
X129511Y416236D01*
X129597Y416186D01*
X129681Y416132D01*
X129763Y416075D01*
X129842Y416015D01*
X129920Y415951D01*
X129994Y415885D01*
X130066Y415816D01*
X130135Y415744D01*
X130201Y415670D01*
X130265Y415592D01*
X130325Y415513D01*
X130382Y415431D01*
X130436Y415347D01*
X130486Y415261D01*
X130533Y415173D01*
X130577Y415083D01*
X130617Y414992D01*
X130653Y414899D01*
X130686Y414805D01*
X130715Y414709D01*
X130740Y414613D01*
X130761Y414516D01*
X130779Y414417D01*
X130792Y414319D01*
X130802Y414219D01*
X130808Y414120D01*
X130810Y414020D01*
X130810Y398780D02*
X130808Y398680D01*
X130802Y398581D01*
X130792Y398481D01*
X130779Y398383D01*
X130761Y398284D01*
X130740Y398187D01*
X130715Y398091D01*
X130686Y397995D01*
X130653Y397901D01*
X130617Y397808D01*
X130577Y397717D01*
X130533Y397627D01*
X130486Y397539D01*
X130436Y397453D01*
X130382Y397369D01*
X130325Y397287D01*
X130265Y397208D01*
X130201Y397130D01*
X130135Y397056D01*
X130066Y396984D01*
X129994Y396915D01*
X129920Y396849D01*
X129842Y396785D01*
X129763Y396725D01*
X129681Y396668D01*
X129597Y396614D01*
X129511Y396564D01*
X129423Y396517D01*
X129333Y396473D01*
X129242Y396433D01*
X129149Y396397D01*
X129055Y396364D01*
X128959Y396335D01*
X128863Y396310D01*
X128766Y396289D01*
X128667Y396271D01*
X128569Y396258D01*
X128469Y396248D01*
X128370Y396242D01*
X128270Y396240D01*
X100330Y396240D02*
X100230Y396242D01*
X100131Y396248D01*
X100031Y396258D01*
X99933Y396271D01*
X99834Y396289D01*
X99737Y396310D01*
X99641Y396335D01*
X99545Y396364D01*
X99451Y396397D01*
X99358Y396433D01*
X99267Y396473D01*
X99177Y396517D01*
X99089Y396564D01*
X99003Y396614D01*
X98919Y396668D01*
X98837Y396725D01*
X98758Y396785D01*
X98680Y396849D01*
X98606Y396915D01*
X98534Y396984D01*
X98465Y397056D01*
X98399Y397130D01*
X98335Y397208D01*
X98275Y397287D01*
X98218Y397369D01*
X98164Y397453D01*
X98114Y397539D01*
X98067Y397627D01*
X98023Y397717D01*
X97983Y397808D01*
X97947Y397901D01*
X97914Y397995D01*
X97885Y398091D01*
X97860Y398187D01*
X97839Y398284D01*
X97821Y398383D01*
X97808Y398481D01*
X97798Y398581D01*
X97792Y398680D01*
X97790Y398780D01*
X97790Y414020D01*
X130810Y414020D02*
X130810Y398780D01*
X128270Y416560D02*
X100330Y416560D01*
M02*
