G04 EAGLE Gerber X2 export*
%TF.Part,Single*%
%TF.FileFunction,Soldermask,Top,1*%
%TF.FilePolarity,Negative*%
%TF.GenerationSoftware,Autodesk,EAGLE,9.0.1*%
%TF.CreationDate,2019-02-14T11:46:10Z*%
G75*
%MOMM*%
%FSLAX34Y34*%
%LPD*%
%AMOC8*
5,1,8,0,0,1.08239X$1,22.5*%
G01*
%ADD10C,3.301600*%
%ADD11C,1.524000*%
%ADD12P,1.787675X8X292.500000*%
%ADD13C,0.790587*%
%ADD14C,0.150159*%
%ADD15C,0.130159*%
%ADD16C,0.250159*%
%ADD17P,4.439531X8X202.500000*%
%ADD18P,4.439531X8X112.500000*%
%ADD19C,2.051600*%
%ADD20C,2.184400*%
%ADD21C,1.117600*%
%ADD22P,1.924489X8X292.500000*%
%ADD23C,3.317600*%
%ADD24C,0.132078*%
%ADD25C,0.230159*%
%ADD26C,0.200159*%
%ADD27C,0.112597*%
%ADD28C,0.264638*%
%ADD29P,1.787675X8X202.500000*%
%ADD30C,0.110000*%
%ADD31C,0.127000*%
%ADD32R,0.152400X1.828800*%
%ADD33C,0.110159*%
%ADD34P,1.924489X8X112.500000*%
%ADD35C,0.119272*%
%ADD36C,0.225238*%
%ADD37C,0.115500*%
%ADD38C,0.108900*%

G36*
X201651Y333571D02*
X201651Y333571D01*
X201694Y333583D01*
X201760Y333590D01*
X203898Y334163D01*
X203938Y334182D01*
X204002Y334201D01*
X206008Y335137D01*
X206045Y335162D01*
X206104Y335192D01*
X207917Y336462D01*
X207949Y336493D01*
X208002Y336533D01*
X209567Y338098D01*
X209593Y338135D01*
X209638Y338183D01*
X210908Y339996D01*
X210921Y340025D01*
X210939Y340046D01*
X210945Y340064D01*
X210963Y340092D01*
X211899Y342098D01*
X211910Y342141D01*
X211937Y342202D01*
X212510Y344341D01*
X212513Y344385D01*
X212529Y344449D01*
X212722Y346655D01*
X212718Y346699D01*
X212722Y346765D01*
X212529Y348971D01*
X212517Y349014D01*
X212510Y349080D01*
X211937Y351218D01*
X211918Y351258D01*
X211899Y351322D01*
X210963Y353328D01*
X210943Y353356D01*
X210935Y353376D01*
X210928Y353384D01*
X210908Y353424D01*
X209638Y355237D01*
X209607Y355269D01*
X209567Y355322D01*
X208002Y356887D01*
X207965Y356913D01*
X207917Y356958D01*
X206104Y358228D01*
X206063Y358247D01*
X206008Y358283D01*
X204002Y359219D01*
X203959Y359230D01*
X203898Y359257D01*
X201760Y359830D01*
X201715Y359833D01*
X201651Y359849D01*
X199445Y360042D01*
X199401Y360038D01*
X199335Y360042D01*
X197129Y359849D01*
X197086Y359837D01*
X197021Y359830D01*
X194882Y359257D01*
X194842Y359238D01*
X194778Y359219D01*
X192772Y358283D01*
X192735Y358258D01*
X192676Y358228D01*
X190863Y356958D01*
X190831Y356927D01*
X190778Y356887D01*
X189213Y355322D01*
X189187Y355285D01*
X189142Y355237D01*
X187872Y353424D01*
X187853Y353383D01*
X187834Y353354D01*
X187826Y353344D01*
X187824Y353339D01*
X187817Y353328D01*
X186881Y351322D01*
X186870Y351279D01*
X186843Y351218D01*
X186270Y349080D01*
X186267Y349035D01*
X186251Y348971D01*
X186058Y346765D01*
X186062Y346721D01*
X186058Y346655D01*
X186251Y344449D01*
X186263Y344406D01*
X186270Y344341D01*
X186843Y342202D01*
X186862Y342162D01*
X186881Y342098D01*
X187817Y340092D01*
X187842Y340055D01*
X187849Y340043D01*
X187860Y340014D01*
X187866Y340008D01*
X187872Y339996D01*
X189142Y338183D01*
X189173Y338151D01*
X189213Y338098D01*
X190778Y336533D01*
X190815Y336507D01*
X190863Y336462D01*
X192676Y335192D01*
X192717Y335173D01*
X192772Y335137D01*
X194778Y334201D01*
X194821Y334190D01*
X194882Y334163D01*
X197021Y333590D01*
X197065Y333587D01*
X197129Y333571D01*
X199335Y333378D01*
X199379Y333382D01*
X199445Y333378D01*
X201651Y333571D01*
G37*
D10*
X660400Y355600D03*
X660400Y76200D03*
X152400Y508000D03*
X139700Y25400D03*
D11*
X628650Y198374D02*
X628650Y205486D01*
X603250Y205486D02*
X603250Y198374D01*
X577850Y198374D02*
X577850Y205486D01*
X552450Y205486D02*
X552450Y198374D01*
X527050Y198374D02*
X527050Y205486D01*
X501650Y205486D02*
X501650Y198374D01*
X476250Y198374D02*
X476250Y205486D01*
X450850Y205486D02*
X450850Y198374D01*
X425450Y198374D02*
X425450Y205486D01*
X400050Y205486D02*
X400050Y198374D01*
X374650Y198374D02*
X374650Y205486D01*
X349250Y205486D02*
X349250Y198374D01*
X323850Y198374D02*
X323850Y205486D01*
X298450Y205486D02*
X298450Y198374D01*
X298450Y129286D02*
X298450Y122174D01*
X323850Y122174D02*
X323850Y129286D01*
X349250Y129286D02*
X349250Y122174D01*
X374650Y122174D02*
X374650Y129286D01*
X400050Y129286D02*
X400050Y122174D01*
X425450Y122174D02*
X425450Y129286D01*
X450850Y129286D02*
X450850Y122174D01*
X476250Y122174D02*
X476250Y129286D01*
X501650Y129286D02*
X501650Y122174D01*
X527050Y122174D02*
X527050Y129286D01*
X552450Y129286D02*
X552450Y122174D01*
X577850Y122174D02*
X577850Y129286D01*
X603250Y129286D02*
X603250Y122174D01*
X628650Y122174D02*
X628650Y129286D01*
D12*
X636270Y304800D03*
X661670Y304800D03*
X636270Y279400D03*
X661670Y279400D03*
X636270Y254000D03*
X661670Y254000D03*
D11*
X635000Y504444D02*
X635000Y511556D01*
X609600Y511556D02*
X609600Y504444D01*
X584200Y504444D02*
X584200Y511556D01*
X558800Y511556D02*
X558800Y504444D01*
X533400Y504444D02*
X533400Y511556D01*
X508000Y511556D02*
X508000Y504444D01*
X482600Y504444D02*
X482600Y511556D01*
X457200Y511556D02*
X457200Y504444D01*
X416560Y504444D02*
X416560Y511556D01*
X391160Y511556D02*
X391160Y504444D01*
X365760Y504444D02*
X365760Y511556D01*
X340360Y511556D02*
X340360Y504444D01*
X314960Y504444D02*
X314960Y511556D01*
X289560Y511556D02*
X289560Y504444D01*
X264160Y504444D02*
X264160Y511556D01*
X238760Y511556D02*
X238760Y504444D01*
X213360Y504444D02*
X213360Y511556D01*
X187960Y511556D02*
X187960Y504444D01*
X508000Y28956D02*
X508000Y21844D01*
X533400Y21844D02*
X533400Y28956D01*
X558800Y28956D02*
X558800Y21844D01*
X584200Y21844D02*
X584200Y28956D01*
X609600Y28956D02*
X609600Y21844D01*
X635000Y21844D02*
X635000Y28956D01*
D13*
X128552Y296454D02*
X128552Y300446D01*
X130528Y300446D01*
X130528Y296454D01*
X128552Y296454D01*
X110772Y296454D02*
X110772Y300446D01*
X112748Y300446D01*
X112748Y296454D01*
X110772Y296454D01*
D14*
X262027Y82197D02*
X262027Y52683D01*
X248513Y52683D01*
X248513Y82197D01*
X262027Y82197D01*
X262027Y54184D02*
X248513Y54184D01*
X248513Y55685D02*
X262027Y55685D01*
X262027Y57186D02*
X248513Y57186D01*
X248513Y58687D02*
X262027Y58687D01*
X262027Y60188D02*
X248513Y60188D01*
X248513Y61689D02*
X262027Y61689D01*
X262027Y63190D02*
X248513Y63190D01*
X248513Y64691D02*
X262027Y64691D01*
X262027Y66192D02*
X248513Y66192D01*
X248513Y67693D02*
X262027Y67693D01*
X262027Y69194D02*
X248513Y69194D01*
X248513Y70695D02*
X262027Y70695D01*
X262027Y72196D02*
X248513Y72196D01*
X248513Y73697D02*
X262027Y73697D01*
X262027Y75198D02*
X248513Y75198D01*
X248513Y76699D02*
X262027Y76699D01*
X262027Y78200D02*
X248513Y78200D01*
X248513Y79701D02*
X262027Y79701D01*
X262027Y81202D02*
X248513Y81202D01*
X262027Y100683D02*
X262027Y130197D01*
X262027Y100683D02*
X248513Y100683D01*
X248513Y130197D01*
X262027Y130197D01*
X262027Y102184D02*
X248513Y102184D01*
X248513Y103685D02*
X262027Y103685D01*
X262027Y105186D02*
X248513Y105186D01*
X248513Y106687D02*
X262027Y106687D01*
X262027Y108188D02*
X248513Y108188D01*
X248513Y109689D02*
X262027Y109689D01*
X262027Y111190D02*
X248513Y111190D01*
X248513Y112691D02*
X262027Y112691D01*
X262027Y114192D02*
X248513Y114192D01*
X248513Y115693D02*
X262027Y115693D01*
X262027Y117194D02*
X248513Y117194D01*
X248513Y118695D02*
X262027Y118695D01*
X262027Y120196D02*
X248513Y120196D01*
X248513Y121697D02*
X262027Y121697D01*
X262027Y123198D02*
X248513Y123198D01*
X248513Y124699D02*
X262027Y124699D01*
X262027Y126200D02*
X248513Y126200D01*
X248513Y127701D02*
X262027Y127701D01*
X262027Y129202D02*
X248513Y129202D01*
X190907Y82197D02*
X190907Y52683D01*
X177393Y52683D01*
X177393Y82197D01*
X190907Y82197D01*
X190907Y54184D02*
X177393Y54184D01*
X177393Y55685D02*
X190907Y55685D01*
X190907Y57186D02*
X177393Y57186D01*
X177393Y58687D02*
X190907Y58687D01*
X190907Y60188D02*
X177393Y60188D01*
X177393Y61689D02*
X190907Y61689D01*
X190907Y63190D02*
X177393Y63190D01*
X177393Y64691D02*
X190907Y64691D01*
X190907Y66192D02*
X177393Y66192D01*
X177393Y67693D02*
X190907Y67693D01*
X190907Y69194D02*
X177393Y69194D01*
X177393Y70695D02*
X190907Y70695D01*
X190907Y72196D02*
X177393Y72196D01*
X177393Y73697D02*
X190907Y73697D01*
X190907Y75198D02*
X177393Y75198D01*
X177393Y76699D02*
X190907Y76699D01*
X190907Y78200D02*
X177393Y78200D01*
X177393Y79701D02*
X190907Y79701D01*
X190907Y81202D02*
X177393Y81202D01*
X190907Y100683D02*
X190907Y130197D01*
X190907Y100683D02*
X177393Y100683D01*
X177393Y130197D01*
X190907Y130197D01*
X190907Y102184D02*
X177393Y102184D01*
X177393Y103685D02*
X190907Y103685D01*
X190907Y105186D02*
X177393Y105186D01*
X177393Y106687D02*
X190907Y106687D01*
X190907Y108188D02*
X177393Y108188D01*
X177393Y109689D02*
X190907Y109689D01*
X190907Y111190D02*
X177393Y111190D01*
X177393Y112691D02*
X190907Y112691D01*
X190907Y114192D02*
X177393Y114192D01*
X177393Y115693D02*
X190907Y115693D01*
X190907Y117194D02*
X177393Y117194D01*
X177393Y118695D02*
X190907Y118695D01*
X190907Y120196D02*
X177393Y120196D01*
X177393Y121697D02*
X190907Y121697D01*
X190907Y123198D02*
X177393Y123198D01*
X177393Y124699D02*
X190907Y124699D01*
X190907Y126200D02*
X177393Y126200D01*
X177393Y127701D02*
X190907Y127701D01*
X190907Y129202D02*
X177393Y129202D01*
D15*
X588843Y359903D02*
X588843Y371617D01*
X600557Y371617D01*
X600557Y359903D01*
X588843Y359903D01*
X588843Y361204D02*
X600557Y361204D01*
X600557Y362505D02*
X588843Y362505D01*
X588843Y363806D02*
X600557Y363806D01*
X600557Y365107D02*
X588843Y365107D01*
X588843Y366408D02*
X600557Y366408D01*
X600557Y367709D02*
X588843Y367709D01*
X588843Y369010D02*
X600557Y369010D01*
X600557Y370311D02*
X588843Y370311D01*
X588843Y371612D02*
X600557Y371612D01*
X567843Y371617D02*
X567843Y359903D01*
X567843Y371617D02*
X579557Y371617D01*
X579557Y359903D01*
X567843Y359903D01*
X567843Y361204D02*
X579557Y361204D01*
X579557Y362505D02*
X567843Y362505D01*
X567843Y363806D02*
X579557Y363806D01*
X579557Y365107D02*
X567843Y365107D01*
X567843Y366408D02*
X579557Y366408D01*
X579557Y367709D02*
X567843Y367709D01*
X567843Y369010D02*
X579557Y369010D01*
X579557Y370311D02*
X567843Y370311D01*
X567843Y371612D02*
X579557Y371612D01*
X274757Y348757D02*
X274757Y337043D01*
X263043Y337043D01*
X263043Y348757D01*
X274757Y348757D01*
X274757Y338344D02*
X263043Y338344D01*
X263043Y339645D02*
X274757Y339645D01*
X274757Y340946D02*
X263043Y340946D01*
X263043Y342247D02*
X274757Y342247D01*
X274757Y343548D02*
X263043Y343548D01*
X263043Y344849D02*
X274757Y344849D01*
X274757Y346150D02*
X263043Y346150D01*
X263043Y347451D02*
X274757Y347451D01*
X274757Y348752D02*
X263043Y348752D01*
X295757Y348757D02*
X295757Y337043D01*
X284043Y337043D01*
X284043Y348757D01*
X295757Y348757D01*
X295757Y338344D02*
X284043Y338344D01*
X284043Y339645D02*
X295757Y339645D01*
X295757Y340946D02*
X284043Y340946D01*
X284043Y342247D02*
X295757Y342247D01*
X295757Y343548D02*
X284043Y343548D01*
X284043Y344849D02*
X295757Y344849D01*
X295757Y346150D02*
X284043Y346150D01*
X284043Y347451D02*
X295757Y347451D01*
X295757Y348752D02*
X284043Y348752D01*
X274757Y359903D02*
X274757Y371617D01*
X274757Y359903D02*
X263043Y359903D01*
X263043Y371617D01*
X274757Y371617D01*
X274757Y361204D02*
X263043Y361204D01*
X263043Y362505D02*
X274757Y362505D01*
X274757Y363806D02*
X263043Y363806D01*
X263043Y365107D02*
X274757Y365107D01*
X274757Y366408D02*
X263043Y366408D01*
X263043Y367709D02*
X274757Y367709D01*
X274757Y369010D02*
X263043Y369010D01*
X263043Y370311D02*
X274757Y370311D01*
X274757Y371612D02*
X263043Y371612D01*
X295757Y371617D02*
X295757Y359903D01*
X284043Y359903D01*
X284043Y371617D01*
X295757Y371617D01*
X295757Y361204D02*
X284043Y361204D01*
X284043Y362505D02*
X295757Y362505D01*
X295757Y363806D02*
X284043Y363806D01*
X284043Y365107D02*
X295757Y365107D01*
X295757Y366408D02*
X284043Y366408D01*
X284043Y367709D02*
X295757Y367709D01*
X295757Y369010D02*
X284043Y369010D01*
X284043Y370311D02*
X295757Y370311D01*
X295757Y371612D02*
X284043Y371612D01*
D16*
X249157Y39197D02*
X226643Y39197D01*
X249157Y39197D02*
X249157Y16683D01*
X226643Y16683D01*
X226643Y39197D01*
X226643Y19184D02*
X249157Y19184D01*
X249157Y21685D02*
X226643Y21685D01*
X226643Y24186D02*
X249157Y24186D01*
X249157Y26687D02*
X226643Y26687D01*
X226643Y29188D02*
X249157Y29188D01*
X249157Y31689D02*
X226643Y31689D01*
X226643Y34190D02*
X249157Y34190D01*
X249157Y36691D02*
X226643Y36691D01*
X226643Y39192D02*
X249157Y39192D01*
X205157Y39197D02*
X182643Y39197D01*
X205157Y39197D02*
X205157Y16683D01*
X182643Y16683D01*
X182643Y39197D01*
X182643Y19184D02*
X205157Y19184D01*
X205157Y21685D02*
X182643Y21685D01*
X182643Y24186D02*
X205157Y24186D01*
X205157Y26687D02*
X182643Y26687D01*
X182643Y29188D02*
X205157Y29188D01*
X205157Y31689D02*
X182643Y31689D01*
X182643Y34190D02*
X205157Y34190D01*
X205157Y36691D02*
X182643Y36691D01*
X182643Y39192D02*
X205157Y39192D01*
D17*
X86868Y33020D03*
D18*
X116840Y83058D03*
X56896Y83058D03*
D19*
X94488Y33020D03*
X79248Y33020D03*
X56896Y75438D03*
X56896Y90678D03*
X116840Y75438D03*
X116840Y90678D03*
D20*
X58500Y499110D02*
X58502Y499251D01*
X58508Y499392D01*
X58518Y499532D01*
X58532Y499672D01*
X58550Y499812D01*
X58571Y499951D01*
X58597Y500090D01*
X58626Y500228D01*
X58660Y500364D01*
X58697Y500500D01*
X58738Y500635D01*
X58783Y500769D01*
X58832Y500901D01*
X58884Y501032D01*
X58940Y501161D01*
X59000Y501288D01*
X59063Y501414D01*
X59129Y501538D01*
X59200Y501661D01*
X59273Y501781D01*
X59350Y501899D01*
X59430Y502015D01*
X59514Y502128D01*
X59600Y502239D01*
X59690Y502348D01*
X59783Y502454D01*
X59878Y502557D01*
X59977Y502658D01*
X60078Y502756D01*
X60182Y502851D01*
X60289Y502943D01*
X60398Y503032D01*
X60510Y503117D01*
X60624Y503200D01*
X60740Y503280D01*
X60859Y503356D01*
X60980Y503428D01*
X61102Y503498D01*
X61227Y503563D01*
X61353Y503626D01*
X61481Y503684D01*
X61611Y503739D01*
X61742Y503791D01*
X61875Y503838D01*
X62009Y503882D01*
X62144Y503923D01*
X62280Y503959D01*
X62417Y503991D01*
X62555Y504020D01*
X62693Y504045D01*
X62833Y504065D01*
X62973Y504082D01*
X63113Y504095D01*
X63254Y504104D01*
X63394Y504109D01*
X63535Y504110D01*
X63676Y504107D01*
X63817Y504100D01*
X63957Y504089D01*
X64097Y504074D01*
X64237Y504055D01*
X64376Y504033D01*
X64514Y504006D01*
X64652Y503976D01*
X64788Y503941D01*
X64924Y503903D01*
X65058Y503861D01*
X65192Y503815D01*
X65324Y503766D01*
X65454Y503712D01*
X65583Y503655D01*
X65710Y503595D01*
X65836Y503531D01*
X65959Y503463D01*
X66081Y503392D01*
X66201Y503318D01*
X66318Y503240D01*
X66433Y503159D01*
X66546Y503075D01*
X66657Y502988D01*
X66765Y502897D01*
X66870Y502804D01*
X66973Y502707D01*
X67073Y502608D01*
X67170Y502506D01*
X67264Y502401D01*
X67355Y502294D01*
X67443Y502184D01*
X67528Y502072D01*
X67610Y501957D01*
X67689Y501840D01*
X67764Y501721D01*
X67836Y501600D01*
X67904Y501477D01*
X67969Y501352D01*
X68031Y501225D01*
X68088Y501096D01*
X68143Y500966D01*
X68193Y500835D01*
X68240Y500702D01*
X68283Y500568D01*
X68322Y500432D01*
X68357Y500296D01*
X68389Y500159D01*
X68416Y500021D01*
X68440Y499882D01*
X68460Y499742D01*
X68476Y499602D01*
X68488Y499462D01*
X68496Y499321D01*
X68500Y499180D01*
X68500Y499040D01*
X68496Y498899D01*
X68488Y498758D01*
X68476Y498618D01*
X68460Y498478D01*
X68440Y498338D01*
X68416Y498199D01*
X68389Y498061D01*
X68357Y497924D01*
X68322Y497788D01*
X68283Y497652D01*
X68240Y497518D01*
X68193Y497385D01*
X68143Y497254D01*
X68088Y497124D01*
X68031Y496995D01*
X67969Y496868D01*
X67904Y496743D01*
X67836Y496620D01*
X67764Y496499D01*
X67689Y496380D01*
X67610Y496263D01*
X67528Y496148D01*
X67443Y496036D01*
X67355Y495926D01*
X67264Y495819D01*
X67170Y495714D01*
X67073Y495612D01*
X66973Y495513D01*
X66870Y495416D01*
X66765Y495323D01*
X66657Y495232D01*
X66546Y495145D01*
X66433Y495061D01*
X66318Y494980D01*
X66201Y494902D01*
X66081Y494828D01*
X65959Y494757D01*
X65836Y494689D01*
X65710Y494625D01*
X65583Y494565D01*
X65454Y494508D01*
X65324Y494454D01*
X65192Y494405D01*
X65058Y494359D01*
X64924Y494317D01*
X64788Y494279D01*
X64652Y494244D01*
X64514Y494214D01*
X64376Y494187D01*
X64237Y494165D01*
X64097Y494146D01*
X63957Y494131D01*
X63817Y494120D01*
X63676Y494113D01*
X63535Y494110D01*
X63394Y494111D01*
X63254Y494116D01*
X63113Y494125D01*
X62973Y494138D01*
X62833Y494155D01*
X62693Y494175D01*
X62555Y494200D01*
X62417Y494229D01*
X62280Y494261D01*
X62144Y494297D01*
X62009Y494338D01*
X61875Y494382D01*
X61742Y494429D01*
X61611Y494481D01*
X61481Y494536D01*
X61353Y494594D01*
X61227Y494657D01*
X61102Y494722D01*
X60980Y494792D01*
X60859Y494864D01*
X60740Y494940D01*
X60624Y495020D01*
X60510Y495103D01*
X60398Y495188D01*
X60289Y495277D01*
X60182Y495369D01*
X60078Y495464D01*
X59977Y495562D01*
X59878Y495663D01*
X59783Y495766D01*
X59690Y495872D01*
X59600Y495981D01*
X59514Y496092D01*
X59430Y496205D01*
X59350Y496321D01*
X59273Y496439D01*
X59200Y496559D01*
X59129Y496682D01*
X59063Y496806D01*
X59000Y496932D01*
X58940Y497059D01*
X58884Y497188D01*
X58832Y497319D01*
X58783Y497451D01*
X58738Y497585D01*
X58697Y497720D01*
X58660Y497856D01*
X58626Y497992D01*
X58597Y498130D01*
X58571Y498269D01*
X58550Y498408D01*
X58532Y498548D01*
X58518Y498688D01*
X58508Y498828D01*
X58502Y498969D01*
X58500Y499110D01*
D21*
X63500Y499110D03*
D20*
X533400Y167410D02*
X533402Y167551D01*
X533408Y167692D01*
X533418Y167832D01*
X533432Y167972D01*
X533450Y168112D01*
X533471Y168251D01*
X533497Y168390D01*
X533526Y168528D01*
X533560Y168664D01*
X533597Y168800D01*
X533638Y168935D01*
X533683Y169069D01*
X533732Y169201D01*
X533784Y169332D01*
X533840Y169461D01*
X533900Y169588D01*
X533963Y169714D01*
X534029Y169838D01*
X534100Y169961D01*
X534173Y170081D01*
X534250Y170199D01*
X534330Y170315D01*
X534414Y170428D01*
X534500Y170539D01*
X534590Y170648D01*
X534683Y170754D01*
X534778Y170857D01*
X534877Y170958D01*
X534978Y171056D01*
X535082Y171151D01*
X535189Y171243D01*
X535298Y171332D01*
X535410Y171417D01*
X535524Y171500D01*
X535640Y171580D01*
X535759Y171656D01*
X535880Y171728D01*
X536002Y171798D01*
X536127Y171863D01*
X536253Y171926D01*
X536381Y171984D01*
X536511Y172039D01*
X536642Y172091D01*
X536775Y172138D01*
X536909Y172182D01*
X537044Y172223D01*
X537180Y172259D01*
X537317Y172291D01*
X537455Y172320D01*
X537593Y172345D01*
X537733Y172365D01*
X537873Y172382D01*
X538013Y172395D01*
X538154Y172404D01*
X538294Y172409D01*
X538435Y172410D01*
X538576Y172407D01*
X538717Y172400D01*
X538857Y172389D01*
X538997Y172374D01*
X539137Y172355D01*
X539276Y172333D01*
X539414Y172306D01*
X539552Y172276D01*
X539688Y172241D01*
X539824Y172203D01*
X539958Y172161D01*
X540092Y172115D01*
X540224Y172066D01*
X540354Y172012D01*
X540483Y171955D01*
X540610Y171895D01*
X540736Y171831D01*
X540859Y171763D01*
X540981Y171692D01*
X541101Y171618D01*
X541218Y171540D01*
X541333Y171459D01*
X541446Y171375D01*
X541557Y171288D01*
X541665Y171197D01*
X541770Y171104D01*
X541873Y171007D01*
X541973Y170908D01*
X542070Y170806D01*
X542164Y170701D01*
X542255Y170594D01*
X542343Y170484D01*
X542428Y170372D01*
X542510Y170257D01*
X542589Y170140D01*
X542664Y170021D01*
X542736Y169900D01*
X542804Y169777D01*
X542869Y169652D01*
X542931Y169525D01*
X542988Y169396D01*
X543043Y169266D01*
X543093Y169135D01*
X543140Y169002D01*
X543183Y168868D01*
X543222Y168732D01*
X543257Y168596D01*
X543289Y168459D01*
X543316Y168321D01*
X543340Y168182D01*
X543360Y168042D01*
X543376Y167902D01*
X543388Y167762D01*
X543396Y167621D01*
X543400Y167480D01*
X543400Y167340D01*
X543396Y167199D01*
X543388Y167058D01*
X543376Y166918D01*
X543360Y166778D01*
X543340Y166638D01*
X543316Y166499D01*
X543289Y166361D01*
X543257Y166224D01*
X543222Y166088D01*
X543183Y165952D01*
X543140Y165818D01*
X543093Y165685D01*
X543043Y165554D01*
X542988Y165424D01*
X542931Y165295D01*
X542869Y165168D01*
X542804Y165043D01*
X542736Y164920D01*
X542664Y164799D01*
X542589Y164680D01*
X542510Y164563D01*
X542428Y164448D01*
X542343Y164336D01*
X542255Y164226D01*
X542164Y164119D01*
X542070Y164014D01*
X541973Y163912D01*
X541873Y163813D01*
X541770Y163716D01*
X541665Y163623D01*
X541557Y163532D01*
X541446Y163445D01*
X541333Y163361D01*
X541218Y163280D01*
X541101Y163202D01*
X540981Y163128D01*
X540859Y163057D01*
X540736Y162989D01*
X540610Y162925D01*
X540483Y162865D01*
X540354Y162808D01*
X540224Y162754D01*
X540092Y162705D01*
X539958Y162659D01*
X539824Y162617D01*
X539688Y162579D01*
X539552Y162544D01*
X539414Y162514D01*
X539276Y162487D01*
X539137Y162465D01*
X538997Y162446D01*
X538857Y162431D01*
X538717Y162420D01*
X538576Y162413D01*
X538435Y162410D01*
X538294Y162411D01*
X538154Y162416D01*
X538013Y162425D01*
X537873Y162438D01*
X537733Y162455D01*
X537593Y162475D01*
X537455Y162500D01*
X537317Y162529D01*
X537180Y162561D01*
X537044Y162597D01*
X536909Y162638D01*
X536775Y162682D01*
X536642Y162729D01*
X536511Y162781D01*
X536381Y162836D01*
X536253Y162894D01*
X536127Y162957D01*
X536002Y163022D01*
X535880Y163092D01*
X535759Y163164D01*
X535640Y163240D01*
X535524Y163320D01*
X535410Y163403D01*
X535298Y163488D01*
X535189Y163577D01*
X535082Y163669D01*
X534978Y163764D01*
X534877Y163862D01*
X534778Y163963D01*
X534683Y164066D01*
X534590Y164172D01*
X534500Y164281D01*
X534414Y164392D01*
X534330Y164505D01*
X534250Y164621D01*
X534173Y164739D01*
X534100Y164859D01*
X534029Y164982D01*
X533963Y165106D01*
X533900Y165232D01*
X533840Y165359D01*
X533784Y165488D01*
X533732Y165619D01*
X533683Y165751D01*
X533638Y165885D01*
X533597Y166020D01*
X533560Y166156D01*
X533526Y166292D01*
X533497Y166430D01*
X533471Y166569D01*
X533450Y166708D01*
X533432Y166848D01*
X533418Y166988D01*
X533408Y167128D01*
X533402Y167269D01*
X533400Y167410D01*
D21*
X538400Y167410D03*
D20*
X32300Y34100D02*
X32302Y34241D01*
X32308Y34382D01*
X32318Y34522D01*
X32332Y34662D01*
X32350Y34802D01*
X32371Y34941D01*
X32397Y35080D01*
X32426Y35218D01*
X32460Y35354D01*
X32497Y35490D01*
X32538Y35625D01*
X32583Y35759D01*
X32632Y35891D01*
X32684Y36022D01*
X32740Y36151D01*
X32800Y36278D01*
X32863Y36404D01*
X32929Y36528D01*
X33000Y36651D01*
X33073Y36771D01*
X33150Y36889D01*
X33230Y37005D01*
X33314Y37118D01*
X33400Y37229D01*
X33490Y37338D01*
X33583Y37444D01*
X33678Y37547D01*
X33777Y37648D01*
X33878Y37746D01*
X33982Y37841D01*
X34089Y37933D01*
X34198Y38022D01*
X34310Y38107D01*
X34424Y38190D01*
X34540Y38270D01*
X34659Y38346D01*
X34780Y38418D01*
X34902Y38488D01*
X35027Y38553D01*
X35153Y38616D01*
X35281Y38674D01*
X35411Y38729D01*
X35542Y38781D01*
X35675Y38828D01*
X35809Y38872D01*
X35944Y38913D01*
X36080Y38949D01*
X36217Y38981D01*
X36355Y39010D01*
X36493Y39035D01*
X36633Y39055D01*
X36773Y39072D01*
X36913Y39085D01*
X37054Y39094D01*
X37194Y39099D01*
X37335Y39100D01*
X37476Y39097D01*
X37617Y39090D01*
X37757Y39079D01*
X37897Y39064D01*
X38037Y39045D01*
X38176Y39023D01*
X38314Y38996D01*
X38452Y38966D01*
X38588Y38931D01*
X38724Y38893D01*
X38858Y38851D01*
X38992Y38805D01*
X39124Y38756D01*
X39254Y38702D01*
X39383Y38645D01*
X39510Y38585D01*
X39636Y38521D01*
X39759Y38453D01*
X39881Y38382D01*
X40001Y38308D01*
X40118Y38230D01*
X40233Y38149D01*
X40346Y38065D01*
X40457Y37978D01*
X40565Y37887D01*
X40670Y37794D01*
X40773Y37697D01*
X40873Y37598D01*
X40970Y37496D01*
X41064Y37391D01*
X41155Y37284D01*
X41243Y37174D01*
X41328Y37062D01*
X41410Y36947D01*
X41489Y36830D01*
X41564Y36711D01*
X41636Y36590D01*
X41704Y36467D01*
X41769Y36342D01*
X41831Y36215D01*
X41888Y36086D01*
X41943Y35956D01*
X41993Y35825D01*
X42040Y35692D01*
X42083Y35558D01*
X42122Y35422D01*
X42157Y35286D01*
X42189Y35149D01*
X42216Y35011D01*
X42240Y34872D01*
X42260Y34732D01*
X42276Y34592D01*
X42288Y34452D01*
X42296Y34311D01*
X42300Y34170D01*
X42300Y34030D01*
X42296Y33889D01*
X42288Y33748D01*
X42276Y33608D01*
X42260Y33468D01*
X42240Y33328D01*
X42216Y33189D01*
X42189Y33051D01*
X42157Y32914D01*
X42122Y32778D01*
X42083Y32642D01*
X42040Y32508D01*
X41993Y32375D01*
X41943Y32244D01*
X41888Y32114D01*
X41831Y31985D01*
X41769Y31858D01*
X41704Y31733D01*
X41636Y31610D01*
X41564Y31489D01*
X41489Y31370D01*
X41410Y31253D01*
X41328Y31138D01*
X41243Y31026D01*
X41155Y30916D01*
X41064Y30809D01*
X40970Y30704D01*
X40873Y30602D01*
X40773Y30503D01*
X40670Y30406D01*
X40565Y30313D01*
X40457Y30222D01*
X40346Y30135D01*
X40233Y30051D01*
X40118Y29970D01*
X40001Y29892D01*
X39881Y29818D01*
X39759Y29747D01*
X39636Y29679D01*
X39510Y29615D01*
X39383Y29555D01*
X39254Y29498D01*
X39124Y29444D01*
X38992Y29395D01*
X38858Y29349D01*
X38724Y29307D01*
X38588Y29269D01*
X38452Y29234D01*
X38314Y29204D01*
X38176Y29177D01*
X38037Y29155D01*
X37897Y29136D01*
X37757Y29121D01*
X37617Y29110D01*
X37476Y29103D01*
X37335Y29100D01*
X37194Y29101D01*
X37054Y29106D01*
X36913Y29115D01*
X36773Y29128D01*
X36633Y29145D01*
X36493Y29165D01*
X36355Y29190D01*
X36217Y29219D01*
X36080Y29251D01*
X35944Y29287D01*
X35809Y29328D01*
X35675Y29372D01*
X35542Y29419D01*
X35411Y29471D01*
X35281Y29526D01*
X35153Y29584D01*
X35027Y29647D01*
X34902Y29712D01*
X34780Y29782D01*
X34659Y29854D01*
X34540Y29930D01*
X34424Y30010D01*
X34310Y30093D01*
X34198Y30178D01*
X34089Y30267D01*
X33982Y30359D01*
X33878Y30454D01*
X33777Y30552D01*
X33678Y30653D01*
X33583Y30756D01*
X33490Y30862D01*
X33400Y30971D01*
X33314Y31082D01*
X33230Y31195D01*
X33150Y31311D01*
X33073Y31429D01*
X33000Y31549D01*
X32929Y31672D01*
X32863Y31796D01*
X32800Y31922D01*
X32740Y32049D01*
X32684Y32178D01*
X32632Y32309D01*
X32583Y32441D01*
X32538Y32575D01*
X32497Y32710D01*
X32460Y32846D01*
X32426Y32982D01*
X32397Y33120D01*
X32371Y33259D01*
X32350Y33398D01*
X32332Y33538D01*
X32318Y33678D01*
X32308Y33818D01*
X32302Y33959D01*
X32300Y34100D01*
D21*
X37300Y34100D03*
D22*
X85200Y368500D03*
X85200Y393500D03*
X65200Y393500D03*
X65200Y368500D03*
D23*
X38100Y441000D03*
X38100Y321000D03*
D24*
X119482Y156820D02*
X119482Y144932D01*
X97434Y144932D01*
X97434Y156820D01*
X119482Y156820D01*
X119482Y146252D02*
X97434Y146252D01*
X97434Y147572D02*
X119482Y147572D01*
X119482Y148892D02*
X97434Y148892D01*
X97434Y150212D02*
X119482Y150212D01*
X119482Y151532D02*
X97434Y151532D01*
X97434Y152852D02*
X119482Y152852D01*
X119482Y154172D02*
X97434Y154172D01*
X97434Y155492D02*
X119482Y155492D01*
X119482Y156812D02*
X97434Y156812D01*
X119482Y168046D02*
X119482Y179934D01*
X119482Y168046D02*
X97434Y168046D01*
X97434Y179934D01*
X119482Y179934D01*
X119482Y169366D02*
X97434Y169366D01*
X97434Y170686D02*
X119482Y170686D01*
X119482Y172006D02*
X97434Y172006D01*
X97434Y173326D02*
X119482Y173326D01*
X119482Y174646D02*
X97434Y174646D01*
X97434Y175966D02*
X119482Y175966D01*
X119482Y177286D02*
X97434Y177286D01*
X97434Y178606D02*
X119482Y178606D01*
X119482Y179926D02*
X97434Y179926D01*
X119482Y191160D02*
X119482Y203048D01*
X119482Y191160D02*
X97434Y191160D01*
X97434Y203048D01*
X119482Y203048D01*
X119482Y192480D02*
X97434Y192480D01*
X97434Y193800D02*
X119482Y193800D01*
X119482Y195120D02*
X97434Y195120D01*
X97434Y196440D02*
X119482Y196440D01*
X119482Y197760D02*
X97434Y197760D01*
X97434Y199080D02*
X119482Y199080D01*
X119482Y200400D02*
X97434Y200400D01*
X97434Y201720D02*
X119482Y201720D01*
X119482Y203040D02*
X97434Y203040D01*
D25*
X56837Y191347D02*
X56837Y156633D01*
X36123Y156633D01*
X36123Y191347D01*
X56837Y191347D01*
X56837Y158934D02*
X36123Y158934D01*
X36123Y161235D02*
X56837Y161235D01*
X56837Y163536D02*
X36123Y163536D01*
X36123Y165837D02*
X56837Y165837D01*
X56837Y168138D02*
X36123Y168138D01*
X36123Y170439D02*
X56837Y170439D01*
X56837Y172740D02*
X36123Y172740D01*
X36123Y175041D02*
X56837Y175041D01*
X56837Y177342D02*
X36123Y177342D01*
X36123Y179643D02*
X56837Y179643D01*
X56837Y181944D02*
X36123Y181944D01*
X36123Y184245D02*
X56837Y184245D01*
X56837Y186546D02*
X36123Y186546D01*
X36123Y188847D02*
X56837Y188847D01*
X56837Y191148D02*
X36123Y191148D01*
D13*
X287302Y442504D02*
X287302Y446496D01*
X289278Y446496D01*
X289278Y442504D01*
X287302Y442504D01*
X269522Y442504D02*
X269522Y446496D01*
X271498Y446496D01*
X271498Y442504D01*
X269522Y442504D01*
D26*
X57147Y254937D02*
X57147Y236923D01*
X24133Y236923D01*
X24133Y254937D01*
X57147Y254937D01*
X57147Y238924D02*
X24133Y238924D01*
X24133Y240925D02*
X57147Y240925D01*
X57147Y242926D02*
X24133Y242926D01*
X24133Y244927D02*
X57147Y244927D01*
X57147Y246928D02*
X24133Y246928D01*
X24133Y248929D02*
X57147Y248929D01*
X57147Y250930D02*
X24133Y250930D01*
X24133Y252931D02*
X57147Y252931D01*
X57147Y254932D02*
X24133Y254932D01*
X57147Y275923D02*
X57147Y293937D01*
X57147Y275923D02*
X24133Y275923D01*
X24133Y293937D01*
X57147Y293937D01*
X57147Y277924D02*
X24133Y277924D01*
X24133Y279925D02*
X57147Y279925D01*
X57147Y281926D02*
X24133Y281926D01*
X24133Y283927D02*
X57147Y283927D01*
X57147Y285928D02*
X24133Y285928D01*
X24133Y287929D02*
X57147Y287929D01*
X57147Y289930D02*
X24133Y289930D01*
X24133Y291931D02*
X57147Y291931D01*
X57147Y293932D02*
X24133Y293932D01*
D13*
X271498Y312964D02*
X271498Y316956D01*
X271498Y312964D02*
X269522Y312964D01*
X269522Y316956D01*
X271498Y316956D01*
X289278Y316956D02*
X289278Y312964D01*
X287302Y312964D01*
X287302Y316956D01*
X289278Y316956D01*
D15*
X284043Y415783D02*
X284043Y427497D01*
X295757Y427497D01*
X295757Y415783D01*
X284043Y415783D01*
X284043Y417084D02*
X295757Y417084D01*
X295757Y418385D02*
X284043Y418385D01*
X284043Y419686D02*
X295757Y419686D01*
X295757Y420987D02*
X284043Y420987D01*
X284043Y422288D02*
X295757Y422288D01*
X295757Y423589D02*
X284043Y423589D01*
X284043Y424890D02*
X295757Y424890D01*
X295757Y426191D02*
X284043Y426191D01*
X284043Y427492D02*
X295757Y427492D01*
X263043Y427497D02*
X263043Y415783D01*
X263043Y427497D02*
X274757Y427497D01*
X274757Y415783D01*
X263043Y415783D01*
X263043Y417084D02*
X274757Y417084D01*
X274757Y418385D02*
X263043Y418385D01*
X263043Y419686D02*
X274757Y419686D01*
X274757Y420987D02*
X263043Y420987D01*
X263043Y422288D02*
X274757Y422288D01*
X274757Y423589D02*
X263043Y423589D01*
X263043Y424890D02*
X274757Y424890D01*
X274757Y426191D02*
X263043Y426191D01*
X263043Y427492D02*
X274757Y427492D01*
D27*
X87165Y259291D02*
X87165Y251757D01*
X87165Y259291D02*
X95715Y259291D01*
X95715Y251757D01*
X87165Y251757D01*
X87165Y252882D02*
X95715Y252882D01*
X95715Y254007D02*
X87165Y254007D01*
X87165Y255132D02*
X95715Y255132D01*
X95715Y256257D02*
X87165Y256257D01*
X87165Y257382D02*
X95715Y257382D01*
X95715Y258507D02*
X87165Y258507D01*
X87165Y271061D02*
X87165Y278595D01*
X95715Y278595D01*
X95715Y271061D01*
X87165Y271061D01*
X87165Y272186D02*
X95715Y272186D01*
X95715Y273311D02*
X87165Y273311D01*
X87165Y274436D02*
X95715Y274436D01*
X95715Y275561D02*
X87165Y275561D01*
X87165Y276686D02*
X95715Y276686D01*
X95715Y277811D02*
X87165Y277811D01*
X66845Y268943D02*
X66845Y261409D01*
X66845Y268943D02*
X75395Y268943D01*
X75395Y261409D01*
X66845Y261409D01*
X66845Y262534D02*
X75395Y262534D01*
X75395Y263659D02*
X66845Y263659D01*
X66845Y264784D02*
X75395Y264784D01*
X75395Y265909D02*
X66845Y265909D01*
X66845Y267034D02*
X75395Y267034D01*
X75395Y268159D02*
X66845Y268159D01*
D13*
X182154Y161572D02*
X186146Y161572D01*
X182154Y161572D02*
X182154Y163548D01*
X186146Y163548D01*
X186146Y161572D01*
X186146Y143792D02*
X182154Y143792D01*
X182154Y145768D01*
X186146Y145768D01*
X186146Y143792D01*
D28*
X182221Y324641D02*
X181559Y324641D01*
X182221Y324641D02*
X182221Y319779D01*
X181559Y319779D01*
X181559Y324641D01*
X181559Y322424D02*
X182221Y322424D01*
X186559Y324641D02*
X187221Y324641D01*
X187221Y319779D01*
X186559Y319779D01*
X186559Y324641D01*
X186559Y322424D02*
X187221Y322424D01*
X191559Y324641D02*
X192221Y324641D01*
X192221Y319779D01*
X191559Y319779D01*
X191559Y324641D01*
X191559Y322424D02*
X192221Y322424D01*
X196559Y324641D02*
X197221Y324641D01*
X197221Y319779D01*
X196559Y319779D01*
X196559Y324641D01*
X196559Y322424D02*
X197221Y322424D01*
X201559Y324641D02*
X202221Y324641D01*
X202221Y319779D01*
X201559Y319779D01*
X201559Y324641D01*
X201559Y322424D02*
X202221Y322424D01*
X206559Y324641D02*
X207221Y324641D01*
X207221Y319779D01*
X206559Y319779D01*
X206559Y324641D01*
X206559Y322424D02*
X207221Y322424D01*
X211559Y324641D02*
X212221Y324641D01*
X212221Y319779D01*
X211559Y319779D01*
X211559Y324641D01*
X211559Y322424D02*
X212221Y322424D01*
X216559Y324641D02*
X217221Y324641D01*
X217221Y319779D01*
X216559Y319779D01*
X216559Y324641D01*
X216559Y322424D02*
X217221Y322424D01*
X221459Y328879D02*
X221459Y329541D01*
X226321Y329541D01*
X226321Y328879D01*
X221459Y328879D01*
X221459Y333879D02*
X221459Y334541D01*
X226321Y334541D01*
X226321Y333879D01*
X221459Y333879D01*
X221459Y338879D02*
X221459Y339541D01*
X226321Y339541D01*
X226321Y338879D01*
X221459Y338879D01*
X221459Y343879D02*
X221459Y344541D01*
X226321Y344541D01*
X226321Y343879D01*
X221459Y343879D01*
X221459Y348879D02*
X221459Y349541D01*
X226321Y349541D01*
X226321Y348879D01*
X221459Y348879D01*
X221459Y353879D02*
X221459Y354541D01*
X226321Y354541D01*
X226321Y353879D01*
X221459Y353879D01*
X221459Y358879D02*
X221459Y359541D01*
X226321Y359541D01*
X226321Y358879D01*
X221459Y358879D01*
X221459Y363879D02*
X221459Y364541D01*
X226321Y364541D01*
X226321Y363879D01*
X221459Y363879D01*
X217221Y373641D02*
X216559Y373641D01*
X217221Y373641D02*
X217221Y368779D01*
X216559Y368779D01*
X216559Y373641D01*
X216559Y371424D02*
X217221Y371424D01*
X212221Y373641D02*
X211559Y373641D01*
X212221Y373641D02*
X212221Y368779D01*
X211559Y368779D01*
X211559Y373641D01*
X211559Y371424D02*
X212221Y371424D01*
X207221Y373641D02*
X206559Y373641D01*
X207221Y373641D02*
X207221Y368779D01*
X206559Y368779D01*
X206559Y373641D01*
X206559Y371424D02*
X207221Y371424D01*
X202221Y373641D02*
X201559Y373641D01*
X202221Y373641D02*
X202221Y368779D01*
X201559Y368779D01*
X201559Y373641D01*
X201559Y371424D02*
X202221Y371424D01*
X197221Y373641D02*
X196559Y373641D01*
X197221Y373641D02*
X197221Y368779D01*
X196559Y368779D01*
X196559Y373641D01*
X196559Y371424D02*
X197221Y371424D01*
X192221Y373641D02*
X191559Y373641D01*
X192221Y373641D02*
X192221Y368779D01*
X191559Y368779D01*
X191559Y373641D01*
X191559Y371424D02*
X192221Y371424D01*
X187221Y373641D02*
X186559Y373641D01*
X187221Y373641D02*
X187221Y368779D01*
X186559Y368779D01*
X186559Y373641D01*
X186559Y371424D02*
X187221Y371424D01*
X182221Y373641D02*
X181559Y373641D01*
X182221Y373641D02*
X182221Y368779D01*
X181559Y368779D01*
X181559Y373641D01*
X181559Y371424D02*
X182221Y371424D01*
X172459Y364541D02*
X172459Y363879D01*
X172459Y364541D02*
X177321Y364541D01*
X177321Y363879D01*
X172459Y363879D01*
X172459Y359541D02*
X172459Y358879D01*
X172459Y359541D02*
X177321Y359541D01*
X177321Y358879D01*
X172459Y358879D01*
X172459Y354541D02*
X172459Y353879D01*
X172459Y354541D02*
X177321Y354541D01*
X177321Y353879D01*
X172459Y353879D01*
X172459Y349541D02*
X172459Y348879D01*
X172459Y349541D02*
X177321Y349541D01*
X177321Y348879D01*
X172459Y348879D01*
X172459Y344541D02*
X172459Y343879D01*
X172459Y344541D02*
X177321Y344541D01*
X177321Y343879D01*
X172459Y343879D01*
X172459Y339541D02*
X172459Y338879D01*
X172459Y339541D02*
X177321Y339541D01*
X177321Y338879D01*
X172459Y338879D01*
X172459Y334541D02*
X172459Y333879D01*
X172459Y334541D02*
X177321Y334541D01*
X177321Y333879D01*
X172459Y333879D01*
X172459Y329541D02*
X172459Y328879D01*
X172459Y329541D02*
X177321Y329541D01*
X177321Y328879D01*
X172459Y328879D01*
D13*
X271498Y300446D02*
X271498Y296454D01*
X269522Y296454D01*
X269522Y300446D01*
X271498Y300446D01*
X289278Y300446D02*
X289278Y296454D01*
X287302Y296454D01*
X287302Y300446D01*
X289278Y300446D01*
D29*
X208280Y474980D03*
X208280Y449580D03*
X182880Y474980D03*
X182880Y449580D03*
X157480Y474980D03*
X157480Y449580D03*
D30*
X141950Y398650D02*
X132050Y398650D01*
X141950Y398650D02*
X141950Y388750D01*
X132050Y388750D01*
X132050Y398650D01*
X132050Y389849D02*
X141950Y389849D01*
X141950Y390948D02*
X132050Y390948D01*
X132050Y392047D02*
X141950Y392047D01*
X141950Y393146D02*
X132050Y393146D01*
X132050Y394245D02*
X141950Y394245D01*
X141950Y395344D02*
X132050Y395344D01*
X132050Y396443D02*
X141950Y396443D01*
X141950Y397542D02*
X132050Y397542D01*
X132050Y398641D02*
X141950Y398641D01*
X121950Y398650D02*
X112050Y398650D01*
X121950Y398650D02*
X121950Y388750D01*
X112050Y388750D01*
X112050Y398650D01*
X112050Y389849D02*
X121950Y389849D01*
X121950Y390948D02*
X112050Y390948D01*
X112050Y392047D02*
X121950Y392047D01*
X121950Y393146D02*
X112050Y393146D01*
X112050Y394245D02*
X121950Y394245D01*
X121950Y395344D02*
X112050Y395344D01*
X112050Y396443D02*
X121950Y396443D01*
X121950Y397542D02*
X112050Y397542D01*
X112050Y398641D02*
X121950Y398641D01*
X132050Y341500D02*
X141950Y341500D01*
X141950Y331600D01*
X132050Y331600D01*
X132050Y341500D01*
X132050Y332699D02*
X141950Y332699D01*
X141950Y333798D02*
X132050Y333798D01*
X132050Y334897D02*
X141950Y334897D01*
X141950Y335996D02*
X132050Y335996D01*
X132050Y337095D02*
X141950Y337095D01*
X141950Y338194D02*
X132050Y338194D01*
X132050Y339293D02*
X141950Y339293D01*
X141950Y340392D02*
X132050Y340392D01*
X132050Y341491D02*
X141950Y341491D01*
X121950Y341500D02*
X112050Y341500D01*
X121950Y341500D02*
X121950Y331600D01*
X112050Y331600D01*
X112050Y341500D01*
X112050Y332699D02*
X121950Y332699D01*
X121950Y333798D02*
X112050Y333798D01*
X112050Y334897D02*
X121950Y334897D01*
X121950Y335996D02*
X112050Y335996D01*
X112050Y337095D02*
X121950Y337095D01*
X121950Y338194D02*
X112050Y338194D01*
X112050Y339293D02*
X121950Y339293D01*
X121950Y340392D02*
X112050Y340392D01*
X112050Y341491D02*
X121950Y341491D01*
X93150Y455800D02*
X81250Y455800D01*
X93150Y455800D02*
X93150Y445900D01*
X81250Y445900D01*
X81250Y455800D01*
X81250Y446999D02*
X93150Y446999D01*
X93150Y448098D02*
X81250Y448098D01*
X81250Y449197D02*
X93150Y449197D01*
X93150Y450296D02*
X81250Y450296D01*
X81250Y451395D02*
X93150Y451395D01*
X93150Y452494D02*
X81250Y452494D01*
X81250Y453593D02*
X93150Y453593D01*
X93150Y454692D02*
X81250Y454692D01*
X81250Y455791D02*
X93150Y455791D01*
X71150Y455800D02*
X59250Y455800D01*
X71150Y455800D02*
X71150Y445900D01*
X59250Y445900D01*
X59250Y455800D01*
X59250Y446999D02*
X71150Y446999D01*
X71150Y448098D02*
X59250Y448098D01*
X59250Y449197D02*
X71150Y449197D01*
X71150Y450296D02*
X59250Y450296D01*
X59250Y451395D02*
X71150Y451395D01*
X71150Y452494D02*
X59250Y452494D01*
X59250Y453593D02*
X71150Y453593D01*
X71150Y454692D02*
X59250Y454692D01*
X59250Y455791D02*
X71150Y455791D01*
D31*
X266065Y265176D02*
X277495Y265176D01*
X266065Y265176D02*
X266065Y280924D01*
X277495Y280924D01*
X277495Y265176D01*
X277495Y266445D02*
X266065Y266445D01*
X266065Y267714D02*
X277495Y267714D01*
X277495Y268983D02*
X266065Y268983D01*
X266065Y270252D02*
X277495Y270252D01*
X277495Y271521D02*
X266065Y271521D01*
X266065Y272790D02*
X277495Y272790D01*
X277495Y274059D02*
X266065Y274059D01*
X266065Y275328D02*
X277495Y275328D01*
X277495Y276597D02*
X266065Y276597D01*
X266065Y277866D02*
X277495Y277866D01*
X277495Y279135D02*
X266065Y279135D01*
X266065Y280404D02*
X277495Y280404D01*
X281305Y265176D02*
X292735Y265176D01*
X281305Y265176D02*
X281305Y280924D01*
X292735Y280924D01*
X292735Y265176D01*
X292735Y266445D02*
X281305Y266445D01*
X281305Y267714D02*
X292735Y267714D01*
X292735Y268983D02*
X281305Y268983D01*
X281305Y270252D02*
X292735Y270252D01*
X292735Y271521D02*
X281305Y271521D01*
X281305Y272790D02*
X292735Y272790D01*
X292735Y274059D02*
X281305Y274059D01*
X281305Y275328D02*
X292735Y275328D01*
X292735Y276597D02*
X281305Y276597D01*
X281305Y277866D02*
X292735Y277866D01*
X292735Y279135D02*
X281305Y279135D01*
X281305Y280404D02*
X292735Y280404D01*
D32*
X279400Y273050D03*
D13*
X420652Y229326D02*
X422628Y229326D01*
X422628Y225334D01*
X420652Y225334D01*
X420652Y229326D01*
X404848Y229326D02*
X402872Y229326D01*
X404848Y229326D02*
X404848Y225334D01*
X402872Y225334D01*
X402872Y229326D01*
D33*
X269697Y403497D02*
X269697Y407903D01*
X275603Y407903D01*
X275603Y403497D01*
X269697Y403497D01*
X269697Y404598D02*
X275603Y404598D01*
X275603Y405699D02*
X269697Y405699D01*
X269697Y406800D02*
X275603Y406800D01*
X275603Y407901D02*
X269697Y407901D01*
X269697Y399903D02*
X269697Y395497D01*
X269697Y399903D02*
X275603Y399903D01*
X275603Y395497D01*
X269697Y395497D01*
X269697Y396598D02*
X275603Y396598D01*
X275603Y397699D02*
X269697Y397699D01*
X269697Y398800D02*
X275603Y398800D01*
X275603Y399901D02*
X269697Y399901D01*
X269697Y391903D02*
X269697Y387497D01*
X269697Y391903D02*
X275603Y391903D01*
X275603Y387497D01*
X269697Y387497D01*
X269697Y388598D02*
X275603Y388598D01*
X275603Y389699D02*
X269697Y389699D01*
X269697Y390800D02*
X275603Y390800D01*
X275603Y391901D02*
X269697Y391901D01*
X269697Y383903D02*
X269697Y379497D01*
X269697Y383903D02*
X275603Y383903D01*
X275603Y379497D01*
X269697Y379497D01*
X269697Y380598D02*
X275603Y380598D01*
X275603Y381699D02*
X269697Y381699D01*
X269697Y382800D02*
X275603Y382800D01*
X275603Y383901D02*
X269697Y383901D01*
X283197Y383903D02*
X283197Y379497D01*
X283197Y383903D02*
X289103Y383903D01*
X289103Y379497D01*
X283197Y379497D01*
X283197Y380598D02*
X289103Y380598D01*
X289103Y381699D02*
X283197Y381699D01*
X283197Y382800D02*
X289103Y382800D01*
X289103Y383901D02*
X283197Y383901D01*
X283197Y387497D02*
X283197Y391903D01*
X289103Y391903D01*
X289103Y387497D01*
X283197Y387497D01*
X283197Y388598D02*
X289103Y388598D01*
X289103Y389699D02*
X283197Y389699D01*
X283197Y390800D02*
X289103Y390800D01*
X289103Y391901D02*
X283197Y391901D01*
X283197Y395497D02*
X283197Y399903D01*
X289103Y399903D01*
X289103Y395497D01*
X283197Y395497D01*
X283197Y396598D02*
X289103Y396598D01*
X289103Y397699D02*
X283197Y397699D01*
X283197Y398800D02*
X289103Y398800D01*
X289103Y399901D02*
X283197Y399901D01*
X283197Y403497D02*
X283197Y407903D01*
X289103Y407903D01*
X289103Y403497D01*
X283197Y403497D01*
X283197Y404598D02*
X289103Y404598D01*
X289103Y405699D02*
X283197Y405699D01*
X283197Y406800D02*
X289103Y406800D01*
X289103Y407901D02*
X283197Y407901D01*
X289103Y228963D02*
X289103Y224557D01*
X283197Y224557D01*
X283197Y228963D01*
X289103Y228963D01*
X289103Y225658D02*
X283197Y225658D01*
X283197Y226759D02*
X289103Y226759D01*
X289103Y227860D02*
X283197Y227860D01*
X283197Y228961D02*
X289103Y228961D01*
X289103Y232557D02*
X289103Y236963D01*
X289103Y232557D02*
X283197Y232557D01*
X283197Y236963D01*
X289103Y236963D01*
X289103Y233658D02*
X283197Y233658D01*
X283197Y234759D02*
X289103Y234759D01*
X289103Y235860D02*
X283197Y235860D01*
X283197Y236961D02*
X289103Y236961D01*
X289103Y240557D02*
X289103Y244963D01*
X289103Y240557D02*
X283197Y240557D01*
X283197Y244963D01*
X289103Y244963D01*
X289103Y241658D02*
X283197Y241658D01*
X283197Y242759D02*
X289103Y242759D01*
X289103Y243860D02*
X283197Y243860D01*
X283197Y244961D02*
X289103Y244961D01*
X289103Y248557D02*
X289103Y252963D01*
X289103Y248557D02*
X283197Y248557D01*
X283197Y252963D01*
X289103Y252963D01*
X289103Y249658D02*
X283197Y249658D01*
X283197Y250759D02*
X289103Y250759D01*
X289103Y251860D02*
X283197Y251860D01*
X283197Y252961D02*
X289103Y252961D01*
X275603Y252963D02*
X275603Y248557D01*
X269697Y248557D01*
X269697Y252963D01*
X275603Y252963D01*
X275603Y249658D02*
X269697Y249658D01*
X269697Y250759D02*
X275603Y250759D01*
X275603Y251860D02*
X269697Y251860D01*
X269697Y252961D02*
X275603Y252961D01*
X275603Y244963D02*
X275603Y240557D01*
X269697Y240557D01*
X269697Y244963D01*
X275603Y244963D01*
X275603Y241658D02*
X269697Y241658D01*
X269697Y242759D02*
X275603Y242759D01*
X275603Y243860D02*
X269697Y243860D01*
X269697Y244961D02*
X275603Y244961D01*
X275603Y236963D02*
X275603Y232557D01*
X269697Y232557D01*
X269697Y236963D01*
X275603Y236963D01*
X275603Y233658D02*
X269697Y233658D01*
X269697Y234759D02*
X275603Y234759D01*
X275603Y235860D02*
X269697Y235860D01*
X269697Y236961D02*
X275603Y236961D01*
X275603Y228963D02*
X275603Y224557D01*
X269697Y224557D01*
X269697Y228963D01*
X275603Y228963D01*
X275603Y225658D02*
X269697Y225658D01*
X269697Y226759D02*
X275603Y226759D01*
X275603Y227860D02*
X269697Y227860D01*
X269697Y228961D02*
X275603Y228961D01*
D13*
X449298Y230596D02*
X449298Y226604D01*
X447322Y226604D01*
X447322Y230596D01*
X449298Y230596D01*
X467078Y230596D02*
X467078Y226604D01*
X465102Y226604D01*
X465102Y230596D01*
X467078Y230596D01*
X134902Y417104D02*
X134902Y421096D01*
X136878Y421096D01*
X136878Y417104D01*
X134902Y417104D01*
X117122Y417104D02*
X117122Y421096D01*
X119098Y421096D01*
X119098Y417104D01*
X117122Y417104D01*
D33*
X593903Y328023D02*
X593903Y323617D01*
X587997Y323617D01*
X587997Y328023D01*
X593903Y328023D01*
X593903Y324718D02*
X587997Y324718D01*
X587997Y325819D02*
X593903Y325819D01*
X593903Y326920D02*
X587997Y326920D01*
X587997Y328021D02*
X593903Y328021D01*
X593903Y331617D02*
X593903Y336023D01*
X593903Y331617D02*
X587997Y331617D01*
X587997Y336023D01*
X593903Y336023D01*
X593903Y332718D02*
X587997Y332718D01*
X587997Y333819D02*
X593903Y333819D01*
X593903Y334920D02*
X587997Y334920D01*
X587997Y336021D02*
X593903Y336021D01*
X593903Y339617D02*
X593903Y344023D01*
X593903Y339617D02*
X587997Y339617D01*
X587997Y344023D01*
X593903Y344023D01*
X593903Y340718D02*
X587997Y340718D01*
X587997Y341819D02*
X593903Y341819D01*
X593903Y342920D02*
X587997Y342920D01*
X587997Y344021D02*
X593903Y344021D01*
X593903Y347617D02*
X593903Y352023D01*
X593903Y347617D02*
X587997Y347617D01*
X587997Y352023D01*
X593903Y352023D01*
X593903Y348718D02*
X587997Y348718D01*
X587997Y349819D02*
X593903Y349819D01*
X593903Y350920D02*
X587997Y350920D01*
X587997Y352021D02*
X593903Y352021D01*
X580403Y352023D02*
X580403Y347617D01*
X574497Y347617D01*
X574497Y352023D01*
X580403Y352023D01*
X580403Y348718D02*
X574497Y348718D01*
X574497Y349819D02*
X580403Y349819D01*
X580403Y350920D02*
X574497Y350920D01*
X574497Y352021D02*
X580403Y352021D01*
X580403Y344023D02*
X580403Y339617D01*
X574497Y339617D01*
X574497Y344023D01*
X580403Y344023D01*
X580403Y340718D02*
X574497Y340718D01*
X574497Y341819D02*
X580403Y341819D01*
X580403Y342920D02*
X574497Y342920D01*
X574497Y344021D02*
X580403Y344021D01*
X580403Y336023D02*
X580403Y331617D01*
X574497Y331617D01*
X574497Y336023D01*
X580403Y336023D01*
X580403Y332718D02*
X574497Y332718D01*
X574497Y333819D02*
X580403Y333819D01*
X580403Y334920D02*
X574497Y334920D01*
X574497Y336021D02*
X580403Y336021D01*
X580403Y328023D02*
X580403Y323617D01*
X574497Y323617D01*
X574497Y328023D01*
X580403Y328023D01*
X580403Y324718D02*
X574497Y324718D01*
X574497Y325819D02*
X580403Y325819D01*
X580403Y326920D02*
X574497Y326920D01*
X574497Y328021D02*
X580403Y328021D01*
X137973Y354097D02*
X137973Y358503D01*
X137973Y354097D02*
X132067Y354097D01*
X132067Y358503D01*
X137973Y358503D01*
X137973Y355198D02*
X132067Y355198D01*
X132067Y356299D02*
X137973Y356299D01*
X137973Y357400D02*
X132067Y357400D01*
X132067Y358501D02*
X137973Y358501D01*
X137973Y362097D02*
X137973Y366503D01*
X137973Y362097D02*
X132067Y362097D01*
X132067Y366503D01*
X137973Y366503D01*
X137973Y363198D02*
X132067Y363198D01*
X132067Y364299D02*
X137973Y364299D01*
X137973Y365400D02*
X132067Y365400D01*
X132067Y366501D02*
X137973Y366501D01*
X137973Y370097D02*
X137973Y374503D01*
X137973Y370097D02*
X132067Y370097D01*
X132067Y374503D01*
X137973Y374503D01*
X137973Y371198D02*
X132067Y371198D01*
X132067Y372299D02*
X137973Y372299D01*
X137973Y373400D02*
X132067Y373400D01*
X132067Y374501D02*
X137973Y374501D01*
X137973Y378097D02*
X137973Y382503D01*
X137973Y378097D02*
X132067Y378097D01*
X132067Y382503D01*
X137973Y382503D01*
X137973Y379198D02*
X132067Y379198D01*
X132067Y380299D02*
X137973Y380299D01*
X137973Y381400D02*
X132067Y381400D01*
X132067Y382501D02*
X137973Y382501D01*
X124473Y382503D02*
X124473Y378097D01*
X118567Y378097D01*
X118567Y382503D01*
X124473Y382503D01*
X124473Y379198D02*
X118567Y379198D01*
X118567Y380299D02*
X124473Y380299D01*
X124473Y381400D02*
X118567Y381400D01*
X118567Y382501D02*
X124473Y382501D01*
X124473Y374503D02*
X124473Y370097D01*
X118567Y370097D01*
X118567Y374503D01*
X124473Y374503D01*
X124473Y371198D02*
X118567Y371198D01*
X118567Y372299D02*
X124473Y372299D01*
X124473Y373400D02*
X118567Y373400D01*
X118567Y374501D02*
X124473Y374501D01*
X124473Y366503D02*
X124473Y362097D01*
X118567Y362097D01*
X118567Y366503D01*
X124473Y366503D01*
X124473Y363198D02*
X118567Y363198D01*
X118567Y364299D02*
X124473Y364299D01*
X124473Y365400D02*
X118567Y365400D01*
X118567Y366501D02*
X124473Y366501D01*
X124473Y358503D02*
X124473Y354097D01*
X118567Y354097D01*
X118567Y358503D01*
X124473Y358503D01*
X124473Y355198D02*
X118567Y355198D01*
X118567Y356299D02*
X124473Y356299D01*
X124473Y357400D02*
X118567Y357400D01*
X118567Y358501D02*
X124473Y358501D01*
D13*
X253274Y145768D02*
X257266Y145768D01*
X257266Y143792D01*
X253274Y143792D01*
X253274Y145768D01*
X253274Y163548D02*
X257266Y163548D01*
X257266Y161572D01*
X253274Y161572D01*
X253274Y163548D01*
X182598Y293914D02*
X180622Y293914D01*
X180622Y297906D01*
X182598Y297906D01*
X182598Y293914D01*
X198402Y293914D02*
X200378Y293914D01*
X198402Y293914D02*
X198402Y297906D01*
X200378Y297906D01*
X200378Y293914D01*
X167922Y293914D02*
X167922Y297906D01*
X169898Y297906D01*
X169898Y293914D01*
X167922Y293914D01*
X150142Y293914D02*
X150142Y297906D01*
X152118Y297906D01*
X152118Y293914D01*
X150142Y293914D01*
X214348Y293914D02*
X214348Y297906D01*
X214348Y293914D02*
X212372Y293914D01*
X212372Y297906D01*
X214348Y297906D01*
X232128Y297906D02*
X232128Y293914D01*
X230152Y293914D01*
X230152Y297906D01*
X232128Y297906D01*
D34*
X208280Y398780D03*
X182880Y398780D03*
X208280Y424180D03*
X182880Y424180D03*
D35*
X175038Y194598D02*
X175038Y192282D01*
X163722Y192282D01*
X163722Y194598D01*
X175038Y194598D01*
X175038Y193474D02*
X163722Y193474D01*
X175038Y198782D02*
X175038Y201098D01*
X175038Y198782D02*
X163722Y198782D01*
X163722Y201098D01*
X175038Y201098D01*
X175038Y199974D02*
X163722Y199974D01*
X175038Y205282D02*
X175038Y207598D01*
X175038Y205282D02*
X163722Y205282D01*
X163722Y207598D01*
X175038Y207598D01*
X175038Y206474D02*
X163722Y206474D01*
X175038Y211782D02*
X175038Y214098D01*
X175038Y211782D02*
X163722Y211782D01*
X163722Y214098D01*
X175038Y214098D01*
X175038Y212974D02*
X163722Y212974D01*
X217288Y214098D02*
X217288Y211782D01*
X205972Y211782D01*
X205972Y214098D01*
X217288Y214098D01*
X217288Y212974D02*
X205972Y212974D01*
X217288Y207598D02*
X217288Y205282D01*
X205972Y205282D01*
X205972Y207598D01*
X217288Y207598D01*
X217288Y206474D02*
X205972Y206474D01*
X217288Y201098D02*
X217288Y198782D01*
X205972Y198782D01*
X205972Y201098D01*
X217288Y201098D01*
X217288Y199974D02*
X205972Y199974D01*
X217288Y194598D02*
X217288Y192282D01*
X205972Y192282D01*
X205972Y194598D01*
X217288Y194598D01*
X217288Y193474D02*
X205972Y193474D01*
D36*
X28882Y510148D02*
X14118Y510148D01*
X14118Y522912D01*
X28882Y522912D01*
X28882Y510148D01*
X28882Y512399D02*
X14118Y512399D01*
X14118Y514650D02*
X28882Y514650D01*
X28882Y516901D02*
X14118Y516901D01*
X14118Y519152D02*
X28882Y519152D01*
X28882Y521403D02*
X14118Y521403D01*
X98118Y510148D02*
X112882Y510148D01*
X98118Y510148D02*
X98118Y522912D01*
X112882Y522912D01*
X112882Y510148D01*
X112882Y512399D02*
X98118Y512399D01*
X98118Y514650D02*
X112882Y514650D01*
X112882Y516901D02*
X98118Y516901D01*
X98118Y519152D02*
X112882Y519152D01*
X112882Y521403D02*
X98118Y521403D01*
X28882Y465148D02*
X14118Y465148D01*
X14118Y477912D01*
X28882Y477912D01*
X28882Y465148D01*
X28882Y467399D02*
X14118Y467399D01*
X14118Y469650D02*
X28882Y469650D01*
X28882Y471901D02*
X14118Y471901D01*
X14118Y474152D02*
X28882Y474152D01*
X28882Y476403D02*
X14118Y476403D01*
X98118Y465148D02*
X112882Y465148D01*
X98118Y465148D02*
X98118Y477912D01*
X112882Y477912D01*
X112882Y465148D01*
X112882Y467399D02*
X98118Y467399D01*
X98118Y469650D02*
X112882Y469650D01*
X112882Y471901D02*
X98118Y471901D01*
X98118Y474152D02*
X112882Y474152D01*
X112882Y476403D02*
X98118Y476403D01*
X28882Y487648D02*
X14118Y487648D01*
X14118Y500412D01*
X28882Y500412D01*
X28882Y487648D01*
X28882Y489899D02*
X14118Y489899D01*
X14118Y492150D02*
X28882Y492150D01*
X28882Y494401D02*
X14118Y494401D01*
X14118Y496652D02*
X28882Y496652D01*
X28882Y498903D02*
X14118Y498903D01*
D37*
X406023Y258693D02*
X406023Y239147D01*
X399477Y239147D01*
X399477Y258693D01*
X406023Y258693D01*
X406023Y240301D02*
X399477Y240301D01*
X399477Y241455D02*
X406023Y241455D01*
X406023Y242609D02*
X399477Y242609D01*
X399477Y243763D02*
X406023Y243763D01*
X406023Y244917D02*
X399477Y244917D01*
X399477Y246071D02*
X406023Y246071D01*
X406023Y247225D02*
X399477Y247225D01*
X399477Y248379D02*
X406023Y248379D01*
X406023Y249533D02*
X399477Y249533D01*
X399477Y250687D02*
X406023Y250687D01*
X406023Y251841D02*
X399477Y251841D01*
X399477Y252995D02*
X406023Y252995D01*
X406023Y254149D02*
X399477Y254149D01*
X399477Y255303D02*
X406023Y255303D01*
X406023Y256457D02*
X399477Y256457D01*
X399477Y257611D02*
X406023Y257611D01*
X416023Y258693D02*
X416023Y239147D01*
X409477Y239147D01*
X409477Y258693D01*
X416023Y258693D01*
X416023Y240301D02*
X409477Y240301D01*
X409477Y241455D02*
X416023Y241455D01*
X416023Y242609D02*
X409477Y242609D01*
X409477Y243763D02*
X416023Y243763D01*
X416023Y244917D02*
X409477Y244917D01*
X409477Y246071D02*
X416023Y246071D01*
X416023Y247225D02*
X409477Y247225D01*
X409477Y248379D02*
X416023Y248379D01*
X416023Y249533D02*
X409477Y249533D01*
X409477Y250687D02*
X416023Y250687D01*
X416023Y251841D02*
X409477Y251841D01*
X409477Y252995D02*
X416023Y252995D01*
X416023Y254149D02*
X409477Y254149D01*
X409477Y255303D02*
X416023Y255303D01*
X416023Y256457D02*
X409477Y256457D01*
X409477Y257611D02*
X416023Y257611D01*
X426023Y258693D02*
X426023Y239147D01*
X419477Y239147D01*
X419477Y258693D01*
X426023Y258693D01*
X426023Y240301D02*
X419477Y240301D01*
X419477Y241455D02*
X426023Y241455D01*
X426023Y242609D02*
X419477Y242609D01*
X419477Y243763D02*
X426023Y243763D01*
X426023Y244917D02*
X419477Y244917D01*
X419477Y246071D02*
X426023Y246071D01*
X426023Y247225D02*
X419477Y247225D01*
X419477Y248379D02*
X426023Y248379D01*
X426023Y249533D02*
X419477Y249533D01*
X419477Y250687D02*
X426023Y250687D01*
X426023Y251841D02*
X419477Y251841D01*
X419477Y252995D02*
X426023Y252995D01*
X426023Y254149D02*
X419477Y254149D01*
X419477Y255303D02*
X426023Y255303D01*
X426023Y256457D02*
X419477Y256457D01*
X419477Y257611D02*
X426023Y257611D01*
D38*
X200979Y164381D02*
X200979Y159419D01*
X200979Y164381D02*
X212441Y164381D01*
X212441Y159419D01*
X200979Y159419D01*
X200979Y160507D02*
X212441Y160507D01*
X212441Y161595D02*
X200979Y161595D01*
X200979Y162683D02*
X212441Y162683D01*
X212441Y163771D02*
X200979Y163771D01*
X200979Y154881D02*
X200979Y149919D01*
X200979Y154881D02*
X212441Y154881D01*
X212441Y149919D01*
X200979Y149919D01*
X200979Y151007D02*
X212441Y151007D01*
X212441Y152095D02*
X200979Y152095D01*
X200979Y153183D02*
X212441Y153183D01*
X212441Y154271D02*
X200979Y154271D01*
X200979Y145381D02*
X200979Y140419D01*
X200979Y145381D02*
X212441Y145381D01*
X212441Y140419D01*
X200979Y140419D01*
X200979Y141507D02*
X212441Y141507D01*
X212441Y142595D02*
X200979Y142595D01*
X200979Y143683D02*
X212441Y143683D01*
X212441Y144771D02*
X200979Y144771D01*
X226979Y145381D02*
X226979Y140419D01*
X226979Y145381D02*
X238441Y145381D01*
X238441Y140419D01*
X226979Y140419D01*
X226979Y141507D02*
X238441Y141507D01*
X238441Y142595D02*
X226979Y142595D01*
X226979Y143683D02*
X238441Y143683D01*
X238441Y144771D02*
X226979Y144771D01*
X226979Y159419D02*
X226979Y164381D01*
X238441Y164381D01*
X238441Y159419D01*
X226979Y159419D01*
X226979Y160507D02*
X238441Y160507D01*
X238441Y161595D02*
X226979Y161595D01*
X226979Y162683D02*
X238441Y162683D01*
X238441Y163771D02*
X226979Y163771D01*
D11*
X279400Y28956D02*
X279400Y21844D01*
X304800Y21844D02*
X304800Y28956D01*
X330200Y28956D02*
X330200Y21844D01*
X355600Y21844D02*
X355600Y28956D01*
X381000Y28956D02*
X381000Y21844D01*
X406400Y21844D02*
X406400Y28956D01*
X431800Y28956D02*
X431800Y21844D01*
X457200Y21844D02*
X457200Y28956D01*
D14*
X585603Y289643D02*
X585603Y303157D01*
X603117Y303157D01*
X603117Y289643D01*
X585603Y289643D01*
X585603Y291144D02*
X603117Y291144D01*
X603117Y292645D02*
X585603Y292645D01*
X585603Y294146D02*
X603117Y294146D01*
X603117Y295647D02*
X585603Y295647D01*
X585603Y297148D02*
X603117Y297148D01*
X603117Y298649D02*
X585603Y298649D01*
X585603Y300150D02*
X603117Y300150D01*
X603117Y301651D02*
X585603Y301651D01*
X585603Y303152D02*
X603117Y303152D01*
X585603Y269157D02*
X585603Y255643D01*
X585603Y269157D02*
X603117Y269157D01*
X603117Y255643D01*
X585603Y255643D01*
X585603Y257144D02*
X603117Y257144D01*
X603117Y258645D02*
X585603Y258645D01*
X585603Y260146D02*
X603117Y260146D01*
X603117Y261647D02*
X585603Y261647D01*
X585603Y263148D02*
X603117Y263148D01*
X603117Y264649D02*
X585603Y264649D01*
X585603Y266150D02*
X603117Y266150D01*
X603117Y267651D02*
X585603Y267651D01*
X585603Y269152D02*
X603117Y269152D01*
X139567Y438523D02*
X139567Y452037D01*
X139567Y438523D02*
X122053Y438523D01*
X122053Y452037D01*
X139567Y452037D01*
X139567Y440024D02*
X122053Y440024D01*
X122053Y441525D02*
X139567Y441525D01*
X139567Y443026D02*
X122053Y443026D01*
X122053Y444527D02*
X139567Y444527D01*
X139567Y446028D02*
X122053Y446028D01*
X122053Y447529D02*
X139567Y447529D01*
X139567Y449030D02*
X122053Y449030D01*
X122053Y450531D02*
X139567Y450531D01*
X139567Y452032D02*
X122053Y452032D01*
X139567Y472523D02*
X139567Y486037D01*
X139567Y472523D02*
X122053Y472523D01*
X122053Y486037D01*
X139567Y486037D01*
X139567Y474024D02*
X122053Y474024D01*
X122053Y475525D02*
X139567Y475525D01*
X139567Y477026D02*
X122053Y477026D01*
X122053Y478527D02*
X139567Y478527D01*
X139567Y480028D02*
X122053Y480028D01*
X122053Y481529D02*
X139567Y481529D01*
X139567Y483030D02*
X122053Y483030D01*
X122053Y484531D02*
X139567Y484531D01*
X139567Y486032D02*
X122053Y486032D01*
D22*
X214630Y261620D03*
X163830Y261620D03*
D30*
X374210Y76330D02*
X386110Y76330D01*
X374210Y76330D02*
X374210Y86230D01*
X386110Y86230D01*
X386110Y76330D01*
X386110Y77429D02*
X374210Y77429D01*
X374210Y78528D02*
X386110Y78528D01*
X386110Y79627D02*
X374210Y79627D01*
X374210Y80726D02*
X386110Y80726D01*
X386110Y81825D02*
X374210Y81825D01*
X374210Y82924D02*
X386110Y82924D01*
X386110Y84023D02*
X374210Y84023D01*
X374210Y85122D02*
X386110Y85122D01*
X386110Y86221D02*
X374210Y86221D01*
X396210Y76330D02*
X408110Y76330D01*
X396210Y76330D02*
X396210Y86230D01*
X408110Y86230D01*
X408110Y76330D01*
X408110Y77429D02*
X396210Y77429D01*
X396210Y78528D02*
X408110Y78528D01*
X408110Y79627D02*
X396210Y79627D01*
X396210Y80726D02*
X408110Y80726D01*
X408110Y81825D02*
X396210Y81825D01*
X396210Y82924D02*
X408110Y82924D01*
X408110Y84023D02*
X396210Y84023D01*
X396210Y85122D02*
X408110Y85122D01*
X408110Y86221D02*
X396210Y86221D01*
D13*
X451132Y103414D02*
X451132Y107406D01*
X453108Y107406D01*
X453108Y103414D01*
X451132Y103414D01*
X433352Y103414D02*
X433352Y107406D01*
X435328Y107406D01*
X435328Y103414D01*
X433352Y103414D01*
M02*
