G04 EAGLE Gerber X2 export*
%TF.Part,Single*%
%TF.FileFunction,Paste,Top*%
%TF.FilePolarity,Positive*%
%TF.GenerationSoftware,Autodesk,EAGLE,9.0.1*%
%TF.CreationDate,2019-02-14T11:46:10Z*%
G75*
%MOMM*%
%FSLAX34Y34*%
%LPD*%
%AMOC8*
5,1,8,0,0,1.08239X$1,22.5*%
G01*
%ADD10C,0.304800*%
%ADD11C,0.637437*%
%ADD12C,0.126000*%
%ADD13C,0.108000*%
%ADD14C,0.216000*%
%ADD15C,0.914400*%
%ADD16C,0.109728*%
%ADD17C,0.198000*%
%ADD18C,0.171000*%
%ADD19C,0.089153*%
%ADD20C,0.142719*%
%ADD21R,1.270000X1.270000*%
%ADD22C,0.089838*%
%ADD23C,0.105156*%
%ADD24C,0.079678*%
%ADD25C,0.067453*%
%ADD26C,0.189000*%
%ADD27R,0.889000X0.762000*%
%ADD28C,0.089759*%
%ADD29C,0.080709*%


D10*
X176276Y398780D02*
X176278Y398942D01*
X176284Y399104D01*
X176294Y399266D01*
X176308Y399427D01*
X176326Y399588D01*
X176347Y399749D01*
X176373Y399909D01*
X176403Y400068D01*
X176436Y400227D01*
X176474Y400385D01*
X176515Y400541D01*
X176560Y400697D01*
X176609Y400852D01*
X176662Y401005D01*
X176719Y401157D01*
X176779Y401307D01*
X176843Y401456D01*
X176910Y401604D01*
X176981Y401749D01*
X177056Y401893D01*
X177134Y402035D01*
X177216Y402175D01*
X177301Y402313D01*
X177389Y402449D01*
X177481Y402583D01*
X177576Y402714D01*
X177674Y402843D01*
X177775Y402970D01*
X177879Y403094D01*
X177987Y403215D01*
X178097Y403334D01*
X178210Y403450D01*
X178326Y403563D01*
X178445Y403673D01*
X178566Y403781D01*
X178690Y403885D01*
X178817Y403986D01*
X178946Y404084D01*
X179077Y404179D01*
X179211Y404271D01*
X179347Y404359D01*
X179485Y404444D01*
X179625Y404526D01*
X179767Y404604D01*
X179911Y404679D01*
X180056Y404750D01*
X180204Y404817D01*
X180353Y404881D01*
X180503Y404941D01*
X180655Y404998D01*
X180808Y405051D01*
X180963Y405100D01*
X181119Y405145D01*
X181275Y405186D01*
X181433Y405224D01*
X181592Y405257D01*
X181751Y405287D01*
X181911Y405313D01*
X182072Y405334D01*
X182233Y405352D01*
X182394Y405366D01*
X182556Y405376D01*
X182718Y405382D01*
X182880Y405384D01*
X183042Y405382D01*
X183204Y405376D01*
X183366Y405366D01*
X183527Y405352D01*
X183688Y405334D01*
X183849Y405313D01*
X184009Y405287D01*
X184168Y405257D01*
X184327Y405224D01*
X184485Y405186D01*
X184641Y405145D01*
X184797Y405100D01*
X184952Y405051D01*
X185105Y404998D01*
X185257Y404941D01*
X185407Y404881D01*
X185556Y404817D01*
X185704Y404750D01*
X185849Y404679D01*
X185993Y404604D01*
X186135Y404526D01*
X186275Y404444D01*
X186413Y404359D01*
X186549Y404271D01*
X186683Y404179D01*
X186814Y404084D01*
X186943Y403986D01*
X187070Y403885D01*
X187194Y403781D01*
X187315Y403673D01*
X187434Y403563D01*
X187550Y403450D01*
X187663Y403334D01*
X187773Y403215D01*
X187881Y403094D01*
X187985Y402970D01*
X188086Y402843D01*
X188184Y402714D01*
X188279Y402583D01*
X188371Y402449D01*
X188459Y402313D01*
X188544Y402175D01*
X188626Y402035D01*
X188704Y401893D01*
X188779Y401749D01*
X188850Y401604D01*
X188917Y401456D01*
X188981Y401307D01*
X189041Y401157D01*
X189098Y401005D01*
X189151Y400852D01*
X189200Y400697D01*
X189245Y400541D01*
X189286Y400385D01*
X189324Y400227D01*
X189357Y400068D01*
X189387Y399909D01*
X189413Y399749D01*
X189434Y399588D01*
X189452Y399427D01*
X189466Y399266D01*
X189476Y399104D01*
X189482Y398942D01*
X189484Y398780D01*
X189482Y398618D01*
X189476Y398456D01*
X189466Y398294D01*
X189452Y398133D01*
X189434Y397972D01*
X189413Y397811D01*
X189387Y397651D01*
X189357Y397492D01*
X189324Y397333D01*
X189286Y397175D01*
X189245Y397019D01*
X189200Y396863D01*
X189151Y396708D01*
X189098Y396555D01*
X189041Y396403D01*
X188981Y396253D01*
X188917Y396104D01*
X188850Y395956D01*
X188779Y395811D01*
X188704Y395667D01*
X188626Y395525D01*
X188544Y395385D01*
X188459Y395247D01*
X188371Y395111D01*
X188279Y394977D01*
X188184Y394846D01*
X188086Y394717D01*
X187985Y394590D01*
X187881Y394466D01*
X187773Y394345D01*
X187663Y394226D01*
X187550Y394110D01*
X187434Y393997D01*
X187315Y393887D01*
X187194Y393779D01*
X187070Y393675D01*
X186943Y393574D01*
X186814Y393476D01*
X186683Y393381D01*
X186549Y393289D01*
X186413Y393201D01*
X186275Y393116D01*
X186135Y393034D01*
X185993Y392956D01*
X185849Y392881D01*
X185704Y392810D01*
X185556Y392743D01*
X185407Y392679D01*
X185257Y392619D01*
X185105Y392562D01*
X184952Y392509D01*
X184797Y392460D01*
X184641Y392415D01*
X184485Y392374D01*
X184327Y392336D01*
X184168Y392303D01*
X184009Y392273D01*
X183849Y392247D01*
X183688Y392226D01*
X183527Y392208D01*
X183366Y392194D01*
X183204Y392184D01*
X183042Y392178D01*
X182880Y392176D01*
X182718Y392178D01*
X182556Y392184D01*
X182394Y392194D01*
X182233Y392208D01*
X182072Y392226D01*
X181911Y392247D01*
X181751Y392273D01*
X181592Y392303D01*
X181433Y392336D01*
X181275Y392374D01*
X181119Y392415D01*
X180963Y392460D01*
X180808Y392509D01*
X180655Y392562D01*
X180503Y392619D01*
X180353Y392679D01*
X180204Y392743D01*
X180056Y392810D01*
X179911Y392881D01*
X179767Y392956D01*
X179625Y393034D01*
X179485Y393116D01*
X179347Y393201D01*
X179211Y393289D01*
X179077Y393381D01*
X178946Y393476D01*
X178817Y393574D01*
X178690Y393675D01*
X178566Y393779D01*
X178445Y393887D01*
X178326Y393997D01*
X178210Y394110D01*
X178097Y394226D01*
X177987Y394345D01*
X177879Y394466D01*
X177775Y394590D01*
X177674Y394717D01*
X177576Y394846D01*
X177481Y394977D01*
X177389Y395111D01*
X177301Y395247D01*
X177216Y395385D01*
X177134Y395525D01*
X177056Y395667D01*
X176981Y395811D01*
X176910Y395956D01*
X176843Y396104D01*
X176779Y396253D01*
X176719Y396403D01*
X176662Y396555D01*
X176609Y396708D01*
X176560Y396863D01*
X176515Y397019D01*
X176474Y397175D01*
X176436Y397333D01*
X176403Y397492D01*
X176373Y397651D01*
X176347Y397811D01*
X176326Y397972D01*
X176308Y398133D01*
X176294Y398294D01*
X176284Y398456D01*
X176278Y398618D01*
X176276Y398780D01*
X201657Y398780D02*
X201659Y398943D01*
X201665Y399105D01*
X201675Y399267D01*
X201689Y399429D01*
X201707Y399591D01*
X201729Y399752D01*
X201755Y399912D01*
X201784Y400072D01*
X201818Y400231D01*
X201855Y400389D01*
X201897Y400546D01*
X201942Y400703D01*
X201991Y400858D01*
X202044Y401011D01*
X202101Y401164D01*
X202161Y401315D01*
X202225Y401464D01*
X202293Y401612D01*
X202364Y401758D01*
X202439Y401902D01*
X202517Y402044D01*
X202599Y402185D01*
X202685Y402323D01*
X202773Y402460D01*
X202865Y402594D01*
X202960Y402725D01*
X203059Y402855D01*
X203160Y402982D01*
X203265Y403106D01*
X203373Y403228D01*
X203483Y403347D01*
X203597Y403463D01*
X203713Y403577D01*
X203832Y403687D01*
X203954Y403795D01*
X204078Y403900D01*
X204205Y404001D01*
X204335Y404100D01*
X204466Y404195D01*
X204600Y404287D01*
X204737Y404375D01*
X204875Y404461D01*
X205016Y404543D01*
X205158Y404621D01*
X205302Y404696D01*
X205448Y404767D01*
X205596Y404835D01*
X205745Y404899D01*
X205896Y404959D01*
X206049Y405016D01*
X206202Y405069D01*
X206357Y405118D01*
X206514Y405163D01*
X206671Y405205D01*
X206829Y405242D01*
X206988Y405276D01*
X207148Y405305D01*
X207308Y405331D01*
X207469Y405353D01*
X207631Y405371D01*
X207793Y405385D01*
X207955Y405395D01*
X208117Y405401D01*
X208280Y405403D01*
X208443Y405401D01*
X208605Y405395D01*
X208767Y405385D01*
X208929Y405371D01*
X209091Y405353D01*
X209252Y405331D01*
X209412Y405305D01*
X209572Y405276D01*
X209731Y405242D01*
X209889Y405205D01*
X210046Y405163D01*
X210203Y405118D01*
X210358Y405069D01*
X210511Y405016D01*
X210664Y404959D01*
X210815Y404899D01*
X210964Y404835D01*
X211112Y404767D01*
X211258Y404696D01*
X211402Y404621D01*
X211544Y404543D01*
X211685Y404461D01*
X211823Y404375D01*
X211960Y404287D01*
X212094Y404195D01*
X212225Y404100D01*
X212355Y404001D01*
X212482Y403900D01*
X212606Y403795D01*
X212728Y403687D01*
X212847Y403577D01*
X212963Y403463D01*
X213077Y403347D01*
X213187Y403228D01*
X213295Y403106D01*
X213400Y402982D01*
X213501Y402855D01*
X213600Y402725D01*
X213695Y402594D01*
X213787Y402460D01*
X213875Y402323D01*
X213961Y402185D01*
X214043Y402044D01*
X214121Y401902D01*
X214196Y401758D01*
X214267Y401612D01*
X214335Y401464D01*
X214399Y401315D01*
X214459Y401164D01*
X214516Y401011D01*
X214569Y400858D01*
X214618Y400703D01*
X214663Y400546D01*
X214705Y400389D01*
X214742Y400231D01*
X214776Y400072D01*
X214805Y399912D01*
X214831Y399752D01*
X214853Y399591D01*
X214871Y399429D01*
X214885Y399267D01*
X214895Y399105D01*
X214901Y398943D01*
X214903Y398780D01*
X214901Y398617D01*
X214895Y398455D01*
X214885Y398293D01*
X214871Y398131D01*
X214853Y397969D01*
X214831Y397808D01*
X214805Y397648D01*
X214776Y397488D01*
X214742Y397329D01*
X214705Y397171D01*
X214663Y397014D01*
X214618Y396857D01*
X214569Y396702D01*
X214516Y396549D01*
X214459Y396396D01*
X214399Y396245D01*
X214335Y396096D01*
X214267Y395948D01*
X214196Y395802D01*
X214121Y395658D01*
X214043Y395516D01*
X213961Y395375D01*
X213875Y395237D01*
X213787Y395100D01*
X213695Y394966D01*
X213600Y394835D01*
X213501Y394705D01*
X213400Y394578D01*
X213295Y394454D01*
X213187Y394332D01*
X213077Y394213D01*
X212963Y394097D01*
X212847Y393983D01*
X212728Y393873D01*
X212606Y393765D01*
X212482Y393660D01*
X212355Y393559D01*
X212225Y393460D01*
X212094Y393365D01*
X211960Y393273D01*
X211823Y393185D01*
X211685Y393099D01*
X211544Y393017D01*
X211402Y392939D01*
X211258Y392864D01*
X211112Y392793D01*
X210964Y392725D01*
X210815Y392661D01*
X210664Y392601D01*
X210511Y392544D01*
X210358Y392491D01*
X210203Y392442D01*
X210046Y392397D01*
X209889Y392355D01*
X209731Y392318D01*
X209572Y392284D01*
X209412Y392255D01*
X209252Y392229D01*
X209091Y392207D01*
X208929Y392189D01*
X208767Y392175D01*
X208605Y392165D01*
X208443Y392159D01*
X208280Y392157D01*
X208117Y392159D01*
X207955Y392165D01*
X207793Y392175D01*
X207631Y392189D01*
X207469Y392207D01*
X207308Y392229D01*
X207148Y392255D01*
X206988Y392284D01*
X206829Y392318D01*
X206671Y392355D01*
X206514Y392397D01*
X206357Y392442D01*
X206202Y392491D01*
X206049Y392544D01*
X205896Y392601D01*
X205745Y392661D01*
X205596Y392725D01*
X205448Y392793D01*
X205302Y392864D01*
X205158Y392939D01*
X205016Y393017D01*
X204875Y393099D01*
X204737Y393185D01*
X204600Y393273D01*
X204466Y393365D01*
X204335Y393460D01*
X204205Y393559D01*
X204078Y393660D01*
X203954Y393765D01*
X203832Y393873D01*
X203713Y393983D01*
X203597Y394097D01*
X203483Y394213D01*
X203373Y394332D01*
X203265Y394454D01*
X203160Y394578D01*
X203059Y394705D01*
X202960Y394835D01*
X202865Y394966D01*
X202773Y395100D01*
X202685Y395237D01*
X202599Y395375D01*
X202517Y395516D01*
X202439Y395658D01*
X202364Y395802D01*
X202293Y395948D01*
X202225Y396096D01*
X202161Y396245D01*
X202101Y396396D01*
X202044Y396549D01*
X201991Y396702D01*
X201942Y396857D01*
X201897Y397014D01*
X201855Y397171D01*
X201818Y397329D01*
X201784Y397488D01*
X201755Y397648D01*
X201729Y397808D01*
X201707Y397969D01*
X201689Y398131D01*
X201675Y398293D01*
X201665Y398455D01*
X201659Y398617D01*
X201657Y398780D01*
X176276Y424180D02*
X176278Y424342D01*
X176284Y424504D01*
X176294Y424666D01*
X176308Y424827D01*
X176326Y424988D01*
X176347Y425149D01*
X176373Y425309D01*
X176403Y425468D01*
X176436Y425627D01*
X176474Y425785D01*
X176515Y425941D01*
X176560Y426097D01*
X176609Y426252D01*
X176662Y426405D01*
X176719Y426557D01*
X176779Y426707D01*
X176843Y426856D01*
X176910Y427004D01*
X176981Y427149D01*
X177056Y427293D01*
X177134Y427435D01*
X177216Y427575D01*
X177301Y427713D01*
X177389Y427849D01*
X177481Y427983D01*
X177576Y428114D01*
X177674Y428243D01*
X177775Y428370D01*
X177879Y428494D01*
X177987Y428615D01*
X178097Y428734D01*
X178210Y428850D01*
X178326Y428963D01*
X178445Y429073D01*
X178566Y429181D01*
X178690Y429285D01*
X178817Y429386D01*
X178946Y429484D01*
X179077Y429579D01*
X179211Y429671D01*
X179347Y429759D01*
X179485Y429844D01*
X179625Y429926D01*
X179767Y430004D01*
X179911Y430079D01*
X180056Y430150D01*
X180204Y430217D01*
X180353Y430281D01*
X180503Y430341D01*
X180655Y430398D01*
X180808Y430451D01*
X180963Y430500D01*
X181119Y430545D01*
X181275Y430586D01*
X181433Y430624D01*
X181592Y430657D01*
X181751Y430687D01*
X181911Y430713D01*
X182072Y430734D01*
X182233Y430752D01*
X182394Y430766D01*
X182556Y430776D01*
X182718Y430782D01*
X182880Y430784D01*
X183042Y430782D01*
X183204Y430776D01*
X183366Y430766D01*
X183527Y430752D01*
X183688Y430734D01*
X183849Y430713D01*
X184009Y430687D01*
X184168Y430657D01*
X184327Y430624D01*
X184485Y430586D01*
X184641Y430545D01*
X184797Y430500D01*
X184952Y430451D01*
X185105Y430398D01*
X185257Y430341D01*
X185407Y430281D01*
X185556Y430217D01*
X185704Y430150D01*
X185849Y430079D01*
X185993Y430004D01*
X186135Y429926D01*
X186275Y429844D01*
X186413Y429759D01*
X186549Y429671D01*
X186683Y429579D01*
X186814Y429484D01*
X186943Y429386D01*
X187070Y429285D01*
X187194Y429181D01*
X187315Y429073D01*
X187434Y428963D01*
X187550Y428850D01*
X187663Y428734D01*
X187773Y428615D01*
X187881Y428494D01*
X187985Y428370D01*
X188086Y428243D01*
X188184Y428114D01*
X188279Y427983D01*
X188371Y427849D01*
X188459Y427713D01*
X188544Y427575D01*
X188626Y427435D01*
X188704Y427293D01*
X188779Y427149D01*
X188850Y427004D01*
X188917Y426856D01*
X188981Y426707D01*
X189041Y426557D01*
X189098Y426405D01*
X189151Y426252D01*
X189200Y426097D01*
X189245Y425941D01*
X189286Y425785D01*
X189324Y425627D01*
X189357Y425468D01*
X189387Y425309D01*
X189413Y425149D01*
X189434Y424988D01*
X189452Y424827D01*
X189466Y424666D01*
X189476Y424504D01*
X189482Y424342D01*
X189484Y424180D01*
X189482Y424018D01*
X189476Y423856D01*
X189466Y423694D01*
X189452Y423533D01*
X189434Y423372D01*
X189413Y423211D01*
X189387Y423051D01*
X189357Y422892D01*
X189324Y422733D01*
X189286Y422575D01*
X189245Y422419D01*
X189200Y422263D01*
X189151Y422108D01*
X189098Y421955D01*
X189041Y421803D01*
X188981Y421653D01*
X188917Y421504D01*
X188850Y421356D01*
X188779Y421211D01*
X188704Y421067D01*
X188626Y420925D01*
X188544Y420785D01*
X188459Y420647D01*
X188371Y420511D01*
X188279Y420377D01*
X188184Y420246D01*
X188086Y420117D01*
X187985Y419990D01*
X187881Y419866D01*
X187773Y419745D01*
X187663Y419626D01*
X187550Y419510D01*
X187434Y419397D01*
X187315Y419287D01*
X187194Y419179D01*
X187070Y419075D01*
X186943Y418974D01*
X186814Y418876D01*
X186683Y418781D01*
X186549Y418689D01*
X186413Y418601D01*
X186275Y418516D01*
X186135Y418434D01*
X185993Y418356D01*
X185849Y418281D01*
X185704Y418210D01*
X185556Y418143D01*
X185407Y418079D01*
X185257Y418019D01*
X185105Y417962D01*
X184952Y417909D01*
X184797Y417860D01*
X184641Y417815D01*
X184485Y417774D01*
X184327Y417736D01*
X184168Y417703D01*
X184009Y417673D01*
X183849Y417647D01*
X183688Y417626D01*
X183527Y417608D01*
X183366Y417594D01*
X183204Y417584D01*
X183042Y417578D01*
X182880Y417576D01*
X182718Y417578D01*
X182556Y417584D01*
X182394Y417594D01*
X182233Y417608D01*
X182072Y417626D01*
X181911Y417647D01*
X181751Y417673D01*
X181592Y417703D01*
X181433Y417736D01*
X181275Y417774D01*
X181119Y417815D01*
X180963Y417860D01*
X180808Y417909D01*
X180655Y417962D01*
X180503Y418019D01*
X180353Y418079D01*
X180204Y418143D01*
X180056Y418210D01*
X179911Y418281D01*
X179767Y418356D01*
X179625Y418434D01*
X179485Y418516D01*
X179347Y418601D01*
X179211Y418689D01*
X179077Y418781D01*
X178946Y418876D01*
X178817Y418974D01*
X178690Y419075D01*
X178566Y419179D01*
X178445Y419287D01*
X178326Y419397D01*
X178210Y419510D01*
X178097Y419626D01*
X177987Y419745D01*
X177879Y419866D01*
X177775Y419990D01*
X177674Y420117D01*
X177576Y420246D01*
X177481Y420377D01*
X177389Y420511D01*
X177301Y420647D01*
X177216Y420785D01*
X177134Y420925D01*
X177056Y421067D01*
X176981Y421211D01*
X176910Y421356D01*
X176843Y421504D01*
X176779Y421653D01*
X176719Y421803D01*
X176662Y421955D01*
X176609Y422108D01*
X176560Y422263D01*
X176515Y422419D01*
X176474Y422575D01*
X176436Y422733D01*
X176403Y422892D01*
X176373Y423051D01*
X176347Y423211D01*
X176326Y423372D01*
X176308Y423533D01*
X176294Y423694D01*
X176284Y423856D01*
X176278Y424018D01*
X176276Y424180D01*
X201657Y424180D02*
X201659Y424343D01*
X201665Y424505D01*
X201675Y424667D01*
X201689Y424829D01*
X201707Y424991D01*
X201729Y425152D01*
X201755Y425312D01*
X201784Y425472D01*
X201818Y425631D01*
X201855Y425789D01*
X201897Y425946D01*
X201942Y426103D01*
X201991Y426258D01*
X202044Y426411D01*
X202101Y426564D01*
X202161Y426715D01*
X202225Y426864D01*
X202293Y427012D01*
X202364Y427158D01*
X202439Y427302D01*
X202517Y427444D01*
X202599Y427585D01*
X202685Y427723D01*
X202773Y427860D01*
X202865Y427994D01*
X202960Y428125D01*
X203059Y428255D01*
X203160Y428382D01*
X203265Y428506D01*
X203373Y428628D01*
X203483Y428747D01*
X203597Y428863D01*
X203713Y428977D01*
X203832Y429087D01*
X203954Y429195D01*
X204078Y429300D01*
X204205Y429401D01*
X204335Y429500D01*
X204466Y429595D01*
X204600Y429687D01*
X204737Y429775D01*
X204875Y429861D01*
X205016Y429943D01*
X205158Y430021D01*
X205302Y430096D01*
X205448Y430167D01*
X205596Y430235D01*
X205745Y430299D01*
X205896Y430359D01*
X206049Y430416D01*
X206202Y430469D01*
X206357Y430518D01*
X206514Y430563D01*
X206671Y430605D01*
X206829Y430642D01*
X206988Y430676D01*
X207148Y430705D01*
X207308Y430731D01*
X207469Y430753D01*
X207631Y430771D01*
X207793Y430785D01*
X207955Y430795D01*
X208117Y430801D01*
X208280Y430803D01*
X208443Y430801D01*
X208605Y430795D01*
X208767Y430785D01*
X208929Y430771D01*
X209091Y430753D01*
X209252Y430731D01*
X209412Y430705D01*
X209572Y430676D01*
X209731Y430642D01*
X209889Y430605D01*
X210046Y430563D01*
X210203Y430518D01*
X210358Y430469D01*
X210511Y430416D01*
X210664Y430359D01*
X210815Y430299D01*
X210964Y430235D01*
X211112Y430167D01*
X211258Y430096D01*
X211402Y430021D01*
X211544Y429943D01*
X211685Y429861D01*
X211823Y429775D01*
X211960Y429687D01*
X212094Y429595D01*
X212225Y429500D01*
X212355Y429401D01*
X212482Y429300D01*
X212606Y429195D01*
X212728Y429087D01*
X212847Y428977D01*
X212963Y428863D01*
X213077Y428747D01*
X213187Y428628D01*
X213295Y428506D01*
X213400Y428382D01*
X213501Y428255D01*
X213600Y428125D01*
X213695Y427994D01*
X213787Y427860D01*
X213875Y427723D01*
X213961Y427585D01*
X214043Y427444D01*
X214121Y427302D01*
X214196Y427158D01*
X214267Y427012D01*
X214335Y426864D01*
X214399Y426715D01*
X214459Y426564D01*
X214516Y426411D01*
X214569Y426258D01*
X214618Y426103D01*
X214663Y425946D01*
X214705Y425789D01*
X214742Y425631D01*
X214776Y425472D01*
X214805Y425312D01*
X214831Y425152D01*
X214853Y424991D01*
X214871Y424829D01*
X214885Y424667D01*
X214895Y424505D01*
X214901Y424343D01*
X214903Y424180D01*
X214901Y424017D01*
X214895Y423855D01*
X214885Y423693D01*
X214871Y423531D01*
X214853Y423369D01*
X214831Y423208D01*
X214805Y423048D01*
X214776Y422888D01*
X214742Y422729D01*
X214705Y422571D01*
X214663Y422414D01*
X214618Y422257D01*
X214569Y422102D01*
X214516Y421949D01*
X214459Y421796D01*
X214399Y421645D01*
X214335Y421496D01*
X214267Y421348D01*
X214196Y421202D01*
X214121Y421058D01*
X214043Y420916D01*
X213961Y420775D01*
X213875Y420637D01*
X213787Y420500D01*
X213695Y420366D01*
X213600Y420235D01*
X213501Y420105D01*
X213400Y419978D01*
X213295Y419854D01*
X213187Y419732D01*
X213077Y419613D01*
X212963Y419497D01*
X212847Y419383D01*
X212728Y419273D01*
X212606Y419165D01*
X212482Y419060D01*
X212355Y418959D01*
X212225Y418860D01*
X212094Y418765D01*
X211960Y418673D01*
X211823Y418585D01*
X211685Y418499D01*
X211544Y418417D01*
X211402Y418339D01*
X211258Y418264D01*
X211112Y418193D01*
X210964Y418125D01*
X210815Y418061D01*
X210664Y418001D01*
X210511Y417944D01*
X210358Y417891D01*
X210203Y417842D01*
X210046Y417797D01*
X209889Y417755D01*
X209731Y417718D01*
X209572Y417684D01*
X209412Y417655D01*
X209252Y417629D01*
X209091Y417607D01*
X208929Y417589D01*
X208767Y417575D01*
X208605Y417565D01*
X208443Y417559D01*
X208280Y417557D01*
X208117Y417559D01*
X207955Y417565D01*
X207793Y417575D01*
X207631Y417589D01*
X207469Y417607D01*
X207308Y417629D01*
X207148Y417655D01*
X206988Y417684D01*
X206829Y417718D01*
X206671Y417755D01*
X206514Y417797D01*
X206357Y417842D01*
X206202Y417891D01*
X206049Y417944D01*
X205896Y418001D01*
X205745Y418061D01*
X205596Y418125D01*
X205448Y418193D01*
X205302Y418264D01*
X205158Y418339D01*
X205016Y418417D01*
X204875Y418499D01*
X204737Y418585D01*
X204600Y418673D01*
X204466Y418765D01*
X204335Y418860D01*
X204205Y418959D01*
X204078Y419060D01*
X203954Y419165D01*
X203832Y419273D01*
X203713Y419383D01*
X203597Y419497D01*
X203483Y419613D01*
X203373Y419732D01*
X203265Y419854D01*
X203160Y419978D01*
X203059Y420105D01*
X202960Y420235D01*
X202865Y420366D01*
X202773Y420500D01*
X202685Y420637D01*
X202599Y420775D01*
X202517Y420916D01*
X202439Y421058D01*
X202364Y421202D01*
X202293Y421348D01*
X202225Y421496D01*
X202161Y421645D01*
X202101Y421796D01*
X202044Y421949D01*
X201991Y422102D01*
X201942Y422257D01*
X201897Y422414D01*
X201855Y422571D01*
X201818Y422729D01*
X201784Y422888D01*
X201755Y423048D01*
X201729Y423208D01*
X201707Y423369D01*
X201689Y423531D01*
X201675Y423693D01*
X201665Y423855D01*
X201659Y424017D01*
X201657Y424180D01*
D11*
X128743Y300255D02*
X128743Y296645D01*
X128743Y300255D02*
X130337Y300255D01*
X130337Y296645D01*
X128743Y296645D01*
X110963Y296645D02*
X110963Y300255D01*
X112557Y300255D01*
X112557Y296645D01*
X110963Y296645D01*
D12*
X260940Y81110D02*
X260940Y53770D01*
X249600Y53770D01*
X249600Y81110D01*
X260940Y81110D01*
X260940Y55029D02*
X249600Y55029D01*
X249600Y56288D02*
X260940Y56288D01*
X260940Y57547D02*
X249600Y57547D01*
X249600Y58806D02*
X260940Y58806D01*
X260940Y60065D02*
X249600Y60065D01*
X249600Y61324D02*
X260940Y61324D01*
X260940Y62583D02*
X249600Y62583D01*
X249600Y63842D02*
X260940Y63842D01*
X260940Y65101D02*
X249600Y65101D01*
X249600Y66360D02*
X260940Y66360D01*
X260940Y67619D02*
X249600Y67619D01*
X249600Y68878D02*
X260940Y68878D01*
X260940Y70137D02*
X249600Y70137D01*
X249600Y71396D02*
X260940Y71396D01*
X260940Y72655D02*
X249600Y72655D01*
X249600Y73914D02*
X260940Y73914D01*
X260940Y75173D02*
X249600Y75173D01*
X249600Y76432D02*
X260940Y76432D01*
X260940Y77691D02*
X249600Y77691D01*
X249600Y78950D02*
X260940Y78950D01*
X260940Y80209D02*
X249600Y80209D01*
X260940Y101770D02*
X260940Y129110D01*
X260940Y101770D02*
X249600Y101770D01*
X249600Y129110D01*
X260940Y129110D01*
X260940Y103029D02*
X249600Y103029D01*
X249600Y104288D02*
X260940Y104288D01*
X260940Y105547D02*
X249600Y105547D01*
X249600Y106806D02*
X260940Y106806D01*
X260940Y108065D02*
X249600Y108065D01*
X249600Y109324D02*
X260940Y109324D01*
X260940Y110583D02*
X249600Y110583D01*
X249600Y111842D02*
X260940Y111842D01*
X260940Y113101D02*
X249600Y113101D01*
X249600Y114360D02*
X260940Y114360D01*
X260940Y115619D02*
X249600Y115619D01*
X249600Y116878D02*
X260940Y116878D01*
X260940Y118137D02*
X249600Y118137D01*
X249600Y119396D02*
X260940Y119396D01*
X260940Y120655D02*
X249600Y120655D01*
X249600Y121914D02*
X260940Y121914D01*
X260940Y123173D02*
X249600Y123173D01*
X249600Y124432D02*
X260940Y124432D01*
X260940Y125691D02*
X249600Y125691D01*
X249600Y126950D02*
X260940Y126950D01*
X260940Y128209D02*
X249600Y128209D01*
X189820Y81110D02*
X189820Y53770D01*
X178480Y53770D01*
X178480Y81110D01*
X189820Y81110D01*
X189820Y55029D02*
X178480Y55029D01*
X178480Y56288D02*
X189820Y56288D01*
X189820Y57547D02*
X178480Y57547D01*
X178480Y58806D02*
X189820Y58806D01*
X189820Y60065D02*
X178480Y60065D01*
X178480Y61324D02*
X189820Y61324D01*
X189820Y62583D02*
X178480Y62583D01*
X178480Y63842D02*
X189820Y63842D01*
X189820Y65101D02*
X178480Y65101D01*
X178480Y66360D02*
X189820Y66360D01*
X189820Y67619D02*
X178480Y67619D01*
X178480Y68878D02*
X189820Y68878D01*
X189820Y70137D02*
X178480Y70137D01*
X178480Y71396D02*
X189820Y71396D01*
X189820Y72655D02*
X178480Y72655D01*
X178480Y73914D02*
X189820Y73914D01*
X189820Y75173D02*
X178480Y75173D01*
X178480Y76432D02*
X189820Y76432D01*
X189820Y77691D02*
X178480Y77691D01*
X178480Y78950D02*
X189820Y78950D01*
X189820Y80209D02*
X178480Y80209D01*
X189820Y101770D02*
X189820Y129110D01*
X189820Y101770D02*
X178480Y101770D01*
X178480Y129110D01*
X189820Y129110D01*
X189820Y103029D02*
X178480Y103029D01*
X178480Y104288D02*
X189820Y104288D01*
X189820Y105547D02*
X178480Y105547D01*
X178480Y106806D02*
X189820Y106806D01*
X189820Y108065D02*
X178480Y108065D01*
X178480Y109324D02*
X189820Y109324D01*
X189820Y110583D02*
X178480Y110583D01*
X178480Y111842D02*
X189820Y111842D01*
X189820Y113101D02*
X178480Y113101D01*
X178480Y114360D02*
X189820Y114360D01*
X189820Y115619D02*
X178480Y115619D01*
X178480Y116878D02*
X189820Y116878D01*
X189820Y118137D02*
X178480Y118137D01*
X178480Y119396D02*
X189820Y119396D01*
X189820Y120655D02*
X178480Y120655D01*
X178480Y121914D02*
X189820Y121914D01*
X189820Y123173D02*
X178480Y123173D01*
X178480Y124432D02*
X189820Y124432D01*
X189820Y125691D02*
X178480Y125691D01*
X178480Y126950D02*
X189820Y126950D01*
X189820Y128209D02*
X178480Y128209D01*
D13*
X589840Y360900D02*
X589840Y370620D01*
X599560Y370620D01*
X599560Y360900D01*
X589840Y360900D01*
X589840Y361979D02*
X599560Y361979D01*
X599560Y363058D02*
X589840Y363058D01*
X589840Y364137D02*
X599560Y364137D01*
X599560Y365216D02*
X589840Y365216D01*
X589840Y366295D02*
X599560Y366295D01*
X599560Y367374D02*
X589840Y367374D01*
X589840Y368453D02*
X599560Y368453D01*
X599560Y369532D02*
X589840Y369532D01*
X589840Y370611D02*
X599560Y370611D01*
X568840Y370620D02*
X568840Y360900D01*
X568840Y370620D02*
X578560Y370620D01*
X578560Y360900D01*
X568840Y360900D01*
X568840Y361979D02*
X578560Y361979D01*
X578560Y363058D02*
X568840Y363058D01*
X568840Y364137D02*
X578560Y364137D01*
X578560Y365216D02*
X568840Y365216D01*
X568840Y366295D02*
X578560Y366295D01*
X578560Y367374D02*
X568840Y367374D01*
X568840Y368453D02*
X578560Y368453D01*
X578560Y369532D02*
X568840Y369532D01*
X568840Y370611D02*
X578560Y370611D01*
X273760Y347760D02*
X273760Y338040D01*
X264040Y338040D01*
X264040Y347760D01*
X273760Y347760D01*
X273760Y339119D02*
X264040Y339119D01*
X264040Y340198D02*
X273760Y340198D01*
X273760Y341277D02*
X264040Y341277D01*
X264040Y342356D02*
X273760Y342356D01*
X273760Y343435D02*
X264040Y343435D01*
X264040Y344514D02*
X273760Y344514D01*
X273760Y345593D02*
X264040Y345593D01*
X264040Y346672D02*
X273760Y346672D01*
X273760Y347751D02*
X264040Y347751D01*
X294760Y347760D02*
X294760Y338040D01*
X285040Y338040D01*
X285040Y347760D01*
X294760Y347760D01*
X294760Y339119D02*
X285040Y339119D01*
X285040Y340198D02*
X294760Y340198D01*
X294760Y341277D02*
X285040Y341277D01*
X285040Y342356D02*
X294760Y342356D01*
X294760Y343435D02*
X285040Y343435D01*
X285040Y344514D02*
X294760Y344514D01*
X294760Y345593D02*
X285040Y345593D01*
X285040Y346672D02*
X294760Y346672D01*
X294760Y347751D02*
X285040Y347751D01*
X273760Y360900D02*
X273760Y370620D01*
X273760Y360900D02*
X264040Y360900D01*
X264040Y370620D01*
X273760Y370620D01*
X273760Y361979D02*
X264040Y361979D01*
X264040Y363058D02*
X273760Y363058D01*
X273760Y364137D02*
X264040Y364137D01*
X264040Y365216D02*
X273760Y365216D01*
X273760Y366295D02*
X264040Y366295D01*
X264040Y367374D02*
X273760Y367374D01*
X273760Y368453D02*
X264040Y368453D01*
X264040Y369532D02*
X273760Y369532D01*
X273760Y370611D02*
X264040Y370611D01*
X294760Y370620D02*
X294760Y360900D01*
X285040Y360900D01*
X285040Y370620D01*
X294760Y370620D01*
X294760Y361979D02*
X285040Y361979D01*
X285040Y363058D02*
X294760Y363058D01*
X294760Y364137D02*
X285040Y364137D01*
X285040Y365216D02*
X294760Y365216D01*
X294760Y366295D02*
X285040Y366295D01*
X285040Y367374D02*
X294760Y367374D01*
X294760Y368453D02*
X285040Y368453D01*
X285040Y369532D02*
X294760Y369532D01*
X294760Y370611D02*
X285040Y370611D01*
D14*
X247620Y37660D02*
X228180Y37660D01*
X247620Y37660D02*
X247620Y18220D01*
X228180Y18220D01*
X228180Y37660D01*
X228180Y20379D02*
X247620Y20379D01*
X247620Y22538D02*
X228180Y22538D01*
X228180Y24697D02*
X247620Y24697D01*
X247620Y26856D02*
X228180Y26856D01*
X228180Y29015D02*
X247620Y29015D01*
X247620Y31174D02*
X228180Y31174D01*
X228180Y33333D02*
X247620Y33333D01*
X247620Y35492D02*
X228180Y35492D01*
X228180Y37651D02*
X247620Y37651D01*
X203620Y37660D02*
X184180Y37660D01*
X203620Y37660D02*
X203620Y18220D01*
X184180Y18220D01*
X184180Y37660D01*
X184180Y20379D02*
X203620Y20379D01*
X203620Y22538D02*
X184180Y22538D01*
X184180Y24697D02*
X203620Y24697D01*
X203620Y26856D02*
X184180Y26856D01*
X184180Y29015D02*
X203620Y29015D01*
X203620Y31174D02*
X184180Y31174D01*
X184180Y33333D02*
X203620Y33333D01*
X203620Y35492D02*
X184180Y35492D01*
X184180Y37651D02*
X203620Y37651D01*
D15*
X63500Y499110D03*
X538400Y167410D03*
X37300Y34100D03*
D16*
X118476Y145938D02*
X118476Y155814D01*
X118476Y145938D02*
X98440Y145938D01*
X98440Y155814D01*
X118476Y155814D01*
X118476Y147034D02*
X98440Y147034D01*
X98440Y148130D02*
X118476Y148130D01*
X118476Y149226D02*
X98440Y149226D01*
X98440Y150322D02*
X118476Y150322D01*
X118476Y151418D02*
X98440Y151418D01*
X98440Y152514D02*
X118476Y152514D01*
X118476Y153610D02*
X98440Y153610D01*
X98440Y154706D02*
X118476Y154706D01*
X118476Y155802D02*
X98440Y155802D01*
X118476Y169052D02*
X118476Y178928D01*
X118476Y169052D02*
X98440Y169052D01*
X98440Y178928D01*
X118476Y178928D01*
X118476Y170148D02*
X98440Y170148D01*
X98440Y171244D02*
X118476Y171244D01*
X118476Y172340D02*
X98440Y172340D01*
X98440Y173436D02*
X118476Y173436D01*
X118476Y174532D02*
X98440Y174532D01*
X98440Y175628D02*
X118476Y175628D01*
X118476Y176724D02*
X98440Y176724D01*
X98440Y177820D02*
X118476Y177820D01*
X118476Y178916D02*
X98440Y178916D01*
X118476Y192166D02*
X118476Y202042D01*
X118476Y192166D02*
X98440Y192166D01*
X98440Y202042D01*
X118476Y202042D01*
X118476Y193262D02*
X98440Y193262D01*
X98440Y194358D02*
X118476Y194358D01*
X118476Y195454D02*
X98440Y195454D01*
X98440Y196550D02*
X118476Y196550D01*
X118476Y197646D02*
X98440Y197646D01*
X98440Y198742D02*
X118476Y198742D01*
X118476Y199838D02*
X98440Y199838D01*
X98440Y200934D02*
X118476Y200934D01*
X118476Y202030D02*
X98440Y202030D01*
D17*
X55390Y189900D02*
X55390Y158080D01*
X37570Y158080D01*
X37570Y189900D01*
X55390Y189900D01*
X55390Y160059D02*
X37570Y160059D01*
X37570Y162038D02*
X55390Y162038D01*
X55390Y164017D02*
X37570Y164017D01*
X37570Y165996D02*
X55390Y165996D01*
X55390Y167975D02*
X37570Y167975D01*
X37570Y169954D02*
X55390Y169954D01*
X55390Y171933D02*
X37570Y171933D01*
X37570Y173912D02*
X55390Y173912D01*
X55390Y175891D02*
X37570Y175891D01*
X37570Y177870D02*
X55390Y177870D01*
X55390Y179849D02*
X37570Y179849D01*
X37570Y181828D02*
X55390Y181828D01*
X55390Y183807D02*
X37570Y183807D01*
X37570Y185786D02*
X55390Y185786D01*
X55390Y187765D02*
X37570Y187765D01*
X37570Y189744D02*
X55390Y189744D01*
D11*
X287493Y442695D02*
X287493Y446305D01*
X289087Y446305D01*
X289087Y442695D01*
X287493Y442695D01*
X269713Y442695D02*
X269713Y446305D01*
X271307Y446305D01*
X271307Y442695D01*
X269713Y442695D01*
D18*
X55835Y253625D02*
X55835Y238235D01*
X25445Y238235D01*
X25445Y253625D01*
X55835Y253625D01*
X55835Y239944D02*
X25445Y239944D01*
X25445Y241653D02*
X55835Y241653D01*
X55835Y243362D02*
X25445Y243362D01*
X25445Y245071D02*
X55835Y245071D01*
X55835Y246780D02*
X25445Y246780D01*
X25445Y248489D02*
X55835Y248489D01*
X55835Y250198D02*
X25445Y250198D01*
X25445Y251907D02*
X55835Y251907D01*
X55835Y253616D02*
X25445Y253616D01*
X55835Y277235D02*
X55835Y292625D01*
X55835Y277235D02*
X25445Y277235D01*
X25445Y292625D01*
X55835Y292625D01*
X55835Y278944D02*
X25445Y278944D01*
X25445Y280653D02*
X55835Y280653D01*
X55835Y282362D02*
X25445Y282362D01*
X25445Y284071D02*
X55835Y284071D01*
X55835Y285780D02*
X25445Y285780D01*
X25445Y287489D02*
X55835Y287489D01*
X55835Y289198D02*
X25445Y289198D01*
X25445Y290907D02*
X55835Y290907D01*
X55835Y292616D02*
X25445Y292616D01*
D11*
X271307Y313155D02*
X271307Y316765D01*
X271307Y313155D02*
X269713Y313155D01*
X269713Y316765D01*
X271307Y316765D01*
X289087Y316765D02*
X289087Y313155D01*
X287493Y313155D01*
X287493Y316765D01*
X289087Y316765D01*
D13*
X285040Y416780D02*
X285040Y426500D01*
X294760Y426500D01*
X294760Y416780D01*
X285040Y416780D01*
X285040Y417859D02*
X294760Y417859D01*
X294760Y418938D02*
X285040Y418938D01*
X285040Y420017D02*
X294760Y420017D01*
X294760Y421096D02*
X285040Y421096D01*
X285040Y422175D02*
X294760Y422175D01*
X294760Y423254D02*
X285040Y423254D01*
X285040Y424333D02*
X294760Y424333D01*
X294760Y425412D02*
X285040Y425412D01*
X285040Y426491D02*
X294760Y426491D01*
X264040Y426500D02*
X264040Y416780D01*
X264040Y426500D02*
X273760Y426500D01*
X273760Y416780D01*
X264040Y416780D01*
X264040Y417859D02*
X273760Y417859D01*
X273760Y418938D02*
X264040Y418938D01*
X264040Y420017D02*
X273760Y420017D01*
X273760Y421096D02*
X264040Y421096D01*
X264040Y422175D02*
X273760Y422175D01*
X273760Y423254D02*
X264040Y423254D01*
X264040Y424333D02*
X273760Y424333D01*
X273760Y425412D02*
X264040Y425412D01*
X264040Y426491D02*
X273760Y426491D01*
D19*
X87949Y258507D02*
X87949Y252541D01*
X87949Y258507D02*
X94931Y258507D01*
X94931Y252541D01*
X87949Y252541D01*
X87949Y253432D02*
X94931Y253432D01*
X94931Y254323D02*
X87949Y254323D01*
X87949Y255214D02*
X94931Y255214D01*
X94931Y256105D02*
X87949Y256105D01*
X87949Y256996D02*
X94931Y256996D01*
X94931Y257887D02*
X87949Y257887D01*
X87949Y271845D02*
X87949Y277811D01*
X94931Y277811D01*
X94931Y271845D01*
X87949Y271845D01*
X87949Y272736D02*
X94931Y272736D01*
X94931Y273627D02*
X87949Y273627D01*
X87949Y274518D02*
X94931Y274518D01*
X94931Y275409D02*
X87949Y275409D01*
X87949Y276300D02*
X94931Y276300D01*
X94931Y277191D02*
X87949Y277191D01*
X67629Y268159D02*
X67629Y262193D01*
X67629Y268159D02*
X74611Y268159D01*
X74611Y262193D01*
X67629Y262193D01*
X67629Y263084D02*
X74611Y263084D01*
X74611Y263975D02*
X67629Y263975D01*
X67629Y264866D02*
X74611Y264866D01*
X74611Y265757D02*
X67629Y265757D01*
X67629Y266648D02*
X74611Y266648D01*
X74611Y267539D02*
X67629Y267539D01*
D11*
X182345Y161763D02*
X185955Y161763D01*
X182345Y161763D02*
X182345Y163357D01*
X185955Y163357D01*
X185955Y161763D01*
X185955Y143983D02*
X182345Y143983D01*
X182345Y145577D01*
X185955Y145577D01*
X185955Y143983D01*
D20*
X182069Y324489D02*
X181711Y324489D01*
X182069Y324489D02*
X182069Y319931D01*
X181711Y319931D01*
X181711Y324489D01*
X181711Y321357D02*
X182069Y321357D01*
X182069Y322783D02*
X181711Y322783D01*
X181711Y324209D02*
X182069Y324209D01*
X186711Y324489D02*
X187069Y324489D01*
X187069Y319931D01*
X186711Y319931D01*
X186711Y324489D01*
X186711Y321357D02*
X187069Y321357D01*
X187069Y322783D02*
X186711Y322783D01*
X186711Y324209D02*
X187069Y324209D01*
X191711Y324489D02*
X192069Y324489D01*
X192069Y319931D01*
X191711Y319931D01*
X191711Y324489D01*
X191711Y321357D02*
X192069Y321357D01*
X192069Y322783D02*
X191711Y322783D01*
X191711Y324209D02*
X192069Y324209D01*
X196711Y324489D02*
X197069Y324489D01*
X197069Y319931D01*
X196711Y319931D01*
X196711Y324489D01*
X196711Y321357D02*
X197069Y321357D01*
X197069Y322783D02*
X196711Y322783D01*
X196711Y324209D02*
X197069Y324209D01*
X201711Y324489D02*
X202069Y324489D01*
X202069Y319931D01*
X201711Y319931D01*
X201711Y324489D01*
X201711Y321357D02*
X202069Y321357D01*
X202069Y322783D02*
X201711Y322783D01*
X201711Y324209D02*
X202069Y324209D01*
X206711Y324489D02*
X207069Y324489D01*
X207069Y319931D01*
X206711Y319931D01*
X206711Y324489D01*
X206711Y321357D02*
X207069Y321357D01*
X207069Y322783D02*
X206711Y322783D01*
X206711Y324209D02*
X207069Y324209D01*
X211711Y324489D02*
X212069Y324489D01*
X212069Y319931D01*
X211711Y319931D01*
X211711Y324489D01*
X211711Y321357D02*
X212069Y321357D01*
X212069Y322783D02*
X211711Y322783D01*
X211711Y324209D02*
X212069Y324209D01*
X216711Y324489D02*
X217069Y324489D01*
X217069Y319931D01*
X216711Y319931D01*
X216711Y324489D01*
X216711Y321357D02*
X217069Y321357D01*
X217069Y322783D02*
X216711Y322783D01*
X216711Y324209D02*
X217069Y324209D01*
X221611Y329031D02*
X221611Y329389D01*
X226169Y329389D01*
X226169Y329031D01*
X221611Y329031D01*
X221611Y334031D02*
X221611Y334389D01*
X226169Y334389D01*
X226169Y334031D01*
X221611Y334031D01*
X221611Y339031D02*
X221611Y339389D01*
X226169Y339389D01*
X226169Y339031D01*
X221611Y339031D01*
X221611Y344031D02*
X221611Y344389D01*
X226169Y344389D01*
X226169Y344031D01*
X221611Y344031D01*
X221611Y349031D02*
X221611Y349389D01*
X226169Y349389D01*
X226169Y349031D01*
X221611Y349031D01*
X221611Y354031D02*
X221611Y354389D01*
X226169Y354389D01*
X226169Y354031D01*
X221611Y354031D01*
X221611Y359031D02*
X221611Y359389D01*
X226169Y359389D01*
X226169Y359031D01*
X221611Y359031D01*
X221611Y364031D02*
X221611Y364389D01*
X226169Y364389D01*
X226169Y364031D01*
X221611Y364031D01*
X217069Y373489D02*
X216711Y373489D01*
X217069Y373489D02*
X217069Y368931D01*
X216711Y368931D01*
X216711Y373489D01*
X216711Y370357D02*
X217069Y370357D01*
X217069Y371783D02*
X216711Y371783D01*
X216711Y373209D02*
X217069Y373209D01*
X212069Y373489D02*
X211711Y373489D01*
X212069Y373489D02*
X212069Y368931D01*
X211711Y368931D01*
X211711Y373489D01*
X211711Y370357D02*
X212069Y370357D01*
X212069Y371783D02*
X211711Y371783D01*
X211711Y373209D02*
X212069Y373209D01*
X207069Y373489D02*
X206711Y373489D01*
X207069Y373489D02*
X207069Y368931D01*
X206711Y368931D01*
X206711Y373489D01*
X206711Y370357D02*
X207069Y370357D01*
X207069Y371783D02*
X206711Y371783D01*
X206711Y373209D02*
X207069Y373209D01*
X202069Y373489D02*
X201711Y373489D01*
X202069Y373489D02*
X202069Y368931D01*
X201711Y368931D01*
X201711Y373489D01*
X201711Y370357D02*
X202069Y370357D01*
X202069Y371783D02*
X201711Y371783D01*
X201711Y373209D02*
X202069Y373209D01*
X197069Y373489D02*
X196711Y373489D01*
X197069Y373489D02*
X197069Y368931D01*
X196711Y368931D01*
X196711Y373489D01*
X196711Y370357D02*
X197069Y370357D01*
X197069Y371783D02*
X196711Y371783D01*
X196711Y373209D02*
X197069Y373209D01*
X192069Y373489D02*
X191711Y373489D01*
X192069Y373489D02*
X192069Y368931D01*
X191711Y368931D01*
X191711Y373489D01*
X191711Y370357D02*
X192069Y370357D01*
X192069Y371783D02*
X191711Y371783D01*
X191711Y373209D02*
X192069Y373209D01*
X187069Y373489D02*
X186711Y373489D01*
X187069Y373489D02*
X187069Y368931D01*
X186711Y368931D01*
X186711Y373489D01*
X186711Y370357D02*
X187069Y370357D01*
X187069Y371783D02*
X186711Y371783D01*
X186711Y373209D02*
X187069Y373209D01*
X182069Y373489D02*
X181711Y373489D01*
X182069Y373489D02*
X182069Y368931D01*
X181711Y368931D01*
X181711Y373489D01*
X181711Y370357D02*
X182069Y370357D01*
X182069Y371783D02*
X181711Y371783D01*
X181711Y373209D02*
X182069Y373209D01*
X172611Y364389D02*
X172611Y364031D01*
X172611Y364389D02*
X177169Y364389D01*
X177169Y364031D01*
X172611Y364031D01*
X172611Y359389D02*
X172611Y359031D01*
X172611Y359389D02*
X177169Y359389D01*
X177169Y359031D01*
X172611Y359031D01*
X172611Y354389D02*
X172611Y354031D01*
X172611Y354389D02*
X177169Y354389D01*
X177169Y354031D01*
X172611Y354031D01*
X172611Y349389D02*
X172611Y349031D01*
X172611Y349389D02*
X177169Y349389D01*
X177169Y349031D01*
X172611Y349031D01*
X172611Y344389D02*
X172611Y344031D01*
X172611Y344389D02*
X177169Y344389D01*
X177169Y344031D01*
X172611Y344031D01*
X172611Y339389D02*
X172611Y339031D01*
X172611Y339389D02*
X177169Y339389D01*
X177169Y339031D01*
X172611Y339031D01*
X172611Y334389D02*
X172611Y334031D01*
X172611Y334389D02*
X177169Y334389D01*
X177169Y334031D01*
X172611Y334031D01*
X172611Y329389D02*
X172611Y329031D01*
X172611Y329389D02*
X177169Y329389D01*
X177169Y329031D01*
X172611Y329031D01*
D21*
X199390Y346710D03*
D11*
X271307Y300255D02*
X271307Y296645D01*
X269713Y296645D01*
X269713Y300255D01*
X271307Y300255D01*
X289087Y300255D02*
X289087Y296645D01*
X287493Y296645D01*
X287493Y300255D01*
X289087Y300255D01*
D22*
X141043Y397743D02*
X132957Y397743D01*
X141043Y397743D02*
X141043Y389657D01*
X132957Y389657D01*
X132957Y397743D01*
X132957Y390554D02*
X141043Y390554D01*
X141043Y391451D02*
X132957Y391451D01*
X132957Y392348D02*
X141043Y392348D01*
X141043Y393245D02*
X132957Y393245D01*
X132957Y394142D02*
X141043Y394142D01*
X141043Y395039D02*
X132957Y395039D01*
X132957Y395936D02*
X141043Y395936D01*
X141043Y396833D02*
X132957Y396833D01*
X132957Y397730D02*
X141043Y397730D01*
X121043Y397743D02*
X112957Y397743D01*
X121043Y397743D02*
X121043Y389657D01*
X112957Y389657D01*
X112957Y397743D01*
X112957Y390554D02*
X121043Y390554D01*
X121043Y391451D02*
X112957Y391451D01*
X112957Y392348D02*
X121043Y392348D01*
X121043Y393245D02*
X112957Y393245D01*
X112957Y394142D02*
X121043Y394142D01*
X121043Y395039D02*
X112957Y395039D01*
X112957Y395936D02*
X121043Y395936D01*
X121043Y396833D02*
X112957Y396833D01*
X112957Y397730D02*
X121043Y397730D01*
X132957Y340593D02*
X141043Y340593D01*
X141043Y332507D01*
X132957Y332507D01*
X132957Y340593D01*
X132957Y333404D02*
X141043Y333404D01*
X141043Y334301D02*
X132957Y334301D01*
X132957Y335198D02*
X141043Y335198D01*
X141043Y336095D02*
X132957Y336095D01*
X132957Y336992D02*
X141043Y336992D01*
X141043Y337889D02*
X132957Y337889D01*
X132957Y338786D02*
X141043Y338786D01*
X141043Y339683D02*
X132957Y339683D01*
X132957Y340580D02*
X141043Y340580D01*
X121043Y340593D02*
X112957Y340593D01*
X121043Y340593D02*
X121043Y332507D01*
X112957Y332507D01*
X112957Y340593D01*
X112957Y333404D02*
X121043Y333404D01*
X121043Y334301D02*
X112957Y334301D01*
X112957Y335198D02*
X121043Y335198D01*
X121043Y336095D02*
X112957Y336095D01*
X112957Y336992D02*
X121043Y336992D01*
X121043Y337889D02*
X112957Y337889D01*
X112957Y338786D02*
X121043Y338786D01*
X121043Y339683D02*
X112957Y339683D01*
X112957Y340580D02*
X121043Y340580D01*
X92243Y454893D02*
X82157Y454893D01*
X92243Y454893D02*
X92243Y446807D01*
X82157Y446807D01*
X82157Y454893D01*
X82157Y447704D02*
X92243Y447704D01*
X92243Y448601D02*
X82157Y448601D01*
X82157Y449498D02*
X92243Y449498D01*
X92243Y450395D02*
X82157Y450395D01*
X82157Y451292D02*
X92243Y451292D01*
X92243Y452189D02*
X82157Y452189D01*
X82157Y453086D02*
X92243Y453086D01*
X92243Y453983D02*
X82157Y453983D01*
X82157Y454880D02*
X92243Y454880D01*
X70243Y454893D02*
X60157Y454893D01*
X70243Y454893D02*
X70243Y446807D01*
X60157Y446807D01*
X60157Y454893D01*
X60157Y447704D02*
X70243Y447704D01*
X70243Y448601D02*
X60157Y448601D01*
X60157Y449498D02*
X70243Y449498D01*
X70243Y450395D02*
X60157Y450395D01*
X60157Y451292D02*
X70243Y451292D01*
X70243Y452189D02*
X60157Y452189D01*
X60157Y453086D02*
X70243Y453086D01*
X70243Y453983D02*
X60157Y453983D01*
X60157Y454880D02*
X70243Y454880D01*
D23*
X267048Y266159D02*
X276512Y266159D01*
X267048Y266159D02*
X267048Y279941D01*
X276512Y279941D01*
X276512Y266159D01*
X276512Y267210D02*
X267048Y267210D01*
X267048Y268261D02*
X276512Y268261D01*
X276512Y269312D02*
X267048Y269312D01*
X267048Y270363D02*
X276512Y270363D01*
X276512Y271414D02*
X267048Y271414D01*
X267048Y272465D02*
X276512Y272465D01*
X276512Y273516D02*
X267048Y273516D01*
X267048Y274567D02*
X276512Y274567D01*
X276512Y275618D02*
X267048Y275618D01*
X267048Y276669D02*
X276512Y276669D01*
X276512Y277720D02*
X267048Y277720D01*
X267048Y278771D02*
X276512Y278771D01*
X276512Y279822D02*
X267048Y279822D01*
X282288Y266159D02*
X291752Y266159D01*
X282288Y266159D02*
X282288Y279941D01*
X291752Y279941D01*
X291752Y266159D01*
X291752Y267210D02*
X282288Y267210D01*
X282288Y268261D02*
X291752Y268261D01*
X291752Y269312D02*
X282288Y269312D01*
X282288Y270363D02*
X291752Y270363D01*
X291752Y271414D02*
X282288Y271414D01*
X282288Y272465D02*
X291752Y272465D01*
X291752Y273516D02*
X282288Y273516D01*
X282288Y274567D02*
X291752Y274567D01*
X291752Y275618D02*
X282288Y275618D01*
X282288Y276669D02*
X291752Y276669D01*
X291752Y277720D02*
X282288Y277720D01*
X282288Y278771D02*
X291752Y278771D01*
X291752Y279822D02*
X282288Y279822D01*
D11*
X420843Y229135D02*
X422437Y229135D01*
X422437Y225525D01*
X420843Y225525D01*
X420843Y229135D01*
X404657Y229135D02*
X403063Y229135D01*
X404657Y229135D02*
X404657Y225525D01*
X403063Y225525D01*
X403063Y229135D01*
D24*
X270306Y404106D02*
X270306Y407294D01*
X274994Y407294D01*
X274994Y404106D01*
X270306Y404106D01*
X270306Y404902D02*
X274994Y404902D01*
X274994Y405698D02*
X270306Y405698D01*
X270306Y406494D02*
X274994Y406494D01*
X274994Y407290D02*
X270306Y407290D01*
X270306Y399294D02*
X270306Y396106D01*
X270306Y399294D02*
X274994Y399294D01*
X274994Y396106D01*
X270306Y396106D01*
X270306Y396902D02*
X274994Y396902D01*
X274994Y397698D02*
X270306Y397698D01*
X270306Y398494D02*
X274994Y398494D01*
X274994Y399290D02*
X270306Y399290D01*
X270306Y391294D02*
X270306Y388106D01*
X270306Y391294D02*
X274994Y391294D01*
X274994Y388106D01*
X270306Y388106D01*
X270306Y388902D02*
X274994Y388902D01*
X274994Y389698D02*
X270306Y389698D01*
X270306Y390494D02*
X274994Y390494D01*
X274994Y391290D02*
X270306Y391290D01*
X270306Y383294D02*
X270306Y380106D01*
X270306Y383294D02*
X274994Y383294D01*
X274994Y380106D01*
X270306Y380106D01*
X270306Y380902D02*
X274994Y380902D01*
X274994Y381698D02*
X270306Y381698D01*
X270306Y382494D02*
X274994Y382494D01*
X274994Y383290D02*
X270306Y383290D01*
X283806Y383294D02*
X283806Y380106D01*
X283806Y383294D02*
X288494Y383294D01*
X288494Y380106D01*
X283806Y380106D01*
X283806Y380902D02*
X288494Y380902D01*
X288494Y381698D02*
X283806Y381698D01*
X283806Y382494D02*
X288494Y382494D01*
X288494Y383290D02*
X283806Y383290D01*
X283806Y388106D02*
X283806Y391294D01*
X288494Y391294D01*
X288494Y388106D01*
X283806Y388106D01*
X283806Y388902D02*
X288494Y388902D01*
X288494Y389698D02*
X283806Y389698D01*
X283806Y390494D02*
X288494Y390494D01*
X288494Y391290D02*
X283806Y391290D01*
X283806Y396106D02*
X283806Y399294D01*
X288494Y399294D01*
X288494Y396106D01*
X283806Y396106D01*
X283806Y396902D02*
X288494Y396902D01*
X288494Y397698D02*
X283806Y397698D01*
X283806Y398494D02*
X288494Y398494D01*
X288494Y399290D02*
X283806Y399290D01*
X283806Y404106D02*
X283806Y407294D01*
X288494Y407294D01*
X288494Y404106D01*
X283806Y404106D01*
X283806Y404902D02*
X288494Y404902D01*
X288494Y405698D02*
X283806Y405698D01*
X283806Y406494D02*
X288494Y406494D01*
X288494Y407290D02*
X283806Y407290D01*
X288494Y228354D02*
X288494Y225166D01*
X283806Y225166D01*
X283806Y228354D01*
X288494Y228354D01*
X288494Y225962D02*
X283806Y225962D01*
X283806Y226758D02*
X288494Y226758D01*
X288494Y227554D02*
X283806Y227554D01*
X283806Y228350D02*
X288494Y228350D01*
X288494Y233166D02*
X288494Y236354D01*
X288494Y233166D02*
X283806Y233166D01*
X283806Y236354D01*
X288494Y236354D01*
X288494Y233962D02*
X283806Y233962D01*
X283806Y234758D02*
X288494Y234758D01*
X288494Y235554D02*
X283806Y235554D01*
X283806Y236350D02*
X288494Y236350D01*
X288494Y241166D02*
X288494Y244354D01*
X288494Y241166D02*
X283806Y241166D01*
X283806Y244354D01*
X288494Y244354D01*
X288494Y241962D02*
X283806Y241962D01*
X283806Y242758D02*
X288494Y242758D01*
X288494Y243554D02*
X283806Y243554D01*
X283806Y244350D02*
X288494Y244350D01*
X288494Y249166D02*
X288494Y252354D01*
X288494Y249166D02*
X283806Y249166D01*
X283806Y252354D01*
X288494Y252354D01*
X288494Y249962D02*
X283806Y249962D01*
X283806Y250758D02*
X288494Y250758D01*
X288494Y251554D02*
X283806Y251554D01*
X283806Y252350D02*
X288494Y252350D01*
X274994Y252354D02*
X274994Y249166D01*
X270306Y249166D01*
X270306Y252354D01*
X274994Y252354D01*
X274994Y249962D02*
X270306Y249962D01*
X270306Y250758D02*
X274994Y250758D01*
X274994Y251554D02*
X270306Y251554D01*
X270306Y252350D02*
X274994Y252350D01*
X274994Y244354D02*
X274994Y241166D01*
X270306Y241166D01*
X270306Y244354D01*
X274994Y244354D01*
X274994Y241962D02*
X270306Y241962D01*
X270306Y242758D02*
X274994Y242758D01*
X274994Y243554D02*
X270306Y243554D01*
X270306Y244350D02*
X274994Y244350D01*
X274994Y236354D02*
X274994Y233166D01*
X270306Y233166D01*
X270306Y236354D01*
X274994Y236354D01*
X274994Y233962D02*
X270306Y233962D01*
X270306Y234758D02*
X274994Y234758D01*
X274994Y235554D02*
X270306Y235554D01*
X270306Y236350D02*
X274994Y236350D01*
X274994Y228354D02*
X274994Y225166D01*
X270306Y225166D01*
X270306Y228354D01*
X274994Y228354D01*
X274994Y225962D02*
X270306Y225962D01*
X270306Y226758D02*
X274994Y226758D01*
X274994Y227554D02*
X270306Y227554D01*
X270306Y228350D02*
X274994Y228350D01*
D11*
X449107Y226795D02*
X449107Y230405D01*
X449107Y226795D02*
X447513Y226795D01*
X447513Y230405D01*
X449107Y230405D01*
X466887Y230405D02*
X466887Y226795D01*
X465293Y226795D01*
X465293Y230405D01*
X466887Y230405D01*
X135093Y417295D02*
X135093Y420905D01*
X136687Y420905D01*
X136687Y417295D01*
X135093Y417295D01*
X117313Y417295D02*
X117313Y420905D01*
X118907Y420905D01*
X118907Y417295D01*
X117313Y417295D01*
D24*
X593294Y327414D02*
X593294Y324226D01*
X588606Y324226D01*
X588606Y327414D01*
X593294Y327414D01*
X593294Y325022D02*
X588606Y325022D01*
X588606Y325818D02*
X593294Y325818D01*
X593294Y326614D02*
X588606Y326614D01*
X588606Y327410D02*
X593294Y327410D01*
X593294Y332226D02*
X593294Y335414D01*
X593294Y332226D02*
X588606Y332226D01*
X588606Y335414D01*
X593294Y335414D01*
X593294Y333022D02*
X588606Y333022D01*
X588606Y333818D02*
X593294Y333818D01*
X593294Y334614D02*
X588606Y334614D01*
X588606Y335410D02*
X593294Y335410D01*
X593294Y340226D02*
X593294Y343414D01*
X593294Y340226D02*
X588606Y340226D01*
X588606Y343414D01*
X593294Y343414D01*
X593294Y341022D02*
X588606Y341022D01*
X588606Y341818D02*
X593294Y341818D01*
X593294Y342614D02*
X588606Y342614D01*
X588606Y343410D02*
X593294Y343410D01*
X593294Y348226D02*
X593294Y351414D01*
X593294Y348226D02*
X588606Y348226D01*
X588606Y351414D01*
X593294Y351414D01*
X593294Y349022D02*
X588606Y349022D01*
X588606Y349818D02*
X593294Y349818D01*
X593294Y350614D02*
X588606Y350614D01*
X588606Y351410D02*
X593294Y351410D01*
X579794Y351414D02*
X579794Y348226D01*
X575106Y348226D01*
X575106Y351414D01*
X579794Y351414D01*
X579794Y349022D02*
X575106Y349022D01*
X575106Y349818D02*
X579794Y349818D01*
X579794Y350614D02*
X575106Y350614D01*
X575106Y351410D02*
X579794Y351410D01*
X579794Y343414D02*
X579794Y340226D01*
X575106Y340226D01*
X575106Y343414D01*
X579794Y343414D01*
X579794Y341022D02*
X575106Y341022D01*
X575106Y341818D02*
X579794Y341818D01*
X579794Y342614D02*
X575106Y342614D01*
X575106Y343410D02*
X579794Y343410D01*
X579794Y335414D02*
X579794Y332226D01*
X575106Y332226D01*
X575106Y335414D01*
X579794Y335414D01*
X579794Y333022D02*
X575106Y333022D01*
X575106Y333818D02*
X579794Y333818D01*
X579794Y334614D02*
X575106Y334614D01*
X575106Y335410D02*
X579794Y335410D01*
X579794Y327414D02*
X579794Y324226D01*
X575106Y324226D01*
X575106Y327414D01*
X579794Y327414D01*
X579794Y325022D02*
X575106Y325022D01*
X575106Y325818D02*
X579794Y325818D01*
X579794Y326614D02*
X575106Y326614D01*
X575106Y327410D02*
X579794Y327410D01*
X137364Y354706D02*
X137364Y357894D01*
X137364Y354706D02*
X132676Y354706D01*
X132676Y357894D01*
X137364Y357894D01*
X137364Y355502D02*
X132676Y355502D01*
X132676Y356298D02*
X137364Y356298D01*
X137364Y357094D02*
X132676Y357094D01*
X132676Y357890D02*
X137364Y357890D01*
X137364Y362706D02*
X137364Y365894D01*
X137364Y362706D02*
X132676Y362706D01*
X132676Y365894D01*
X137364Y365894D01*
X137364Y363502D02*
X132676Y363502D01*
X132676Y364298D02*
X137364Y364298D01*
X137364Y365094D02*
X132676Y365094D01*
X132676Y365890D02*
X137364Y365890D01*
X137364Y370706D02*
X137364Y373894D01*
X137364Y370706D02*
X132676Y370706D01*
X132676Y373894D01*
X137364Y373894D01*
X137364Y371502D02*
X132676Y371502D01*
X132676Y372298D02*
X137364Y372298D01*
X137364Y373094D02*
X132676Y373094D01*
X132676Y373890D02*
X137364Y373890D01*
X137364Y378706D02*
X137364Y381894D01*
X137364Y378706D02*
X132676Y378706D01*
X132676Y381894D01*
X137364Y381894D01*
X137364Y379502D02*
X132676Y379502D01*
X132676Y380298D02*
X137364Y380298D01*
X137364Y381094D02*
X132676Y381094D01*
X132676Y381890D02*
X137364Y381890D01*
X123864Y381894D02*
X123864Y378706D01*
X119176Y378706D01*
X119176Y381894D01*
X123864Y381894D01*
X123864Y379502D02*
X119176Y379502D01*
X119176Y380298D02*
X123864Y380298D01*
X123864Y381094D02*
X119176Y381094D01*
X119176Y381890D02*
X123864Y381890D01*
X123864Y373894D02*
X123864Y370706D01*
X119176Y370706D01*
X119176Y373894D01*
X123864Y373894D01*
X123864Y371502D02*
X119176Y371502D01*
X119176Y372298D02*
X123864Y372298D01*
X123864Y373094D02*
X119176Y373094D01*
X119176Y373890D02*
X123864Y373890D01*
X123864Y365894D02*
X123864Y362706D01*
X119176Y362706D01*
X119176Y365894D01*
X123864Y365894D01*
X123864Y363502D02*
X119176Y363502D01*
X119176Y364298D02*
X123864Y364298D01*
X123864Y365094D02*
X119176Y365094D01*
X119176Y365890D02*
X123864Y365890D01*
X123864Y357894D02*
X123864Y354706D01*
X119176Y354706D01*
X119176Y357894D01*
X123864Y357894D01*
X123864Y355502D02*
X119176Y355502D01*
X119176Y356298D02*
X123864Y356298D01*
X123864Y357094D02*
X119176Y357094D01*
X119176Y357890D02*
X123864Y357890D01*
D11*
X253465Y145577D02*
X257075Y145577D01*
X257075Y143983D01*
X253465Y143983D01*
X253465Y145577D01*
X253465Y163357D02*
X257075Y163357D01*
X257075Y161763D01*
X253465Y161763D01*
X253465Y163357D01*
X182407Y294105D02*
X180813Y294105D01*
X180813Y297715D01*
X182407Y297715D01*
X182407Y294105D01*
X198593Y294105D02*
X200187Y294105D01*
X198593Y294105D02*
X198593Y297715D01*
X200187Y297715D01*
X200187Y294105D01*
X168113Y294105D02*
X168113Y297715D01*
X169707Y297715D01*
X169707Y294105D01*
X168113Y294105D01*
X150333Y294105D02*
X150333Y297715D01*
X151927Y297715D01*
X151927Y294105D01*
X150333Y294105D01*
X214157Y294105D02*
X214157Y297715D01*
X214157Y294105D02*
X212563Y294105D01*
X212563Y297715D01*
X214157Y297715D01*
X231937Y297715D02*
X231937Y294105D01*
X230343Y294105D01*
X230343Y297715D01*
X231937Y297715D01*
D25*
X174535Y194095D02*
X174535Y192785D01*
X164225Y192785D01*
X164225Y194095D01*
X174535Y194095D01*
X174535Y193459D02*
X164225Y193459D01*
X174535Y199285D02*
X174535Y200595D01*
X174535Y199285D02*
X164225Y199285D01*
X164225Y200595D01*
X174535Y200595D01*
X174535Y199959D02*
X164225Y199959D01*
X174535Y205785D02*
X174535Y207095D01*
X174535Y205785D02*
X164225Y205785D01*
X164225Y207095D01*
X174535Y207095D01*
X174535Y206459D02*
X164225Y206459D01*
X174535Y212285D02*
X174535Y213595D01*
X174535Y212285D02*
X164225Y212285D01*
X164225Y213595D01*
X174535Y213595D01*
X174535Y212959D02*
X164225Y212959D01*
X216785Y213595D02*
X216785Y212285D01*
X206475Y212285D01*
X206475Y213595D01*
X216785Y213595D01*
X216785Y212959D02*
X206475Y212959D01*
X216785Y207095D02*
X216785Y205785D01*
X206475Y205785D01*
X206475Y207095D01*
X216785Y207095D01*
X216785Y206459D02*
X206475Y206459D01*
X216785Y200595D02*
X216785Y199285D01*
X206475Y199285D01*
X206475Y200595D01*
X216785Y200595D01*
X216785Y199959D02*
X206475Y199959D01*
X216785Y194095D02*
X216785Y192785D01*
X206475Y192785D01*
X206475Y194095D01*
X216785Y194095D01*
X216785Y193459D02*
X206475Y193459D01*
D26*
X27855Y511175D02*
X15145Y511175D01*
X15145Y521885D01*
X27855Y521885D01*
X27855Y511175D01*
X27855Y513064D02*
X15145Y513064D01*
X15145Y514953D02*
X27855Y514953D01*
X27855Y516842D02*
X15145Y516842D01*
X15145Y518731D02*
X27855Y518731D01*
X27855Y520620D02*
X15145Y520620D01*
X99145Y511175D02*
X111855Y511175D01*
X99145Y511175D02*
X99145Y521885D01*
X111855Y521885D01*
X111855Y511175D01*
X111855Y513064D02*
X99145Y513064D01*
X99145Y514953D02*
X111855Y514953D01*
X111855Y516842D02*
X99145Y516842D01*
X99145Y518731D02*
X111855Y518731D01*
X111855Y520620D02*
X99145Y520620D01*
X27855Y466175D02*
X15145Y466175D01*
X15145Y476885D01*
X27855Y476885D01*
X27855Y466175D01*
X27855Y468064D02*
X15145Y468064D01*
X15145Y469953D02*
X27855Y469953D01*
X27855Y471842D02*
X15145Y471842D01*
X15145Y473731D02*
X27855Y473731D01*
X27855Y475620D02*
X15145Y475620D01*
X99145Y466175D02*
X111855Y466175D01*
X99145Y466175D02*
X99145Y476885D01*
X111855Y476885D01*
X111855Y466175D01*
X111855Y468064D02*
X99145Y468064D01*
X99145Y469953D02*
X111855Y469953D01*
X111855Y471842D02*
X99145Y471842D01*
X99145Y473731D02*
X111855Y473731D01*
X111855Y475620D02*
X99145Y475620D01*
D27*
X20955Y494030D03*
D28*
X405293Y257963D02*
X405293Y239877D01*
X400207Y239877D01*
X400207Y257963D01*
X405293Y257963D01*
X405293Y240774D02*
X400207Y240774D01*
X400207Y241671D02*
X405293Y241671D01*
X405293Y242568D02*
X400207Y242568D01*
X400207Y243465D02*
X405293Y243465D01*
X405293Y244362D02*
X400207Y244362D01*
X400207Y245259D02*
X405293Y245259D01*
X405293Y246156D02*
X400207Y246156D01*
X400207Y247053D02*
X405293Y247053D01*
X405293Y247950D02*
X400207Y247950D01*
X400207Y248847D02*
X405293Y248847D01*
X405293Y249744D02*
X400207Y249744D01*
X400207Y250641D02*
X405293Y250641D01*
X405293Y251538D02*
X400207Y251538D01*
X400207Y252435D02*
X405293Y252435D01*
X405293Y253332D02*
X400207Y253332D01*
X400207Y254229D02*
X405293Y254229D01*
X405293Y255126D02*
X400207Y255126D01*
X400207Y256023D02*
X405293Y256023D01*
X405293Y256920D02*
X400207Y256920D01*
X400207Y257817D02*
X405293Y257817D01*
X415293Y257963D02*
X415293Y239877D01*
X410207Y239877D01*
X410207Y257963D01*
X415293Y257963D01*
X415293Y240774D02*
X410207Y240774D01*
X410207Y241671D02*
X415293Y241671D01*
X415293Y242568D02*
X410207Y242568D01*
X410207Y243465D02*
X415293Y243465D01*
X415293Y244362D02*
X410207Y244362D01*
X410207Y245259D02*
X415293Y245259D01*
X415293Y246156D02*
X410207Y246156D01*
X410207Y247053D02*
X415293Y247053D01*
X415293Y247950D02*
X410207Y247950D01*
X410207Y248847D02*
X415293Y248847D01*
X415293Y249744D02*
X410207Y249744D01*
X410207Y250641D02*
X415293Y250641D01*
X415293Y251538D02*
X410207Y251538D01*
X410207Y252435D02*
X415293Y252435D01*
X415293Y253332D02*
X410207Y253332D01*
X410207Y254229D02*
X415293Y254229D01*
X415293Y255126D02*
X410207Y255126D01*
X410207Y256023D02*
X415293Y256023D01*
X415293Y256920D02*
X410207Y256920D01*
X410207Y257817D02*
X415293Y257817D01*
X425293Y257963D02*
X425293Y239877D01*
X420207Y239877D01*
X420207Y257963D01*
X425293Y257963D01*
X425293Y240774D02*
X420207Y240774D01*
X420207Y241671D02*
X425293Y241671D01*
X425293Y242568D02*
X420207Y242568D01*
X420207Y243465D02*
X425293Y243465D01*
X425293Y244362D02*
X420207Y244362D01*
X420207Y245259D02*
X425293Y245259D01*
X425293Y246156D02*
X420207Y246156D01*
X420207Y247053D02*
X425293Y247053D01*
X425293Y247950D02*
X420207Y247950D01*
X420207Y248847D02*
X425293Y248847D01*
X425293Y249744D02*
X420207Y249744D01*
X420207Y250641D02*
X425293Y250641D01*
X425293Y251538D02*
X420207Y251538D01*
X420207Y252435D02*
X425293Y252435D01*
X425293Y253332D02*
X420207Y253332D01*
X420207Y254229D02*
X425293Y254229D01*
X425293Y255126D02*
X420207Y255126D01*
X420207Y256023D02*
X425293Y256023D01*
X425293Y256920D02*
X420207Y256920D01*
X420207Y257817D02*
X425293Y257817D01*
D29*
X201621Y163739D02*
X201621Y160061D01*
X201621Y163739D02*
X211799Y163739D01*
X211799Y160061D01*
X201621Y160061D01*
X201621Y160867D02*
X211799Y160867D01*
X211799Y161673D02*
X201621Y161673D01*
X201621Y162479D02*
X211799Y162479D01*
X211799Y163285D02*
X201621Y163285D01*
X201621Y154239D02*
X201621Y150561D01*
X201621Y154239D02*
X211799Y154239D01*
X211799Y150561D01*
X201621Y150561D01*
X201621Y151367D02*
X211799Y151367D01*
X211799Y152173D02*
X201621Y152173D01*
X201621Y152979D02*
X211799Y152979D01*
X211799Y153785D02*
X201621Y153785D01*
X201621Y144739D02*
X201621Y141061D01*
X201621Y144739D02*
X211799Y144739D01*
X211799Y141061D01*
X201621Y141061D01*
X201621Y141867D02*
X211799Y141867D01*
X211799Y142673D02*
X201621Y142673D01*
X201621Y143479D02*
X211799Y143479D01*
X211799Y144285D02*
X201621Y144285D01*
X227621Y144739D02*
X227621Y141061D01*
X227621Y144739D02*
X237799Y144739D01*
X237799Y141061D01*
X227621Y141061D01*
X227621Y141867D02*
X237799Y141867D01*
X237799Y142673D02*
X227621Y142673D01*
X227621Y143479D02*
X237799Y143479D01*
X237799Y144285D02*
X227621Y144285D01*
X227621Y160061D02*
X227621Y163739D01*
X237799Y163739D01*
X237799Y160061D01*
X227621Y160061D01*
X227621Y160867D02*
X237799Y160867D01*
X237799Y161673D02*
X227621Y161673D01*
X227621Y162479D02*
X237799Y162479D01*
X237799Y163285D02*
X227621Y163285D01*
D12*
X586690Y290730D02*
X586690Y302070D01*
X602030Y302070D01*
X602030Y290730D01*
X586690Y290730D01*
X586690Y291989D02*
X602030Y291989D01*
X602030Y293248D02*
X586690Y293248D01*
X586690Y294507D02*
X602030Y294507D01*
X602030Y295766D02*
X586690Y295766D01*
X586690Y297025D02*
X602030Y297025D01*
X602030Y298284D02*
X586690Y298284D01*
X586690Y299543D02*
X602030Y299543D01*
X602030Y300802D02*
X586690Y300802D01*
X586690Y302061D02*
X602030Y302061D01*
X586690Y268070D02*
X586690Y256730D01*
X586690Y268070D02*
X602030Y268070D01*
X602030Y256730D01*
X586690Y256730D01*
X586690Y257989D02*
X602030Y257989D01*
X602030Y259248D02*
X586690Y259248D01*
X586690Y260507D02*
X602030Y260507D01*
X602030Y261766D02*
X586690Y261766D01*
X586690Y263025D02*
X602030Y263025D01*
X602030Y264284D02*
X586690Y264284D01*
X586690Y265543D02*
X602030Y265543D01*
X602030Y266802D02*
X586690Y266802D01*
X586690Y268061D02*
X602030Y268061D01*
X138480Y439610D02*
X138480Y450950D01*
X138480Y439610D02*
X123140Y439610D01*
X123140Y450950D01*
X138480Y450950D01*
X138480Y440869D02*
X123140Y440869D01*
X123140Y442128D02*
X138480Y442128D01*
X138480Y443387D02*
X123140Y443387D01*
X123140Y444646D02*
X138480Y444646D01*
X138480Y445905D02*
X123140Y445905D01*
X123140Y447164D02*
X138480Y447164D01*
X138480Y448423D02*
X123140Y448423D01*
X123140Y449682D02*
X138480Y449682D01*
X138480Y450941D02*
X123140Y450941D01*
X138480Y473610D02*
X138480Y484950D01*
X138480Y473610D02*
X123140Y473610D01*
X123140Y484950D01*
X138480Y484950D01*
X138480Y474869D02*
X123140Y474869D01*
X123140Y476128D02*
X138480Y476128D01*
X138480Y477387D02*
X123140Y477387D01*
X123140Y478646D02*
X138480Y478646D01*
X138480Y479905D02*
X123140Y479905D01*
X123140Y481164D02*
X138480Y481164D01*
X138480Y482423D02*
X123140Y482423D01*
X123140Y483682D02*
X138480Y483682D01*
X138480Y484941D02*
X123140Y484941D01*
D22*
X375117Y77237D02*
X385203Y77237D01*
X375117Y77237D02*
X375117Y85323D01*
X385203Y85323D01*
X385203Y77237D01*
X385203Y78134D02*
X375117Y78134D01*
X375117Y79031D02*
X385203Y79031D01*
X385203Y79928D02*
X375117Y79928D01*
X375117Y80825D02*
X385203Y80825D01*
X385203Y81722D02*
X375117Y81722D01*
X375117Y82619D02*
X385203Y82619D01*
X385203Y83516D02*
X375117Y83516D01*
X375117Y84413D02*
X385203Y84413D01*
X385203Y85310D02*
X375117Y85310D01*
X397117Y77237D02*
X407203Y77237D01*
X397117Y77237D02*
X397117Y85323D01*
X407203Y85323D01*
X407203Y77237D01*
X407203Y78134D02*
X397117Y78134D01*
X397117Y79031D02*
X407203Y79031D01*
X407203Y79928D02*
X397117Y79928D01*
X397117Y80825D02*
X407203Y80825D01*
X407203Y81722D02*
X397117Y81722D01*
X397117Y82619D02*
X407203Y82619D01*
X407203Y83516D02*
X397117Y83516D01*
X397117Y84413D02*
X407203Y84413D01*
X407203Y85310D02*
X397117Y85310D01*
D11*
X451323Y103605D02*
X451323Y107215D01*
X452917Y107215D01*
X452917Y103605D01*
X451323Y103605D01*
X433543Y103605D02*
X433543Y107215D01*
X435137Y107215D01*
X435137Y103605D01*
X433543Y103605D01*
M02*
