G04 EAGLE Gerber X2 export*
%TF.Part,Single*%
%TF.FileFunction,Legend,Top,1*%
%TF.FilePolarity,Positive*%
%TF.GenerationSoftware,Autodesk,EAGLE,9.0.1*%
%TF.CreationDate,2019-02-14T11:46:10Z*%
G75*
%MOMM*%
%FSLAX34Y34*%
%LPD*%
%AMOC8*
5,1,8,0,0,1.08239X$1,22.5*%
G01*
%ADD10C,0.304800*%
%ADD11C,0.254000*%
%ADD12C,0.177800*%
%ADD13C,0.127000*%
%ADD14C,0.330200*%
%ADD15C,0.152400*%
%ADD16C,0.203200*%
%ADD17C,0.279400*%
%ADD18C,0.482600*%
%ADD19C,0.101600*%
%ADD20R,0.300000X0.150000*%
%ADD21R,0.300000X0.300000*%
%ADD22C,0.076200*%
%ADD23C,0.070000*%
%ADD24R,0.700000X0.300000*%
%ADD25C,0.050800*%
%ADD26C,0.220000*%
%ADD27R,1.574800X0.609600*%


D10*
X600710Y461010D02*
X618490Y461010D01*
X609600Y469900D01*
X600710Y461010D01*
X627380Y469900D02*
X645160Y469900D01*
X636270Y461010D02*
X627380Y469900D01*
X636270Y461010D02*
X645160Y469900D01*
X609600Y467360D02*
X604520Y462280D01*
X609600Y467360D02*
X614680Y462280D01*
X607060Y462280D01*
X610870Y464820D01*
X631190Y468630D02*
X641350Y468630D01*
X636270Y463550D01*
X632460Y467360D01*
X637540Y467360D01*
X636270Y466090D02*
X636270Y464820D01*
X384810Y450850D02*
X303530Y450850D01*
X292100Y462280D01*
X491490Y450850D02*
X572770Y450850D01*
X584200Y462280D01*
D11*
X218440Y487680D02*
X218442Y487780D01*
X218448Y487881D01*
X218458Y487980D01*
X218472Y488080D01*
X218489Y488179D01*
X218511Y488277D01*
X218537Y488374D01*
X218566Y488470D01*
X218599Y488564D01*
X218636Y488658D01*
X218676Y488750D01*
X218720Y488840D01*
X218768Y488928D01*
X218819Y489015D01*
X218873Y489099D01*
X218931Y489181D01*
X218992Y489261D01*
X219056Y489338D01*
X219123Y489413D01*
X219193Y489485D01*
X219266Y489554D01*
X219341Y489620D01*
X219419Y489684D01*
X219499Y489744D01*
X219582Y489801D01*
X219667Y489854D01*
X219754Y489904D01*
X219843Y489951D01*
X219933Y489994D01*
X220025Y490034D01*
X220119Y490070D01*
X220214Y490102D01*
X220310Y490130D01*
X220408Y490155D01*
X220506Y490175D01*
X220605Y490192D01*
X220705Y490205D01*
X220804Y490214D01*
X220905Y490219D01*
X221005Y490220D01*
X221105Y490217D01*
X221206Y490210D01*
X221305Y490199D01*
X221405Y490184D01*
X221503Y490166D01*
X221601Y490143D01*
X221698Y490116D01*
X221793Y490086D01*
X221888Y490052D01*
X221981Y490014D01*
X222072Y489973D01*
X222162Y489928D01*
X222250Y489880D01*
X222336Y489828D01*
X222420Y489773D01*
X222501Y489714D01*
X222580Y489652D01*
X222657Y489588D01*
X222731Y489520D01*
X222802Y489449D01*
X222871Y489376D01*
X222936Y489300D01*
X222999Y489221D01*
X223058Y489140D01*
X223114Y489057D01*
X223167Y488972D01*
X223216Y488884D01*
X223262Y488795D01*
X223304Y488704D01*
X223343Y488611D01*
X223378Y488517D01*
X223409Y488422D01*
X223437Y488325D01*
X223460Y488228D01*
X223480Y488129D01*
X223496Y488030D01*
X223508Y487931D01*
X223516Y487830D01*
X223520Y487730D01*
X223520Y487630D01*
X223516Y487530D01*
X223508Y487429D01*
X223496Y487330D01*
X223480Y487231D01*
X223460Y487132D01*
X223437Y487035D01*
X223409Y486938D01*
X223378Y486843D01*
X223343Y486749D01*
X223304Y486656D01*
X223262Y486565D01*
X223216Y486476D01*
X223167Y486388D01*
X223114Y486303D01*
X223058Y486220D01*
X222999Y486139D01*
X222936Y486060D01*
X222871Y485984D01*
X222802Y485911D01*
X222731Y485840D01*
X222657Y485772D01*
X222580Y485708D01*
X222501Y485646D01*
X222420Y485587D01*
X222336Y485532D01*
X222250Y485480D01*
X222162Y485432D01*
X222072Y485387D01*
X221981Y485346D01*
X221888Y485308D01*
X221793Y485274D01*
X221698Y485244D01*
X221601Y485217D01*
X221503Y485194D01*
X221405Y485176D01*
X221305Y485161D01*
X221206Y485150D01*
X221105Y485143D01*
X221005Y485140D01*
X220905Y485141D01*
X220804Y485146D01*
X220705Y485155D01*
X220605Y485168D01*
X220506Y485185D01*
X220408Y485205D01*
X220310Y485230D01*
X220214Y485258D01*
X220119Y485290D01*
X220025Y485326D01*
X219933Y485366D01*
X219843Y485409D01*
X219754Y485456D01*
X219667Y485506D01*
X219582Y485559D01*
X219499Y485616D01*
X219419Y485676D01*
X219341Y485740D01*
X219266Y485806D01*
X219193Y485875D01*
X219123Y485947D01*
X219056Y486022D01*
X218992Y486099D01*
X218931Y486179D01*
X218873Y486261D01*
X218819Y486345D01*
X218768Y486432D01*
X218720Y486520D01*
X218676Y486610D01*
X218636Y486702D01*
X218599Y486796D01*
X218566Y486890D01*
X218537Y486986D01*
X218511Y487083D01*
X218489Y487181D01*
X218472Y487280D01*
X218458Y487380D01*
X218448Y487479D01*
X218442Y487580D01*
X218440Y487680D01*
D12*
X370459Y56526D02*
X378763Y56526D01*
X370459Y56526D02*
X370459Y50297D01*
X374611Y52373D01*
X376687Y52373D01*
X378763Y50297D01*
X378763Y46145D01*
X376687Y44069D01*
X372535Y44069D01*
X370459Y46145D01*
X383556Y48221D02*
X383556Y56526D01*
X383556Y48221D02*
X387708Y44069D01*
X391861Y48221D01*
X391861Y56526D01*
D13*
X500521Y49869D02*
X500521Y43937D01*
X500521Y49869D02*
X503487Y52835D01*
X506453Y49869D01*
X506453Y43937D01*
X506453Y48386D02*
X500521Y48386D01*
X509876Y45420D02*
X509876Y51352D01*
X511359Y52835D01*
X514325Y52835D01*
X515808Y51352D01*
X515808Y45420D01*
X514325Y43937D01*
X511359Y43937D01*
X509876Y45420D01*
X515808Y51352D01*
D11*
X506730Y62230D02*
X506730Y71721D01*
X511475Y76466D01*
X516221Y71721D01*
X516221Y62230D01*
X516221Y69348D02*
X506730Y69348D01*
X522166Y62230D02*
X522166Y76466D01*
X531657Y62230D01*
X531657Y76466D01*
X537602Y71721D02*
X537602Y62230D01*
X537602Y71721D02*
X542348Y76466D01*
X547093Y71721D01*
X547093Y62230D01*
X547093Y69348D02*
X537602Y69348D01*
X553038Y76466D02*
X553038Y62230D01*
X562529Y62230D01*
X570847Y76466D02*
X575592Y76466D01*
X570847Y76466D02*
X568474Y74093D01*
X568474Y64603D01*
X570847Y62230D01*
X575592Y62230D01*
X577965Y64603D01*
X577965Y74093D01*
X575592Y76466D01*
X591028Y76466D02*
X593401Y74093D01*
X591028Y76466D02*
X586283Y76466D01*
X583910Y74093D01*
X583910Y64603D01*
X586283Y62230D01*
X591028Y62230D01*
X593401Y64603D01*
X593401Y69348D01*
X588656Y69348D01*
X614782Y62230D02*
X619528Y62230D01*
X617155Y62230D02*
X617155Y76466D01*
X614782Y76466D02*
X619528Y76466D01*
X625073Y76466D02*
X625073Y62230D01*
X634564Y62230D02*
X625073Y76466D01*
X634564Y76466D02*
X634564Y62230D01*
X392794Y445412D02*
X392794Y459648D01*
X392794Y445412D02*
X399912Y445412D01*
X402285Y447785D01*
X402285Y457275D01*
X399912Y459648D01*
X392794Y459648D01*
X408230Y445412D02*
X412975Y445412D01*
X410603Y445412D02*
X410603Y459648D01*
X412975Y459648D02*
X408230Y459648D01*
X425639Y459648D02*
X428012Y457275D01*
X425639Y459648D02*
X420893Y459648D01*
X418521Y457275D01*
X418521Y447785D01*
X420893Y445412D01*
X425639Y445412D01*
X428012Y447785D01*
X428012Y452530D01*
X423266Y452530D01*
X433957Y445412D02*
X438702Y445412D01*
X436330Y445412D02*
X436330Y459648D01*
X438702Y459648D02*
X433957Y459648D01*
X448993Y459648D02*
X448993Y445412D01*
X444248Y459648D02*
X453738Y459648D01*
X459684Y454903D02*
X459684Y445412D01*
X459684Y454903D02*
X464429Y459648D01*
X469174Y454903D01*
X469174Y445412D01*
X469174Y452530D02*
X459684Y452530D01*
X475120Y459648D02*
X475120Y445412D01*
X484610Y445412D01*
D14*
X408051Y399090D02*
X408051Y382651D01*
X408051Y399090D02*
X416271Y407310D01*
X424490Y399090D01*
X424490Y382651D01*
X424490Y394981D02*
X408051Y394981D01*
X433778Y399090D02*
X433778Y382651D01*
X433778Y390871D02*
X441997Y399090D01*
X446107Y399090D01*
X471656Y407310D02*
X471656Y382651D01*
X459327Y382651D01*
X455217Y386761D01*
X455217Y394981D01*
X459327Y399090D01*
X471656Y399090D01*
X480944Y399090D02*
X480944Y386761D01*
X485053Y382651D01*
X497383Y382651D01*
X497383Y399090D01*
X506670Y399090D02*
X510780Y399090D01*
X510780Y382651D01*
X506670Y382651D02*
X514890Y382651D01*
X510780Y407310D02*
X510780Y411420D01*
X523822Y399090D02*
X523822Y382651D01*
X523822Y399090D02*
X536151Y399090D01*
X540261Y394981D01*
X540261Y382651D01*
X553658Y382651D02*
X561878Y382651D01*
X565988Y386761D01*
X565988Y394981D01*
X561878Y399090D01*
X553658Y399090D01*
X549548Y394981D01*
X549548Y386761D01*
X553658Y382651D01*
D15*
X243630Y439995D02*
X235156Y439995D01*
X230919Y444232D01*
X235156Y448469D01*
X243630Y448469D01*
X237275Y448469D02*
X237275Y439995D01*
X243630Y453092D02*
X230919Y453092D01*
X230919Y459448D01*
X233038Y461566D01*
X237275Y461566D01*
X239393Y459448D01*
X239393Y453092D01*
X239393Y457329D02*
X243630Y461566D01*
X230919Y466189D02*
X230919Y474663D01*
X230919Y466189D02*
X243630Y466189D01*
X243630Y474663D01*
X237275Y470426D02*
X237275Y466189D01*
X243630Y479287D02*
X230919Y479287D01*
X230919Y487761D01*
X237275Y483524D02*
X237275Y479287D01*
D16*
X613480Y307578D02*
X617039Y311137D01*
X617039Y300460D01*
X613480Y300460D02*
X620598Y300460D01*
D15*
X259600Y461312D02*
X257481Y459194D01*
X257481Y454957D01*
X259600Y452838D01*
X268074Y452838D01*
X270192Y454957D01*
X270192Y459194D01*
X268074Y461312D01*
X263837Y461312D01*
X263837Y457075D01*
X270192Y465935D02*
X257481Y465935D01*
X270192Y474409D01*
X257481Y474409D01*
X257481Y479033D02*
X270192Y479033D01*
X270192Y485388D01*
X268074Y487507D01*
X259600Y487507D01*
X257481Y485388D01*
X257481Y479033D01*
D13*
X-69347Y516255D02*
X-69347Y526424D01*
X-65957Y523034D01*
X-62568Y526424D01*
X-62568Y516255D01*
X-58822Y516255D02*
X-58822Y517950D01*
X-57127Y517950D01*
X-57127Y516255D01*
X-58822Y516255D01*
X-53560Y516255D02*
X-53560Y526424D01*
X-48475Y526424D01*
X-46781Y524729D01*
X-46781Y523034D01*
X-48475Y521339D01*
X-46781Y519645D01*
X-46781Y517950D01*
X-48475Y516255D01*
X-53560Y516255D01*
X-53560Y521339D02*
X-48475Y521339D01*
X-41340Y523034D02*
X-37951Y523034D01*
X-36256Y521339D01*
X-36256Y516255D01*
X-41340Y516255D01*
X-43035Y517950D01*
X-41340Y519645D01*
X-36256Y519645D01*
X-32511Y523034D02*
X-32511Y516255D01*
X-32511Y523034D02*
X-27426Y523034D01*
X-25731Y521339D01*
X-25731Y516255D01*
X-21986Y523034D02*
X-15207Y523034D01*
X-21986Y516255D01*
X-15207Y516255D01*
X-11461Y523034D02*
X-9767Y523034D01*
X-9767Y516255D01*
X-11461Y516255D02*
X-8072Y516255D01*
X-9767Y526424D02*
X-9767Y528118D01*
X-120978Y507374D02*
X-120978Y497205D01*
X-115893Y497205D01*
X-114198Y498900D01*
X-114198Y505679D01*
X-115893Y507374D01*
X-120978Y507374D01*
X-110453Y498900D02*
X-110453Y497205D01*
X-110453Y498900D02*
X-108758Y498900D01*
X-108758Y497205D01*
X-110453Y497205D01*
X-100106Y507374D02*
X-98412Y505679D01*
X-100106Y507374D02*
X-103496Y507374D01*
X-105191Y505679D01*
X-105191Y498900D01*
X-103496Y497205D01*
X-100106Y497205D01*
X-98412Y498900D01*
X-94666Y498900D02*
X-94666Y503984D01*
X-94666Y498900D02*
X-92971Y497205D01*
X-87887Y497205D01*
X-87887Y503984D01*
X-82447Y503984D02*
X-79057Y503984D01*
X-77362Y502289D01*
X-77362Y497205D01*
X-82447Y497205D01*
X-84141Y498900D01*
X-82447Y500595D01*
X-77362Y500595D01*
X-73617Y503984D02*
X-73617Y497205D01*
X-73617Y500595D02*
X-70227Y503984D01*
X-68533Y503984D01*
X-63152Y505679D02*
X-63152Y498900D01*
X-61457Y497205D01*
X-61457Y503984D02*
X-64846Y503984D01*
X-57830Y503984D02*
X-56135Y503984D01*
X-56135Y497205D01*
X-57830Y497205D02*
X-54440Y497205D01*
X-56135Y507374D02*
X-56135Y509068D01*
X-49119Y497205D02*
X-45729Y497205D01*
X-49119Y497205D02*
X-50814Y498900D01*
X-50814Y502289D01*
X-49119Y503984D01*
X-45729Y503984D01*
X-44035Y502289D01*
X-44035Y500595D01*
X-50814Y500595D01*
X-40289Y507374D02*
X-38594Y507374D01*
X-38594Y497205D01*
X-36900Y497205D02*
X-40289Y497205D01*
X-33273Y507374D02*
X-31578Y507374D01*
X-31578Y497205D01*
X-33273Y497205D02*
X-29883Y497205D01*
X-24562Y497205D02*
X-21172Y497205D01*
X-24562Y497205D02*
X-26256Y498900D01*
X-26256Y502289D01*
X-24562Y503984D01*
X-21172Y503984D01*
X-19477Y502289D01*
X-19477Y500595D01*
X-26256Y500595D01*
X-15732Y497205D02*
X-10647Y497205D01*
X-8953Y498900D01*
X-10647Y500595D01*
X-14037Y500595D01*
X-15732Y502289D01*
X-14037Y503984D01*
X-8953Y503984D01*
X-73617Y459114D02*
X-73617Y448945D01*
X-68533Y448945D01*
X-66838Y450640D01*
X-66838Y457419D01*
X-68533Y459114D01*
X-73617Y459114D01*
X-63092Y450640D02*
X-63092Y448945D01*
X-63092Y450640D02*
X-61397Y450640D01*
X-61397Y448945D01*
X-63092Y448945D01*
X-57830Y448945D02*
X-57830Y459114D01*
X-54440Y455724D01*
X-51051Y459114D01*
X-51051Y448945D01*
X-45611Y448945D02*
X-42221Y448945D01*
X-45611Y448945D02*
X-47305Y450640D01*
X-47305Y454029D01*
X-45611Y455724D01*
X-42221Y455724D01*
X-40526Y454029D01*
X-40526Y452335D01*
X-47305Y452335D01*
X-36781Y459114D02*
X-35086Y459114D01*
X-35086Y448945D01*
X-36781Y448945D02*
X-33391Y448945D01*
X-29764Y459114D02*
X-28070Y459114D01*
X-28070Y448945D01*
X-29764Y448945D02*
X-26375Y448945D01*
X-22748Y455724D02*
X-21053Y455724D01*
X-21053Y448945D01*
X-22748Y448945D02*
X-19358Y448945D01*
X-21053Y459114D02*
X-21053Y460808D01*
X-15732Y448945D02*
X-10647Y448945D01*
X-8953Y450640D01*
X-10647Y452335D01*
X-14037Y452335D01*
X-15732Y454029D01*
X-14037Y455724D01*
X-8953Y455724D01*
D15*
X603703Y439461D02*
X616414Y439461D01*
X603703Y435224D02*
X603703Y443698D01*
X603703Y448321D02*
X616414Y456795D01*
X616414Y448321D02*
X603703Y456795D01*
X629147Y435102D02*
X641858Y435102D01*
X629147Y435102D02*
X629147Y441457D01*
X631266Y443576D01*
X635503Y443576D01*
X637621Y441457D01*
X637621Y435102D01*
X637621Y439339D02*
X641858Y443576D01*
X641858Y456673D02*
X629147Y448199D01*
X629147Y456673D02*
X641858Y448199D01*
D13*
X299105Y368941D02*
X299105Y362077D01*
X296817Y368941D02*
X301393Y368941D01*
X304301Y368941D02*
X308877Y362077D01*
X304301Y362077D02*
X308877Y368941D01*
X296545Y344049D02*
X296545Y337185D01*
X296545Y344049D02*
X299977Y344049D01*
X301121Y342905D01*
X301121Y340617D01*
X299977Y339473D01*
X296545Y339473D01*
X298833Y339473D02*
X301121Y337185D01*
X304029Y344049D02*
X308605Y337185D01*
X304029Y337185D02*
X308605Y344049D01*
X-79116Y473929D02*
X-80811Y475624D01*
X-84201Y475624D01*
X-85896Y473929D01*
X-85896Y467150D01*
X-84201Y465455D01*
X-80811Y465455D01*
X-79116Y467150D01*
X-79116Y470539D01*
X-82506Y470539D01*
X-75371Y467150D02*
X-75371Y465455D01*
X-75371Y467150D02*
X-73676Y467150D01*
X-73676Y465455D01*
X-75371Y465455D01*
X-70109Y465455D02*
X-70109Y475624D01*
X-66719Y472234D01*
X-63330Y475624D01*
X-63330Y465455D01*
X-57889Y472234D02*
X-54500Y472234D01*
X-52805Y470539D01*
X-52805Y465455D01*
X-57889Y465455D01*
X-59584Y467150D01*
X-57889Y468845D01*
X-52805Y468845D01*
X-49060Y472234D02*
X-49060Y465455D01*
X-49060Y468845D02*
X-45670Y472234D01*
X-43975Y472234D01*
X-38594Y473929D02*
X-38594Y467150D01*
X-36899Y465455D01*
X-36899Y472234D02*
X-40289Y472234D01*
X-33273Y472234D02*
X-31578Y472234D01*
X-31578Y465455D01*
X-33273Y465455D02*
X-29883Y465455D01*
X-31578Y475624D02*
X-31578Y477318D01*
X-26256Y472234D02*
X-26256Y465455D01*
X-26256Y472234D02*
X-21172Y472234D01*
X-19477Y470539D01*
X-19477Y465455D01*
X-14037Y465455D02*
X-10647Y465455D01*
X-8953Y467150D01*
X-8953Y470539D01*
X-10647Y472234D01*
X-14037Y472234D01*
X-15732Y470539D01*
X-15732Y467150D01*
X-14037Y465455D01*
D17*
X311277Y562737D02*
X311277Y577736D01*
X316277Y572736D01*
X321276Y577736D01*
X321276Y562737D01*
X327649Y562737D02*
X327649Y572736D01*
X332648Y577736D01*
X337648Y572736D01*
X337648Y562737D01*
X337648Y570236D02*
X327649Y570236D01*
X344020Y562737D02*
X344020Y577736D01*
X344020Y562737D02*
X351520Y562737D01*
X354019Y565237D01*
X354019Y575236D01*
X351520Y577736D01*
X344020Y577736D01*
X360392Y577736D02*
X370391Y577736D01*
X360392Y577736D02*
X360392Y562737D01*
X370391Y562737D01*
X365391Y570236D02*
X360392Y570236D01*
X393135Y562737D02*
X398134Y562737D01*
X395635Y562737D02*
X395635Y577736D01*
X398134Y577736D02*
X393135Y577736D01*
X404049Y577736D02*
X404049Y562737D01*
X414048Y562737D02*
X404049Y577736D01*
X414048Y577736D02*
X414048Y562737D01*
X431927Y564007D02*
X436927Y564007D01*
X434427Y564007D02*
X434427Y579006D01*
X431927Y579006D02*
X436927Y579006D01*
X447841Y579006D02*
X447841Y564007D01*
X442841Y579006D02*
X452841Y579006D01*
X459213Y574006D02*
X459213Y564007D01*
X459213Y574006D02*
X464213Y579006D01*
X469212Y574006D01*
X469212Y564007D01*
X469212Y571506D02*
X459213Y571506D01*
X475585Y564007D02*
X475585Y579006D01*
X475585Y564007D02*
X485584Y564007D01*
X491956Y576506D02*
X491956Y579006D01*
X491956Y576506D02*
X496956Y571506D01*
X501955Y576506D01*
X501955Y579006D01*
X496956Y571506D02*
X496956Y564007D01*
D13*
X-56195Y492134D02*
X-56195Y481965D01*
X-59584Y492134D02*
X-52805Y492134D01*
X-49059Y483660D02*
X-49059Y481965D01*
X-49059Y483660D02*
X-47365Y483660D01*
X-47365Y481965D01*
X-49059Y481965D01*
X-43797Y481965D02*
X-40408Y481965D01*
X-42102Y481965D02*
X-42102Y492134D01*
X-40408Y492134D02*
X-43797Y492134D01*
X-33391Y478575D02*
X-31696Y478575D01*
X-30002Y480270D01*
X-30002Y488744D01*
X-35086Y488744D01*
X-36781Y487049D01*
X-36781Y483660D01*
X-35086Y481965D01*
X-30002Y481965D01*
X-24561Y481965D02*
X-21172Y481965D01*
X-19477Y483660D01*
X-19477Y487049D01*
X-21172Y488744D01*
X-24561Y488744D01*
X-26256Y487049D01*
X-26256Y483660D01*
X-24561Y481965D01*
X-14037Y481965D02*
X-10647Y481965D01*
X-14037Y481965D02*
X-15732Y483660D01*
X-15732Y487049D01*
X-14037Y488744D01*
X-10647Y488744D01*
X-8953Y487049D01*
X-8953Y485355D01*
X-15732Y485355D01*
D18*
X408813Y372260D02*
X408813Y349804D01*
X413304Y345313D01*
X422287Y345313D01*
X426778Y349804D01*
X426778Y372260D01*
X438048Y372260D02*
X438048Y345313D01*
X456013Y345313D02*
X438048Y372260D01*
X456013Y372260D02*
X456013Y345313D01*
X471774Y372260D02*
X480756Y372260D01*
X471774Y372260D02*
X467283Y367769D01*
X467283Y349804D01*
X471774Y345313D01*
X480756Y345313D01*
X485248Y349804D01*
X485248Y367769D01*
X480756Y372260D01*
D15*
X331978Y45212D02*
X319267Y45212D01*
X319267Y51567D01*
X321386Y53686D01*
X325623Y53686D01*
X327741Y51567D01*
X327741Y45212D01*
X327741Y49449D02*
X331978Y53686D01*
X319267Y58309D02*
X319267Y66783D01*
X319267Y58309D02*
X331978Y58309D01*
X331978Y66783D01*
X325623Y62546D02*
X325623Y58309D01*
X319267Y77762D02*
X321386Y79880D01*
X319267Y77762D02*
X319267Y73525D01*
X321386Y71407D01*
X323504Y71407D01*
X325623Y73525D01*
X325623Y77762D01*
X327741Y79880D01*
X329860Y79880D01*
X331978Y77762D01*
X331978Y73525D01*
X329860Y71407D01*
X319267Y84504D02*
X319267Y92978D01*
X319267Y84504D02*
X331978Y84504D01*
X331978Y92978D01*
X325623Y88741D02*
X325623Y84504D01*
X331978Y101838D02*
X319267Y101838D01*
X319267Y97601D02*
X319267Y106075D01*
X347207Y46060D02*
X349326Y43942D01*
X347207Y46060D02*
X347207Y50297D01*
X349326Y52416D01*
X351444Y52416D01*
X353563Y50297D01*
X353563Y48179D01*
X353563Y50297D02*
X355681Y52416D01*
X357800Y52416D01*
X359918Y50297D01*
X359918Y46060D01*
X357800Y43942D01*
X355681Y57039D02*
X347207Y57039D01*
X355681Y57039D02*
X359918Y61276D01*
X355681Y65513D01*
X347207Y65513D01*
X349326Y70137D02*
X347207Y72255D01*
X347207Y76492D01*
X349326Y78610D01*
X351444Y78610D01*
X353563Y76492D01*
X353563Y74373D01*
X353563Y76492D02*
X355681Y78610D01*
X357800Y78610D01*
X359918Y76492D01*
X359918Y72255D01*
X357800Y70137D01*
D16*
X568878Y401066D02*
X568878Y409201D01*
X571589Y409201D02*
X566166Y409201D01*
X575521Y409201D02*
X575521Y401066D01*
X578233Y406489D02*
X575521Y409201D01*
X578233Y406489D02*
X580944Y409201D01*
X580944Y401066D01*
D13*
X525921Y49869D02*
X525921Y43937D01*
X525921Y49869D02*
X528887Y52835D01*
X531853Y49869D01*
X531853Y43937D01*
X531853Y48386D02*
X525921Y48386D01*
X535276Y49869D02*
X538242Y52835D01*
X538242Y43937D01*
X535276Y43937D02*
X541208Y43937D01*
X551321Y43937D02*
X551321Y49869D01*
X554287Y52835D01*
X557253Y49869D01*
X557253Y43937D01*
X557253Y48386D02*
X551321Y48386D01*
X560676Y43937D02*
X566608Y43937D01*
X560676Y43937D02*
X566608Y49869D01*
X566608Y51352D01*
X565125Y52835D01*
X562159Y52835D01*
X560676Y51352D01*
X576721Y49869D02*
X576721Y43937D01*
X576721Y49869D02*
X579687Y52835D01*
X582653Y49869D01*
X582653Y43937D01*
X582653Y48386D02*
X576721Y48386D01*
X586076Y51352D02*
X587559Y52835D01*
X590525Y52835D01*
X592008Y51352D01*
X592008Y49869D01*
X590525Y48386D01*
X589042Y48386D01*
X590525Y48386D02*
X592008Y46903D01*
X592008Y45420D01*
X590525Y43937D01*
X587559Y43937D01*
X586076Y45420D01*
X602121Y43937D02*
X602121Y49869D01*
X605087Y52835D01*
X608053Y49869D01*
X608053Y43937D01*
X608053Y48386D02*
X602121Y48386D01*
X615925Y43937D02*
X615925Y52835D01*
X611476Y48386D01*
X617408Y48386D01*
X627521Y49869D02*
X627521Y43937D01*
X627521Y49869D02*
X630487Y52835D01*
X633453Y49869D01*
X633453Y43937D01*
X633453Y48386D02*
X627521Y48386D01*
X636876Y52835D02*
X642808Y52835D01*
X636876Y52835D02*
X636876Y48386D01*
X639842Y49869D01*
X641325Y49869D01*
X642808Y48386D01*
X642808Y45420D01*
X641325Y43937D01*
X638359Y43937D01*
X636876Y45420D01*
D12*
X444119Y48221D02*
X444119Y56526D01*
X444119Y48221D02*
X448271Y44069D01*
X452423Y48221D01*
X452423Y56526D01*
X457216Y44069D02*
X461368Y44069D01*
X459292Y44069D02*
X459292Y56526D01*
X457216Y56526D02*
X461368Y56526D01*
X465948Y56526D02*
X465948Y44069D01*
X474252Y44069D02*
X465948Y56526D01*
X474252Y56526D02*
X474252Y44069D01*
X409327Y54318D02*
X407251Y56394D01*
X403099Y56394D01*
X401023Y54318D01*
X401023Y46013D01*
X403099Y43937D01*
X407251Y43937D01*
X409327Y46013D01*
X409327Y50165D01*
X405175Y50165D01*
X414120Y43937D02*
X414120Y56394D01*
X422425Y43937D01*
X422425Y56394D01*
X427218Y56394D02*
X427218Y43937D01*
X433446Y43937D01*
X435522Y46013D01*
X435522Y54318D01*
X433446Y56394D01*
X427218Y56394D01*
X286971Y464914D02*
X282818Y469067D01*
X295275Y469067D01*
X295275Y473219D02*
X295275Y464914D01*
X284894Y478012D02*
X282818Y480088D01*
X282818Y484240D01*
X284894Y486316D01*
X286971Y486316D01*
X289047Y484240D01*
X289047Y482164D01*
X289047Y484240D02*
X291123Y486316D01*
X293199Y486316D01*
X295275Y484240D01*
X295275Y480088D01*
X293199Y478012D01*
X308218Y469067D02*
X312371Y464914D01*
X308218Y469067D02*
X320675Y469067D01*
X320675Y473219D02*
X320675Y464914D01*
X320675Y478012D02*
X320675Y486316D01*
X320675Y478012D02*
X312371Y486316D01*
X310294Y486316D01*
X308218Y484240D01*
X308218Y480088D01*
X310294Y478012D01*
X333618Y469067D02*
X337771Y464914D01*
X333618Y469067D02*
X346075Y469067D01*
X346075Y473219D02*
X346075Y464914D01*
X337771Y478012D02*
X333618Y482164D01*
X346075Y482164D01*
X346075Y478012D02*
X346075Y486316D01*
X359018Y469067D02*
X363171Y464914D01*
X359018Y469067D02*
X371475Y469067D01*
X371475Y473219D02*
X371475Y464914D01*
X369399Y478012D02*
X361094Y478012D01*
X359018Y480088D01*
X359018Y484240D01*
X361094Y486316D01*
X369399Y486316D01*
X371475Y484240D01*
X371475Y480088D01*
X369399Y478012D01*
X361094Y486316D01*
X394799Y478012D02*
X396875Y480088D01*
X396875Y484240D01*
X394799Y486316D01*
X386494Y486316D01*
X384418Y484240D01*
X384418Y480088D01*
X386494Y478012D01*
X388571Y478012D01*
X390647Y480088D01*
X390647Y486316D01*
X409818Y480088D02*
X411894Y478012D01*
X409818Y480088D02*
X409818Y484240D01*
X411894Y486316D01*
X413971Y486316D01*
X416047Y484240D01*
X418123Y486316D01*
X420199Y486316D01*
X422275Y484240D01*
X422275Y480088D01*
X420199Y478012D01*
X418123Y478012D01*
X416047Y480088D01*
X413971Y478012D01*
X411894Y478012D01*
X416047Y480088D02*
X416047Y484240D01*
X450458Y486316D02*
X450458Y478012D01*
X450458Y486316D02*
X452534Y486316D01*
X460839Y478012D01*
X462915Y478012D01*
X475858Y486316D02*
X477934Y482164D01*
X482087Y478012D01*
X486239Y478012D01*
X488315Y480088D01*
X488315Y484240D01*
X486239Y486316D01*
X484163Y486316D01*
X482087Y484240D01*
X482087Y478012D01*
X501258Y478012D02*
X501258Y486316D01*
X501258Y478012D02*
X507487Y478012D01*
X505411Y482164D01*
X505411Y484240D01*
X507487Y486316D01*
X511639Y486316D01*
X513715Y484240D01*
X513715Y480088D01*
X511639Y478012D01*
X526658Y484240D02*
X539115Y484240D01*
X532887Y478012D02*
X526658Y484240D01*
X532887Y486316D02*
X532887Y478012D01*
X552058Y480088D02*
X554134Y478012D01*
X552058Y480088D02*
X552058Y484240D01*
X554134Y486316D01*
X556211Y486316D01*
X558287Y484240D01*
X558287Y482164D01*
X558287Y484240D02*
X560363Y486316D01*
X562439Y486316D01*
X564515Y484240D01*
X564515Y480088D01*
X562439Y478012D01*
X589915Y478012D02*
X589915Y486316D01*
X589915Y478012D02*
X581611Y486316D01*
X579534Y486316D01*
X577458Y484240D01*
X577458Y480088D01*
X579534Y478012D01*
X602858Y482164D02*
X607011Y478012D01*
X602858Y482164D02*
X615315Y482164D01*
X615315Y478012D02*
X615315Y486316D01*
X630334Y478012D02*
X638639Y478012D01*
X630334Y478012D02*
X628258Y480088D01*
X628258Y484240D01*
X630334Y486316D01*
X638639Y486316D01*
X640715Y484240D01*
X640715Y480088D01*
X638639Y478012D01*
X630334Y486316D01*
D15*
X412922Y431292D02*
X409702Y431292D01*
X409702Y440952D01*
X412922Y440952D01*
X418173Y440952D02*
X418173Y431292D01*
X421393Y431292D02*
X421393Y440952D01*
X421393Y437732D02*
X416562Y437732D01*
X421393Y437732D02*
X423003Y437732D01*
X423003Y434512D02*
X416562Y434512D01*
X426853Y434512D02*
X433293Y434512D01*
X433293Y437732D02*
X426853Y437732D01*
X437144Y440952D02*
X437144Y431292D01*
X437144Y440952D02*
X441974Y440952D01*
X443584Y439342D01*
X443584Y436122D01*
X441974Y434512D01*
X437144Y434512D01*
X447435Y431292D02*
X447435Y440952D01*
X450655Y434512D02*
X447435Y431292D01*
X450655Y434512D02*
X453875Y431292D01*
X453875Y440952D01*
X457725Y440952D02*
X457725Y431292D01*
X460945Y437732D02*
X457725Y440952D01*
X460945Y437732D02*
X464165Y440952D01*
X464165Y431292D01*
X468016Y431292D02*
X471236Y431292D01*
X471236Y440952D01*
X468016Y440952D01*
X345948Y455762D02*
X336288Y455762D01*
X336288Y458982D02*
X345948Y458982D01*
X339508Y458982D02*
X339508Y454152D01*
X339508Y458982D02*
X339508Y460592D01*
X342728Y460592D02*
X342728Y454152D01*
X361688Y455762D02*
X371348Y455762D01*
X371348Y458982D02*
X361688Y458982D01*
X364908Y458982D02*
X364908Y454152D01*
X364908Y458982D02*
X364908Y460592D01*
X368128Y460592D02*
X368128Y454152D01*
X502658Y468462D02*
X512318Y468462D01*
X512318Y471682D02*
X502658Y471682D01*
X505878Y471682D02*
X505878Y466852D01*
X505878Y471682D02*
X505878Y473292D01*
X509098Y473292D02*
X509098Y466852D01*
X553458Y468462D02*
X563118Y468462D01*
X563118Y471682D02*
X553458Y471682D01*
X556678Y471682D02*
X556678Y466852D01*
X556678Y471682D02*
X556678Y473292D01*
X559898Y473292D02*
X559898Y466852D01*
X488188Y468462D02*
X478528Y468462D01*
X478528Y471682D02*
X488188Y471682D01*
X481748Y471682D02*
X481748Y466852D01*
X481748Y471682D02*
X481748Y473292D01*
X484968Y473292D02*
X484968Y466852D01*
X395478Y468462D02*
X385818Y468462D01*
X385818Y471682D02*
X395478Y471682D01*
X389038Y471682D02*
X389038Y466852D01*
X389038Y471682D02*
X389038Y473292D01*
X392258Y473292D02*
X392258Y466852D01*
D11*
X326390Y334190D02*
X326390Y324530D01*
X329610Y321310D01*
X332830Y324530D01*
X336050Y321310D01*
X339270Y324530D01*
X339270Y334190D01*
X346504Y334190D02*
X346504Y324530D01*
X349724Y321310D01*
X352944Y324530D01*
X356164Y321310D01*
X359384Y324530D01*
X359384Y334190D01*
X366617Y334190D02*
X366617Y324530D01*
X369837Y321310D01*
X373057Y324530D01*
X376278Y321310D01*
X379498Y324530D01*
X379498Y334190D01*
X386731Y324530D02*
X386731Y321310D01*
X386731Y324530D02*
X389951Y324530D01*
X389951Y321310D01*
X386731Y321310D01*
X400008Y334190D02*
X406448Y334190D01*
X409668Y330970D01*
X409668Y321310D01*
X400008Y321310D01*
X396788Y324530D01*
X400008Y327750D01*
X409668Y327750D01*
X416901Y321310D02*
X416901Y334190D01*
X416901Y327750D02*
X423342Y334190D01*
X426562Y334190D01*
X446543Y340631D02*
X446543Y321310D01*
X436883Y321310D01*
X433663Y324530D01*
X433663Y330970D01*
X436883Y334190D01*
X446543Y334190D01*
X453776Y334190D02*
X453776Y324530D01*
X456997Y321310D01*
X466657Y321310D01*
X466657Y334190D01*
X473890Y334190D02*
X477110Y334190D01*
X477110Y321310D01*
X473890Y321310D02*
X480330Y321310D01*
X477110Y340631D02*
X477110Y343851D01*
X487299Y334190D02*
X487299Y321310D01*
X487299Y334190D02*
X496959Y334190D01*
X500180Y330970D01*
X500180Y321310D01*
X510633Y321310D02*
X517073Y321310D01*
X520293Y324530D01*
X520293Y330970D01*
X517073Y334190D01*
X510633Y334190D01*
X507413Y330970D01*
X507413Y324530D01*
X510633Y321310D01*
X527527Y321310D02*
X527527Y324530D01*
X530747Y324530D01*
X530747Y321310D01*
X527527Y321310D01*
X540803Y334190D02*
X550464Y334190D01*
X540803Y334190D02*
X537583Y330970D01*
X537583Y324530D01*
X540803Y321310D01*
X550464Y321310D01*
X560917Y334190D02*
X570577Y334190D01*
X560917Y334190D02*
X557697Y330970D01*
X557697Y324530D01*
X560917Y321310D01*
X570577Y321310D01*
D15*
X310388Y49449D02*
X310388Y45212D01*
X310388Y47330D02*
X297677Y47330D01*
X297677Y45212D02*
X297677Y49449D01*
X297677Y56062D02*
X297677Y60299D01*
X297677Y56062D02*
X299796Y53944D01*
X308270Y53944D01*
X310388Y56062D01*
X310388Y60299D01*
X308270Y62417D01*
X299796Y62417D01*
X297677Y60299D01*
X297677Y67041D02*
X310388Y67041D01*
X297677Y67041D02*
X297677Y73396D01*
X299796Y75515D01*
X304033Y75515D01*
X306151Y73396D01*
X306151Y67041D01*
X306151Y71278D02*
X310388Y75515D01*
X297677Y80138D02*
X297677Y88612D01*
X297677Y80138D02*
X310388Y80138D01*
X310388Y88612D01*
X304033Y84375D02*
X304033Y80138D01*
X310388Y93235D02*
X297677Y93235D01*
X297677Y101709D01*
X304033Y97472D02*
X304033Y93235D01*
X209749Y542925D02*
X211868Y545044D01*
X209749Y542925D02*
X209749Y538688D01*
X211868Y536570D01*
X213986Y536570D01*
X216105Y538688D01*
X216105Y542925D01*
X218223Y545044D01*
X220342Y545044D01*
X222460Y542925D01*
X222460Y538688D01*
X220342Y536570D01*
X222460Y549667D02*
X209749Y549667D01*
X222460Y549667D02*
X222460Y556023D01*
X220342Y558141D01*
X211868Y558141D01*
X209749Y556023D01*
X209749Y549667D01*
X213986Y562765D02*
X222460Y562765D01*
X213986Y562765D02*
X209749Y567001D01*
X213986Y571238D01*
X222460Y571238D01*
X216105Y571238D02*
X216105Y562765D01*
X183928Y546314D02*
X181809Y544195D01*
X181809Y539958D01*
X183928Y537840D01*
X186046Y537840D01*
X188165Y539958D01*
X188165Y544195D01*
X190283Y546314D01*
X192402Y546314D01*
X194520Y544195D01*
X194520Y539958D01*
X192402Y537840D01*
X181809Y557293D02*
X183928Y559411D01*
X181809Y557293D02*
X181809Y553056D01*
X183928Y550937D01*
X192402Y550937D01*
X194520Y553056D01*
X194520Y557293D01*
X192402Y559411D01*
X194520Y564035D02*
X181809Y564035D01*
X194520Y564035D02*
X194520Y572508D01*
X648970Y191770D02*
X648970Y170180D01*
X648812Y170178D01*
X648653Y170172D01*
X648495Y170162D01*
X648338Y170148D01*
X648180Y170131D01*
X648024Y170109D01*
X647867Y170084D01*
X647712Y170054D01*
X647557Y170021D01*
X647403Y169984D01*
X647250Y169943D01*
X647098Y169898D01*
X646948Y169849D01*
X646798Y169797D01*
X646650Y169741D01*
X646503Y169681D01*
X646358Y169618D01*
X646215Y169551D01*
X646073Y169481D01*
X645933Y169407D01*
X645795Y169329D01*
X645659Y169248D01*
X645525Y169164D01*
X645393Y169077D01*
X645263Y168986D01*
X645136Y168892D01*
X645011Y168795D01*
X644888Y168694D01*
X644768Y168591D01*
X644651Y168485D01*
X644536Y168376D01*
X644424Y168264D01*
X644315Y168149D01*
X644209Y168032D01*
X644106Y167912D01*
X644005Y167789D01*
X643908Y167664D01*
X643814Y167537D01*
X643723Y167407D01*
X643636Y167275D01*
X643552Y167141D01*
X643471Y167005D01*
X643393Y166867D01*
X643319Y166727D01*
X643249Y166585D01*
X643182Y166442D01*
X643119Y166297D01*
X643059Y166150D01*
X643003Y166002D01*
X642951Y165852D01*
X642902Y165702D01*
X642857Y165550D01*
X642816Y165397D01*
X642779Y165243D01*
X642746Y165088D01*
X642716Y164933D01*
X642691Y164776D01*
X642669Y164620D01*
X642652Y164462D01*
X642638Y164305D01*
X642628Y164147D01*
X642622Y163988D01*
X642620Y163830D01*
X642622Y163672D01*
X642628Y163513D01*
X642638Y163355D01*
X642652Y163198D01*
X642669Y163040D01*
X642691Y162884D01*
X642716Y162727D01*
X642746Y162572D01*
X642779Y162417D01*
X642816Y162263D01*
X642857Y162110D01*
X642902Y161958D01*
X642951Y161808D01*
X643003Y161658D01*
X643059Y161510D01*
X643119Y161363D01*
X643182Y161218D01*
X643249Y161075D01*
X643319Y160933D01*
X643393Y160793D01*
X643471Y160655D01*
X643552Y160519D01*
X643636Y160385D01*
X643723Y160253D01*
X643814Y160123D01*
X643908Y159996D01*
X644005Y159871D01*
X644106Y159748D01*
X644209Y159628D01*
X644315Y159511D01*
X644424Y159396D01*
X644536Y159284D01*
X644651Y159175D01*
X644768Y159069D01*
X644888Y158966D01*
X645011Y158865D01*
X645136Y158768D01*
X645263Y158674D01*
X645393Y158583D01*
X645525Y158496D01*
X645659Y158412D01*
X645795Y158331D01*
X645933Y158253D01*
X646073Y158179D01*
X646215Y158109D01*
X646358Y158042D01*
X646503Y157979D01*
X646650Y157919D01*
X646798Y157863D01*
X646948Y157811D01*
X647098Y157762D01*
X647250Y157717D01*
X647403Y157676D01*
X647557Y157639D01*
X647712Y157606D01*
X647867Y157576D01*
X648024Y157551D01*
X648180Y157529D01*
X648338Y157512D01*
X648495Y157498D01*
X648653Y157488D01*
X648812Y157482D01*
X648970Y157480D01*
X648970Y191770D02*
X278130Y191770D01*
X648970Y157480D02*
X648970Y135890D01*
X278130Y135890D01*
X278130Y191770D01*
X623570Y311150D02*
X629920Y317500D01*
X623570Y298450D02*
X629920Y292100D01*
X623570Y285750D01*
X623570Y273050D02*
X629920Y266700D01*
X629920Y317500D02*
X668020Y317500D01*
X674370Y311150D01*
X674370Y298450D01*
X668020Y292100D01*
X674370Y285750D01*
X674370Y273050D01*
X668020Y266700D01*
X668020Y292100D02*
X629920Y292100D01*
X629920Y266700D02*
X668020Y266700D01*
X623570Y273050D02*
X623570Y285750D01*
X623570Y298450D02*
X623570Y311150D01*
X629920Y266700D02*
X623570Y260350D01*
X623570Y247650D02*
X629920Y241300D01*
X668020Y266700D02*
X674370Y260350D01*
X674370Y247650D01*
X668020Y241300D01*
X629920Y241300D01*
X623570Y247650D02*
X623570Y260350D01*
D13*
X619765Y252468D02*
X619765Y248655D01*
X619765Y250562D02*
X608325Y250562D01*
X608325Y252468D02*
X608325Y248655D01*
X608325Y262171D02*
X610232Y264077D01*
X608325Y262171D02*
X608325Y258358D01*
X610232Y256451D01*
X617858Y256451D01*
X619765Y258358D01*
X619765Y262171D01*
X617858Y264077D01*
X608325Y273865D02*
X610232Y275771D01*
X608325Y273865D02*
X608325Y270052D01*
X610232Y268145D01*
X612139Y268145D01*
X614045Y270052D01*
X614045Y273865D01*
X615952Y275771D01*
X617858Y275771D01*
X619765Y273865D01*
X619765Y270052D01*
X617858Y268145D01*
X619765Y279839D02*
X608325Y279839D01*
X608325Y285559D01*
X610232Y287465D01*
X614045Y287465D01*
X615952Y285559D01*
X615952Y279839D01*
D15*
X488950Y495300D02*
X476250Y495300D01*
X469900Y501650D01*
X469900Y514350D01*
X476250Y520700D01*
X514350Y495300D02*
X520700Y501650D01*
X514350Y495300D02*
X501650Y495300D01*
X495300Y501650D01*
X495300Y514350D01*
X501650Y520700D01*
X514350Y520700D01*
X520700Y514350D01*
X495300Y501650D02*
X488950Y495300D01*
X495300Y514350D02*
X488950Y520700D01*
X476250Y520700D01*
X552450Y495300D02*
X565150Y495300D01*
X552450Y495300D02*
X546100Y501650D01*
X546100Y514350D01*
X552450Y520700D01*
X546100Y501650D02*
X539750Y495300D01*
X527050Y495300D01*
X520700Y501650D01*
X520700Y514350D01*
X527050Y520700D01*
X539750Y520700D01*
X546100Y514350D01*
X590550Y495300D02*
X596900Y501650D01*
X590550Y495300D02*
X577850Y495300D01*
X571500Y501650D01*
X571500Y514350D01*
X577850Y520700D01*
X590550Y520700D01*
X596900Y514350D01*
X571500Y501650D02*
X565150Y495300D01*
X571500Y514350D02*
X565150Y520700D01*
X552450Y520700D01*
X628650Y495300D02*
X641350Y495300D01*
X628650Y495300D02*
X622300Y501650D01*
X622300Y514350D01*
X628650Y520700D01*
X622300Y501650D02*
X615950Y495300D01*
X603250Y495300D01*
X596900Y501650D01*
X596900Y514350D01*
X603250Y520700D01*
X615950Y520700D01*
X622300Y514350D01*
X647700Y514350D02*
X647700Y501650D01*
X641350Y495300D01*
X647700Y514350D02*
X641350Y520700D01*
X628650Y520700D01*
X463550Y495300D02*
X450850Y495300D01*
X444500Y501650D01*
X444500Y514350D01*
X450850Y520700D01*
X469900Y501650D02*
X463550Y495300D01*
X469900Y514350D02*
X463550Y520700D01*
X450850Y520700D01*
X226060Y501650D02*
X219710Y495300D01*
X207010Y495300D01*
X200660Y501650D01*
X200660Y514350D01*
X207010Y520700D01*
X219710Y520700D01*
X226060Y514350D01*
X257810Y495300D02*
X270510Y495300D01*
X257810Y495300D02*
X251460Y501650D01*
X251460Y514350D01*
X257810Y520700D01*
X251460Y501650D02*
X245110Y495300D01*
X232410Y495300D01*
X226060Y501650D01*
X226060Y514350D01*
X232410Y520700D01*
X245110Y520700D01*
X251460Y514350D01*
X295910Y495300D02*
X302260Y501650D01*
X295910Y495300D02*
X283210Y495300D01*
X276860Y501650D01*
X276860Y514350D01*
X283210Y520700D01*
X295910Y520700D01*
X302260Y514350D01*
X276860Y501650D02*
X270510Y495300D01*
X276860Y514350D02*
X270510Y520700D01*
X257810Y520700D01*
X334010Y495300D02*
X346710Y495300D01*
X334010Y495300D02*
X327660Y501650D01*
X327660Y514350D01*
X334010Y520700D01*
X327660Y501650D02*
X321310Y495300D01*
X308610Y495300D01*
X302260Y501650D01*
X302260Y514350D01*
X308610Y520700D01*
X321310Y520700D01*
X327660Y514350D01*
X372110Y495300D02*
X378460Y501650D01*
X372110Y495300D02*
X359410Y495300D01*
X353060Y501650D01*
X353060Y514350D01*
X359410Y520700D01*
X372110Y520700D01*
X378460Y514350D01*
X353060Y501650D02*
X346710Y495300D01*
X353060Y514350D02*
X346710Y520700D01*
X334010Y520700D01*
X410210Y495300D02*
X422910Y495300D01*
X410210Y495300D02*
X403860Y501650D01*
X403860Y514350D01*
X410210Y520700D01*
X403860Y501650D02*
X397510Y495300D01*
X384810Y495300D01*
X378460Y501650D01*
X378460Y514350D01*
X384810Y520700D01*
X397510Y520700D01*
X403860Y514350D01*
X429260Y514350D02*
X429260Y501650D01*
X422910Y495300D01*
X429260Y514350D02*
X422910Y520700D01*
X410210Y520700D01*
X194310Y495300D02*
X181610Y495300D01*
X175260Y501650D01*
X175260Y514350D01*
X181610Y520700D01*
X200660Y501650D02*
X194310Y495300D01*
X200660Y514350D02*
X194310Y520700D01*
X181610Y520700D01*
X577850Y38100D02*
X590550Y38100D01*
X596900Y31750D01*
X596900Y19050D01*
X590550Y12700D01*
X596900Y31750D02*
X603250Y38100D01*
X615950Y38100D01*
X622300Y31750D01*
X622300Y19050D01*
X615950Y12700D01*
X603250Y12700D01*
X596900Y19050D01*
X552450Y38100D02*
X546100Y31750D01*
X552450Y38100D02*
X565150Y38100D01*
X571500Y31750D01*
X571500Y19050D01*
X565150Y12700D01*
X552450Y12700D01*
X546100Y19050D01*
X571500Y31750D02*
X577850Y38100D01*
X571500Y19050D02*
X577850Y12700D01*
X590550Y12700D01*
X514350Y38100D02*
X501650Y38100D01*
X514350Y38100D02*
X520700Y31750D01*
X520700Y19050D01*
X514350Y12700D01*
X520700Y31750D02*
X527050Y38100D01*
X539750Y38100D01*
X546100Y31750D01*
X546100Y19050D01*
X539750Y12700D01*
X527050Y12700D01*
X520700Y19050D01*
X495300Y19050D02*
X495300Y31750D01*
X501650Y38100D01*
X495300Y19050D02*
X501650Y12700D01*
X514350Y12700D01*
X628650Y38100D02*
X641350Y38100D01*
X647700Y31750D01*
X647700Y19050D01*
X641350Y12700D01*
X622300Y31750D02*
X628650Y38100D01*
X622300Y19050D02*
X628650Y12700D01*
X641350Y12700D01*
D19*
X245770Y58940D02*
X222770Y58940D01*
X222770Y106940D01*
X239770Y123940D01*
X245770Y123940D01*
X264770Y123940D02*
X270770Y123940D01*
X287770Y106940D01*
X287770Y58940D01*
X264770Y58940D01*
X245770Y61940D02*
X245052Y62181D01*
X244339Y62440D01*
X243634Y62716D01*
X242935Y63009D01*
X242243Y63319D01*
X241560Y63646D01*
X240884Y63989D01*
X240217Y64349D01*
X239559Y64725D01*
X238911Y65117D01*
X238272Y65525D01*
X237644Y65948D01*
X237026Y66387D01*
X236419Y66840D01*
X235823Y67309D01*
X235239Y67791D01*
X234667Y68288D01*
X234107Y68799D01*
X233560Y69323D01*
X233025Y69860D01*
X232504Y70411D01*
X231997Y70974D01*
X231504Y71549D01*
X231024Y72136D01*
X230560Y72734D01*
X230110Y73344D01*
X229675Y73965D01*
X229255Y74596D01*
X228851Y75237D01*
X228463Y75887D01*
X228091Y76548D01*
X227735Y77216D01*
X227395Y77894D01*
X227072Y78580D01*
X226766Y79273D01*
X226477Y79973D01*
X226206Y80681D01*
X225951Y81394D01*
X225714Y82114D01*
X225495Y82840D01*
X225294Y83570D01*
X225110Y84305D01*
X224945Y85045D01*
X224798Y85788D01*
X224669Y86535D01*
X224558Y87285D01*
X224465Y88037D01*
X224391Y88791D01*
X224336Y89547D01*
X224299Y90304D01*
X224280Y91061D01*
X224280Y91819D01*
X224299Y92576D01*
X224336Y93333D01*
X224391Y94089D01*
X224465Y94843D01*
X224558Y95595D01*
X224669Y96345D01*
X224798Y97092D01*
X224945Y97835D01*
X225110Y98575D01*
X225294Y99310D01*
X225495Y100040D01*
X225714Y100766D01*
X225951Y101486D01*
X226206Y102199D01*
X226477Y102907D01*
X226766Y103607D01*
X227072Y104300D01*
X227395Y104986D01*
X227735Y105664D01*
X228091Y106332D01*
X228463Y106993D01*
X228851Y107643D01*
X229255Y108284D01*
X229675Y108915D01*
X230110Y109536D01*
X230560Y110146D01*
X231024Y110744D01*
X231504Y111331D01*
X231997Y111906D01*
X232504Y112469D01*
X233025Y113020D01*
X233560Y113557D01*
X234107Y114081D01*
X234667Y114592D01*
X235239Y115089D01*
X235823Y115571D01*
X236419Y116040D01*
X237026Y116493D01*
X237644Y116932D01*
X238272Y117355D01*
X238911Y117763D01*
X239559Y118155D01*
X240217Y118531D01*
X240884Y118891D01*
X241560Y119234D01*
X242243Y119561D01*
X242935Y119871D01*
X243634Y120164D01*
X244339Y120440D01*
X245052Y120699D01*
X245770Y120940D01*
X264770Y120940D02*
X265488Y120699D01*
X266201Y120440D01*
X266906Y120164D01*
X267605Y119871D01*
X268297Y119561D01*
X268980Y119234D01*
X269656Y118891D01*
X270323Y118531D01*
X270981Y118155D01*
X271629Y117763D01*
X272268Y117355D01*
X272896Y116932D01*
X273514Y116493D01*
X274121Y116040D01*
X274717Y115571D01*
X275301Y115089D01*
X275873Y114592D01*
X276433Y114081D01*
X276980Y113557D01*
X277515Y113020D01*
X278036Y112469D01*
X278543Y111906D01*
X279036Y111331D01*
X279516Y110744D01*
X279980Y110146D01*
X280430Y109536D01*
X280865Y108915D01*
X281285Y108284D01*
X281689Y107643D01*
X282077Y106993D01*
X282449Y106332D01*
X282805Y105664D01*
X283145Y104986D01*
X283468Y104300D01*
X283774Y103607D01*
X284063Y102907D01*
X284334Y102199D01*
X284589Y101486D01*
X284826Y100766D01*
X285045Y100040D01*
X285246Y99310D01*
X285430Y98575D01*
X285595Y97835D01*
X285742Y97092D01*
X285871Y96345D01*
X285982Y95595D01*
X286075Y94843D01*
X286149Y94089D01*
X286204Y93333D01*
X286241Y92576D01*
X286260Y91819D01*
X286260Y91061D01*
X286241Y90304D01*
X286204Y89547D01*
X286149Y88791D01*
X286075Y88037D01*
X285982Y87285D01*
X285871Y86535D01*
X285742Y85788D01*
X285595Y85045D01*
X285430Y84305D01*
X285246Y83570D01*
X285045Y82840D01*
X284826Y82114D01*
X284589Y81394D01*
X284334Y80681D01*
X284063Y79973D01*
X283774Y79273D01*
X283468Y78580D01*
X283145Y77894D01*
X282805Y77216D01*
X282449Y76548D01*
X282077Y75887D01*
X281689Y75237D01*
X281285Y74596D01*
X280865Y73965D01*
X280430Y73344D01*
X279980Y72734D01*
X279516Y72136D01*
X279036Y71549D01*
X278543Y70974D01*
X278036Y70411D01*
X277515Y69860D01*
X276980Y69323D01*
X276433Y68799D01*
X275873Y68288D01*
X275301Y67791D01*
X274717Y67309D01*
X274121Y66840D01*
X273514Y66387D01*
X272896Y65948D01*
X272268Y65525D01*
X271629Y65117D01*
X270981Y64725D01*
X270323Y64349D01*
X269656Y63989D01*
X268980Y63646D01*
X268297Y63319D01*
X267605Y63009D01*
X266906Y62716D01*
X266201Y62440D01*
X265488Y62181D01*
X264770Y61940D01*
X174650Y58940D02*
X151650Y58940D01*
X151650Y106940D01*
X168650Y123940D01*
X174650Y123940D01*
X193650Y123940D02*
X199650Y123940D01*
X216650Y106940D01*
X216650Y58940D01*
X193650Y58940D01*
X174650Y61940D02*
X173932Y62181D01*
X173219Y62440D01*
X172514Y62716D01*
X171815Y63009D01*
X171123Y63319D01*
X170440Y63646D01*
X169764Y63989D01*
X169097Y64349D01*
X168439Y64725D01*
X167791Y65117D01*
X167152Y65525D01*
X166524Y65948D01*
X165906Y66387D01*
X165299Y66840D01*
X164703Y67309D01*
X164119Y67791D01*
X163547Y68288D01*
X162987Y68799D01*
X162440Y69323D01*
X161905Y69860D01*
X161384Y70411D01*
X160877Y70974D01*
X160384Y71549D01*
X159904Y72136D01*
X159440Y72734D01*
X158990Y73344D01*
X158555Y73965D01*
X158135Y74596D01*
X157731Y75237D01*
X157343Y75887D01*
X156971Y76548D01*
X156615Y77216D01*
X156275Y77894D01*
X155952Y78580D01*
X155646Y79273D01*
X155357Y79973D01*
X155086Y80681D01*
X154831Y81394D01*
X154594Y82114D01*
X154375Y82840D01*
X154174Y83570D01*
X153990Y84305D01*
X153825Y85045D01*
X153678Y85788D01*
X153549Y86535D01*
X153438Y87285D01*
X153345Y88037D01*
X153271Y88791D01*
X153216Y89547D01*
X153179Y90304D01*
X153160Y91061D01*
X153160Y91819D01*
X153179Y92576D01*
X153216Y93333D01*
X153271Y94089D01*
X153345Y94843D01*
X153438Y95595D01*
X153549Y96345D01*
X153678Y97092D01*
X153825Y97835D01*
X153990Y98575D01*
X154174Y99310D01*
X154375Y100040D01*
X154594Y100766D01*
X154831Y101486D01*
X155086Y102199D01*
X155357Y102907D01*
X155646Y103607D01*
X155952Y104300D01*
X156275Y104986D01*
X156615Y105664D01*
X156971Y106332D01*
X157343Y106993D01*
X157731Y107643D01*
X158135Y108284D01*
X158555Y108915D01*
X158990Y109536D01*
X159440Y110146D01*
X159904Y110744D01*
X160384Y111331D01*
X160877Y111906D01*
X161384Y112469D01*
X161905Y113020D01*
X162440Y113557D01*
X162987Y114081D01*
X163547Y114592D01*
X164119Y115089D01*
X164703Y115571D01*
X165299Y116040D01*
X165906Y116493D01*
X166524Y116932D01*
X167152Y117355D01*
X167791Y117763D01*
X168439Y118155D01*
X169097Y118531D01*
X169764Y118891D01*
X170440Y119234D01*
X171123Y119561D01*
X171815Y119871D01*
X172514Y120164D01*
X173219Y120440D01*
X173932Y120699D01*
X174650Y120940D01*
X193650Y120940D02*
X194368Y120699D01*
X195081Y120440D01*
X195786Y120164D01*
X196485Y119871D01*
X197177Y119561D01*
X197860Y119234D01*
X198536Y118891D01*
X199203Y118531D01*
X199861Y118155D01*
X200509Y117763D01*
X201148Y117355D01*
X201776Y116932D01*
X202394Y116493D01*
X203001Y116040D01*
X203597Y115571D01*
X204181Y115089D01*
X204753Y114592D01*
X205313Y114081D01*
X205860Y113557D01*
X206395Y113020D01*
X206916Y112469D01*
X207423Y111906D01*
X207916Y111331D01*
X208396Y110744D01*
X208860Y110146D01*
X209310Y109536D01*
X209745Y108915D01*
X210165Y108284D01*
X210569Y107643D01*
X210957Y106993D01*
X211329Y106332D01*
X211685Y105664D01*
X212025Y104986D01*
X212348Y104300D01*
X212654Y103607D01*
X212943Y102907D01*
X213214Y102199D01*
X213469Y101486D01*
X213706Y100766D01*
X213925Y100040D01*
X214126Y99310D01*
X214310Y98575D01*
X214475Y97835D01*
X214622Y97092D01*
X214751Y96345D01*
X214862Y95595D01*
X214955Y94843D01*
X215029Y94089D01*
X215084Y93333D01*
X215121Y92576D01*
X215140Y91819D01*
X215140Y91061D01*
X215121Y90304D01*
X215084Y89547D01*
X215029Y88791D01*
X214955Y88037D01*
X214862Y87285D01*
X214751Y86535D01*
X214622Y85788D01*
X214475Y85045D01*
X214310Y84305D01*
X214126Y83570D01*
X213925Y82840D01*
X213706Y82114D01*
X213469Y81394D01*
X213214Y80681D01*
X212943Y79973D01*
X212654Y79273D01*
X212348Y78580D01*
X212025Y77894D01*
X211685Y77216D01*
X211329Y76548D01*
X210957Y75887D01*
X210569Y75237D01*
X210165Y74596D01*
X209745Y73965D01*
X209310Y73344D01*
X208860Y72734D01*
X208396Y72136D01*
X207916Y71549D01*
X207423Y70974D01*
X206916Y70411D01*
X206395Y69860D01*
X205860Y69323D01*
X205313Y68799D01*
X204753Y68288D01*
X204181Y67791D01*
X203597Y67309D01*
X203001Y66840D01*
X202394Y66387D01*
X201776Y65948D01*
X201148Y65525D01*
X200509Y65117D01*
X199861Y64725D01*
X199203Y64349D01*
X198536Y63989D01*
X197860Y63646D01*
X197177Y63319D01*
X196485Y63009D01*
X195786Y62716D01*
X195081Y62440D01*
X194368Y62181D01*
X193650Y61940D01*
D20*
X585700Y371760D03*
X585700Y359760D03*
D21*
X585700Y365760D03*
D16*
X612650Y372628D02*
X616717Y372628D01*
X612650Y372628D02*
X610616Y370595D01*
X610616Y362460D01*
X612650Y360426D01*
X616717Y360426D01*
X618751Y362460D01*
X618751Y370595D01*
X616717Y372628D01*
X623713Y372628D02*
X623713Y360426D01*
X631848Y360426D02*
X623713Y372628D01*
X631848Y372628D02*
X631848Y360426D01*
D20*
X277900Y336900D03*
X277900Y348900D03*
D21*
X277900Y342900D03*
D20*
X277900Y359760D03*
X277900Y371760D03*
D21*
X277900Y365760D03*
D19*
X238506Y8890D02*
X193294Y8890D01*
X193294Y46990D02*
X238506Y46990D01*
D16*
X224200Y27940D02*
X213970Y17940D01*
X224200Y27940D02*
X213970Y37940D01*
X213970Y17940D01*
D13*
X116840Y33020D02*
X116840Y55245D01*
X116840Y33020D02*
X113665Y33020D01*
X116840Y109220D02*
X116840Y122936D01*
X16764Y122936D01*
X-18034Y122936D01*
X-18034Y33020D01*
X59690Y33020D01*
X16764Y33274D02*
X16764Y122936D01*
D11*
X94100Y440000D02*
X-63400Y440000D01*
X-63400Y322000D01*
X94100Y322000D01*
X94100Y440000D01*
D16*
X95250Y206756D02*
X59690Y206756D01*
X95250Y206756D02*
X95250Y141224D01*
X59690Y141224D01*
X59690Y206756D01*
D19*
X113024Y185892D02*
X114210Y184706D01*
X113024Y185892D02*
X113024Y188265D01*
X114210Y189451D01*
X115397Y189451D01*
X116583Y188265D01*
X116583Y187079D01*
X116583Y188265D02*
X117769Y189451D01*
X118956Y189451D01*
X120142Y188265D01*
X120142Y185892D01*
X118956Y184706D01*
X51562Y197107D02*
X44444Y197107D01*
X48003Y193548D01*
X48003Y198293D01*
X113024Y142345D02*
X115397Y139972D01*
X113024Y142345D02*
X120142Y142345D01*
X120142Y144717D02*
X120142Y139972D01*
X120236Y161592D02*
X120236Y166337D01*
X120236Y161592D02*
X115491Y166337D01*
X114304Y166337D01*
X113118Y165151D01*
X113118Y162778D01*
X114304Y161592D01*
D20*
X280900Y427640D03*
X280900Y415640D03*
D21*
X280900Y421640D03*
D16*
X253349Y426984D02*
X253349Y414782D01*
X261484Y414782D01*
D15*
X85090Y279654D02*
X85090Y250698D01*
X77470Y250698D01*
X77470Y279654D01*
X85090Y279654D01*
D13*
X224390Y321710D02*
X224390Y371710D01*
X174390Y371710D01*
X174390Y324885D01*
X177565Y321710D01*
X224390Y321710D01*
X180228Y330710D02*
X180230Y330822D01*
X180236Y330934D01*
X180246Y331046D01*
X180260Y331157D01*
X180278Y331268D01*
X180299Y331378D01*
X180325Y331488D01*
X180355Y331596D01*
X180388Y331703D01*
X180425Y331809D01*
X180466Y331914D01*
X180511Y332017D01*
X180559Y332118D01*
X180611Y332218D01*
X180666Y332315D01*
X180724Y332411D01*
X180786Y332504D01*
X180852Y332596D01*
X180920Y332685D01*
X180992Y332771D01*
X181067Y332855D01*
X181144Y332936D01*
X181225Y333014D01*
X181308Y333090D01*
X181394Y333162D01*
X181482Y333231D01*
X181573Y333297D01*
X181665Y333360D01*
X181761Y333420D01*
X181858Y333476D01*
X181957Y333529D01*
X182058Y333578D01*
X182161Y333623D01*
X182265Y333665D01*
X182370Y333703D01*
X182477Y333737D01*
X182585Y333768D01*
X182694Y333794D01*
X182804Y333817D01*
X182915Y333836D01*
X183026Y333851D01*
X183138Y333862D01*
X183250Y333869D01*
X183362Y333872D01*
X183474Y333871D01*
X183586Y333866D01*
X183698Y333857D01*
X183810Y333844D01*
X183921Y333827D01*
X184031Y333806D01*
X184140Y333782D01*
X184249Y333753D01*
X184356Y333721D01*
X184463Y333684D01*
X184568Y333645D01*
X184671Y333601D01*
X184773Y333554D01*
X184873Y333503D01*
X184971Y333448D01*
X185067Y333391D01*
X185161Y333329D01*
X185253Y333265D01*
X185343Y333197D01*
X185430Y333126D01*
X185514Y333052D01*
X185596Y332975D01*
X185675Y332896D01*
X185751Y332813D01*
X185824Y332728D01*
X185894Y332640D01*
X185961Y332550D01*
X186025Y332458D01*
X186085Y332363D01*
X186142Y332267D01*
X186196Y332168D01*
X186246Y332067D01*
X186292Y331965D01*
X186335Y331861D01*
X186374Y331756D01*
X186409Y331650D01*
X186441Y331542D01*
X186468Y331433D01*
X186492Y331323D01*
X186512Y331213D01*
X186528Y331102D01*
X186540Y330990D01*
X186548Y330878D01*
X186552Y330766D01*
X186552Y330654D01*
X186548Y330542D01*
X186540Y330430D01*
X186528Y330318D01*
X186512Y330207D01*
X186492Y330097D01*
X186468Y329987D01*
X186441Y329878D01*
X186409Y329770D01*
X186374Y329664D01*
X186335Y329559D01*
X186292Y329455D01*
X186246Y329353D01*
X186196Y329252D01*
X186142Y329153D01*
X186085Y329057D01*
X186025Y328962D01*
X185961Y328870D01*
X185894Y328780D01*
X185824Y328692D01*
X185751Y328607D01*
X185675Y328524D01*
X185596Y328445D01*
X185514Y328368D01*
X185430Y328294D01*
X185343Y328223D01*
X185253Y328155D01*
X185161Y328091D01*
X185067Y328029D01*
X184971Y327972D01*
X184873Y327917D01*
X184773Y327866D01*
X184671Y327819D01*
X184568Y327775D01*
X184463Y327736D01*
X184356Y327699D01*
X184249Y327667D01*
X184140Y327638D01*
X184031Y327614D01*
X183921Y327593D01*
X183810Y327576D01*
X183698Y327563D01*
X183586Y327554D01*
X183474Y327549D01*
X183362Y327548D01*
X183250Y327551D01*
X183138Y327558D01*
X183026Y327569D01*
X182915Y327584D01*
X182804Y327603D01*
X182694Y327626D01*
X182585Y327652D01*
X182477Y327683D01*
X182370Y327717D01*
X182265Y327755D01*
X182161Y327797D01*
X182058Y327842D01*
X181957Y327891D01*
X181858Y327944D01*
X181761Y328000D01*
X181665Y328060D01*
X181573Y328123D01*
X181482Y328189D01*
X181394Y328258D01*
X181308Y328330D01*
X181225Y328406D01*
X181144Y328484D01*
X181067Y328565D01*
X180992Y328649D01*
X180920Y328735D01*
X180852Y328824D01*
X180786Y328916D01*
X180724Y329009D01*
X180666Y329105D01*
X180611Y329202D01*
X180559Y329302D01*
X180511Y329403D01*
X180466Y329506D01*
X180425Y329611D01*
X180388Y329717D01*
X180355Y329824D01*
X180325Y329932D01*
X180299Y330042D01*
X180278Y330152D01*
X180260Y330263D01*
X180246Y330374D01*
X180236Y330486D01*
X180230Y330598D01*
X180228Y330710D01*
D22*
X171637Y318548D02*
X174094Y316091D01*
X171637Y318548D02*
X179009Y318548D01*
X179009Y316091D02*
X179009Y321006D01*
D15*
X220980Y481330D02*
X214630Y487680D01*
X201930Y487680D02*
X195580Y481330D01*
X189230Y487680D01*
X176530Y487680D02*
X170180Y481330D01*
X220980Y481330D02*
X220980Y443230D01*
X214630Y436880D01*
X201930Y436880D01*
X195580Y443230D01*
X189230Y436880D01*
X176530Y436880D01*
X170180Y443230D01*
X195580Y443230D02*
X195580Y481330D01*
X170180Y481330D02*
X170180Y443230D01*
X176530Y487680D02*
X189230Y487680D01*
X201930Y487680D02*
X214630Y487680D01*
X170180Y481330D02*
X163830Y487680D01*
X151130Y487680D02*
X144780Y481330D01*
X170180Y443230D02*
X163830Y436880D01*
X151130Y436880D01*
X144780Y443230D01*
X144780Y481330D01*
X151130Y487680D02*
X163830Y487680D01*
D13*
X89200Y450850D02*
X64200Y450850D01*
D23*
X66200Y444600D02*
X86200Y444600D01*
X86200Y457100D02*
X66200Y457100D01*
D24*
X76200Y450850D03*
D15*
X265430Y262890D02*
X293370Y262890D01*
X295910Y280670D02*
X295908Y280770D01*
X295902Y280869D01*
X295892Y280969D01*
X295879Y281067D01*
X295861Y281166D01*
X295840Y281263D01*
X295815Y281359D01*
X295786Y281455D01*
X295753Y281549D01*
X295717Y281642D01*
X295677Y281733D01*
X295633Y281823D01*
X295586Y281911D01*
X295536Y281997D01*
X295482Y282081D01*
X295425Y282163D01*
X295365Y282242D01*
X295301Y282320D01*
X295235Y282394D01*
X295166Y282466D01*
X295094Y282535D01*
X295020Y282601D01*
X294942Y282665D01*
X294863Y282725D01*
X294781Y282782D01*
X294697Y282836D01*
X294611Y282886D01*
X294523Y282933D01*
X294433Y282977D01*
X294342Y283017D01*
X294249Y283053D01*
X294155Y283086D01*
X294059Y283115D01*
X293963Y283140D01*
X293866Y283161D01*
X293767Y283179D01*
X293669Y283192D01*
X293569Y283202D01*
X293470Y283208D01*
X293370Y283210D01*
X265430Y283210D02*
X265330Y283208D01*
X265231Y283202D01*
X265131Y283192D01*
X265033Y283179D01*
X264934Y283161D01*
X264837Y283140D01*
X264741Y283115D01*
X264645Y283086D01*
X264551Y283053D01*
X264458Y283017D01*
X264367Y282977D01*
X264277Y282933D01*
X264189Y282886D01*
X264103Y282836D01*
X264019Y282782D01*
X263937Y282725D01*
X263858Y282665D01*
X263780Y282601D01*
X263706Y282535D01*
X263634Y282466D01*
X263565Y282394D01*
X263499Y282320D01*
X263435Y282242D01*
X263375Y282163D01*
X263318Y282081D01*
X263264Y281997D01*
X263214Y281911D01*
X263167Y281823D01*
X263123Y281733D01*
X263083Y281642D01*
X263047Y281549D01*
X263014Y281455D01*
X262985Y281359D01*
X262960Y281263D01*
X262939Y281166D01*
X262921Y281067D01*
X262908Y280969D01*
X262898Y280869D01*
X262892Y280770D01*
X262890Y280670D01*
X262890Y265430D02*
X262892Y265330D01*
X262898Y265231D01*
X262908Y265131D01*
X262921Y265033D01*
X262939Y264934D01*
X262960Y264837D01*
X262985Y264741D01*
X263014Y264645D01*
X263047Y264551D01*
X263083Y264458D01*
X263123Y264367D01*
X263167Y264277D01*
X263214Y264189D01*
X263264Y264103D01*
X263318Y264019D01*
X263375Y263937D01*
X263435Y263858D01*
X263499Y263780D01*
X263565Y263706D01*
X263634Y263634D01*
X263706Y263565D01*
X263780Y263499D01*
X263858Y263435D01*
X263937Y263375D01*
X264019Y263318D01*
X264103Y263264D01*
X264189Y263214D01*
X264277Y263167D01*
X264367Y263123D01*
X264458Y263083D01*
X264551Y263047D01*
X264645Y263014D01*
X264741Y262985D01*
X264837Y262960D01*
X264934Y262939D01*
X265033Y262921D01*
X265131Y262908D01*
X265231Y262898D01*
X265330Y262892D01*
X265430Y262890D01*
X293370Y262890D02*
X293470Y262892D01*
X293569Y262898D01*
X293669Y262908D01*
X293767Y262921D01*
X293866Y262939D01*
X293963Y262960D01*
X294059Y262985D01*
X294155Y263014D01*
X294249Y263047D01*
X294342Y263083D01*
X294433Y263123D01*
X294523Y263167D01*
X294611Y263214D01*
X294697Y263264D01*
X294781Y263318D01*
X294863Y263375D01*
X294942Y263435D01*
X295020Y263499D01*
X295094Y263565D01*
X295166Y263634D01*
X295235Y263706D01*
X295301Y263780D01*
X295365Y263858D01*
X295425Y263937D01*
X295482Y264019D01*
X295536Y264103D01*
X295586Y264189D01*
X295633Y264277D01*
X295677Y264367D01*
X295717Y264458D01*
X295753Y264551D01*
X295786Y264645D01*
X295815Y264741D01*
X295840Y264837D01*
X295861Y264934D01*
X295879Y265033D01*
X295892Y265131D01*
X295902Y265231D01*
X295908Y265330D01*
X295910Y265430D01*
X295910Y280670D01*
X262890Y280670D02*
X262890Y265430D01*
X265430Y283210D02*
X293370Y283210D01*
D13*
X304165Y278009D02*
X304165Y271145D01*
X304165Y278009D02*
X307597Y278009D01*
X308741Y276865D01*
X308741Y274577D01*
X307597Y273433D01*
X304165Y273433D01*
X306453Y273433D02*
X308741Y271145D01*
X311649Y278009D02*
X316225Y278009D01*
X311649Y278009D02*
X311649Y271145D01*
X316225Y271145D01*
X313937Y274577D02*
X311649Y274577D01*
X322565Y278009D02*
X323709Y276865D01*
X322565Y278009D02*
X320277Y278009D01*
X319133Y276865D01*
X319133Y275721D01*
X320277Y274577D01*
X322565Y274577D01*
X323709Y273433D01*
X323709Y272289D01*
X322565Y271145D01*
X320277Y271145D01*
X319133Y272289D01*
X326617Y278009D02*
X331193Y278009D01*
X326617Y278009D02*
X326617Y271145D01*
X331193Y271145D01*
X328905Y274577D02*
X326617Y274577D01*
X336390Y271145D02*
X336390Y278009D01*
X334102Y278009D02*
X338678Y278009D01*
X341586Y274577D02*
X346162Y274577D01*
X349070Y278009D02*
X353646Y278009D01*
X349070Y278009D02*
X349070Y271145D01*
X353646Y271145D01*
X351358Y274577D02*
X349070Y274577D01*
X356554Y271145D02*
X356554Y278009D01*
X361130Y271145D01*
X361130Y278009D01*
D15*
X220980Y392430D02*
X214630Y386080D01*
X220980Y405130D02*
X214630Y411480D01*
X220980Y417830D01*
X220980Y430530D02*
X214630Y436880D01*
X214630Y386080D02*
X176530Y386080D01*
X170180Y392430D01*
X170180Y405130D01*
X176530Y411480D01*
X170180Y417830D01*
X170180Y430530D01*
X176530Y436880D01*
X176530Y411480D02*
X214630Y411480D01*
X214630Y436880D02*
X176530Y436880D01*
X220980Y430530D02*
X220980Y417830D01*
X220980Y405130D02*
X220980Y392430D01*
X203510Y219440D02*
X177510Y219440D01*
X177510Y186940D02*
X203510Y186940D01*
X174260Y216190D02*
X174262Y216301D01*
X174268Y216412D01*
X174277Y216522D01*
X174290Y216633D01*
X174307Y216742D01*
X174328Y216851D01*
X174352Y216959D01*
X174381Y217067D01*
X174412Y217173D01*
X174448Y217278D01*
X174487Y217382D01*
X174529Y217485D01*
X174575Y217586D01*
X174624Y217685D01*
X174677Y217783D01*
X174733Y217879D01*
X174792Y217972D01*
X174855Y218064D01*
X174920Y218154D01*
X174989Y218241D01*
X175060Y218326D01*
X175135Y218408D01*
X175212Y218488D01*
X175292Y218565D01*
X175374Y218640D01*
X175459Y218711D01*
X175546Y218780D01*
X175636Y218845D01*
X175728Y218908D01*
X175821Y218967D01*
X175917Y219023D01*
X176015Y219076D01*
X176114Y219125D01*
X176215Y219171D01*
X176318Y219213D01*
X176422Y219252D01*
X176527Y219288D01*
X176633Y219319D01*
X176741Y219348D01*
X176849Y219372D01*
X176958Y219393D01*
X177067Y219410D01*
X177178Y219423D01*
X177288Y219432D01*
X177399Y219438D01*
X177510Y219440D01*
X174260Y190190D02*
X174262Y190079D01*
X174268Y189968D01*
X174277Y189858D01*
X174290Y189747D01*
X174307Y189638D01*
X174328Y189529D01*
X174352Y189421D01*
X174381Y189313D01*
X174412Y189207D01*
X174448Y189102D01*
X174487Y188998D01*
X174529Y188895D01*
X174575Y188794D01*
X174624Y188695D01*
X174677Y188597D01*
X174733Y188501D01*
X174792Y188408D01*
X174855Y188316D01*
X174920Y188226D01*
X174989Y188139D01*
X175060Y188054D01*
X175135Y187972D01*
X175212Y187892D01*
X175292Y187815D01*
X175374Y187740D01*
X175459Y187669D01*
X175546Y187600D01*
X175636Y187535D01*
X175728Y187472D01*
X175821Y187413D01*
X175917Y187357D01*
X176015Y187304D01*
X176114Y187255D01*
X176215Y187209D01*
X176318Y187167D01*
X176422Y187128D01*
X176527Y187092D01*
X176633Y187061D01*
X176741Y187032D01*
X176849Y187008D01*
X176958Y186987D01*
X177067Y186970D01*
X177178Y186957D01*
X177288Y186948D01*
X177399Y186942D01*
X177510Y186940D01*
X203510Y186940D02*
X203621Y186942D01*
X203732Y186948D01*
X203842Y186957D01*
X203953Y186970D01*
X204062Y186987D01*
X204171Y187008D01*
X204279Y187032D01*
X204387Y187061D01*
X204493Y187092D01*
X204598Y187128D01*
X204702Y187167D01*
X204805Y187209D01*
X204906Y187255D01*
X205005Y187304D01*
X205103Y187357D01*
X205199Y187413D01*
X205292Y187472D01*
X205384Y187535D01*
X205474Y187600D01*
X205561Y187669D01*
X205646Y187740D01*
X205728Y187815D01*
X205808Y187892D01*
X205885Y187972D01*
X205960Y188054D01*
X206031Y188139D01*
X206100Y188226D01*
X206165Y188316D01*
X206228Y188408D01*
X206287Y188501D01*
X206343Y188597D01*
X206396Y188695D01*
X206445Y188794D01*
X206491Y188895D01*
X206533Y188998D01*
X206572Y189102D01*
X206608Y189207D01*
X206639Y189313D01*
X206668Y189421D01*
X206692Y189529D01*
X206713Y189638D01*
X206730Y189747D01*
X206743Y189858D01*
X206752Y189968D01*
X206758Y190079D01*
X206760Y190190D01*
X206760Y216190D02*
X206758Y216301D01*
X206752Y216412D01*
X206743Y216522D01*
X206730Y216633D01*
X206713Y216742D01*
X206692Y216851D01*
X206668Y216959D01*
X206639Y217067D01*
X206608Y217173D01*
X206572Y217278D01*
X206533Y217382D01*
X206491Y217485D01*
X206445Y217586D01*
X206396Y217685D01*
X206343Y217783D01*
X206287Y217879D01*
X206228Y217972D01*
X206165Y218064D01*
X206100Y218154D01*
X206031Y218241D01*
X205960Y218326D01*
X205885Y218408D01*
X205808Y218488D01*
X205728Y218565D01*
X205646Y218640D01*
X205561Y218711D01*
X205474Y218780D01*
X205384Y218845D01*
X205292Y218908D01*
X205199Y218967D01*
X205103Y219023D01*
X205005Y219076D01*
X204906Y219125D01*
X204805Y219171D01*
X204702Y219213D01*
X204598Y219252D01*
X204493Y219288D01*
X204387Y219319D01*
X204279Y219348D01*
X204171Y219372D01*
X204062Y219393D01*
X203953Y219410D01*
X203842Y219423D01*
X203732Y219432D01*
X203621Y219438D01*
X203510Y219440D01*
X206760Y191160D02*
X206760Y189790D01*
X206760Y195730D02*
X206760Y197660D01*
X206760Y202230D02*
X206760Y204160D01*
X206760Y208730D02*
X206760Y210660D01*
X206760Y215230D02*
X206760Y216190D01*
X174260Y191160D02*
X174260Y190190D01*
X174260Y195730D02*
X174260Y197660D01*
X174260Y202230D02*
X174260Y204160D01*
X174260Y208730D02*
X174260Y210660D01*
X174260Y215230D02*
X174260Y216190D01*
D25*
X193406Y193744D02*
X193408Y193885D01*
X193414Y194026D01*
X193424Y194166D01*
X193438Y194306D01*
X193456Y194446D01*
X193477Y194585D01*
X193503Y194724D01*
X193532Y194862D01*
X193566Y194998D01*
X193603Y195134D01*
X193644Y195269D01*
X193689Y195403D01*
X193738Y195535D01*
X193790Y195666D01*
X193846Y195795D01*
X193906Y195922D01*
X193969Y196048D01*
X194035Y196172D01*
X194106Y196295D01*
X194179Y196415D01*
X194256Y196533D01*
X194336Y196649D01*
X194420Y196762D01*
X194506Y196873D01*
X194596Y196982D01*
X194689Y197088D01*
X194784Y197191D01*
X194883Y197292D01*
X194984Y197390D01*
X195088Y197485D01*
X195195Y197577D01*
X195304Y197666D01*
X195416Y197751D01*
X195530Y197834D01*
X195646Y197914D01*
X195765Y197990D01*
X195886Y198062D01*
X196008Y198132D01*
X196133Y198197D01*
X196259Y198260D01*
X196387Y198318D01*
X196517Y198373D01*
X196648Y198425D01*
X196781Y198472D01*
X196915Y198516D01*
X197050Y198557D01*
X197186Y198593D01*
X197323Y198625D01*
X197461Y198654D01*
X197599Y198679D01*
X197739Y198699D01*
X197879Y198716D01*
X198019Y198729D01*
X198160Y198738D01*
X198300Y198743D01*
X198441Y198744D01*
X198582Y198741D01*
X198723Y198734D01*
X198863Y198723D01*
X199003Y198708D01*
X199143Y198689D01*
X199282Y198667D01*
X199420Y198640D01*
X199558Y198610D01*
X199694Y198575D01*
X199830Y198537D01*
X199964Y198495D01*
X200098Y198449D01*
X200230Y198400D01*
X200360Y198346D01*
X200489Y198289D01*
X200616Y198229D01*
X200742Y198165D01*
X200865Y198097D01*
X200987Y198026D01*
X201107Y197952D01*
X201224Y197874D01*
X201339Y197793D01*
X201452Y197709D01*
X201563Y197622D01*
X201671Y197531D01*
X201776Y197438D01*
X201879Y197341D01*
X201979Y197242D01*
X202076Y197140D01*
X202170Y197035D01*
X202261Y196928D01*
X202349Y196818D01*
X202434Y196706D01*
X202516Y196591D01*
X202595Y196474D01*
X202670Y196355D01*
X202742Y196234D01*
X202810Y196111D01*
X202875Y195986D01*
X202937Y195859D01*
X202994Y195730D01*
X203049Y195600D01*
X203099Y195469D01*
X203146Y195336D01*
X203189Y195202D01*
X203228Y195066D01*
X203263Y194930D01*
X203295Y194793D01*
X203322Y194655D01*
X203346Y194516D01*
X203366Y194376D01*
X203382Y194236D01*
X203394Y194096D01*
X203402Y193955D01*
X203406Y193814D01*
X203406Y193674D01*
X203402Y193533D01*
X203394Y193392D01*
X203382Y193252D01*
X203366Y193112D01*
X203346Y192972D01*
X203322Y192833D01*
X203295Y192695D01*
X203263Y192558D01*
X203228Y192422D01*
X203189Y192286D01*
X203146Y192152D01*
X203099Y192019D01*
X203049Y191888D01*
X202994Y191758D01*
X202937Y191629D01*
X202875Y191502D01*
X202810Y191377D01*
X202742Y191254D01*
X202670Y191133D01*
X202595Y191014D01*
X202516Y190897D01*
X202434Y190782D01*
X202349Y190670D01*
X202261Y190560D01*
X202170Y190453D01*
X202076Y190348D01*
X201979Y190246D01*
X201879Y190147D01*
X201776Y190050D01*
X201671Y189957D01*
X201563Y189866D01*
X201452Y189779D01*
X201339Y189695D01*
X201224Y189614D01*
X201107Y189536D01*
X200987Y189462D01*
X200865Y189391D01*
X200742Y189323D01*
X200616Y189259D01*
X200489Y189199D01*
X200360Y189142D01*
X200230Y189088D01*
X200098Y189039D01*
X199964Y188993D01*
X199830Y188951D01*
X199694Y188913D01*
X199558Y188878D01*
X199420Y188848D01*
X199282Y188821D01*
X199143Y188799D01*
X199003Y188780D01*
X198863Y188765D01*
X198723Y188754D01*
X198582Y188747D01*
X198441Y188744D01*
X198300Y188745D01*
X198160Y188750D01*
X198019Y188759D01*
X197879Y188772D01*
X197739Y188789D01*
X197599Y188809D01*
X197461Y188834D01*
X197323Y188863D01*
X197186Y188895D01*
X197050Y188931D01*
X196915Y188972D01*
X196781Y189016D01*
X196648Y189063D01*
X196517Y189115D01*
X196387Y189170D01*
X196259Y189228D01*
X196133Y189291D01*
X196008Y189356D01*
X195886Y189426D01*
X195765Y189498D01*
X195646Y189574D01*
X195530Y189654D01*
X195416Y189737D01*
X195304Y189822D01*
X195195Y189911D01*
X195088Y190003D01*
X194984Y190098D01*
X194883Y190196D01*
X194784Y190297D01*
X194689Y190400D01*
X194596Y190506D01*
X194506Y190615D01*
X194420Y190726D01*
X194336Y190839D01*
X194256Y190955D01*
X194179Y191073D01*
X194106Y191193D01*
X194035Y191316D01*
X193969Y191440D01*
X193906Y191566D01*
X193846Y191693D01*
X193790Y191822D01*
X193738Y191953D01*
X193689Y192085D01*
X193644Y192219D01*
X193603Y192354D01*
X193566Y192490D01*
X193532Y192626D01*
X193503Y192764D01*
X193477Y192903D01*
X193456Y193042D01*
X193438Y193182D01*
X193424Y193322D01*
X193414Y193462D01*
X193408Y193603D01*
X193406Y193744D01*
D13*
X92000Y474030D02*
X92000Y514030D01*
X35000Y514030D02*
X35000Y499030D01*
X35000Y489030D02*
X35000Y474030D01*
X35000Y499030D02*
X32500Y499030D01*
X32500Y489030D01*
X35000Y489030D01*
X53500Y512030D02*
X73500Y512030D01*
X73500Y514030D01*
X73500Y516030D01*
X53500Y516030D01*
X53500Y514030D01*
X53500Y512030D01*
X53500Y472030D02*
X73500Y472030D01*
X73500Y474030D01*
X73500Y476030D01*
X53500Y476030D01*
X53500Y474030D01*
X53500Y472030D01*
X53500Y514030D02*
X35000Y514030D01*
X73500Y514030D02*
X92000Y514030D01*
X92000Y474030D02*
X73500Y474030D01*
X53500Y474030D02*
X35000Y474030D01*
X48500Y494030D02*
X48505Y494398D01*
X48518Y494766D01*
X48541Y495133D01*
X48572Y495500D01*
X48613Y495866D01*
X48662Y496231D01*
X48721Y496594D01*
X48788Y496956D01*
X48864Y497317D01*
X48950Y497675D01*
X49043Y498031D01*
X49146Y498384D01*
X49257Y498735D01*
X49377Y499083D01*
X49505Y499428D01*
X49642Y499770D01*
X49787Y500109D01*
X49940Y500443D01*
X50102Y500774D01*
X50271Y501101D01*
X50449Y501423D01*
X50634Y501742D01*
X50827Y502055D01*
X51028Y502364D01*
X51236Y502667D01*
X51452Y502965D01*
X51675Y503258D01*
X51905Y503546D01*
X52142Y503828D01*
X52386Y504103D01*
X52636Y504373D01*
X52893Y504637D01*
X53157Y504894D01*
X53427Y505144D01*
X53702Y505388D01*
X53984Y505625D01*
X54272Y505855D01*
X54565Y506078D01*
X54863Y506294D01*
X55166Y506502D01*
X55475Y506703D01*
X55788Y506896D01*
X56107Y507081D01*
X56429Y507259D01*
X56756Y507428D01*
X57087Y507590D01*
X57421Y507743D01*
X57760Y507888D01*
X58102Y508025D01*
X58447Y508153D01*
X58795Y508273D01*
X59146Y508384D01*
X59499Y508487D01*
X59855Y508580D01*
X60213Y508666D01*
X60574Y508742D01*
X60936Y508809D01*
X61299Y508868D01*
X61664Y508917D01*
X62030Y508958D01*
X62397Y508989D01*
X62764Y509012D01*
X63132Y509025D01*
X63500Y509030D01*
X63868Y509025D01*
X64236Y509012D01*
X64603Y508989D01*
X64970Y508958D01*
X65336Y508917D01*
X65701Y508868D01*
X66064Y508809D01*
X66426Y508742D01*
X66787Y508666D01*
X67145Y508580D01*
X67501Y508487D01*
X67854Y508384D01*
X68205Y508273D01*
X68553Y508153D01*
X68898Y508025D01*
X69240Y507888D01*
X69579Y507743D01*
X69913Y507590D01*
X70244Y507428D01*
X70571Y507259D01*
X70893Y507081D01*
X71212Y506896D01*
X71525Y506703D01*
X71834Y506502D01*
X72137Y506294D01*
X72435Y506078D01*
X72728Y505855D01*
X73016Y505625D01*
X73298Y505388D01*
X73573Y505144D01*
X73843Y504894D01*
X74107Y504637D01*
X74364Y504373D01*
X74614Y504103D01*
X74858Y503828D01*
X75095Y503546D01*
X75325Y503258D01*
X75548Y502965D01*
X75764Y502667D01*
X75972Y502364D01*
X76173Y502055D01*
X76366Y501742D01*
X76551Y501423D01*
X76729Y501101D01*
X76898Y500774D01*
X77060Y500443D01*
X77213Y500109D01*
X77358Y499770D01*
X77495Y499428D01*
X77623Y499083D01*
X77743Y498735D01*
X77854Y498384D01*
X77957Y498031D01*
X78050Y497675D01*
X78136Y497317D01*
X78212Y496956D01*
X78279Y496594D01*
X78338Y496231D01*
X78387Y495866D01*
X78428Y495500D01*
X78459Y495133D01*
X78482Y494766D01*
X78495Y494398D01*
X78500Y494030D01*
X78495Y493662D01*
X78482Y493294D01*
X78459Y492927D01*
X78428Y492560D01*
X78387Y492194D01*
X78338Y491829D01*
X78279Y491466D01*
X78212Y491104D01*
X78136Y490743D01*
X78050Y490385D01*
X77957Y490029D01*
X77854Y489676D01*
X77743Y489325D01*
X77623Y488977D01*
X77495Y488632D01*
X77358Y488290D01*
X77213Y487951D01*
X77060Y487617D01*
X76898Y487286D01*
X76729Y486959D01*
X76551Y486637D01*
X76366Y486318D01*
X76173Y486005D01*
X75972Y485696D01*
X75764Y485393D01*
X75548Y485095D01*
X75325Y484802D01*
X75095Y484514D01*
X74858Y484232D01*
X74614Y483957D01*
X74364Y483687D01*
X74107Y483423D01*
X73843Y483166D01*
X73573Y482916D01*
X73298Y482672D01*
X73016Y482435D01*
X72728Y482205D01*
X72435Y481982D01*
X72137Y481766D01*
X71834Y481558D01*
X71525Y481357D01*
X71212Y481164D01*
X70893Y480979D01*
X70571Y480801D01*
X70244Y480632D01*
X69913Y480470D01*
X69579Y480317D01*
X69240Y480172D01*
X68898Y480035D01*
X68553Y479907D01*
X68205Y479787D01*
X67854Y479676D01*
X67501Y479573D01*
X67145Y479480D01*
X66787Y479394D01*
X66426Y479318D01*
X66064Y479251D01*
X65701Y479192D01*
X65336Y479143D01*
X64970Y479102D01*
X64603Y479071D01*
X64236Y479048D01*
X63868Y479035D01*
X63500Y479030D01*
X63132Y479035D01*
X62764Y479048D01*
X62397Y479071D01*
X62030Y479102D01*
X61664Y479143D01*
X61299Y479192D01*
X60936Y479251D01*
X60574Y479318D01*
X60213Y479394D01*
X59855Y479480D01*
X59499Y479573D01*
X59146Y479676D01*
X58795Y479787D01*
X58447Y479907D01*
X58102Y480035D01*
X57760Y480172D01*
X57421Y480317D01*
X57087Y480470D01*
X56756Y480632D01*
X56429Y480801D01*
X56107Y480979D01*
X55788Y481164D01*
X55475Y481357D01*
X55166Y481558D01*
X54863Y481766D01*
X54565Y481982D01*
X54272Y482205D01*
X53984Y482435D01*
X53702Y482672D01*
X53427Y482916D01*
X53157Y483166D01*
X52893Y483423D01*
X52636Y483687D01*
X52386Y483957D01*
X52142Y484232D01*
X51905Y484514D01*
X51675Y484802D01*
X51452Y485095D01*
X51236Y485393D01*
X51028Y485696D01*
X50827Y486005D01*
X50634Y486318D01*
X50449Y486637D01*
X50271Y486959D01*
X50102Y487286D01*
X49940Y487617D01*
X49787Y487951D01*
X49642Y488290D01*
X49505Y488632D01*
X49377Y488977D01*
X49257Y489325D01*
X49146Y489676D01*
X49043Y490029D01*
X48950Y490385D01*
X48864Y490743D01*
X48788Y491104D01*
X48721Y491466D01*
X48662Y491829D01*
X48613Y492194D01*
X48572Y492560D01*
X48541Y492927D01*
X48518Y493294D01*
X48505Y493662D01*
X48500Y494030D01*
X51500Y494030D02*
X51504Y494324D01*
X51514Y494619D01*
X51533Y494913D01*
X51558Y495206D01*
X51590Y495499D01*
X51630Y495791D01*
X51677Y496082D01*
X51731Y496371D01*
X51792Y496659D01*
X51860Y496946D01*
X51935Y497231D01*
X52017Y497513D01*
X52106Y497794D01*
X52201Y498073D01*
X52304Y498349D01*
X52413Y498622D01*
X52529Y498893D01*
X52652Y499161D01*
X52781Y499425D01*
X52917Y499687D01*
X53059Y499945D01*
X53207Y500199D01*
X53362Y500450D01*
X53522Y500697D01*
X53689Y500940D01*
X53862Y501178D01*
X54040Y501413D01*
X54224Y501643D01*
X54413Y501868D01*
X54609Y502089D01*
X54809Y502304D01*
X55015Y502515D01*
X55226Y502721D01*
X55441Y502921D01*
X55662Y503117D01*
X55887Y503306D01*
X56117Y503490D01*
X56352Y503668D01*
X56590Y503841D01*
X56833Y504008D01*
X57080Y504168D01*
X57331Y504323D01*
X57585Y504471D01*
X57843Y504613D01*
X58105Y504749D01*
X58369Y504878D01*
X58637Y505001D01*
X58908Y505117D01*
X59181Y505226D01*
X59457Y505329D01*
X59736Y505424D01*
X60017Y505513D01*
X60299Y505595D01*
X60584Y505670D01*
X60871Y505738D01*
X61159Y505799D01*
X61448Y505853D01*
X61739Y505900D01*
X62031Y505940D01*
X62324Y505972D01*
X62617Y505997D01*
X62911Y506016D01*
X63206Y506026D01*
X63500Y506030D01*
X63794Y506026D01*
X64089Y506016D01*
X64383Y505997D01*
X64676Y505972D01*
X64969Y505940D01*
X65261Y505900D01*
X65552Y505853D01*
X65841Y505799D01*
X66129Y505738D01*
X66416Y505670D01*
X66701Y505595D01*
X66983Y505513D01*
X67264Y505424D01*
X67543Y505329D01*
X67819Y505226D01*
X68092Y505117D01*
X68363Y505001D01*
X68631Y504878D01*
X68895Y504749D01*
X69157Y504613D01*
X69415Y504471D01*
X69669Y504323D01*
X69920Y504168D01*
X70167Y504008D01*
X70410Y503841D01*
X70648Y503668D01*
X70883Y503490D01*
X71113Y503306D01*
X71338Y503117D01*
X71559Y502921D01*
X71774Y502721D01*
X71985Y502515D01*
X72191Y502304D01*
X72391Y502089D01*
X72587Y501868D01*
X72776Y501643D01*
X72960Y501413D01*
X73138Y501178D01*
X73311Y500940D01*
X73478Y500697D01*
X73638Y500450D01*
X73793Y500199D01*
X73941Y499945D01*
X74083Y499687D01*
X74219Y499425D01*
X74348Y499161D01*
X74471Y498893D01*
X74587Y498622D01*
X74696Y498349D01*
X74799Y498073D01*
X74894Y497794D01*
X74983Y497513D01*
X75065Y497231D01*
X75140Y496946D01*
X75208Y496659D01*
X75269Y496371D01*
X75323Y496082D01*
X75370Y495791D01*
X75410Y495499D01*
X75442Y495206D01*
X75467Y494913D01*
X75486Y494619D01*
X75496Y494324D01*
X75500Y494030D01*
X75496Y493736D01*
X75486Y493441D01*
X75467Y493147D01*
X75442Y492854D01*
X75410Y492561D01*
X75370Y492269D01*
X75323Y491978D01*
X75269Y491689D01*
X75208Y491401D01*
X75140Y491114D01*
X75065Y490829D01*
X74983Y490547D01*
X74894Y490266D01*
X74799Y489987D01*
X74696Y489711D01*
X74587Y489438D01*
X74471Y489167D01*
X74348Y488899D01*
X74219Y488635D01*
X74083Y488373D01*
X73941Y488115D01*
X73793Y487861D01*
X73638Y487610D01*
X73478Y487363D01*
X73311Y487120D01*
X73138Y486882D01*
X72960Y486647D01*
X72776Y486417D01*
X72587Y486192D01*
X72391Y485971D01*
X72191Y485756D01*
X71985Y485545D01*
X71774Y485339D01*
X71559Y485139D01*
X71338Y484943D01*
X71113Y484754D01*
X70883Y484570D01*
X70648Y484392D01*
X70410Y484219D01*
X70167Y484052D01*
X69920Y483892D01*
X69669Y483737D01*
X69415Y483589D01*
X69157Y483447D01*
X68895Y483311D01*
X68631Y483182D01*
X68363Y483059D01*
X68092Y482943D01*
X67819Y482834D01*
X67543Y482731D01*
X67264Y482636D01*
X66983Y482547D01*
X66701Y482465D01*
X66416Y482390D01*
X66129Y482322D01*
X65841Y482261D01*
X65552Y482207D01*
X65261Y482160D01*
X64969Y482120D01*
X64676Y482088D01*
X64383Y482063D01*
X64089Y482044D01*
X63794Y482034D01*
X63500Y482030D01*
X63206Y482034D01*
X62911Y482044D01*
X62617Y482063D01*
X62324Y482088D01*
X62031Y482120D01*
X61739Y482160D01*
X61448Y482207D01*
X61159Y482261D01*
X60871Y482322D01*
X60584Y482390D01*
X60299Y482465D01*
X60017Y482547D01*
X59736Y482636D01*
X59457Y482731D01*
X59181Y482834D01*
X58908Y482943D01*
X58637Y483059D01*
X58369Y483182D01*
X58105Y483311D01*
X57843Y483447D01*
X57585Y483589D01*
X57331Y483737D01*
X57080Y483892D01*
X56833Y484052D01*
X56590Y484219D01*
X56352Y484392D01*
X56117Y484570D01*
X55887Y484754D01*
X55662Y484943D01*
X55441Y485139D01*
X55226Y485339D01*
X55015Y485545D01*
X54809Y485756D01*
X54609Y485971D01*
X54413Y486192D01*
X54224Y486417D01*
X54040Y486647D01*
X53862Y486882D01*
X53689Y487120D01*
X53522Y487363D01*
X53362Y487610D01*
X53207Y487861D01*
X53059Y488115D01*
X52917Y488373D01*
X52781Y488635D01*
X52652Y488899D01*
X52529Y489167D01*
X52413Y489438D01*
X52304Y489711D01*
X52201Y489987D01*
X52106Y490266D01*
X52017Y490547D01*
X51935Y490829D01*
X51860Y491114D01*
X51792Y491401D01*
X51731Y491689D01*
X51677Y491978D01*
X51630Y492269D01*
X51590Y492561D01*
X51558Y492854D01*
X51533Y493147D01*
X51514Y493441D01*
X51504Y493736D01*
X51500Y494030D01*
D19*
X34008Y468852D02*
X34008Y457158D01*
X34008Y468852D02*
X39855Y468852D01*
X41804Y466903D01*
X41804Y463005D01*
X39855Y461056D01*
X34008Y461056D01*
X37906Y461056D02*
X41804Y457158D01*
X45702Y468852D02*
X53498Y468852D01*
X45702Y468852D02*
X45702Y457158D01*
X53498Y457158D01*
X49600Y463005D02*
X45702Y463005D01*
X63243Y468852D02*
X65192Y466903D01*
X63243Y468852D02*
X59345Y468852D01*
X57396Y466903D01*
X57396Y464954D01*
X59345Y463005D01*
X63243Y463005D01*
X65192Y461056D01*
X65192Y459107D01*
X63243Y457158D01*
X59345Y457158D01*
X57396Y459107D01*
X69090Y468852D02*
X76886Y468852D01*
X69090Y468852D02*
X69090Y457158D01*
X76886Y457158D01*
X72988Y463005D02*
X69090Y463005D01*
X84682Y457158D02*
X84682Y468852D01*
X80784Y468852D02*
X88580Y468852D01*
D26*
X396750Y256920D02*
X396750Y240920D01*
X428750Y240920D02*
X428750Y256920D01*
D15*
X227810Y138180D02*
X211610Y138180D01*
X211610Y166620D02*
X227810Y166620D01*
X227810Y157620D02*
X227810Y147180D01*
X211610Y156680D02*
X211610Y157620D01*
X211610Y148120D02*
X211610Y147180D01*
X211610Y165680D02*
X211610Y166620D01*
X211610Y139120D02*
X211610Y138180D01*
X227810Y138180D02*
X227810Y139120D01*
X227810Y165680D02*
X227810Y166620D01*
X425450Y38100D02*
X438150Y38100D01*
X444500Y31750D01*
X444500Y19050D01*
X438150Y12700D01*
X400050Y38100D02*
X393700Y31750D01*
X400050Y38100D02*
X412750Y38100D01*
X419100Y31750D01*
X419100Y19050D01*
X412750Y12700D01*
X400050Y12700D01*
X393700Y19050D01*
X419100Y31750D02*
X425450Y38100D01*
X419100Y19050D02*
X425450Y12700D01*
X438150Y12700D01*
X361950Y38100D02*
X349250Y38100D01*
X361950Y38100D02*
X368300Y31750D01*
X368300Y19050D01*
X361950Y12700D01*
X368300Y31750D02*
X374650Y38100D01*
X387350Y38100D01*
X393700Y31750D01*
X393700Y19050D01*
X387350Y12700D01*
X374650Y12700D01*
X368300Y19050D01*
X323850Y38100D02*
X317500Y31750D01*
X323850Y38100D02*
X336550Y38100D01*
X342900Y31750D01*
X342900Y19050D01*
X336550Y12700D01*
X323850Y12700D01*
X317500Y19050D01*
X342900Y31750D02*
X349250Y38100D01*
X342900Y19050D02*
X349250Y12700D01*
X361950Y12700D01*
X285750Y38100D02*
X273050Y38100D01*
X285750Y38100D02*
X292100Y31750D01*
X292100Y19050D01*
X285750Y12700D01*
X292100Y31750D02*
X298450Y38100D01*
X311150Y38100D01*
X317500Y31750D01*
X317500Y19050D01*
X311150Y12700D01*
X298450Y12700D01*
X292100Y19050D01*
X266700Y19050D02*
X266700Y31750D01*
X273050Y38100D01*
X266700Y19050D02*
X273050Y12700D01*
X285750Y12700D01*
X450850Y38100D02*
X463550Y38100D01*
X469900Y31750D01*
X469900Y19050D01*
X463550Y12700D01*
X444500Y31750D02*
X450850Y38100D01*
X444500Y19050D02*
X450850Y12700D01*
X463550Y12700D01*
D13*
X394843Y68453D02*
X394843Y79893D01*
X400563Y79893D01*
X402470Y77986D01*
X402470Y74173D01*
X400563Y72266D01*
X394843Y72266D01*
X408444Y79893D02*
X412257Y79893D01*
X408444Y79893D02*
X406537Y77986D01*
X406537Y70360D01*
X408444Y68453D01*
X412257Y68453D01*
X414163Y70360D01*
X414163Y77986D01*
X412257Y79893D01*
X418231Y79893D02*
X418231Y68453D01*
X422044Y72266D01*
X425857Y68453D01*
X425857Y79893D01*
X429925Y79893D02*
X437551Y79893D01*
X429925Y79893D02*
X429925Y68453D01*
X437551Y68453D01*
X433738Y74173D02*
X429925Y74173D01*
X441619Y68453D02*
X441619Y79893D01*
X447339Y79893D01*
X449245Y77986D01*
X449245Y74173D01*
X447339Y72266D01*
X441619Y72266D01*
X445432Y72266D02*
X449245Y68453D01*
D16*
X599360Y274400D02*
X594360Y284400D01*
X589360Y274400D01*
X599360Y274400D01*
D27*
X594360Y284988D03*
D16*
X130810Y457280D02*
X125810Y467280D01*
X135810Y467280D02*
X130810Y457280D01*
X135810Y467280D02*
X125810Y467280D01*
D27*
X130810Y456692D03*
D15*
X154940Y284480D02*
X223520Y284480D01*
X223520Y238760D02*
X154940Y238760D01*
D25*
X154940Y279400D02*
X223520Y279400D01*
X223520Y243840D02*
X154940Y243840D01*
X154507Y243845D01*
X154074Y243861D01*
X153642Y243887D01*
X153211Y243924D01*
X152780Y243972D01*
X152351Y244029D01*
X151924Y244098D01*
X151498Y244176D01*
X151074Y244265D01*
X150653Y244365D01*
X150234Y244474D01*
X149818Y244594D01*
X149405Y244724D01*
X148995Y244863D01*
X148588Y245013D01*
X148186Y245173D01*
X147787Y245342D01*
X147393Y245521D01*
X147003Y245710D01*
X146618Y245908D01*
X146238Y246115D01*
X145863Y246331D01*
X145494Y246557D01*
X145130Y246792D01*
X144771Y247035D01*
X144419Y247287D01*
X144073Y247547D01*
X143734Y247816D01*
X143401Y248093D01*
X143075Y248378D01*
X142756Y248671D01*
X142444Y248971D01*
X142140Y249279D01*
X141843Y249595D01*
X141554Y249917D01*
X141273Y250247D01*
X141001Y250583D01*
X140736Y250925D01*
X140480Y251275D01*
X140232Y251630D01*
X139993Y251991D01*
X139763Y252358D01*
X139542Y252730D01*
X139330Y253108D01*
X139127Y253490D01*
X138934Y253878D01*
X138750Y254270D01*
X138576Y254666D01*
X138412Y255067D01*
X138257Y255471D01*
X138112Y255879D01*
X137977Y256291D01*
X137853Y256705D01*
X137738Y257123D01*
X137634Y257543D01*
X137540Y257966D01*
X137456Y258390D01*
X137382Y258817D01*
X137319Y259246D01*
X137267Y259675D01*
X137225Y260106D01*
X137193Y260538D01*
X137172Y260971D01*
X137161Y261404D01*
X137161Y261836D01*
X137172Y262269D01*
X137193Y262702D01*
X137225Y263134D01*
X137267Y263565D01*
X137319Y263994D01*
X137382Y264423D01*
X137456Y264850D01*
X137540Y265274D01*
X137634Y265697D01*
X137738Y266117D01*
X137853Y266535D01*
X137977Y266949D01*
X138112Y267361D01*
X138257Y267769D01*
X138412Y268173D01*
X138576Y268574D01*
X138750Y268970D01*
X138934Y269362D01*
X139127Y269750D01*
X139330Y270132D01*
X139542Y270510D01*
X139763Y270882D01*
X139993Y271249D01*
X140232Y271610D01*
X140480Y271965D01*
X140736Y272315D01*
X141001Y272657D01*
X141273Y272993D01*
X141554Y273323D01*
X141843Y273645D01*
X142140Y273961D01*
X142444Y274269D01*
X142756Y274569D01*
X143075Y274862D01*
X143401Y275147D01*
X143734Y275424D01*
X144073Y275693D01*
X144419Y275953D01*
X144771Y276205D01*
X145130Y276448D01*
X145494Y276683D01*
X145863Y276909D01*
X146238Y277125D01*
X146618Y277332D01*
X147003Y277530D01*
X147393Y277719D01*
X147787Y277898D01*
X148186Y278067D01*
X148588Y278227D01*
X148995Y278377D01*
X149405Y278516D01*
X149818Y278646D01*
X150234Y278766D01*
X150653Y278875D01*
X151074Y278975D01*
X151498Y279064D01*
X151924Y279142D01*
X152351Y279211D01*
X152780Y279268D01*
X153211Y279316D01*
X153642Y279353D01*
X154074Y279379D01*
X154507Y279395D01*
X154940Y279400D01*
D15*
X154940Y284480D02*
X154383Y284473D01*
X153827Y284453D01*
X153271Y284419D01*
X152717Y284372D01*
X152163Y284311D01*
X151612Y284236D01*
X151062Y284149D01*
X150514Y284048D01*
X149970Y283933D01*
X149428Y283805D01*
X148889Y283665D01*
X148354Y283511D01*
X147823Y283344D01*
X147296Y283164D01*
X146774Y282972D01*
X146256Y282766D01*
X145744Y282549D01*
X145237Y282319D01*
X144736Y282076D01*
X144241Y281822D01*
X143752Y281555D01*
X143270Y281277D01*
X142795Y280987D01*
X142327Y280685D01*
X141866Y280372D01*
X141413Y280048D01*
X140969Y279714D01*
X140532Y279368D01*
X140104Y279012D01*
X139685Y278645D01*
X139275Y278269D01*
X138874Y277883D01*
X138483Y277487D01*
X138102Y277081D01*
X137730Y276666D01*
X137369Y276243D01*
X137018Y275811D01*
X136678Y275370D01*
X136348Y274921D01*
X136030Y274465D01*
X135723Y274000D01*
X135427Y273529D01*
X135143Y273050D01*
X134870Y272565D01*
X134610Y272073D01*
X134361Y271574D01*
X134125Y271070D01*
X133901Y270561D01*
X133689Y270046D01*
X133491Y269526D01*
X133304Y269001D01*
X133131Y268472D01*
X132971Y267939D01*
X132823Y267402D01*
X132689Y266862D01*
X132568Y266318D01*
X132460Y265772D01*
X132366Y265224D01*
X132285Y264673D01*
X132217Y264120D01*
X132163Y263566D01*
X132122Y263011D01*
X132095Y262455D01*
X132082Y261898D01*
X132082Y261342D01*
X132095Y260785D01*
X132122Y260229D01*
X132163Y259674D01*
X132217Y259120D01*
X132285Y258567D01*
X132366Y258016D01*
X132460Y257468D01*
X132568Y256922D01*
X132689Y256378D01*
X132823Y255838D01*
X132971Y255301D01*
X133131Y254768D01*
X133304Y254239D01*
X133491Y253714D01*
X133689Y253194D01*
X133901Y252679D01*
X134125Y252170D01*
X134361Y251666D01*
X134610Y251167D01*
X134870Y250675D01*
X135143Y250190D01*
X135427Y249711D01*
X135723Y249240D01*
X136030Y248775D01*
X136348Y248319D01*
X136678Y247870D01*
X137018Y247429D01*
X137369Y246997D01*
X137730Y246574D01*
X138102Y246159D01*
X138483Y245753D01*
X138874Y245357D01*
X139275Y244971D01*
X139685Y244595D01*
X140104Y244228D01*
X140532Y243872D01*
X140969Y243526D01*
X141413Y243192D01*
X141866Y242868D01*
X142327Y242555D01*
X142795Y242253D01*
X143270Y241963D01*
X143752Y241685D01*
X144241Y241418D01*
X144736Y241164D01*
X145237Y240921D01*
X145744Y240691D01*
X146256Y240474D01*
X146774Y240268D01*
X147296Y240076D01*
X147823Y239896D01*
X148354Y239729D01*
X148889Y239575D01*
X149428Y239435D01*
X149970Y239307D01*
X150514Y239192D01*
X151062Y239091D01*
X151612Y239004D01*
X152163Y238929D01*
X152717Y238868D01*
X153271Y238821D01*
X153827Y238787D01*
X154383Y238767D01*
X154940Y238760D01*
X223520Y238760D02*
X224077Y238767D01*
X224633Y238787D01*
X225189Y238821D01*
X225743Y238868D01*
X226297Y238929D01*
X226848Y239004D01*
X227398Y239091D01*
X227946Y239192D01*
X228490Y239307D01*
X229032Y239435D01*
X229571Y239575D01*
X230106Y239729D01*
X230637Y239896D01*
X231164Y240076D01*
X231686Y240268D01*
X232204Y240474D01*
X232716Y240691D01*
X233223Y240921D01*
X233724Y241164D01*
X234219Y241418D01*
X234708Y241685D01*
X235190Y241963D01*
X235665Y242253D01*
X236133Y242555D01*
X236594Y242868D01*
X237047Y243192D01*
X237491Y243526D01*
X237928Y243872D01*
X238356Y244228D01*
X238775Y244595D01*
X239185Y244971D01*
X239586Y245357D01*
X239977Y245753D01*
X240358Y246159D01*
X240730Y246574D01*
X241091Y246997D01*
X241442Y247429D01*
X241782Y247870D01*
X242112Y248319D01*
X242430Y248775D01*
X242737Y249240D01*
X243033Y249711D01*
X243317Y250190D01*
X243590Y250675D01*
X243850Y251167D01*
X244099Y251666D01*
X244335Y252170D01*
X244559Y252679D01*
X244771Y253194D01*
X244969Y253714D01*
X245156Y254239D01*
X245329Y254768D01*
X245489Y255301D01*
X245637Y255838D01*
X245771Y256378D01*
X245892Y256922D01*
X246000Y257468D01*
X246094Y258016D01*
X246175Y258567D01*
X246243Y259120D01*
X246297Y259674D01*
X246338Y260229D01*
X246365Y260785D01*
X246378Y261342D01*
X246378Y261898D01*
X246365Y262455D01*
X246338Y263011D01*
X246297Y263566D01*
X246243Y264120D01*
X246175Y264673D01*
X246094Y265224D01*
X246000Y265772D01*
X245892Y266318D01*
X245771Y266862D01*
X245637Y267402D01*
X245489Y267939D01*
X245329Y268472D01*
X245156Y269001D01*
X244969Y269526D01*
X244771Y270046D01*
X244559Y270561D01*
X244335Y271070D01*
X244099Y271574D01*
X243850Y272073D01*
X243590Y272565D01*
X243317Y273050D01*
X243033Y273529D01*
X242737Y274000D01*
X242430Y274465D01*
X242112Y274921D01*
X241782Y275370D01*
X241442Y275811D01*
X241091Y276243D01*
X240730Y276666D01*
X240358Y277081D01*
X239977Y277487D01*
X239586Y277883D01*
X239185Y278269D01*
X238775Y278645D01*
X238356Y279012D01*
X237928Y279368D01*
X237491Y279714D01*
X237047Y280048D01*
X236594Y280372D01*
X236133Y280685D01*
X235665Y280987D01*
X235190Y281277D01*
X234708Y281555D01*
X234219Y281822D01*
X233724Y282076D01*
X233223Y282319D01*
X232716Y282549D01*
X232204Y282766D01*
X231686Y282972D01*
X231164Y283164D01*
X230637Y283344D01*
X230106Y283511D01*
X229571Y283665D01*
X229032Y283805D01*
X228490Y283933D01*
X227946Y284048D01*
X227398Y284149D01*
X226848Y284236D01*
X226297Y284311D01*
X225743Y284372D01*
X225189Y284419D01*
X224633Y284453D01*
X224077Y284473D01*
X223520Y284480D01*
D25*
X223520Y279400D02*
X223953Y279395D01*
X224386Y279379D01*
X224818Y279353D01*
X225249Y279316D01*
X225680Y279268D01*
X226109Y279211D01*
X226536Y279142D01*
X226962Y279064D01*
X227386Y278975D01*
X227807Y278875D01*
X228226Y278766D01*
X228642Y278646D01*
X229055Y278516D01*
X229465Y278377D01*
X229872Y278227D01*
X230274Y278067D01*
X230673Y277898D01*
X231067Y277719D01*
X231457Y277530D01*
X231842Y277332D01*
X232222Y277125D01*
X232597Y276909D01*
X232966Y276683D01*
X233330Y276448D01*
X233689Y276205D01*
X234041Y275953D01*
X234387Y275693D01*
X234726Y275424D01*
X235059Y275147D01*
X235385Y274862D01*
X235704Y274569D01*
X236016Y274269D01*
X236320Y273961D01*
X236617Y273645D01*
X236906Y273323D01*
X237187Y272993D01*
X237459Y272657D01*
X237724Y272315D01*
X237980Y271965D01*
X238228Y271610D01*
X238467Y271249D01*
X238697Y270882D01*
X238918Y270510D01*
X239130Y270132D01*
X239333Y269750D01*
X239526Y269362D01*
X239710Y268970D01*
X239884Y268574D01*
X240048Y268173D01*
X240203Y267769D01*
X240348Y267361D01*
X240483Y266949D01*
X240607Y266535D01*
X240722Y266117D01*
X240826Y265697D01*
X240920Y265274D01*
X241004Y264850D01*
X241078Y264423D01*
X241141Y263994D01*
X241193Y263565D01*
X241235Y263134D01*
X241267Y262702D01*
X241288Y262269D01*
X241299Y261836D01*
X241299Y261404D01*
X241288Y260971D01*
X241267Y260538D01*
X241235Y260106D01*
X241193Y259675D01*
X241141Y259246D01*
X241078Y258817D01*
X241004Y258390D01*
X240920Y257966D01*
X240826Y257543D01*
X240722Y257123D01*
X240607Y256705D01*
X240483Y256291D01*
X240348Y255879D01*
X240203Y255471D01*
X240048Y255067D01*
X239884Y254666D01*
X239710Y254270D01*
X239526Y253878D01*
X239333Y253490D01*
X239130Y253108D01*
X238918Y252730D01*
X238697Y252358D01*
X238467Y251991D01*
X238228Y251630D01*
X237980Y251275D01*
X237724Y250925D01*
X237459Y250583D01*
X237187Y250247D01*
X236906Y249917D01*
X236617Y249595D01*
X236320Y249279D01*
X236016Y248971D01*
X235704Y248671D01*
X235385Y248378D01*
X235059Y248093D01*
X234726Y247816D01*
X234387Y247547D01*
X234041Y247287D01*
X233689Y247035D01*
X233330Y246792D01*
X232966Y246557D01*
X232597Y246331D01*
X232222Y246115D01*
X231842Y245908D01*
X231457Y245710D01*
X231067Y245521D01*
X230673Y245342D01*
X230274Y245173D01*
X229872Y245013D01*
X229465Y244863D01*
X229055Y244724D01*
X228642Y244594D01*
X228226Y244474D01*
X227807Y244365D01*
X227386Y244265D01*
X226962Y244176D01*
X226536Y244098D01*
X226109Y244029D01*
X225680Y243972D01*
X225249Y243924D01*
X224818Y243887D01*
X224386Y243861D01*
X223953Y243845D01*
X223520Y243840D01*
D13*
X378160Y81280D02*
X403160Y81280D01*
D23*
X401160Y87530D02*
X381160Y87530D01*
X381160Y75030D02*
X401160Y75030D01*
D24*
X391160Y81280D03*
D25*
X372364Y71252D02*
X372364Y65659D01*
X376093Y65659D01*
X377977Y65659D02*
X381706Y65659D01*
X377977Y65659D02*
X381706Y69388D01*
X381706Y70320D01*
X380773Y71252D01*
X378909Y71252D01*
X377977Y70320D01*
D19*
X471175Y96022D02*
X473124Y94073D01*
X471175Y96022D02*
X467277Y96022D01*
X465328Y94073D01*
X465328Y86277D01*
X467277Y84328D01*
X471175Y84328D01*
X473124Y86277D01*
X477022Y92124D02*
X480920Y96022D01*
X480920Y84328D01*
X477022Y84328D02*
X484818Y84328D01*
X488716Y86277D02*
X488716Y94073D01*
X490665Y96022D01*
X494563Y96022D01*
X496512Y94073D01*
X496512Y86277D01*
X494563Y84328D01*
X490665Y84328D01*
X488716Y86277D01*
X496512Y94073D01*
M02*
